<?xml version="1.0" encoding="UTF-8" standalone="no"?>
<!-- Created with Inkscape (http://www.inkscape.org/) -->

<svg
   width="427"
   height="509.60941"
   viewBox="0 0 112.97708 134.83416"
   version="1.1"
   id="svg229"
   inkscape:version="1.1 (c68e22c387, 2021-05-23)"
   sodipodi:docname="cawcoas.svg"
   xmlns:inkscape="http://www.inkscape.org/namespaces/inkscape"
   xmlns:sodipodi="http://sodipodi.sourceforge.net/DTD/sodipodi-0.dtd"
   xmlns="http://www.w3.org/2000/svg"
   xmlns:svg="http://www.w3.org/2000/svg">
  <sodipodi:namedview
     id="namedview231"
     pagecolor="#ffffff"
     bordercolor="#666666"
     borderopacity="1.0"
     inkscape:pageshadow="2"
     inkscape:pageopacity="0.0"
     inkscape:pagecheckerboard="0"
     inkscape:document-units="mm"
     showgrid="false"
     fit-margin-left="5"
     units="px"
     fit-margin-top="5"
     fit-margin-right="5"
     fit-margin-bottom="5"
     inkscape:zoom="0.80978434"
     inkscape:cx="324.16038"
     inkscape:cy="403.19377"
     inkscape:window-width="1920"
     inkscape:window-height="1001"
     inkscape:window-x="-9"
     inkscape:window-y="-9"
     inkscape:window-maximized="1"
     inkscape:current-layer="layer1"
     lock-margins="true" />
  <defs
     id="defs226" />
  <g
     inkscape:label="Layer 1"
     inkscape:groupmode="layer"
     id="layer1"
     transform="translate(48.455675,-166.19076)">
    <path
       id="path26962"
       style="fill:#113bc5;fill-opacity:1;stroke-width:0.804159;stroke-miterlimit:4;stroke-dasharray:none"
       d="m -47.132758,167.51368 v 36.77709 A 110.33145,110.33145 0 0 0 8.068003,299.702 110.33145,110.33145 0 0 0 63.198488,204.29077 v -36.77709 z m 1.5875,1.90221 H 61.610988 v 0.0305 H -45.545258 Z m 0,0.29508 H 61.610988 v 0.79375 H -45.545258 Z m 0,1.05833 H 61.610988 v 0.79375 H 12.055874 c -1.341532,-0.19815 -2.6865178,-0.33435 -4.0230103,-0.33435 -1.336495,0 -2.6819965,0.1362 -4.0235266,0.33435 H -45.545258 Z m 0,1.05833 H 2.5034849 c -1.0252736,0.2081 -2.03510884,0.47406 -3.03391091,0.79375 H -45.545258 Z m 59.106982,0 h 48.049264 v 0.79375 H 16.596164 c -0.998847,-0.31971 -2.009124,-0.58564 -3.03444,-0.79375 z m -5.8446034,1.00046 c 2.5447014,-0.026 5.1121834,0.30801 7.5189214,0.99477 3.83912,1.09549 7.64803,3.17333 10.735262,5.92264 3.06687,2.73117 5.756743,6.35258 7.537005,10.30531 1.766824,3.92289 2.873299,8.52908 3.033409,13.08292 0.106539,3.0303 -0.178155,6.23289 -0.829924,9.36945 -0.31377,-0.25063 -0.643001,-0.48129 -0.963766,-0.72346 0.235233,-1.57741 0.371742,-3.16482 0.407209,-4.75062 -0.172135,1.50736 -0.435729,2.99944 -0.785481,4.46691 -0.255056,-0.18818 -0.501542,-0.38818 -0.760677,-0.57051 0.241802,-1.85329 0.342542,-3.71811 0.299725,-5.57278 -0.127109,1.77258 -0.387049,3.52973 -0.768945,5.25342 -0.276035,-0.18855 -0.552726,-0.37576 -0.833025,-0.55707 0.117747,-1.06561 0.187883,-2.13376 0.208256,-3.20032 -0.11974,1.01568 -0.285012,2.02434 -0.491961,3.02204 -0.215913,-0.13705 -0.430247,-0.27733 -0.648539,-0.4098 -0.148865,-0.0903 -0.305726,-0.17272 -0.456303,-0.26148 0.284546,-2.00491 0.400704,-4.00759 0.334865,-5.88026 -0.1338,-3.8056 -1.108125,-7.84993 -2.569869,-11.09545 -1.4483,-3.21568 -3.76945,-6.33437 -6.231146,-8.52661 -2.441324,-2.1741 -5.66656,-3.92923 -8.668203,-4.78575 -2.98999,-0.85319 -6.5644894,-1.01669 -9.6061314,-0.44545 -3.0497145,0.57276 -6.3908992,2.02118 -8.9798206,3.94756 -1.6275579,1.21105 -3.2285252,2.78552 -4.6105762,4.53616 -0.4792398,-0.0335 -0.9554898,-0.0513 -1.4309198,-0.0662 0.58719,-0.8907 1.229466,-1.7489 1.9249498,-2.56522 -0.826135,0.79414 -1.6014438,1.64768 -2.3218248,2.54972 -0.360971,-0.007 -0.718185,-2.7e-4 -1.075901,0.004 1.013592,-1.63999 2.205804,-3.18187 3.5563699,-4.5837 -1.5768109,1.35354 -3.0055079,2.89767 -4.2498699,4.59042 -0.323294,0.0104 -0.645689,0.0319 -0.968401,0.0532 0.897546,-1.56344 1.946486,-3.04878 3.133143,-4.42764 -1.39446,1.35185 -2.653718,2.85308 -3.757401,4.47105 -0.436245,0.0373 -0.87257,0.0797 -1.306883,0.13229 2.051103,-3.51012 4.855686,-6.6383 7.9483478,-8.93951 3.2899878,-2.44805 7.24796923,-4.16744 11.1621012,-4.90254 1.4708294,-0.27623 2.9891805,-0.4216 4.5160036,-0.43718 z m -53.2623786,0.0579 h 44.1187412 c -0.6665384,0.23774 -1.3200592,0.50691 -1.9652456,0.79375 H -45.545258 Z m 63.037492,0 h 44.118754 v 0.79375 H 19.45749 c -0.645197,-0.28683 -1.298713,-0.55601 -1.965256,-0.79375 z m -63.037492,1.05833 h 41.5783443 c -0.1580091,0.0746 -0.3200929,0.1415 -0.4764616,0.21911 -0.3435879,0.1705 -0.6716713,0.38881 -1.0107877,0.57464 h -40.091095 z m 65.577904,0 h 41.578342 v 0.79375 H 21.519896 c -0.339135,-0.18583 -0.667221,-0.40414 -1.010793,-0.57464 -0.156382,-0.0776 -0.31845,-0.14446 -0.476457,-0.21911 z m -65.577904,1.05833 h 39.6260104 c -0.4622535,0.26449 -0.9335294,0.50195 -1.384935,0.79375 H -45.545258 Z m 67.530241,0 h 39.626005 v 0.79375 H 23.36991 c -0.451406,-0.2918 -0.922679,-0.52926 -1.384927,-0.79375 z m -67.530241,1.05834 h 37.8757123 c -0.3736446,0.24949 -0.7321815,0.52634 -1.0965656,0.79375 H -45.545258 Z m 69.280521,0 h 37.875725 v 0.79375 H 24.831839 c -0.364387,-0.26741 -0.722934,-0.54426 -1.096576,-0.79375 z m -69.280521,1.05833 h 36.4132808 c -0.3481652,0.26348 -0.7006166,0.51452 -1.0387008,0.79375 h -35.37458 z m 70.742965,0 h 36.413281 v 0.79375 H 26.236403 c -0.33809,-0.27923 -0.690525,-0.53027 -1.038696,-0.79375 z m -70.742965,1.05833 h 35.081051 c -0.300831,0.25498 -0.587904,0.52675 -0.879528,0.79375 h -34.201523 z m 72.075182,0 h 35.081064 v 0.79375 H 27.409457 c -0.291624,-0.267 -0.578686,-0.53877 -0.879533,-0.79375 z m -72.075182,1.05834 h 33.907994 c -0.285459,0.26816 -0.588089,0.51444 -0.863494,0.79375 h -33.0445 z m 73.248239,0 h 33.908007 v 0.79375 H 28.566493 c -0.27541,-0.27931 -0.578051,-0.52559 -0.863512,-0.79375 z m -19.6701173,0.4594 c 1.043305,0 2.1548993,0.13672 3.2706023,0.33435 H 4.7622619 c 0.3622304,-0.0641 0.72576,-0.15009 1.0846884,-0.19431 0.7465854,-0.092 1.4813915,-0.14004 2.1859134,-0.14004 z m -53.5781217,0.59893 h 32.795421 c -0.251909,0.26161 -0.504269,0.52312 -0.746733,0.79375 h -32.048688 z m 48.9479135,0 h 9.2593815 c 0.862733,0.21056 1.698959,0.48364 2.509925,0.79375 H 0.89274126 c 0.16621124,-0.0636 0.31585954,-0.14402 0.48521934,-0.20361 0.6569948,-0.23113 1.3386753,-0.42278 2.0246949,-0.59014 z m 25.4129195,0 h 32.795413 v 0.79375 h -32.04869 c -0.242459,-0.27063 -0.494827,-0.53214 -0.746723,-0.79375 z m -74.360833,1.05833 h 31.819241 c -0.227833,0.26037 -0.44958,0.52565 -0.668179,0.79375 h -31.151062 z m 45.80702094,0 H 15.802933 c 0.313287,0.13313 0.645705,0.24774 0.942059,0.39481 0.231987,0.11512 0.465918,0.26966 0.699183,0.39894 H -1.378442 c 0.2332566,-0.12928 0.4672012,-0.28382 0.69918787,-0.39894 0.29612166,-0.14695 0.62801499,-0.26172 0.94101707,-0.39481 z m 29.52997906,0 h 31.819246 v 0.79375 h -31.15107 c -0.218583,-0.2681 -0.440333,-0.53338 -0.668176,-0.79375 z m -75.337,1.05834 h 30.928336 c -0.0061,0.008 -0.0127,0.0147 -0.01852,0.0222 -0.194098,0.24437 -0.363643,0.51848 -0.550862,0.77153 h -30.358874 z m 43.703266,0 h 19.749704 c 0.417372,0.24695 0.827719,0.50823 1.240753,0.79375 H -3.0827291 c 0.4129881,-0.28549 0.8234098,-0.54683 1.2407371,-0.79375 z m 32.524636,0 h 30.928344 v 0.79375 H 31.252117 c -0.187214,-0.25305 -0.356772,-0.52717 -0.55087,-0.77153 -0.006,-0.008 -0.01259,-0.0147 -0.0186,-0.0222 z m -76.227902,1.05833 h 30.170252 c -0.190183,0.26316 -0.383275,0.52246 -0.566367,0.79375 h -29.603885 z m 42.0925091,0 H 19.51795 c 0.357507,0.25788 0.711515,0.51206 1.058849,0.79375 H -4.5115849 c 0.3472921,-0.28165 0.7013839,-0.53591 1.058836,-0.79375 z m 34.8934849,0 h 30.170252 v 0.79375 H 32.007111 c -0.183092,-0.27129 -0.376206,-0.53059 -0.566375,-0.79375 z m -76.985994,1.05833 h 29.414734 c -0.172191,0.26086 -0.33737,0.52648 -0.503317,0.79375 h -28.911417 z m 40.7287673,0 H 20.881692 c 0.309337,0.25957 0.618514,0.51877 0.914672,0.79375 H -5.7311553 c 0.2961481,-0.27498 0.6053402,-0.53418 0.9146646,-0.79375 z m 37.0127367,0 h 29.414742 v 0.79375 H 32.699573 c -0.165965,-0.26727 -0.331123,-0.53289 -0.503327,-0.79375 z m -77.741504,1.05834 h 28.756372 c -0.159227,0.26141 -0.313108,0.52713 -0.46662,0.79375 h -28.289752 z m 39.522135,0 h 28.111458 c 0.266459,0.25576 0.505462,0.52809 0.75706,0.79375 H -6.7796726 c 0.2515658,-0.26561 0.4901406,-0.53803 0.7565496,-0.79375 z m 38.877726,0 h 28.756385 v 0.79375 H 33.321241 c -0.153517,-0.26662 -0.307403,-0.53234 -0.466638,-0.79375 z m -78.399861,1.05833 h 28.134204 c -0.14433,0.25524 -0.304641,0.49631 -0.443918,0.75551 -0.05776,0.0102 -0.111839,0.0278 -0.169492,0.0382 h -27.520794 z m 38.513411,0 h 30.129424 c 0.148643,0.16219 0.315243,0.31465 0.457335,0.47956 -0.06142,0.008 -0.123637,0.006 -0.185002,0.0139 -0.562075,0.072 -1.132067,0.20077 -1.698604,0.30024 H -5.6060868 c -0.5664464,-0.0994 -1.1360943,-0.22827 -1.6980958,-0.30024 -0.061383,-0.008 -0.1235604,-0.006 -0.1849967,-0.0139 0.1421078,-0.16493 0.308663,-0.31734 0.4573323,-0.47956 z m 40.508634,0 h 28.134201 v 0.79375 H 34.090186 c -0.05765,-0.0104 -0.111736,-0.0281 -0.169497,-0.0382 -0.139279,-0.2592 -0.29959,-0.50027 -0.443902,-0.75551 z m -79.022045,1.05833 h 26.346203 c -0.622459,0.13461 -1.25529,0.2497 -1.858301,0.41858 -0.406215,0.11377 -0.807509,0.24448 -1.208696,0.37517 h -23.279206 z m 41.4357075,0 H 20.174757 c -1.003522,0.21779 -2.004446,0.4932 -3.00395,0.79375 H -1.1056037 c -0.9993842,-0.30051 -2.000541,-0.57598 -3.0039468,-0.79375 z m 39.3743435,0 h 26.346195 v 0.79375 h -23.2792 c -0.401209,-0.13069 -0.802484,-0.2614 -1.208712,-0.37517 -0.602985,-0.16888 -1.235824,-0.28397 -1.858283,-0.41858 z m -47.500465,0.75396 c 3.3379305,-0.0343 6.8158783,0.41013 10.1012096,1.35134 2.9149145,0.83509 5.8726016,2.09541 8.6542402,3.68453 -0.335325,0.22096 -0.6560264,0.46275 -0.9854697,0.69298 -1.4275144,-0.71117 -2.8952692,-1.33141 -4.3924881,-1.85518 1.3803895,0.62951 2.7178635,1.34141 4.0054318,2.12752 -0.2577941,0.18442 -0.5237401,0.35662 -0.7772135,0.54673 -1.6878644,-0.80267 -3.43030704,-1.47419 -5.20743389,-2.00659 1.64655498,0.66864 3.23705269,1.458 4.75836449,2.35386 -0.2646204,0.20425 -0.527976,0.41008 -0.7870322,0.62063 -0.9770718,-0.44127 -1.971585,-0.83804 -2.97967397,-1.18701 0.92897857,0.42774 1.83741217,0.89634 2.72232697,1.40147 -0.1970616,0.16299 -0.3967056,0.32374 -0.5901452,0.49041 -0.1319265,0.11366 -0.2586937,0.23717 -0.389636,0.35295 -1.8188516,-0.89017 -3.6877095,-1.6192 -5.4890722,-2.13527 -3.6606956,-1.04875 -7.8082243,-1.37223 -11.3466033,-0.98495 -3.505835,0.38371 -7.189364,1.62801 -10.035037,3.29178 -2.822099,1.65001 -5.487352,4.1744 -7.229528,6.76445 -1.735375,2.58 -2.99593,5.92912 -3.392567,8.99841 -0.397668,3.07744 -0.05228,6.70265 0.979779,9.76013 0.648838,1.92214 1.65137,3.93185 2.889223,5.78725 -0.17989,0.44543 -0.344302,0.89242 -0.50538,1.33997 -0.665639,-0.83369 -1.282885,-1.7094 -1.844331,-2.6231 0.500009,1.0311 1.071615,2.03184 1.70688,2.99568 -0.118507,0.34106 -0.221827,0.68282 -0.328666,1.02423 -1.246505,-1.47077 -2.34442,-3.08102 -3.260275,-4.79867 0.800021,1.91789 1.82716,3.75408 3.052524,5.46065 -0.08996,0.31069 -0.169624,0.62391 -0.249078,0.93741 -1.209569,-1.33676 -2.298012,-2.79339 -3.242681,-4.34806 0.854763,1.74395 1.893517,3.40561 3.09126,4.95526 -0.09933,0.42642 -0.193808,0.85432 -0.277998,1.28364 -2.704518,-3.0354 -4.812718,-6.66894 -6.045623,-10.32134 -1.311566,-3.88547 -1.72429,-8.18131 -1.213882,-12.13104 0.511439,-3.95788 2.014881,-7.95097 4.24987,-11.27373 2.228215,-3.31269 5.381069,-6.29278 8.949822,-8.37933 3.545205,-2.07279 7.820607,-3.51207 12.130008,-3.98374 1.069234,-0.11703 2.166249,-0.18185 3.278875,-0.19327 z m 36.957439,0.14521 c 0.258355,0.36028 0.508344,0.73303 0.752409,1.11208 -1.015111,0.11861 -2.022541,0.28293 -3.017904,0.49403 1.061043,-0.1259 2.126141,-0.19803 3.189986,-0.22014 0.186037,0.29662 0.366316,0.59865 0.54157,0.90381 -1.616691,0.15951 -3.215909,0.44079 -4.777488,0.8413 -0.09972,0.0256 -0.198729,0.0511 -0.298172,0.0775 0.101496,-0.0169 0.202771,-0.0331 0.304374,-0.0491 1.672246,-0.26368 3.360176,-0.3914 5.041037,-0.38447 0.154313,0.28213 0.305623,0.56572 0.449067,0.85266 -1.355442,0.10761 -2.700126,0.30476 -4.020426,0.58963 1.403607,-0.1603 2.814249,-0.22054 4.216797,-0.18449 0.178157,0.37287 0.352621,0.74691 0.509529,1.12396 -1.904341,0.0136 -3.837149,0.20189 -5.663737,0.5793 -3.705722,0.76566 -7.765177,2.39057 -11.136788,4.55321 -1.807266,1.15922 -3.6083826,2.58309 -5.2849493,4.1584 -0.1942226,0.0104 -0.3888263,0.0205 -0.5823928,0.0336 -0.3935757,0.0266 -0.7882573,0.0694 -1.1828727,0.10697 0.9624959,-1.07528 1.9881585,-2.09931 3.0726803,-3.06286 -1.3157571,0.95618 -2.5740863,2.00106 -3.7646266,3.12487 -0.380111,0.0423 -0.760386,0.0992 -1.1405076,0.15141 1.5962418,-1.91527 3.3829519,-3.68739 5.3324971,-5.2772 -2.3433907,1.56713 -4.5284813,3.39794 -6.50349001,5.4498 -0.29442833,0.0483 -0.58779833,0.1025 -0.88159166,0.15658 1.57268327,-2.04367 3.34804277,-3.94623 5.29890557,-5.66787 -2.3485739,1.71771 -4.52248578,3.69772 -6.4698985,5.89731 -0.4754562,0.10019 -0.9508595,0.20042 -1.4226381,0.31523 0.00344,-0.005 0.00688,-0.01 0.010319,-0.0145 2.94510348,-3.8527 6.7132543,-7.29385 10.6613773,-9.82627 3.967583,-2.54491 8.533445,-4.37381 12.923242,-5.28082 1.265057,-0.26138 2.552573,-0.43958 3.843692,-0.55397 z m -70.267025,0.15917 h 22.501463 c -0.66212,0.23545 -1.303338,0.51482 -1.946645,0.79375 h -20.554818 z m 45.3558799,0 H 16.2551 c -0.715465,0.23385 -1.417886,0.51852 -2.122868,0.79375 H 1.9335063 c -0.7049823,-0.27523 -1.40742462,-0.5599 -2.1228844,-0.79375 z m 39.2988981,0 h 22.501468 v 0.79375 H 41.056171 c -0.643303,-0.27893 -1.284531,-0.5583 -1.946651,-0.79375 z m -4.256072,0.43769 c 3.972145,0.86603 7.813215,2.56643 10.95747,4.79661 3.344908,2.3725 6.204022,5.60533 8.112683,9.10074 1.912602,3.50262 3.043516,7.61655 3.188436,11.61841 0.144481,3.98975 -0.654881,8.25438 -2.31562,12.04009 -1.649783,3.76075 -4.262239,7.43775 -7.471378,10.35234 -3.184914,2.89259 -7.224274,5.36826 -11.505758,6.92774 -2.849065,1.03774 -5.982428,1.75695 -9.166884,2.10634 0.141404,-0.37587 0.258442,-0.7606 0.389641,-1.1405 1.572895,-0.26373 3.125015,-0.62425 4.64416,-1.08056 -1.486781,0.30209 -2.987469,0.5122 -4.491196,0.63304 0.100158,-0.30073 0.214151,-0.59638 0.307472,-0.89917 1.837306,-0.34273 3.642289,-0.82328 5.392955,-1.43712 -1.72511,0.42687 -3.476451,0.723 -5.233789,0.89245 0.09402,-0.32079 0.186512,-0.64219 0.272333,-0.9648 1.049845,-0.21731 2.087162,-0.48045 3.107822,-0.79065 -1.002972,0.19999 -2.012839,0.35412 -3.025656,0.4656 0.06362,-0.24769 0.13009,-0.49456 0.188619,-0.7431 0.03992,-0.1695 0.07012,-0.34406 0.108003,-0.5147 1.994709,-0.34893 3.935105,-0.85731 5.695778,-1.49861 3.578,-1.30325 7.123604,-3.47991 9.758576,-5.87303 2.610744,-2.37112 4.859364,-5.54258 6.183604,-8.56124 1.31328,-2.99367 1.986224,-6.60299 1.873268,-9.7224 -0.11253,-3.1073 -1.061863,-6.5576 -2.545064,-9.27385 -1.487141,-2.72346 -3.897204,-5.45356 -6.529316,-7.32049 -1.65472,-1.17367 -3.646638,-2.20984 -5.738669,-2.98328 -0.116261,-0.46612 -0.246547,-0.92457 -0.379304,-1.38131 1.028559,0.28321 2.042646,0.62899 3.033924,1.03818 -1.01056,-0.54028 -2.061438,-1.01422 -3.141927,-1.42058 -0.104595,-0.34558 -0.221652,-0.68265 -0.335897,-1.02165 1.872941,0.4572 3.708016,1.1145 5.458582,1.96578 -1.77455,-1.08136 -3.684802,-1.96323 -5.679242,-2.62362 -0.109839,-0.30423 -0.22987,-0.604 -0.349848,-0.90434 1.764279,0.3705 3.500941,0.90879 5.179013,1.61128 -1.716593,-0.90847 -3.533789,-1.64192 -5.413624,-2.1916 -0.170294,-0.40336 -0.34494,-0.80518 -0.529167,-1.202 z m -80.398706,0.62064 h 19.987419 c -0.570072,0.26075 -1.151361,0.50109 -1.702224,0.79375 h -18.285195 z m 48.1867178,0 H 13.424265 c -0.591714,0.24404 -1.165535,0.52095 -1.745112,0.79375 H 4.3865747 C 3.8069944,190.34025 3.233174,190.06334 2.6414598,189.8193 Z m 38.9821182,0 h 19.98741 v 0.79375 h -18.28519 c -0.55087,-0.29266 -1.132165,-0.533 -1.70222,-0.79375 z m -87.168836,1.05833 h 17.838711 c -0.450982,0.24924 -0.881301,0.52439 -1.316726,0.79375 h -16.521985 z m 50.4780518,0 h 6.2001372 c -0.491434,0.2408 -0.997177,0.45335 -1.476912,0.71469 -0.044135,0.024 -0.086773,0.0543 -0.1307412,0.0791 H 6.5404471 c -0.043966,-0.0247 -0.086603,-0.055 -0.1307412,-0.0791 -0.4797319,-0.26134 -0.985475,-0.47389 -1.4769121,-0.71469 z m 38.8394892,0 h 17.838705 v 0.79375 H 45.089 c -0.435433,-0.26936 -0.865735,-0.54451 -1.316717,-0.79375 z m -89.317541,1.05834 h 16.083253 c -0.402457,0.25821 -0.796978,0.51925 -1.183904,0.79375 h -14.899349 z m 52.5234053,0 h 2.1094329 c -0.3513878,0.21293 -0.7030138,0.42442 -1.0547165,0.63768 -0.3517026,-0.21326 -0.7033286,-0.42475 -1.0547164,-0.63768 z m 38.5495847,0 h 16.083256 v 0.79375 H 46.711639 c -0.386921,-0.2745 -0.781449,-0.53554 -1.183907,-0.79375 z m -91.07299,1.05833 h 14.551554 c -0.354383,0.25927 -0.704347,0.52152 -1.043861,0.79375 h -13.507693 z m 92.604679,0 h 14.551567 v 0.79375 H 48.103284 c -0.339513,-0.27223 -0.689456,-0.53448 -1.043863,-0.79375 z m -92.604679,1.05833 h 13.159925 c -0.111707,0.0923 -0.238919,0.17141 -0.348827,0.2651 -0.199681,0.17022 -0.389493,0.3526 -0.584464,0.52865 h -12.226634 z m 93.996326,0 h 13.15992 v 0.79375 h -12.22716 c -0.194908,-0.17601 -0.384321,-0.35847 -0.583944,-0.52865 -0.109908,-0.0937 -0.237127,-0.17276 -0.348816,-0.2651 z m -93.996326,1.05834 h 11.934163 c -0.278288,0.25855 -0.549671,0.52387 -0.817536,0.79375 h -11.116627 z m 95.221575,0 h 11.934671 v 0.79375 H 50.493837 c -0.267846,-0.26987 -0.539253,-0.53522 -0.81752,-0.79375 z m -61.792106,0.26148 c 1.263226,-0.0227 2.525236,0.009 3.7357048,0.16381 0.6947164,0.089 1.4086151,0.21555 2.1301074,0.36846 h -6.0420252 c 0.06223,-0.17749 0.115226,-0.35466 0.176213,-0.53227 z m 40.297292,0 c 0.061,0.17761 0.113986,0.35478 0.176218,0.53227 h -6.042009 c 0.721482,-0.15291 1.435373,-0.27949 2.130102,-0.36846 1.210469,-0.15503 2.472455,-0.18654 3.735689,-0.16381 z m -41.991234,0.03 c -0.575548,1.81533 -0.993907,3.71174 -1.199409,5.56555 -0.416931,3.76096 -0.126048,8.12387 0.888841,11.99875 0.54401,2.07703 1.341702,4.23046 2.321825,6.31176 -0.05011,0.18794 -0.10041,0.37566 -0.147797,0.56379 -0.09636,0.38253 -0.177905,0.77166 -0.26408,1.15859 -0.725223,-1.24767 -1.381919,-2.53982 -1.963182,-3.86902 0.502814,1.54684 1.107255,3.06642 1.808162,4.54598 -0.07721,0.37458 -0.140493,0.75353 -0.208253,1.1312 -1.328261,-2.10997 -2.46134,-4.35652 -3.370871,-6.70192 0.76626,2.71297 1.831816,5.35638 3.172936,7.86877 -0.04503,0.29496 -0.08416,0.59118 -0.123507,0.88729 -1.457669,-2.12723 -2.718224,-4.40393 -3.752745,-6.79132 0.907892,2.76442 2.118942,5.44391 3.609102,7.97574 -0.05165,0.48296 -0.103452,0.96605 -0.140044,1.45004 -0.0034,-0.005 -0.0071,-0.009 -0.01032,-0.0139 -2.754048,-3.9915 -4.861825,-8.63849 -6.05028,-13.17594 -1.194277,-4.55982 -1.52281,-9.46744 -1.028886,-13.92267 0.14232,-1.28391 0.370787,-2.56336 0.660956,-3.82664 0.422487,-0.13438 0.854445,-0.25708 1.290346,-0.37207 -0.200871,1.00209 -0.356684,2.01068 -0.463523,3.02256 0.208148,-1.04801 0.468974,-2.08249 0.776684,-3.1011 0.339593,-0.0853 0.68244,-0.16379 1.026822,-0.23617 -0.347874,1.58686 -0.574781,3.19441 -0.676434,4.80333 -0.0066,0.10274 -0.01243,0.20575 -0.01799,0.30851 0.01535,-0.10177 0.03088,-0.20383 0.04702,-0.30541 0.265985,-1.67188 0.666168,-3.31643 1.192186,-4.91288 0.316018,-0.0596 0.632566,-0.11554 0.949801,-0.1633 -0.316495,1.32236 -0.544539,2.66173 -0.681593,4.00544 0.281278,-1.38445 0.659897,-2.74469 1.127575,-4.06745 0.409681,-0.0542 0.819732,-0.10474 1.226793,-0.13746 z m -31.735527,0.76688 h 10.856701 c -0.248841,0.25735 -0.481806,0.52719 -0.720884,0.79375 h -10.135817 z m 33.165415,0 h 7.1933589 c 0.8931804,0.22329 1.7864138,0.48765 2.6789062,0.79375 H -12.631515 c 0.0095,-0.036 0.01614,-0.0758 0.02593,-0.11162 0.06146,-0.22707 0.148458,-0.45478 0.225822,-0.68213 z m 33.631536,0 h 7.193878 c 0.07736,0.22735 0.164364,0.45506 0.225824,0.68213 0.0096,0.0355 0.01482,0.076 0.02429,0.11162 h -10.12238 c 0.892334,-0.30604 1.785364,-0.57049 2.678388,-0.79375 z m 29.502592,0 h 10.856703 v 0.79375 H 51.475171 c -0.239046,-0.26652 -0.472067,-0.53642 -0.720886,-0.79375 z m -96.299543,1.05833 h 9.916716 c -0.226722,0.25893 -0.441167,0.52705 -0.658363,0.79375 h -9.258353 z m 24.131852,0 h 0.06874 c -0.05069,0.26079 -0.0794,0.53066 -0.125069,0.79375 h -1.620573 c 0.548984,-0.28429 1.108869,-0.55106 1.676902,-0.79375 z m 8.721434,0 h 10.9745193 c 0.6543146,0.24257 1.29555877,0.51253 1.92960626,0.79375 H -12.874376 c 0.05911,-0.26663 0.116549,-0.53486 0.182404,-0.79375 z m 30.475144,0 h 10.969874 c 0.06521,0.2562 0.113461,0.52997 0.172082,0.79375 H 15.853574 c 0.634047,-0.28123 1.275289,-0.55118 1.929598,-0.79375 z m 19.627226,0 h 0.06873 c 0.568029,0.24268 1.127403,0.50946 1.676382,0.79375 h -1.620055 c -0.04567,-0.26309 -0.07437,-0.53296 -0.125057,-0.79375 z m 14.283882,0 h 9.916708 v 0.79375 h -9.25835 c -0.21721,-0.2667 -0.431644,-0.53482 -0.658358,-0.79375 z m -97.239538,1.05834 h 9.038722 c -0.213889,0.26909 -0.453892,0.5176 -0.657833,0.79375 h -8.380889 z m 21.979017,0 h 2.054648 c -0.04397,0.26381 -0.0862,0.52792 -0.125042,0.79375 h -3.283003 c 0.437832,-0.27726 0.889,-0.54028 1.353397,-0.79375 z m 10.630878,0 H 0.53100293 c -0.26664708,0.25441 -0.50548645,0.5329 -0.76533374,0.79375 H -13.0966 c 0.04905,-0.26993 0.10549,-0.52995 0.161237,-0.79375 z m 28.470093,0 h 13.44776 c 0.05638,0.26609 0.122507,0.52141 0.172082,0.79375 H 16.300058 c -0.259844,-0.26085 -0.498686,-0.53934 -0.765328,-0.79375 z m 22.042583,0 h 2.054137 c 0.464405,0.25347 0.915564,0.51649 1.353407,0.79375 h -3.282486 c -0.03884,-0.26583 -0.08108,-0.52994 -0.125058,-0.79375 z m 14.99495,0 h 9.038725 v 0.79375 h -8.380883 c -0.203938,-0.27615 -0.443942,-0.52466 -0.657842,-0.79375 z m -38.663789,0.66352 c 2.018969,1.87833 3.903371,3.97765 5.535062,6.21667 0.361106,0.49551 0.710292,0.99754 1.045932,1.50482 2.477008,3.74367 4.45629,8.10048 5.686473,12.48348 l -0.0026,-10e-4 c -0.247663,0.50416 -0.509932,0.99929 -0.77928,1.48932 -0.01299,-0.0437 -0.02511,-0.0876 -0.03824,-0.13126 -0.360638,-1.19828 -0.77371,-2.37795 -1.236099,-3.53519 0.354423,1.19474 0.65591,2.40249 0.903303,3.6189 0.03588,0.17627 0.06719,0.35308 0.10077,0.52969 -0.196263,0.3444 -0.397357,0.68283 -0.603065,1.01699 -0.118269,-0.44408 -0.241779,-0.88636 -0.374653,-1.3255 -0.506103,-1.67282 -1.116885,-3.30896 -1.825212,-4.89583 0.555157,1.64673 1.005049,3.32347 1.346687,5.01623 0.133916,0.66364 0.249007,1.32977 0.349334,1.99781 -0.140792,0.21493 -0.279982,0.43272 -0.424264,0.64183 -0.0366,0.053 -0.07756,0.10564 -0.114721,0.15865 -0.201668,-0.86781 -0.429411,-1.72788 -0.687813,-2.57711 -0.341847,-1.12289 -0.732647,-2.22892 -1.169956,-3.31349 0.32934,1.12207 0.609073,2.25617 0.837676,3.39721 0.212937,1.06403 0.378283,2.13537 0.502296,3.20962 -0.275725,0.36917 -0.559726,0.73742 -0.853178,1.10329 -0.188783,-1.37603 -0.43877,-2.73329 -0.765845,-4.03179 -1.036322,-4.11427 -2.941209,-8.41978 -5.264795,-11.93158 -1.846866,-2.79129 -4.245123,-5.47213 -6.7918333,-7.68066 0.3109701,-0.23624 0.6302984,-0.46563 0.9518783,-0.69247 1.004999,0.79317 1.974493,1.63708 2.900082,2.53163 -0.813443,-0.95688 -1.677469,-1.87506 -2.584339,-2.75177 0.253005,-0.17423 0.509294,-0.34425 0.767395,-0.51211 1.352849,1.08984 2.63925,2.27192 3.845245,3.53777 -1.052655,-1.33823 -2.196274,-2.61172 -3.418398,-3.81166 0.273325,-0.17222 0.54833,-0.34145 0.825791,-0.50591 0.859303,0.70916 1.692764,1.45284 2.49442,2.23242 -0.706355,-0.82561 -1.448747,-1.62264 -2.221053,-2.39262 0.352198,-0.20453 0.706494,-0.40539 1.062985,-0.59634 z m -59.453732,0.39481 h 8.207243 c -0.185738,0.25736 -0.343033,0.53094 -0.519854,0.79375 h -7.687389 z m 20.222527,0 h 3.644239 c -0.03702,0.26584 -0.0871,0.52621 -0.118877,0.79375 h -4.64312 c 0.35769,-0.27245 0.728953,-0.53587 1.117758,-0.79375 z m 12.184803,0 h 12.6483272 c -0.25751896,0.26293 -0.5154083,0.52469 -0.7653337,0.79375 H -13.261435 c 0.03876,-0.26649 0.07832,-0.53177 0.123507,-0.79375 z m 29.693267,0 h 12.656592 c 0.04484,0.26013 0.07052,0.52918 0.109038,0.79375 H 17.320667 c -0.249928,-0.26906 -0.507865,-0.53082 -0.765328,-0.79375 z m 21.188889,0 h 3.643704 c 0.388895,0.25793 0.760529,0.52124 1.11828,0.79375 h -4.643128 c -0.03177,-0.26754 -0.08184,-0.52791 -0.118856,-0.79375 z m 15.65951,0 h 8.20725 v 0.79375 h -7.687387 c -0.176852,-0.26284 -0.334107,-0.53637 -0.519863,-0.79375 z m -98.948996,1.05833 h 7.513743 c -0.173804,0.26454 -0.355335,0.52433 -0.519853,0.79375 h -6.99389 z m 18.764223,0 h 4.961467 c -0.02948,0.26288 -0.04239,0.52953 -0.06668,0.79375 h -5.805329 c 0.152374,-0.13971 0.295487,-0.30382 0.450109,-0.43563 0.143669,-0.12248 0.309536,-0.23769 0.460428,-0.35812 z m 13.478246,0 h 11.792558 c -0.1669521,0.18301 -0.3535098,0.35021 -0.5167577,0.53589 -0.072734,0.0827 -0.1388269,0.1742 -0.2108465,0.25786 H -13.403543 c 0.02966,-0.26751 0.06464,-0.52948 0.100754,-0.79375 z m 30.87874,0 H 29.35301 c 0.03601,0.26298 0.067,0.52755 0.09663,0.79375 H 18.303036 c -0.07196,-0.0836 -0.137663,-0.17522 -0.210322,-0.25786 -0.163243,-0.18568 -0.349796,-0.35288 -0.516763,-0.53589 z m 20.309352,0 h 4.960938 c 0.150958,0.12049 0.317217,0.23559 0.460954,0.35812 0.154639,0.13183 0.297699,0.2959 0.450102,0.43563 h -5.805848 c -0.02429,-0.26421 -0.03669,-0.53088 -0.06615,-0.79375 z m 16.211415,0 h 7.51427 v 0.79375 h -6.994406 c -0.164549,-0.26945 -0.346043,-0.52919 -0.519864,-0.79375 z m -99.641976,1.05834 h 6.820773 c -0.157427,0.26431 -0.318399,0.52532 -0.466646,0.79375 h -6.354127 z m 17.580319,0 h 6.056471 c -0.02249,0.26461 -0.04887,0.52807 -0.06615,0.79375 h -6.810428 c 0.26424,-0.28442 0.545333,-0.53104 0.820103,-0.79375 z m 14.53761,0 h 10.973488 c -0.2193925,0.26019 -0.4346575,0.52579 -0.6480175,0.79375 H -13.497099 c 0.02064,-0.26557 0.04273,-0.53024 0.06977,-0.79375 z m 31.94689,0 h 10.962121 c 0.02748,0.26709 0.07572,0.52454 0.09664,0.79375 H 19.167583 c -0.213397,-0.268 -0.428596,-0.53352 -0.648022,-0.79375 z m 19.454111,0 h 6.056995 c 0.274709,0.26267 0.555394,0.50937 0.819586,0.79375 h -6.810436 c -0.01725,-0.26568 -0.0436,-0.52914 -0.06614,-0.79375 z m 16.816027,0 h 6.821289 v 0.79375 h -6.354651 c -0.14826,-0.26844 -0.309208,-0.52944 -0.466638,-0.79375 z m -100.334957,1.05833 h 6.211491 c -0.142108,0.26402 -0.287602,0.52628 -0.420635,0.79375 h -5.790856 z m 16.526642,0 h 7.021777 c -0.01535,0.26481 -0.03127,0.52817 -0.04133,0.79375 h -7.634155 c 0.217038,-0.26643 0.425926,-0.54002 0.653706,-0.79375 z m 15.498286,0 h 10.2019365 c -0.2054225,0.26252 -0.4097602,0.52534 -0.6102879,0.79375 h -9.6397236 c 0.01191,-0.26607 0.02958,-0.52866 0.04808,-0.79375 z m 32.903922,0 h 10.204545 c 0.01834,0.26386 0.01394,0.52891 0.02582,0.79375 h -9.620083 c -0.200536,-0.26841 -0.404868,-0.53123 -0.610298,-0.79375 z m 18.678445,0 h 7.021793 c 0.227761,0.25373 0.436658,0.52732 0.653709,0.79375 h -7.634161 c -0.01005,-0.26559 -0.02593,-0.52894 -0.04134,-0.79375 z m 17.336926,0 h 6.212025 v 0.79375 h -5.791377 c -0.133035,-0.26746 -0.278503,-0.52974 -0.420648,-0.79375 z m -47.3660993,0.44803 c 0.00468,0.004 0.00926,0.008 0.013944,0.0119 -0.00463,0 -0.00934,-5.3e-4 -0.013944,-5.3e-4 -0.00463,0 -0.00934,5.3e-4 -0.013943,5.3e-4 0.00468,-0.004 0.00926,-0.008 0.013943,-0.0119 z m -53.5781217,0.6103 h 5.667878 c -0.127529,0.26335 -0.252095,0.52755 -0.370523,0.79375 h -5.297355 z m 15.654867,0 h 7.85016 c -0.0082,0.26414 -0.004,0.52913 -0.0066,0.79375 h -8.456348 c 0.195924,-0.27299 0.404363,-0.52944 0.612907,-0.79375 z m 16.316298,0 h 9.4536945 c -0.1937543,0.26288 -0.3863445,0.52661 -0.5761831,0.79375 h -8.8945504 c 0.0032,-0.26472 0.0074,-0.52896 0.01693,-0.79375 z m 33.760219,0 h 9.436634 c 0.0097,0.26499 0.02273,0.52883 0.02582,0.79375 h -8.886278 c -0.189817,-0.26711 -0.382463,-0.5309 -0.576193,-0.79375 z m 17.919319,0 h 7.850169 c 0.20852,0.2643 0.416994,0.52077 0.61288,0.79375 h -8.456332 c -0.0028,-0.26462 0.0016,-0.52961 -0.0067,-0.79375 z m 17.837671,0 h 5.667872 v 0.79375 h -5.297352 c -0.118425,-0.26616 -0.243028,-0.53043 -0.37052,-0.79375 z m -49.4848326,1.03508 c 1.1530277,-0.043 2.3034598,-0.042 3.4406151,0.004 l -0.00212,0.002 c 0.4029475,0.39133 0.7933425,0.79439 1.1761555,1.20199 -0.04557,-0.001 -0.09137,-0.003 -0.136943,-0.004 -1.2510671,-0.0273 -2.5004719,5.3e-4 -3.743958,0.0827 1.245788,0.0321 2.4873717,0.1188 3.720704,0.25941 0.178726,0.0204 0.357028,0.0451 0.535368,0.0677 0.266896,0.29308 0.52659,0.58889 0.78083,0.8878 -0.45889,-0.0247 -0.918466,-0.0434 -1.377177,-0.0527 -1.7473458,-0.0356 -3.4917437,0.0394 -5.2198353,0.22272 1.7376828,-0.0191 3.471799,0.0711 5.1872813,0.26924 0.672541,0.0777 1.341284,0.17423 2.007629,0.28525 0.160901,0.20032 0.325268,0.40019 0.479557,0.60203 0.03914,0.0512 0.07632,0.10642 0.115239,0.15813 -0.88765,-0.0764 -1.775886,-0.12596 -2.663404,-0.14263 -1.1735702,-0.0219 -2.3463438,0.008 -3.5129657,0.0889 1.1689265,0.0335 2.3338842,0.11803 3.4897117,0.25321 1.077756,0.12629 2.147557,0.30017 3.207554,0.51418 0.265901,0.37632 0.528717,0.75972 0.786001,1.15187 -1.367023,-0.24567 -2.735046,-0.42709 -4.07107,-0.51728 -4.2331353,-0.28578 -8.9169931,0.19567 -12.9749341,1.32033 -3.2254031,0.89392 -6.5156027,2.34595 -9.4030269,4.08554 -0.128587,-0.36875 -0.24847,-0.74337 -0.364834,-1.11931 1.064922,-0.71071 2.1674137,-1.37173 3.3041959,-1.97559 -1.1614149,0.47794 -2.3017689,1.01609 -3.4158229,1.60765 -0.08752,-0.29446 -0.169731,-0.59097 -0.249608,-0.88831 1.454547,-0.94986 2.9761385,-1.80787 4.5527111,-2.56367 -1.5980304,0.5876 -3.1625111,1.28175 -4.6813781,2.07326 -0.07932,-0.31317 -0.155681,-0.62685 -0.226351,-0.94155 0.939985,-0.5981 1.904709,-1.16107 2.8938796,-1.68258 -1.0034846,0.41665 -1.9906186,0.87595 -2.9615606,1.37252 -0.0857,-0.39816 -0.167322,-0.7967 -0.23876,-1.19476 2.410302,-1.33971 4.989142,-2.48302 7.6228045,-3.34295 0.5828241,-0.19031 1.1682412,-0.36774 1.7544256,-0.53019 3.24440016,-0.8992 6.7299469,-1.42533 10.1890326,-1.55443 z m -52.0035414,0.0233 h 5.173848 c -0.0026,0.006 -0.0053,0.011 -0.0077,0.0165 -0.110014,0.2551 -0.205687,0.51796 -0.308002,0.77721 h -4.840525 a 107.15645,107.15645 0 0 1 -0.01746,-0.29559 z m 14.867308,0 h 8.628935 c 0,0.26474 -0.01085,0.52879 -0.0063,0.79375 h -9.146196 c 0.168857,-0.26698 0.341075,-0.53163 0.523478,-0.79375 z m 17.081129,0 h 8.7079932 c -0.078714,0.11196 -0.1621632,0.21872 -0.2402946,0.33124 -0.5088202,0.15287 -1.0189104,0.30257 -1.5229152,0.46251 h -6.9370314 c -0.0026,-0.10015 -0.01667,-0.19629 -0.01799,-0.29663 -0.0026,-0.16529 0.0098,-0.33145 0.01032,-0.49712 z m 34.551376,0 h 8.702829 c 7.93e-4,0.26636 0.0039,0.52851 -0.0021,0.79375 h -6.93756 c -0.503994,-0.15994 -1.014106,-0.30964 -1.522905,-0.46251 -0.07812,-0.11251 -0.161594,-0.21929 -0.240294,-0.33124 z m 17.159677,0 h 8.62893 c 0.182435,0.26217 0.355097,0.52672 0.523999,0.79375 h -9.14673 c 0.0046,-0.26496 -0.0052,-0.52901 -0.0062,-0.79375 z m 18.322911,0 h 5.173845 v 0.49816 a 107.15645,107.15645 0 0 1 -0.01757,0.29559 h -4.840531 c -0.102315,-0.25929 -0.197983,-0.52208 -0.307991,-0.77721 -0.0024,-0.006 -0.0053,-0.011 -0.0078,-0.0165 z m -101.948825,1.05833 h 4.719611 c -0.100621,0.2631 -0.198755,0.52691 -0.291439,0.79375 h -4.381129 a 107.15645,107.15645 0 0 1 -0.04704,-0.79375 z m 14.135576,0 h 9.31881 c 0.0064,0.26509 0.02514,0.52872 0.03723,0.79375 h -9.81284 c 0.147108,-0.26726 0.294454,-0.52836 0.456803,-0.79375 z m 17.803045,0 h 6.1588117 c -0.6635485,0.24093 -1.3169106,0.51608 -1.9693995,0.79375 h -4.1408352 c -0.01561,-0.26519 -0.04016,-0.52633 -0.04858,-0.79375 z m 37.053043,0 h 6.159315 c -0.0084,0.26741 -0.03294,0.52857 -0.04858,0.79375 h -4.141348 c -0.652481,-0.27767 -1.305851,-0.55282 -1.969389,-0.79375 z m 14.642518,0 h 9.319326 c 0.162351,0.26538 0.309703,0.52651 0.456821,0.79375 h -9.813356 c 0.01206,-0.26503 0.03079,-0.52866 0.03721,-0.79375 z m 18.734772,0 h 4.720643 a 107.15645,107.15645 0 0 1 -0.04703,0.79375 h -4.382161 c -0.09269,-0.26685 -0.19082,-0.53064 -0.291455,-0.79375 z m -102.305904,1.05834 h 4.278286 c -0.08874,0.26405 -0.181054,0.52652 -0.261991,0.79375 h -3.969252 a 107.15645,107.15645 0 0 1 -0.04704,-0.79375 z m 13.481341,0 h 9.965822 c 0.01402,0.265 0.0371,0.52907 0.05683,0.79375 h -10.426752 c 0.123719,-0.26427 0.263498,-0.52851 0.404098,-0.79375 z m 18.458841,0 h 3.468 c -0.554408,0.24698 -1.09347,0.52433 -1.638142,0.79375 h -1.781281 c -0.0254,-0.26094 -0.03059,-0.52949 -0.04858,-0.79375 z m 39.614628,0 h 3.468005 c -0.01807,0.26425 -0.02313,0.53282 -0.04858,0.79375 h -1.781286 c -0.544677,-0.26942 -1.083733,-0.54677 -1.638144,-0.79375 z m 11.960511,0 h 9.966316 c 0.140621,0.26524 0.280401,0.52948 0.404109,0.79375 H 38.010361 c 0.01974,-0.26467 0.04236,-0.52876 0.05633,-0.79375 z m 19.169371,0 h 4.27881 a 107.15645,107.15645 0 0 1 -0.04703,0.79375 h -3.9703 c -0.08092,-0.26715 -0.172765,-0.52977 -0.261483,-0.79375 z m -34.635611,0.29817 c 0.0056,0.002 0.01143,0.004 0.01704,0.006 4.574217,1.6104 9.011026,4.13059 12.63954,7.10292 3.646397,2.98698 6.796852,6.76412 9.015986,10.65878 0.639517,1.12237 1.206855,2.29196 1.714625,3.48454 -0.262808,0.35705 -0.540197,0.71012 -0.825273,1.05937 -0.426495,-0.92878 -0.893638,-1.83625 -1.401982,-2.71766 0.447614,0.9702 0.844976,1.96077 1.194761,2.96571 -0.224621,0.26859 -0.455875,0.53328 -0.691949,0.79426 -0.651288,-1.48827 -1.412886,-2.92207 -2.276346,-4.28346 -0.05514,-0.0869 -0.110513,-0.17353 -0.166399,-0.25993 0.04747,0.0913 0.09444,0.18273 0.141076,0.2744 0.767525,1.50892 1.410579,3.07495 1.923397,4.67569 -0.220639,0.23394 -0.443738,0.4653 -0.672309,0.69039 -0.521206,-1.25584 -1.124069,-2.47347 -1.802993,-3.64112 0.586198,1.28537 1.079336,2.60821 1.478465,3.95325 -0.299566,0.28466 -0.601466,0.56625 -0.911574,0.83199 -0.601377,-1.80694 -1.37777,-3.58687 -2.30115,-5.20743 -1.873324,-3.28775 -4.672946,-6.64667 -7.771619,-9.18497 -1.660962,-1.3606 -3.571997,-2.63366 -5.588289,-3.74138 -0.06993,-0.18149 -0.139628,-0.36306 -0.211873,-0.54311 -0.146891,-0.36611 -0.309438,-0.72877 -0.467156,-1.09245 1.320075,0.58311 2.610768,1.24242 3.862298,1.97611 -1.31598,-0.95588 -2.698441,-1.82983 -4.135149,-2.61483 -0.157716,-0.34842 -0.328928,-0.69229 -0.496094,-1.03766 2.3148,0.92626 4.551825,2.07777 6.666259,3.44062 -2.214571,-1.74443 -4.630579,-3.25675 -7.192325,-4.50102 -0.136938,-0.2651 -0.279463,-0.52745 -0.42168,-0.79013 2.429635,0.86416 4.787771,1.96481 7.027995,3.28817 -2.359385,-1.70282 -4.914074,-3.1586 -7.607805,-4.331 -0.2422,-0.42121 -0.484508,-0.84253 -0.739489,-1.25574 z m -67.986031,0.76016 h 3.879877 c -0.07612,0.26044 -0.11946,0.53075 -0.188119,0.79375 h -3.644741 a 107.15645,107.15645 0 0 1 -0.04702,-0.79375 z m 12.879837,0 h 10.579709 c 0.0217,0.26452 0.02929,0.52984 0.05686,0.79375 h -10.949729 c 0.07562,-0.19574 0.133218,-0.41158 0.214445,-0.59997 0.02768,-0.0642 0.06996,-0.12945 0.09872,-0.19378 z m 19.06188,0 h 1.234043 c -0.383328,0.19552 -0.777187,0.37016 -1.154986,0.57516 -0.01852,-0.14451 -0.05464,-0.29708 -0.07078,-0.44029 -0.005,-0.044 -0.0034,-0.0908 -0.0082,-0.13487 z m 41.71942,0 h 1.234032 c -0.0047,0.0441 -0.0033,0.0909 -0.0083,0.13487 -0.01614,0.14321 -0.05228,0.29578 -0.0708,0.44029 -0.37778,-0.205 -0.771641,-0.37964 -1.154967,-0.57516 z m 9.715685,0 h 10.580232 c 0.02875,0.0643 0.07104,0.12963 0.0987,0.19378 0.08121,0.18835 0.138337,0.40427 0.213939,0.59997 H 37.934913 c 0.02756,-0.2639 0.03465,-0.52924 0.05633,-0.79375 z m 19.580201,0 h 3.8809 a 107.15645,107.15645 0 0 1 -0.04703,0.79375 h -3.64577 c -0.06865,-0.263 -0.112004,-0.53331 -0.188103,-0.79375 z m -102.893973,1.05833 h 3.566187 c -0.06615,0.26378 -0.129487,0.52784 -0.188093,0.79375 h -3.330548 a 107.15645,107.15645 0 0 1 -0.04755,-0.79375 z m 12.409567,0 h 11.062388 c 0,0.009 0,0.0172 0.0026,0.0258 0.02873,0.25468 0.0803,0.51229 0.115755,0.76791 h -11.463893 c 0.08636,-0.27312 0.186981,-0.53089 0.283686,-0.79375 z m 70.829275,0 h 11.062375 c 0.09668,0.26283 0.196815,0.52066 0.283186,0.79375 H 37.798488 c 0.03546,-0.25561 0.08703,-0.51323 0.115756,-0.76791 0.0011,-0.009 0.0011,-0.0172 0.0021,-0.0258 z m 19.905763,0 h 3.567739 a 107.15645,107.15645 0 0 1 -0.04702,0.79375 h -3.332615 c -0.05862,-0.26591 -0.121946,-0.52997 -0.1881,-0.79375 z m -103.081554,1.05834 h 3.252496 c -0.05609,0.26655 -0.139621,0.52548 -0.188092,0.79375 h -3.016859 a 107.15645,107.15645 0 0 1 -0.04754,-0.79375 z m 11.968241,0 h 11.598275 c 0.03889,0.26451 0.07472,0.52848 0.119883,0.79375 h -11.920194 c 0.06821,-0.26586 0.124222,-0.53448 0.202036,-0.79375 z m 71.049938,0 h 11.59774 c 0.07781,0.25927 0.133826,0.52789 0.202054,0.79375 H 37.638807 c 0.04517,-0.26527 0.08099,-0.52924 0.119891,-0.79375 z m 20.314004,0 h 3.254581 a 107.15645,107.15645 0 0 1 -0.04702,0.79375 h -3.019454 c -0.04848,-0.26827 -0.132006,-0.5272 -0.188103,-0.79375 z m -103.26916,1.05833 h 2.960026 c -0.04493,0.26279 -0.05749,0.52972 -0.09506,0.79375 h -2.817415 a 107.15645,107.15645 0 0 1 -0.04755,-0.79375 z m 11.641667,0 h 12.021502 c 0.04691,0.26446 0.09866,0.52881 0.150892,0.79375 h -12.357391 c 0.05437,-0.26811 0.120888,-0.52974 0.184997,-0.79375 z m 71.153807,0 H 49.61999 c 0.06413,0.26403 0.131156,0.52561 0.185517,0.79375 H 37.448122 c 0.05222,-0.26494 0.10397,-0.52929 0.150894,-0.79375 z m 20.70313,0 h 2.962092 a 107.15645,107.15645 0 0 1 -0.04702,0.79375 h -2.819985 c -0.03757,-0.26404 -0.05014,-0.53095 -0.09508,-0.79375 z m -50.2692823,0.4594 c 1.4925569,0 3.0389013,0.1267 4.5878323,0.33435 H 3.4445125 c 1.5489317,-0.20765 3.0957943,-0.33435 4.5883512,-0.33435 z m -53.1662717,0.59893 h 2.770373 c -0.03508,0.26438 -0.06742,0.52853 -0.09506,0.79375 h -2.627762 a 107.15645,107.15645 0 0 1 -0.04755,-0.79375 z m 11.332131,0 h 12.474681 c 0.05371,0.26447 0.108876,0.52905 0.166925,0.79375 h -12.766145 c 0.04035,-0.26674 0.07429,-0.52879 0.124539,-0.79375 z m 35.5249687,0 H 14.341523 c 0.506076,0.0895 1.012478,0.18016 1.513085,0.2868 0.09754,0.16693 0.180491,0.33903 0.275953,0.50695 H -0.06534143 c 0.09548812,-0.16798 0.17888479,-0.33996 0.27646312,-0.50695 0.5005652,-0.10663 1.00652791,-0.19732 1.51257001,-0.2868 z m 35.6686193,0 h 12.474691 c 0.05024,0.26496 0.0842,0.52701 0.124539,0.79375 H 37.225396 c 0.05806,-0.2647 0.113209,-0.52928 0.166915,-0.79375 z m 21.036441,0 h 2.772957 a 107.15645,107.15645 0 0 1 -0.04702,0.79375 h -2.631363 c -0.02765,-0.2652 -0.05947,-0.52939 -0.09457,-0.79375 z m -60.3322332,0.77411 c -0.6560873,1.2242 -1.2511352,2.46916 -1.7497689,3.71192 -1.5799065,3.93765 -2.5694746,8.54067 -2.7538363,12.74754 -0.1465262,3.34377 0.2175934,6.92192 0.9797786,10.20558 -0.3904192,0.008 -0.7836958,0.007 -1.1771842,0.001 -0.3468423,-1.23241 -0.6348148,-2.48499 -0.857832,-3.75274 0.095647,1.25226 0.2550054,2.50267 0.473366,3.74499 -0.3071019,-0.008 -0.6144419,-0.0208 -0.9219142,-0.0367 -0.4538662,-1.67689 -0.7998354,-3.38921 -1.0314516,-5.12217 0.065035,1.70138 0.2416175,3.40359 0.5250391,5.09271 -0.3223683,-0.0213 -0.6442075,-0.0459 -0.9653322,-0.076 -0.2783417,-1.07881 -0.5155671,-2.17025 -0.7058821,-3.27215 0.08615,1.08311 0.217911,2.16426 0.3901548,3.24114 -0.4051568,-0.0415 -0.8096248,-0.0871 -1.2102838,-0.14211 -0.529299,-2.70632 -0.819732,-5.51272 -0.823701,-8.28321 v 0 c 0,-0.61312 0.01164,-1.22425 0.03823,-1.83193 0.196532,-4.48464 1.156282,-9.17255 2.7372995,-13.44156 v 0.002 c 0.4967023,-0.2623 1.000416,-0.5086 1.5063787,-0.74672 -0.015081,0.043 -0.031432,0.0856 -0.046514,0.12867 -0.4125648,1.1814 -0.7718425,2.37833 -1.0779655,3.58634 0.4155017,-1.17489 0.881433,-2.32918 1.3962857,-3.4587 0.074586,-0.16369 0.153326,-0.32521 0.2299493,-0.48783 0.3612356,-0.16326 0.7228946,-0.31875 1.0857442,-0.46818 -0.1653381,0.42878 -0.3253317,0.85956 -0.475959,1.29294 -0.5738018,1.65082 -1.0412412,3.33313 -1.4009422,5.03328 0.5187949,-1.65854 1.1402218,-3.27955 1.8588037,-4.84983 0.2817283,-0.61561 0.5804429,-1.22216 0.8919368,-1.82159 0.2402417,-0.0911 0.4807215,-0.18539 0.7203811,-0.26975 0.060775,-0.0214 0.1248039,-0.04 0.1860285,-0.061 -0.3469481,0.82061 -0.6684962,1.65032 -0.9586118,2.48925 -0.3834607,1.10937 -0.717259,2.23379 -1.0009717,3.36827 0.3931179,-1.10135 0.8335698,-2.18314 1.3193183,-3.24063 0.4531519,-0.98598 0.9489017,-1.94983 1.4799998,-2.89181 0.440055,-0.1366 0.8859573,-0.26768 1.3384212,-0.39119 z m -43.1663468,0.28423 h 2.58019 c -0.02513,0.26541 -0.07694,0.52788 -0.09456,0.79375 h -2.438612 a 107.15645,107.15645 0 0 1 -0.04702,-0.79375 z m 11.111468,0 h 12.85449 c 0.04064,0.18117 0.07244,0.36193 0.114723,0.54311 -0.09205,0.0798 -0.174757,0.17002 -0.266118,0.25064 h -12.800779 c 0.02656,-0.26473 0.06093,-0.52865 0.09768,-0.79375 z m 33.74882065,0 H 16.274738 c 0.147658,0.26372 0.291023,0.52817 0.43253,0.79375 H -0.64205372 c 0.14149917,-0.26556 0.28487687,-0.53006 0.43251437,-0.79375 z m 37.37912335,0 h 12.854514 c 0.03674,0.2651 0.0711,0.52902 0.09767,0.79375 h -12.80077 c -0.09138,-0.0806 -0.174066,-0.17086 -0.266133,-0.25064 0.04228,-0.18118 0.0741,-0.36194 0.114719,-0.54311 z m 21.38526,0 h 2.584336 a 107.15645,107.15645 0 0 1 -0.04702,0.79375 h -2.442744 c -0.01762,-0.26587 -0.06941,-0.52834 -0.09457,-0.79375 z m -103.561648,1.05833 h 2.402972 c -0.01508,0.26455 -0.01879,0.52914 -0.02646,0.79375 h -2.329577 a 107.15645,107.15645 0 0 1 -0.04704,-0.79375 z m 10.918216,0 h 12.552706 c -0.28694,0.25802 -0.562636,0.5277 -0.842327,0.79375 H -34.14132 c 0.0127,-0.2653 0.02929,-0.52585 0.05273,-0.79375 z m 33.30236283,0 H 16.851447 c 0.138735,0.26508 0.278884,0.52749 0.410311,0.79375 H -1.196541 c 0.1314185,-0.26625 0.27156833,-0.52868 0.41031583,-0.79375 z m 38.38782617,0 h 12.552722 c 0.02342,0.2679 0.04017,0.52845 0.05271,0.79375 H 38.44341 c -0.279627,-0.266 -0.554918,-0.53578 -0.841809,-0.79375 z m 21.067448,0 h 2.407087 a 107.15645,107.15645 0 0 1 -0.04702,0.79375 h -2.333707 c -0.0075,-0.26461 -0.01132,-0.5292 -0.02635,-0.79375 z m -103.612803,1.05833 h 2.305288 c -0.005,0.26492 -0.0069,0.52917 -0.0042,0.79375 h -2.254118 a 107.15645,107.15645 0 0 1 -0.04704,-0.79375 z m 10.799868,0 H -22.6588 c -0.276939,0.26838 -0.571659,0.51804 -0.840766,0.79375 h -10.65104 c -0.0026,-0.2628 -0.0026,-0.52596 0.0066,-0.79375 z m 32.8269331,0 H 17.382162 c 0.12773,0.2643 0.240826,0.52895 0.360185,0.79375 H -1.6771302 c 0.1193536,-0.26482 0.2324365,-0.52943 0.3601773,-0.79375 z m 40.0414829,0 h 11.485086 c 0.0089,0.26779 0.0094,0.53095 0.0067,0.79375 H 39.564791 c -0.269063,-0.27565 -0.563393,-0.52543 -0.840258,-0.79375 z m 19.979142,0 h 2.309937 a 107.15645,107.15645 0 0 1 -0.04703,0.79375 h -2.258777 c 0.0026,-0.26458 7.94e-4,-0.52883 -0.0041,-0.79375 z m -79.285096,0.16123 c 0.106548,0.38719 0.237861,0.7674 0.355018,1.15187 -1.117494,1.13788 -2.161461,2.34234 -3.122268,3.60443 1.02526,-1.1183 2.115767,-2.17063 3.26128,-3.15226 0.09573,0.30216 0.177615,0.60814 0.280088,0.90795 -1.284949,1.35722 -2.462609,2.80693 -3.518112,4.33255 1.144747,-1.35934 2.387203,-2.62768 3.709326,-3.7977 0.112501,0.31479 0.227066,0.62856 0.347266,0.94 -0.721625,0.79289 -1.406604,1.61563 -2.050018,2.46652 0.693896,-0.75133 1.420177,-1.46992 2.174028,-2.15543 0.09414,0.23779 0.1855,0.47714 0.284242,0.71262 0.06731,0.16059 0.145838,0.31975 0.215477,0.48007 -1.408642,1.45476 -2.679436,3.00621 -3.726895,4.55993 -2.128625,3.15745 -3.718057,7.00234 -4.443147,10.48722 -0.718424,3.45283 -0.67355,7.3406 0.02945,10.56111 0.69715,3.19386 2.274834,6.50911 4.199757,8.96638 1.917462,2.44771 4.713103,4.68118 7.509616,6.00686 2.803922,1.3292 6.3581756,2.12138 9.5849546,2.08463 2.0285603,-0.0231 4.2493934,-0.35569 6.39648716,-0.95963 0.36803544,0.30876 0.74292354,0.60304 1.11880384,0.89452 -0.9985772,0.37545 -2.02246174,0.692 -3.0649201,0.94361 1.13511544,-0.15689 2.2640661,-0.3918 3.3770464,-0.69815 0.287745,0.2181 0.5806149,0.42231 0.8722969,0.62942 -1.7839823,0.73101 -3.65516848,1.27773 -5.5717572,1.61799 2.07123768,-0.16822 4.135411,-0.57791 6.1370976,-1.21595 0.2676869,0.18157 0.5413402,0.35413 0.8149379,0.52659 -1.6450998,0.73728 -3.3671695,1.32243 -5.13768178,1.74046 1.92272708,-0.27403 3.82396998,-0.74846 5.66788298,-1.4087 0.3748616,0.22623 0.7525279,0.44819 1.1348137,0.66094 -3.722571,1.63414 -7.8299415,2.51667 -11.6845502,2.56057 -4.1006182,0.0467 -8.3132608,-0.88872 -11.9119388,-2.59467 -3.606112,-1.70948 -6.939253,-4.37274 -9.408742,-7.52513 -2.462,-3.14285 -4.32218,-7.06278 -5.203798,-11.10164 -0.875824,-4.01223 -0.923396,-8.52295 -0.04032,-12.76718 0.876432,-4.2122 2.688695,-8.58896 5.235865,-12.36721 1.694974,-2.51419 3.807513,-4.93816 6.178418,-7.09259 z m -24.29928,0.89711 h 2.244831 c 0.0053,0.26479 0.0077,0.52968 0.02064,0.79375 h -2.217949 a 107.15645,107.15645 0 0 1 -0.04754,-0.79375 z m 10.728034,0 h 10.415376 c -0.247227,0.25764 -0.474107,0.53036 -0.714164,0.79375 h -9.670732 c -0.0069,-0.096 -0.02934,-0.19965 -0.03461,-0.29456 -0.009,-0.16123 0.0085,-0.33521 0.0042,-0.49919 z m 32.3556307,0 H 17.862754 c 0.116374,0.26486 0.253351,0.52903 0.360185,0.79375 H -2.1572166 c 0.1068387,-0.26474 0.2438135,-0.52887 0.3601773,-0.79375 z m 41.5995403,0 H 50.2184 c -0.0042,0.16398 0.0131,0.33796 0.0041,0.49919 -0.0053,0.0949 -0.02766,0.19861 -0.03462,0.29456 h -9.671245 c -0.240025,-0.26336 -0.466974,-0.53614 -0.714166,-0.79375 z m 18.898586,0 h 2.249993 a 107.15645,107.15645 0 0 1 -0.04703,0.79375 h -2.223119 c 0.01294,-0.26407 0.01495,-0.52896 0.02016,-0.79375 z m -69.7487,0.56482 c -0.01296,0.0405 -0.02942,0.0793 -0.04239,0.11989 -0.01005,-0.0251 -0.02249,-0.0482 -0.03257,-0.0734 0.02514,-0.0155 0.04982,-0.0311 0.07496,-0.0465 z m 38.160964,0 c 0.02511,0.0154 0.04988,0.031 0.07493,0.0465 -0.01011,0.0251 -0.02238,0.0483 -0.03255,0.0734 -0.01299,-0.0406 -0.02928,-0.0794 -0.04238,-0.11989 z m -71.931005,0.49351 h 2.216917 c 0.01535,0.26344 0.06681,0.52946 0.08991,0.79375 h -2.192099 a 107.15645,107.15645 0 0 1 -0.114724,-0.79375 z m 10.726473,0 h 9.402022 c -0.237596,0.2652 -0.484188,0.52335 -0.71419,0.79375 h -8.594302 c -0.03471,-0.26667 -0.07072,-0.53289 -0.09353,-0.79375 z m 31.8347456,0 H 18.322158 c 0.101245,0.25774 0.186999,0.53022 0.28267,0.79375 H -2.5390897 c 0.095647,-0.26352 0.1814248,-0.53603 0.2826543,-0.79375 z m 43.0113334,0 h 9.402008 c -0.02281,0.26086 -0.05882,0.52708 -0.09353,0.79375 h -8.59431 c -0.229962,-0.27038 -0.476599,-0.52857 -0.714165,-0.79375 z m 17.911566,0 h 2.221571 a 107.15645,107.15645 0 0 1 -0.114723,0.79375 h -2.196764 c 0.0231,-0.26429 0.07442,-0.53031 0.08992,-0.79375 z m -30.106688,0.39791 c 0.32077,0.22275 0.637804,0.45568 0.952912,0.69143 -0.443785,1.20091 -0.946793,2.38311 -1.511535,3.53983 0.658677,-1.06932 1.264409,-2.1744 1.817976,-3.30781 0.243893,0.18678 0.485097,0.37795 0.724506,0.57154 -0.618453,1.62342 -1.344875,3.21196 -2.176095,4.7501 0.947436,-1.41467 1.80476,-2.89556 2.568318,-4.42867 0.248256,0.20673 0.494242,0.41585 0.736389,0.6289 -0.408914,1.0364 -0.858666,2.05903 -1.352373,3.06235 0.566925,-0.92691 1.09593,-1.87906 1.589569,-2.8515 0.303361,0.27175 0.603779,0.54627 0.895551,0.8263 -1.162505,2.50059 -2.577103,4.94189 -4.202327,7.18561 -0.359659,0.49655 -0.728697,0.98337 -1.107427,1.45934 -2.795,3.51263 -6.327325,6.74119 -10.115661,9.26558 l 5.3e-4,-0.003 c -0.556009,-0.0797 -1.108499,-0.17638 -1.657779,-0.28112 0.03754,-0.0259 0.07624,-0.0505 0.113689,-0.0765 1.028181,-0.71328 2.021951,-1.47072 2.979661,-2.26808 -1.02674,0.70627 -2.082163,1.36648 -3.162597,1.97766 -0.156551,0.0886 -0.315256,0.1729 -0.472839,0.25941 -0.388192,-0.0802 -0.772044,-0.16703 -1.15342,-0.25941 0.385795,-0.24971 0.768562,-0.50429 1.145152,-0.76637 1.434554,-0.99826 2.801418,-2.08434 4.091738,-3.24838 -1.394573,1.03686 -2.849914,1.98283 -4.354255,2.83084 -0.589778,0.33243 -1.187797,0.64744 -1.79214,0.94929 -0.247917,-0.0675 -0.498094,-0.13255 -0.741555,-0.20515 -0.06175,-0.0184 -0.124667,-0.041 -0.186553,-0.0599 0.763014,-0.45997 1.510808,-0.94238 2.238624,-1.45056 0.962297,-0.67211 1.893657,-1.38525 2.79001,-2.13631 -0.965385,0.65996 -1.95788,1.27639 -2.972427,1.8464 -0.946153,0.53132 -1.913628,1.01926 -2.896981,1.46916 -0.436306,-0.14815 -0.873937,-0.30422 -1.312582,-0.47025 1.250344,-0.60477 2.463316,-1.26223 3.597195,-1.97456 3.592656,-2.25698 7.09897,-5.39897 9.720855,-8.69404 2.083967,-2.61903 3.892423,-5.728 5.205884,-8.83254 z m -73.21569,0.66042 h 2.17506 c 0.02567,0.2645 0.05675,0.52881 0.08993,0.79375 h -2.124419 a 107.15645,107.15645 0 0 1 -0.140573,-0.79375 z m 10.689272,0 h 8.325591 c -0.217329,0.26001 -0.414258,0.52948 -0.624258,0.79375 h -7.58817 c -0.04956,-0.26989 -0.07482,-0.5274 -0.113163,-0.79375 z m 31.3329637,0 H 18.698879 c 0.0938,0.26531 0.194554,0.52358 0.28267,0.79375 H -2.9163326 c 0.088106,-0.27015 0.188886,-0.52846 0.2826543,-0.79375 z m 44.3404543,0 h 8.32559 c -0.03832,0.26634 -0.0636,0.52386 -0.113172,0.79375 h -7.588166 c -0.209992,-0.26428 -0.406916,-0.53373 -0.624252,-0.79375 z m 16.8398,0 h 2.180227 a 107.15645,107.15645 0 0 1 -0.140559,0.79375 h -2.129587 c 0.03316,-0.26494 0.0643,-0.52925 0.08992,-0.79375 z m -103.0149,1.05834 h 2.10685 c 0.03567,0.26502 0.04678,0.52869 0.08991,0.79375 h -2.055681 a 107.15645,107.15645 0 0 1 -0.141075,-0.79375 z m 10.675328,0 h 7.326683 c -0.205237,0.26269 -0.405394,0.52735 -0.603065,0.79375 h -6.540685 c -0.06207,-0.26518 -0.131127,-0.52992 -0.182933,-0.79375 z m 30.782604,0 h 22.085993 c 0.08261,0.2603 0.148529,0.52981 0.225824,0.79375 H -3.2362139 c 0.077285,-0.26394 0.143219,-0.53345 0.2258219,-0.79375 z m 45.54244,0 h 7.32617 c -0.05181,0.26382 -0.120888,0.52858 -0.182936,0.79375 h -6.540685 c -0.19763,-0.26634 -0.397364,-0.53112 -0.602549,-0.79375 z m 15.894637,0 h 2.112534 a 107.15645,107.15645 0 0 1 -0.14056,0.79375 h -2.06189 c 0.04312,-0.26505 0.05426,-0.52874 0.08992,-0.79375 z m -102.706917,1.05833 h 2.044859 c 0.04572,0.2658 0.127158,0.52832 0.18034,0.79375 h -2.084123 a 107.15645,107.15645 0 0 1 -0.141076,-0.79375 z m 10.731129,0 h 6.278695 c -0.194442,0.26667 -0.407696,0.52385 -0.594281,0.79375 h -5.501481 c -0.07519,-0.26461 -0.117528,-0.52846 -0.182933,-0.79375 z m 30.2394937,0 H 19.374808 c 0.07515,0.26374 0.14982,0.52722 0.219622,0.79375 H -3.5292135 c 0.069797,-0.26653 0.1444625,-0.53001 0.2196042,-0.79375 z m 46.6452263,0 h 6.278687 c -0.06539,0.26527 -0.107747,0.52915 -0.182936,0.79375 h -5.501471 c -0.186592,-0.26992 -0.399811,-0.52706 -0.59428,-0.79375 z m 14.964979,0 h 2.051036 a 107.15645,107.15645 0 0 1 -0.14056,0.79375 h -2.090827 c 0.05318,-0.26543 0.134609,-0.52795 0.180351,-0.79375 z m -102.392709,1.05833 h 2.097537 c 0.05564,0.26523 0.117396,0.5293 0.18034,0.79375 h -2.136802 a 107.15645,107.15645 0 0 1 -0.141075,-0.79375 z m 10.813811,0 h 5.246688 c -0.177483,0.26131 -0.330915,0.52986 -0.500724,0.79375 h -4.474157 c -0.0894,-0.26565 -0.192061,-0.5253 -0.271807,-0.79375 z m 29.6756931,0 H 19.667812 c 0.06741,0.26501 0.135861,0.5268 0.197919,0.79375 H -3.8005172 c 0.062045,-0.26695 0.1304925,-0.52874 0.1979083,-0.79375 z m 47.6994219,0 h 5.246705 c -0.07973,0.26841 -0.181901,0.52814 -0.271301,0.79375 h -4.474143 c -0.169863,-0.26394 -0.323734,-0.53239 -0.501261,-0.79375 z m 13.962969,0 h 2.104266 a 107.15645,107.15645 0 0 1 -0.14056,0.79375 h -2.144056 c 0.06302,-0.26445 0.124703,-0.52852 0.18035,-0.79375 z m -101.963803,1.05834 h 2.149739 c 0.06546,0.26411 0.107607,0.53082 0.180367,0.79375 h -2.189533 a 107.15645,107.15645 0 0 1 -0.140573,-0.79375 z m 10.98796,0 h 4.216295 c -0.167217,0.26468 -0.341551,0.52689 -0.500751,0.79375 h -3.44424 c -0.101732,-0.25941 -0.178752,-0.52944 -0.271304,-0.79375 z m 14.839924,0 h 0.248576 c 0.07466,0.17208 0.145441,0.34633 0.22942,0.51314 0.04744,0.0942 0.102103,0.18661 0.150389,0.28061 h -1.326541 c 0.229923,-0.26675 0.460322,-0.53301 0.698156,-0.79375 z m 14.2208246,0 H 19.920511 c 0.05945,0.26377 0.109656,0.52883 0.163814,0.79375 H -4.019116 c 0.05416,-0.26492 0.1043782,-0.52998 0.1638036,-0.79375 z m 37.7486114,0 h 0.248566 c 0.237836,0.26074 0.468238,0.527 0.698148,0.79375 h -1.326534 c 0.04828,-0.094 0.102955,-0.18643 0.150376,-0.28061 0.084,-0.16681 0.154763,-0.34106 0.229444,-0.51314 z m 10.87169,0 h 4.216796 c -0.09255,0.26432 -0.169558,0.53432 -0.271301,0.79375 H 45.26625 c -0.159253,-0.26692 -0.33401,-0.52902 -0.501261,-0.79375 z m 13.054499,0 h 2.156973 a 107.15645,107.15645 0 0 1 -0.14056,0.79375 h -2.196764 c 0.07276,-0.26293 0.11489,-0.52964 0.180351,-0.79375 z m -101.53592,1.05833 h 2.20607 c 0.07686,0.26837 0.189971,0.52706 0.274399,0.79375 h -2.339393 a 107.15645,107.15645 0 0 1 -0.141076,-0.79375 z m 11.173487,0 h 3.175502 c -0.06839,0.11692 -0.152294,0.22947 -0.219101,0.34675 -0.08263,0.14502 -0.14568,0.30033 -0.225319,0.447 h -2.358496 c -0.122132,-0.26728 -0.260456,-0.51836 -0.372586,-0.79375 z m 13.536109,0 h 1.700689 c 0.138801,0.26529 0.279321,0.53013 0.424762,0.79375 h -2.768309 c 0.212196,-0.26604 0.421561,-0.53199 0.642858,-0.79375 z m 14.9329513,0 H 20.139102 c 0.05238,0.26516 0.116816,0.52819 0.163814,0.79375 H -4.2377147 c 0.047016,-0.26556 0.1114425,-0.52859 0.16383,-0.79375 z m 37.4457697,0 h 1.70067 c 0.221261,0.26171 0.430197,0.52776 0.64234,0.79375 h -2.767791 c 0.145455,-0.26362 0.285965,-0.52846 0.424781,-0.79375 z m 12.06128,0 h 3.175516 c -0.112144,0.27539 -0.250455,0.52647 -0.372587,0.79375 H 45.87758 c -0.07963,-0.14667 -0.142677,-0.30198 -0.225309,-0.447 -0.06681,-0.11727 -0.150717,-0.22984 -0.219106,-0.34675 z m 12.142409,0 h 2.213303 a 107.15645,107.15645 0 0 1 -0.14056,0.79375 h -2.347145 c 0.08444,-0.2667 0.197522,-0.52537 0.274402,-0.79375 z m -101.103913,1.05833 h 2.383843 c 0.08694,0.26606 0.179996,0.52981 0.274399,0.79375 h -2.517166 a 107.15645,107.15645 0 0 1 -0.141076,-0.79375 z m 11.482519,0 h 2.100131 c -0.138536,0.26198 -0.268738,0.52798 -0.399971,0.79375 h -1.327573 c -0.134806,-0.25343 -0.247227,-0.52961 -0.372587,-0.79375 z m 12.186338,0 h 3.119702 c 0.14949,0.26639 0.30861,0.52935 0.464556,0.79375 h -4.190947 c 0.195924,-0.26675 0.400341,-0.52981 0.606689,-0.79375 z m 15.5742217,0 H 20.350459 c 0.04519,0.26562 0.07137,0.5285 0.111103,0.79375 H -4.3963589 c 0.03974,-0.26526 0.065908,-0.52813 0.1110986,-0.79375 z m 37.0907703,0 h 3.119191 c 0.206351,0.26396 0.410734,0.52699 0.606679,0.79375 h -4.190441 c 0.155956,-0.2644 0.315073,-0.52736 0.464571,-0.79375 z m 13.205912,0 h 2.10013 c -0.12537,0.26414 -0.237794,0.54032 -0.372586,0.79375 h -1.327568 c -0.131239,-0.26577 -0.261456,-0.53177 -0.399976,-0.79375 z m 11.198283,0 h 2.391585 a 107.15645,107.15645 0 0 1 -0.14056,0.79375 h -2.524908 c 0.0944,-0.2639 0.18696,-0.52773 0.273883,-0.79375 z m -100.549925,1.05834 h 2.561589 c 0.09686,0.2631 0.169625,0.5332 0.273897,0.79375 h -2.694411 a 107.15645,107.15645 0 0 1 -0.141075,-0.79375 z m 11.803406,0 h 1.057301 c -0.129249,0.26675 -0.275378,0.52489 -0.39997,0.79375 h -0.16383 c -0.16936,-0.26513 -0.3438,-0.53047 -0.493501,-0.79375 z m 10.884085,0 h 4.536149 c 0.158644,0.26455 0.310197,0.53146 0.474927,0.79375 h -5.571252 c 0.178329,-0.26564 0.370258,-0.52955 0.560176,-0.79375 z m 16.2196989,0 H 20.498252 c 0.03789,0.265 0.07877,0.52986 0.111104,0.79375 H -4.543626 c 0.032332,-0.26388 0.072681,-0.52877 0.1105959,-0.79375 z m 36.6153221,0 h 4.536159 c 0.1899,0.26416 0.381871,0.52816 0.560171,0.79375 h -5.571236 c 0.164719,-0.26229 0.316336,-0.5292 0.474906,-0.79375 z m 14.362948,0 h 1.057302 c -0.149699,0.26328 -0.324144,0.52862 -0.493512,0.79375 h -0.163814 c -0.124592,-0.26886 -0.270727,-0.527 -0.399976,-0.79375 z m 10.299113,0 h 2.569353 a 107.15645,107.15645 0 0 1 -0.14056,0.79375 h -2.702677 c 0.104278,-0.26057 0.177006,-0.53064 0.273884,-0.79375 z m -99.996481,1.05833 h 2.746084 c 0.109908,0.2673 0.232198,0.52963 0.349858,0.79375 h -2.954866 a 107.15645,107.15645 0 0 1 -0.141076,-0.79375 z m 21.762508,0 h 5.926243 c 0.172191,0.26997 0.370972,0.52651 0.549328,0.79375 h -6.965474 c 0.160497,-0.26479 0.316469,-0.52908 0.489903,-0.79375 z m 16.8087936,0 H 20.646564 c 0.01392,0.12037 0.03789,0.24275 0.05064,0.36277 -0.133506,0.15072 -0.275905,0.28261 -0.410827,0.43098 H -4.2206491 c -0.1349375,-0.14837 -0.2773362,-0.28026 -0.4108185,-0.43098 0.0127,-0.12002 0.036698,-0.2424 0.050641,-0.36277 z m 36.1099304,0 h 5.926252 c 0.173431,0.26467 0.329382,0.52896 0.489894,0.79375 h -6.965468 c 0.178347,-0.26724 0.377126,-0.52378 0.549322,-0.79375 z m 24.942662,0 h 2.754355 a 107.15645,107.15645 0 0 1 -0.14056,0.79375 h -2.963645 c 0.117665,-0.26412 0.239945,-0.52645 0.34985,-0.79375 z m -99.435802,1.05833 h 3.024637 c 0.12192,0.26668 0.247941,0.53084 0.377746,0.79375 h -3.26181 a 107.15645,107.15645 0 0 1 -0.140573,-0.79375 z m 20.921742,0 h 7.311681 c 0.18034,0.26628 0.36322,0.53052 0.549328,0.79375 h -8.288893 c 0.08525,-0.15835 0.151421,-0.3338 0.239765,-0.48886 0.05784,-0.1015 0.128217,-0.20326 0.188119,-0.30489 z m 18.0738193,0 H 20.034197 c -0.250185,0.27015 -0.501859,0.53549 -0.75706,0.79375 H -3.2114224 c -0.2551907,-0.25826 -0.5068623,-0.5236 -0.7570523,-0.79375 z m 34.7648047,0 h 7.3117 c 0.0599,0.10163 0.130267,0.20339 0.188103,0.30489 0.08835,0.15507 0.154514,0.3305 0.239778,0.48886 H 30.24701 c 0.1861,-0.26323 0.368986,-0.52747 0.54932,-0.79375 z m 25.208799,0 h 3.033405 a 107.15645,107.15645 0 0 1 -0.14056,0.79375 h -3.270601 c 0.129823,-0.26291 0.255828,-0.52707 0.377756,-0.79375 z m -98.781575,1.05833 h 3.349678 c 0.134223,0.26505 0.26236,0.53309 0.404627,0.79375 h -3.613229 a 107.15645,107.15645 0 0 1 -0.141076,-0.79375 z m 20.176542,0 h 8.602081 c 0.187933,0.26218 0.355997,0.53493 0.549301,0.79375 h -9.541007 c 0.127556,-0.26708 0.253894,-0.5339 0.389625,-0.79375 z m 19.6406824,0 H 19.024957 c -0.09751,0.0962 -0.189063,0.20729 -0.287322,0.30128 -0.176307,0.16865 -0.381957,0.32572 -0.564306,0.49247 H -2.1081099 c -0.1822715,-0.16669 -0.3875617,-0.32389 -0.5638007,-0.49247 -0.098266,-0.094 -0.189812,-0.20505 -0.287311,-0.30128 z m 33.0227806,0 h 8.602059 c 0.135707,0.2598 0.261596,0.52672 0.389123,0.79375 h -9.540502 c 0.193323,-0.25882 0.361365,-0.53157 0.54932,-0.79375 z m 25.42894,0 h 3.358451 a 107.15645,107.15645 0 0 1 -0.14056,0.79375 h -3.622519 c 0.142256,-0.26066 0.270389,-0.5287 0.404628,-0.79375 z m -60.2960516,0.38655 c 0.9615487,1.00226 1.9616208,1.95293 2.9894741,2.81119 3.2567033,2.71938 7.328691,5.08293 11.2726945,6.55826 3.134828,1.17264 6.650215,1.93175 10.00869,2.22157 -0.112726,0.3739 -0.235937,0.74781 -0.362768,1.12034 -1.279273,-0.051 -2.559769,-0.16451 -3.834392,-0.34416 1.220529,0.296 2.459313,0.53121 3.708303,0.70745 -0.102272,0.28967 -0.209741,0.57755 -0.319879,0.86506 -1.735074,-0.0865 -3.470661,-0.28628 -5.190379,-0.60151 1.638208,0.46391 3.311866,0.82192 5.005896,1.07435 -0.119896,0.29999 -0.242716,0.59839 -0.37052,0.89452 -1.112023,-0.0686 -2.223246,-0.18053 -3.33003,-0.34003 1.056732,0.25274 2.125511,0.46148 3.202905,0.63045 -0.164711,0.37249 -0.332848,0.7434 -0.509013,1.10743 -2.737435,-0.33289 -5.496187,-0.92379 -8.1323205,-1.77612 l -0.00106,-5.3e-4 c -0.5833878,-0.18862 -1.1609361,-0.38892 -1.7306449,-0.60203 -4.204417,-1.57274 -8.36626777,-3.93437 -11.9377723,-6.75721 l 0.00265,-5.3e-4 c -0.095964,-0.55344 -0.1743075,-1.10818 -0.2444485,-1.66295 0.036195,0.0277 0.071729,0.0561 0.1080029,0.0837 0.9961033,0.75745 2.0235862,1.46928 3.0778714,2.13372 -0.988986,-0.75824 -1.9430999,-1.55807 -2.8582408,-2.39676 -0.1326091,-0.12151 -0.2617787,-0.24634 -0.3927475,-0.36948 -0.043656,-0.39398 -0.080063,-0.78593 -0.1100666,-1.17719 0.3567112,0.28975 0.7169943,0.57497 1.082622,0.85214 1.3927138,1.05587 2.84847771,2.02023 4.35427436,2.88768 -1.4170554,-1.00591 -2.76664206,-2.0978 -4.03801786,-3.26646 -0.4984221,-0.45818 -0.9829006,-0.9298 -1.4567429,-1.41129 -0.012435,-0.25663 -0.028019,-0.51444 -0.034105,-0.76843 v -0.19585 c 0.6732323,0.58353 1.3629481,1.14588 2.0711848,1.68103 0.936572,0.70751 1.90259224,1.37226 2.89388014,1.99265 -0.92598874,-0.7142 -1.81863994,-1.46745 -2.67424954,-2.25619 -0.7976923,-0.73567 -1.561121,-1.50496 -2.2928791,-2.30116 0.00609,-0.46073 0.019579,-0.92522 0.041857,-1.39371 z m -37.7579194,0.67179 h 3.695911 c 0.149622,0.26711 0.313426,0.52965 0.472837,0.79375 h -3.929988 a 107.15645,107.15645 0 0 1 -0.23876,-0.79375 z m 19.442244,0 h 9.840225 c -0.005,0.26416 0.0056,0.52922 0.0056,0.79375 h -10.235539 c 0.116602,-0.27474 0.264822,-0.52455 0.389652,-0.79375 z m 21.3144364,0 H 17.870506 c -0.298744,0.26685 -0.596596,0.53317 -0.908989,0.79375 H -0.8963183 c -0.3123142,-0.26053 -0.6097852,-0.52695 -0.9084733,-0.79375 z m 31.1495326,0 h 9.840225 c 0.124796,0.26916 0.272545,0.51906 0.389123,0.79375 H 29.339056 c 0,-0.26453 0.01061,-0.52959 0.0057,-0.79375 z m 25.58655,0 h 3.704685 a 107.15645,107.15645 0 0 1 -0.238228,0.79375 h -3.939297 c 0.159409,-0.2641 0.323207,-0.52664 0.47284,-0.79375 z m -97.174417,1.05833 h 4.008014 c 0.164413,0.26601 0.328454,0.53118 0.502285,0.79375 h -4.271565 a 107.15645,107.15645 0 0 1 -0.238734,-0.79375 z m 18.631932,0 h 10.339414 c 0.0026,0.26462 0,0.52898 0.0056,0.79375 h -10.634504 c 0.100145,-0.26384 0.181928,-0.53335 0.289402,-0.79375 z m 23.01822049,0 H 16.658177 c -0.334624,0.27296 -0.683257,0.52962 -1.030428,0.79375 H 0.43747273 c -0.34718625,-0.26413 -0.69580124,-0.52078 -1.03044624,-0.79375 z m 29.93047851,0 h 10.338903 c 0.107453,0.26038 0.18927,0.52993 0.289388,0.79375 H 29.331822 c 0.0065,-0.26477 0.004,-0.52913 0.0057,-0.79375 z m 24.963334,0 h 4.017327 a 107.15645,107.15645 0 0 1 -0.23823,0.79375 h -4.281393 c 0.173829,-0.26257 0.337889,-0.52774 0.502296,-0.79375 z m -26.515176,0.89194 c -1.48e-4,0.006 2.9e-5,0.0122 0,0.0181 -0.11807,4.84798 -1.14386,9.84625 -2.849438,14.21567 -1.713984,4.39096 -4.332679,8.55449 -7.350974,11.86853 -0.869815,0.95505 -1.807022,1.8564 -2.784325,2.70784 -0.42078,-0.13961 -0.842205,-0.29465 -1.262456,-0.45785 0.751522,-0.69263 1.470101,-1.41716 2.15129,-2.17299 -0.784402,0.72551 -1.603346,1.40938 -2.451013,2.05259 -0.324858,-0.13063 -0.64829,-0.26851 -0.969449,-0.41238 1.21417,-1.07932 2.342406,-2.24679 3.370336,-3.48868 0.06564,-0.0793 0.130948,-0.1589 0.195853,-0.23874 -0.07216,0.0734 -0.144777,0.14642 -0.217556,0.2191 -1.197891,1.19625 -2.488557,2.29185 -3.852479,3.27422 -0.290677,-0.13755 -0.579324,-0.2785 -0.864031,-0.42633 1.033319,-0.88377 2.005065,-1.8331 2.905768,-2.83962 -1.041316,0.95471 -2.147287,1.83252 -3.303159,2.62775 -0.363297,-0.19694 -0.724239,-0.39697 -1.0728037,-0.60978 1.5326677,-1.13032 2.9856937,-2.41925 4.2416017,-3.79822 2.547948,-2.79761 4.876937,-6.49796 6.333463,-10.22935 0.780735,-2.00012 1.400985,-4.21101 1.831414,-6.47092 0.151006,-0.12259 0.302218,-0.24514 0.451136,-0.36949 0.302792,-0.25283 0.597379,-0.51948 0.894519,-0.78186 -0.146642,1.43565 -0.374711,2.86698 -0.685747,4.28397 0.502436,-1.54695 0.906616,-3.13182 1.209228,-4.74079 0.282636,-0.25767 0.556736,-0.52649 0.833541,-0.7922 -0.165614,2.48773 -0.569574,4.97107 -1.212329,7.40316 0.974712,-2.64524 1.666523,-5.41067 2.058273,-8.23154 0.209807,-0.21215 0.415266,-0.42849 0.621149,-0.64492 -0.07108,2.57776 -0.38917,5.16078 -0.955495,7.70031 0.890392,-2.77011 1.485236,-5.64997 1.767851,-8.57416 0.325752,-0.36051 0.651645,-0.72121 0.965832,-1.0914 z m -69.710468,0.16639 h 4.37544 c 0.180208,0.26623 0.362506,0.53145 0.551895,0.79375 h -4.689105 a 107.15645,107.15645 0 0 1 -0.23823,-0.79375 z m 17.928087,0 h 10.73269 c 0.0082,0.26479 0.02794,0.52902 0.04082,0.79375 h -11.06289 c 0.0903,-0.26676 0.191717,-0.52899 0.289375,-0.79375 z m 24.79333614,0 H 15.268596 c -0.358457,0.26637 -0.709893,0.53858 -1.078487,0.79375 H 1.8750863 C 1.5064952,232.69121 1.1550756,232.419 0.79661814,232.15263 Z m 28.53313686,0 h 10.732678 c 0.09767,0.26474 0.199077,0.527 0.289388,0.79375 H 29.288412 c 0.01291,-0.26473 0.03324,-0.52896 0.04134,-0.79375 z m 24.285337,0 h 4.385262 a 107.15645,107.15645 0 0 1 -0.238228,0.79375 H 53.06319 c 0.189386,-0.2623 0.371681,-0.52752 0.551902,-0.79375 z m -95.22208,1.05834 h 4.793483 c 0.198067,0.26868 0.409919,0.52961 0.617034,0.79375 h -5.171783 a 107.15645,107.15645 0 0 1 -0.238734,-0.79375 z m 17.224269,0 h 11.175021 c 0.01455,0.26468 0.02678,0.52932 0.04598,0.79375 h -10.930598 c -0.150495,-0.10595 -0.32004,-0.20366 -0.466117,-0.31109 0.05069,-0.16275 0.122291,-0.32021 0.17571,-0.48266 z m 26.6174851,0 H 13.830443 c -0.418518,0.28291 -0.854157,0.52771 -1.281576,0.79375 H 3.5163443 c -0.427363,-0.26601 -0.8631132,-0.51088 -1.2815782,-0.79375 z m 27.0381439,0 h 11.175544 c 0.05341,0.16244 0.125016,0.31992 0.175702,0.48266 -0.146066,0.10741 -0.315653,0.20516 -0.466121,0.31109 H 29.226917 c 0.01921,-0.26442 0.03151,-0.52907 0.04599,-0.79375 z m 23.60631,0 h 4.803841 a 107.15645,107.15645 0 0 1 -0.238229,0.79375 h -5.182629 c 0.207082,-0.26411 0.418994,-0.5251 0.617017,-0.79375 z m -94.167888,1.05833 h 5.302515 c 0.211481,0.26437 0.412538,0.53439 0.632513,0.79375 h -5.696294 a 107.15645,107.15645 0 0 1 -0.238734,-0.79375 z m 17.593231,0 h 10.549228 c 0.0209,0.26517 0.04993,0.52906 0.07546,0.79375 h -9.435094 c -0.417142,-0.25383 -0.796502,-0.527 -1.189593,-0.79375 z m 27.6391442,0 h 8.1777948 c -0.448022,0.27104 -0.889559,0.54421 -1.342554,0.79375 H 5.2867772 c -0.4530752,-0.24959 -0.894969,-0.52266 -1.34307,-0.79375 z m 25.2677078,0 H 39.76116 c -0.393137,0.26678 -0.772907,0.53989 -1.190109,0.79375 h -9.435084 c 0.02553,-0.26469 0.05461,-0.52858 0.07545,-0.79375 z m 22.83995,0 h 5.313886 a 107.15645,107.15645 0 0 1 -0.238228,0.79375 h -5.708179 c 0.219956,-0.25932 0.421066,-0.52942 0.632521,-0.79375 z m -77.098135,1.03663 c 1.548606,1.10837 3.223127,2.09197 4.922705,2.86029 3.44805,1.55873 7.68723,2.6307 11.6860899,2.86288 2.143469,0.12445 4.4377239,0.0311 6.7200197,-0.25787 0.1632479,0.10573 0.3266282,0.21151 0.4909079,0.31471 0.33403649,0.20984 0.67873566,0.40775 1.02010107,0.60926 -1.41070537,0.30418 -2.84281557,0.52922 -4.28656747,0.67128 1.6264996,-1.9e-4 3.2586877,-0.10583 4.88240913,-0.31522 0.33239604,0.18918 0.67307357,0.36713 1.01129037,0.54828 -2.4171539,0.61125 -4.9038668,0.99455 -7.4155563,1.13482 2.8169922,0.10958 5.66073385,-0.0874 8.4645948,-0.58653 0.2666021,0.13398 0.5361808,0.26278 0.8056351,0.39171 -2.47356044,0.72897 -5.02843,1.22456 -7.6186479,1.47071 2.9096758,-0.009 5.8323427,-0.33306 8.700754,-0.9679 0.4435264,0.1984 0.8871929,0.39694 1.3363522,0.58136 -0.00571,0.002 -0.011403,0.003 -0.017039,0.005 -4.6471998,1.38581 -9.7180717,1.95497 -14.4006939,1.6831 -4.7056936,-0.27322 -9.4748346,-1.47736 -13.5593666,-3.32383 -1.177078,-0.53212 -2.323677,-1.1449 -3.435456,-1.81126 0.0026,-0.44333 0.01958,-0.89192 0.04495,-1.34204 0.890958,0.50071 1.802262,0.96032 2.731611,1.3746 -0.932392,-0.52181 -1.835732,-1.08964 -2.709386,-1.69706 0.02381,-0.34932 0.05546,-0.69965 0.09303,-1.04954 1.40171,0.82122 2.860146,1.53366 4.358905,2.12751 0.0957,0.0379 0.191849,0.0756 0.28784,0.11266 -0.09208,-0.046 -0.183806,-0.0923 -0.275431,-0.13901 -1.50786,-0.7696 -2.948887,-1.65896 -4.304665,-2.65255 0.04098,-0.31896 0.08535,-0.63698 0.13798,-0.95343 1.159828,0.70964 2.363682,1.34008 3.59926,1.88567 -1.229757,-0.69533 -2.406703,-1.4755 -3.520202,-2.32905 0.07504,-0.40638 0.153881,-0.81145 0.248576,-1.20872 z m -15.923578,0.0217 h 5.854938 c 0.232437,0.26864 0.473763,0.531 0.714693,0.79375 h -6.3314 a 107.15645,107.15645 0 0 1 -0.238231,-0.79375 z m 18.935806,0 h 8.992208 c 0.02709,0.2648 0.05405,0.52963 0.08578,0.79375 h -7.632594 c -0.492416,-0.25395 -0.974645,-0.51854 -1.445392,-0.79375 z m 27.8406671,0 H 10.2596 c -0.5195864,0.2755 -1.0388418,0.55103 -1.5580442,0.79375 H 7.3641691 c -0.5191998,-0.24272 -1.0384552,-0.51825 -1.558044,-0.79375 z m 23.3014199,0 h 8.992216 c -0.470765,0.27521 -0.952981,0.5398 -1.445389,0.79375 h -7.63261 c 0.03173,-0.26412 0.05868,-0.52895 0.08578,-0.79375 z m 22.073071,0 h 5.866826 a 107.15645,107.15645 0 0 1 -0.238229,0.79375 h -6.342766 c 0.240877,-0.26271 0.481777,-0.52515 0.714169,-0.79375 z m -91.833146,1.05833 h 6.490044 c 0.09072,0.0971 0.174307,0.19937 0.266118,0.29559 -0.02355,0.16544 -0.06331,0.33272 -0.08784,0.49816 h -6.429587 a 107.15645,107.15645 0 0 1 -0.238733,-0.79375 z m 20.556352,0 h 7.168568 c 0.03344,0.26539 0.07149,0.52927 0.109537,0.79375 h -5.486479 c -0.603012,-0.25101 -1.206315,-0.50509 -1.791626,-0.79375 z m 28.0303389,0 h 0.197403 c -0.033245,0.0128 -0.066752,0.0252 -0.0987,0.0393 -0.031948,-0.0141 -0.065455,-0.0265 -0.098703,-0.0393 z m 21.0586631,0 h 7.168555 c -0.585406,0.28871 -1.188506,0.5427 -1.791623,0.79375 h -5.486485 c 0.03805,-0.26449 0.0761,-0.52835 0.109553,-0.79375 z m 21.235395,0 h 6.501929 a 107.15645,107.15645 0 0 1 -0.238228,0.79375 h -6.441983 c -0.02447,-0.16544 -0.06446,-0.33272 -0.08785,-0.49816 0.09183,-0.0962 0.1754,-0.19849 0.266134,-0.29559 z m -90.562429,1.05833 h 6.32624 c -0.03093,0.26359 -0.03066,0.52943 -0.05479,0.79375 h -6.032711 a 107.15645,107.15645 0 0 1 -0.238734,-0.79375 z m 22.63222,0 h 4.925774 c 0.03979,0.26517 0.08128,0.52972 0.125598,0.79375 h -2.698565 c -0.784939,-0.22551 -1.572683,-0.48923 -2.352807,-0.79375 z m 46.543401,0 h 4.926314 c -0.780145,0.30452 -1.56787,0.56824 -2.352828,0.79375 h -2.698541 c 0.0443,-0.26401 0.08532,-0.5286 0.125055,-0.79375 z m 21.232297,0 h 6.33863 a 107.15645,107.15645 0 0 1 -0.238228,0.79375 h -6.045626 c -0.02413,-0.26432 -0.02384,-0.53016 -0.05478,-0.79375 z m -1.522905,0.67851 c 0.403823,4.04536 -0.02625,8.22414 -1.175639,11.90367 -1.222745,3.91434 -3.413943,7.63214 -6.148461,10.52752 -2.740158,2.90136 -6.303288,5.24838 -10.064502,6.62286 -3.749828,1.3703 -8.052559,1.92786 -12.166184,1.51825 -4.086492,-0.4069 -8.391194,-1.75533 -12.1548128,-3.90674 -3.7352075,-2.13518 -7.33786938,-5.2115 -10.1440931,-8.80153 -1.8673498,-2.38894 -3.5195404,-5.14709 -4.8358689,-8.06772 0.4011613,0.0183 0.8032485,0.0112 1.2050977,0.0186 0.7368646,1.41441 1.5594806,2.77917 2.4629004,4.08295 -0.74676,-1.32066 -1.4104673,-2.68293 -1.9900635,-4.07572 0.3169443,0.002 0.6335183,0.0193 0.9503304,0.0145 0.8937095,1.64148 1.9086247,3.20918 3.0333949,4.68447 -0.9390591,-1.50876 -1.7618074,-3.08255 -2.465996,-4.70152 0.3341423,-0.01 0.6681523,-0.0212 1.0015008,-0.0393 0.5310717,0.93132 1.1021219,1.83662 1.7125421,2.71147 -0.5001154,-0.89208 -0.9591939,-1.80489 -1.3782146,-2.73368 0.2552436,-0.016 0.510884,-0.029 0.7653338,-0.0501 0.1735402,-0.0144 0.3489854,-0.0396 0.5229754,-0.0563 0.9482402,1.78926 2.03136497,3.47738 3.18534516,4.9537 2.34512374,3.00016 5.51076544,5.69972 8.60101144,7.46621 3.0618298,1.75026 6.7730158,2.90886 10.0531348,3.23547 3.252978,0.32391 6.893406,-0.1518 9.825238,-1.22318 2.920445,-1.06723 5.908646,-3.03601 8.033618,-5.28599 2.130605,-2.25594 3.98222,-5.39163 4.944401,-8.47183 0.604888,-1.93642 0.974905,-4.15133 1.064019,-6.37997 0.407379,-0.25462 0.802944,-0.52015 1.196308,-0.78755 0.04849,1.06573 0.03324,2.13731 -0.04961,3.20652 0.201565,-1.12806 0.327245,-2.274 0.379823,-3.42718 0.296344,-0.20626 0.581062,-0.42169 0.868164,-0.6351 0.143952,1.92255 0.08572,3.87066 -0.182936,5.79861 0.480065,-2.02186 0.72826,-4.11113 0.740008,-6.21202 0.255397,-0.19848 0.503846,-0.40546 0.752409,-0.61237 0.192833,1.79242 0.217247,3.61093 0.0677,5.42396 0.333544,-1.91331 0.469982,-3.86831 0.411861,-5.826 0.330997,-0.28661 0.658802,-0.57705 0.979268,-0.87489 z m -88.566693,0.37983 h 5.934525 c -0.02196,0.2645 -0.03961,0.52885 -0.05477,0.79375 h -5.641525 a 107.15645,107.15645 0 0 1 -0.23823,-0.79375 z m 25.761738,0 h 1.645391 c 0.02275,0.13093 0.03813,0.26368 0.06199,0.39429 -0.58891,-0.11006 -1.143265,-0.2572 -1.707383,-0.39429 z m 42.928648,0 h 1.645378 c -0.564124,0.13709 -1.118463,0.28423 -1.707388,0.39429 0.02387,-0.13062 0.03925,-0.26336 0.06201,-0.39429 z m 21.472591,0 h 5.947958 a 107.15645,107.15645 0 0 1 -0.238228,0.79375 h -5.654953 c -0.01516,-0.2649 -0.03289,-0.52925 -0.05478,-0.79375 z m -53.9796453,0.75706 c 0.016669,0.0121 0.033073,0.0244 0.049609,0.0367 h -0.039793 c -0.00318,-0.0122 -0.00688,-0.0242 -0.00979,-0.0367 z m 23.7308463,0 c -0.003,0.0125 -0.0066,0.0245 -0.0098,0.0367 h -0.03979 c 0.01654,-0.0122 0.03296,-0.0246 0.04961,-0.0367 z m -59.59636,0.30127 h 5.543841 c -0.01296,0.26498 -0.04897,0.52873 -0.0553,0.79375 h -5.24981 a 107.15645,107.15645 0 0 1 -0.238733,-0.79375 z m 89.918023,0 h 5.557284 a 107.15645,107.15645 0 0 1 -0.238228,0.79375 h -5.263761 c -0.0063,-0.26502 -0.04235,-0.52877 -0.0553,-0.79375 z m -89.599703,1.05833 h 5.152152 c -0.0042,0.26578 0.02646,0.52828 0.02895,0.79375 h -4.942337 a 107.15645,107.15645 0 0 1 -0.23876,-0.79375 z m 89.673085,0 h 5.166093 a 107.15645,107.15645 0 0 1 -0.238229,0.79375 h -4.956804 c 0.0024,-0.26547 0.03307,-0.52797 0.02894,-0.79375 z m -89.354765,1.05834 h 4.872593 c 0.0045,0.26531 0.01826,0.52909 0.02945,0.79375 h -4.567158 a 107.15645,107.15645 0 0 1 -0.334883,-0.79375 z m 89.316006,0 h 4.887558 a 107.15645,107.15645 0 0 1 -0.336415,0.79375 h -4.580599 c 0.01116,-0.26465 0.02482,-0.52845 0.02946,-0.79375 z m -88.866399,1.05833 h 4.46225 c 0.01323,0.26437 0.0098,0.53038 0.02945,0.79375 h -4.148588 a 107.15645,107.15645 0 0 1 -0.343112,-0.79375 z m 88.827127,0 h 4.47621 a 107.15645,107.15645 0 0 1 -0.342614,0.79375 h -4.163571 c 0.01974,-0.26337 0.01664,-0.52937 0.02998,-0.79375 z m -75.877546,0.27182 c 0.325385,0.18172 0.662305,0.34802 0.993749,0.52193 h -0.925539 c -0.01773,-0.17638 -0.05395,-0.34462 -0.06821,-0.52193 z m 67.390208,0 c -0.01423,0.17731 -0.05052,0.34555 -0.06821,0.52193 h -0.925525 c 0.331374,-0.17387 0.668416,-0.34025 0.993738,-0.52193 z m -79.881954,0.78651 h 4.04368 c 0.02222,0.26707 0.0622,0.52809 0.09096,0.79375 h -3.791505 a 107.15645,107.15645 0 0 1 -0.343138,-0.79375 z m 12.59459,0 h 1.394751 c 0.547713,0.27793 1.104185,0.54008 1.666557,0.79375 h -2.957962 c -0.03746,-0.26363 -0.07379,-0.52647 -0.103346,-0.79375 z m 65.78978,0 h 1.394748 c -0.02955,0.26728 -0.06589,0.53012 -0.103354,0.79375 h -2.958476 c 0.562475,-0.25372 1.119275,-0.51576 1.667082,-0.79375 z m 9.945129,0 h 4.058668 a 107.15645,107.15645 0 0 1 -0.342614,0.79375 h -3.806486 c 0.02876,-0.26564 0.06822,-0.5267 0.09043,-0.79375 z m -87.871638,1.05834 h 3.714512 c 0.03111,0.2666 0.07551,0.52893 0.113162,0.79375 h -3.484536 a 107.15645,107.15645 0 0 1 -0.343138,-0.79375 z m 12.274709,0 h 3.501072 c 0.658204,0.28398 1.325668,0.54808 2.000912,0.79375 h -5.391415 c -0.04818,-0.25833 -0.07025,-0.53002 -0.110569,-0.79375 z m 63.406977,0 h 3.501593 c -0.04032,0.26373 -0.06233,0.53542 -0.110587,0.79375 h -5.391918 c 0.675373,-0.24571 1.342575,-0.50972 2.000912,-0.79375 z m 12.061795,0 h 3.730006 a 107.15645,107.15645 0 0 1 -0.343133,0.79375 h -3.500043 c 0.03765,-0.26482 0.08205,-0.52715 0.11317,-0.79375 z m -42.0144883,0.6599 c 0.1404806,0.0484 0.2838133,0.087 0.4247806,0.13385 H 7.6080831 c 0.1409356,-0.0469 0.2843319,-0.0855 0.4247806,-0.13385 z m -45.2711307,0.39843 h 3.407542 c 0.03982,0.26415 0.06691,0.53175 0.113162,0.79375 h -3.177593 a 107.15645,107.15645 0 0 1 -0.343111,-0.79375 z m 11.992027,0 h 6.097826 c 0.533479,0.18013 1.067541,0.3596 1.609698,0.51263 0.362506,0.1023 0.734431,0.18913 1.103313,0.28112 h -8.617056 c -0.06368,-0.26607 -0.139091,-0.51942 -0.193781,-0.79375 z m 32.0145806,0 h 2.5285277 c 0.9507407,0.29431 1.9076727,0.56499 2.8721767,0.79375 H 3.8966828 c 0.9644221,-0.22874 1.9209914,-0.49947 2.8716578,-0.79375 z m 28.4458094,0 h 6.097817 c -0.0547,0.27433 -0.130088,0.52768 -0.193786,0.79375 h -8.617045 c 0.368866,-0.092 0.740852,-0.17882 1.103291,-0.28112 0.542219,-0.15303 1.076225,-0.3325 1.609723,-0.51263 z m 14.682308,0 h 3.423563 a 107.15645,107.15645 0 0 1 -0.342615,0.79375 h -3.194121 c 0.04627,-0.262 0.07335,-0.52959 0.113173,-0.79375 z m -86.67689,1.05833 h 3.100599 c 0.04953,0.26726 0.106071,0.52915 0.162269,0.79375 h -2.91973 a 107.15645,107.15645 0 0 1 -0.343138,-0.79375 z m 11.792055,0 h 9.667108 c 1.687962,0.36823 3.429211,0.63089 5.192977,0.79375 h -14.666304 c -0.07557,-0.25259 -0.127106,-0.53078 -0.193781,-0.79375 z m 27.653091,0 h 10.735781 c 1.091552,0.22751 2.185424,0.42799 3.276801,0.57671 -0.04118,0.0746 -0.08762,0.14284 -0.129191,0.21704 H -0.48237768 c -0.041566,-0.0742 -0.0880004,-0.14247 -0.12919604,-0.21704 1.09130041,-0.14871 2.18482332,-0.34922 3.27628772,-0.57671 z m 28.72228,0 h 9.66711 c -0.06668,0.26297 -0.118202,0.54116 -0.193789,0.79375 H 26.194028 c 1.763762,-0.16286 3.505014,-0.42552 5.192966,-0.79375 z m 18.358567,0 h 3.117122 a 107.15645,107.15645 0 0 1 -0.342614,0.79375 h -2.936772 c 0.05618,-0.26461 0.112742,-0.52648 0.162264,-0.79375 z m -86.068132,1.05834 h 2.872184 c 0.05948,0.26836 0.134753,0.52855 0.201004,0.79375 h -2.73005 a 107.15645,107.15645 0 0 1 -0.343138,-0.79375 z m 11.599809,0 h 14.9081334 c 0.1160992,0.268 0.2464858,0.5284 0.3679296,0.79375 h -14.972718 c -0.09771,-0.26497 -0.220054,-0.53012 -0.303345,-0.79375 z m 24.39799661,0 H 16.390493 c -0.15376,0.26966 -0.31409,0.53024 -0.47284,0.79375 H 0.14807148 c -0.15877646,-0.26353 -0.31906104,-0.52406 -0.47283687,-0.79375 z m 26.20511839,0 h 14.908133 c -0.08329,0.26363 -0.205647,0.52878 -0.303342,0.79375 H 25.5119 c 0.12147,-0.2654 0.252341,-0.5257 0.368453,-0.79375 z m 23.635766,0 h 2.889745 a 107.15645,107.15645 0 0 1 -0.34313,0.79375 h -2.747637 c 0.06627,-0.2652 0.141549,-0.52539 0.201022,-0.79375 z m -85.381358,1.05833 h 2.682531 c 0.06853,0.26406 0.125783,0.53328 0.201031,0.79375 h -2.539894 a 107.15645,107.15645 0 0 1 -0.343668,-0.79375 z m 11.547105,0 h 14.9944398 c 0.12319,0.2644 0.2395537,0.53234 0.3679295,0.79375 H -24.014789 c -0.115227,-0.26417 -0.201084,-0.5287 -0.303345,-0.79375 z m 24.62381777,0 H 15.759522 c -0.162967,0.26537 -0.319476,0.53668 -0.487306,0.79375 H 0.79352251 c -0.16790458,-0.25717 -0.32480249,-0.52827 -0.48783874,-0.79375 z m 25.08374323,0 h 14.994432 c -0.102256,0.26505 -0.188116,0.52958 -0.303339,0.79375 H 25.020974 c 0.128397,-0.26145 0.245226,-0.5293 0.368453,-0.79375 z m 23.859008,0 h 2.700094 a 107.15645,107.15645 0 0 1 -0.342617,0.79375 h -2.558499 c 0.07523,-0.26047 0.132495,-0.52969 0.201022,-0.79375 z m -84.655812,1.05833 h 2.492877 c 0.03469,0.1161 0.0539,0.24023 0.08991,0.35554 0.04604,0.14734 0.102394,0.29158 0.150892,0.43821 h -2.390034 a 107.15645,107.15645 0 0 1 -0.343641,-0.79375 z m 11.499029,0 h 15.075059 c 0.1345671,0.26935 0.2833423,0.52797 0.4232275,0.79375 H -23.498032 c -0.134117,-0.26629 -0.288237,-0.5242 -0.410316,-0.79375 z m 24.88893093,0 H 15.084629 c -0.183158,0.27411 -0.372727,0.53173 -0.561205,0.79375 H 1.5422933 c -0.1885156,-0.26206 -0.3785129,-0.51959 -0.56171037,-0.79375 z m 23.91791807,0 h 15.075563 c -0.122044,0.26952 -0.276211,0.52749 -0.41031,0.79375 H 24.47527 c 0.139894,-0.2658 0.288661,-0.52438 0.423231,-0.79375 z m 24.081734,0 h 2.510957 a 107.15645,107.15645 0 0 1 -0.342615,0.79375 h -2.409155 c 0.04849,-0.14662 0.104875,-0.29089 0.150894,-0.43821 0.03602,-0.11531 0.05523,-0.23944 0.08992,-0.35554 z m -83.929751,1.05834 h 2.366777 c 0.09051,0.26484 0.175472,0.53153 0.273871,0.79375 h -2.297007 a 107.15645,107.15645 0 0 1 -0.343641,-0.79375 z m 11.587903,0 h 15.0952202 c 0.1423194,0.26584 0.2839773,0.53189 0.4314825,0.79375 H -22.951297 c -0.148378,-0.25919 -0.272441,-0.52894 -0.410316,-0.79375 z m 25.0909932,0 H 14.336355 c -0.131283,0.17779 -0.25391,0.37677 -0.387575,0.54777 -0.06532,0.0836 -0.142028,0.16286 -0.208772,0.24598 H 2.3257193 c -0.066757,-0.0831 -0.1434465,-0.16241 -0.2087748,-0.24598 -0.133649,-0.17098 -0.2563045,-0.37 -0.3875643,-0.54777 z m 22.6022298,0 h 15.095201 c -0.137859,0.26478 -0.261932,0.53458 -0.410311,0.79375 H 23.900627 c 0.147476,-0.26182 0.288669,-0.52796 0.430983,-0.79375 z m 24.316345,0 h 2.386418 a 107.15645,107.15645 0 0 1 -0.343133,0.79375 h -2.317171 c 0.0984,-0.2622 0.18337,-0.52893 0.273886,-0.79375 z m -83.139636,1.05833 h 2.28772 c 0.103161,0.26675 0.214974,0.53013 0.326072,0.79375 h -2.270125 a 107.15645,107.15645 0 0 1 -0.343667,-0.79375 z m 11.687149,0 h 15.1132905 c 0.1535112,0.268 0.3115204,0.53037 0.4702439,0.79375 H -22.282086 c -0.173196,-0.26653 -0.359542,-0.51792 -0.522446,-0.79375 z m 25.3545253,0 H 13.515731 c -0.220096,0.26651 -0.440062,0.53298 -0.673343,0.79375 H 3.2228208 c -0.2332434,-0.26073 -0.4527629,-0.52728 -0.6728275,-0.79375 z m 21.2064567,0 h 15.113291 c -0.162906,0.27583 -0.349239,0.52722 -0.522449,0.79375 h -15.06058 c 0.158692,-0.26331 0.316283,-0.52583 0.469738,-0.79375 z m 24.512717,0 h 2.307868 a 107.15645,107.15645 0 0 1 -0.342614,0.79375 h -2.290816 c 0.111086,-0.26359 0.222417,-0.52703 0.325562,-0.79375 z m -82.280259,1.05833 h 2.241736 c 0.116945,0.26999 0.256831,0.52751 0.381899,0.79375 h -2.164212 a 107.15645,107.15645 0 0 1 -0.459423,-0.79375 z m 11.903155,0 h 15.0533359 c 0.1639887,0.26735 0.3305968,0.53165 0.4997185,0.79375 H -21.585491 c -0.184732,-0.25069 -0.346102,-0.53081 -0.522446,-0.79375 z m 25.5576169,0 h 9.1658491 c -0.249738,0.27212 -0.519552,0.5298 -0.781346,0.79375 H 4.2310288 C 3.9692289,253.84918 3.6994174,253.5915 3.4496799,253.31938 Z m 19.6706331,0 h 15.052828 c -0.176326,0.26294 -0.337717,0.54306 -0.522449,0.79375 H 22.620086 c 0.169172,-0.26215 0.336283,-0.52635 0.500227,-0.79375 z m 24.714771,0 h 2.260327 a 107.15645,107.15645 0 0 1 -0.458369,0.79375 h -2.184363 c 0.125079,-0.26631 0.265438,-0.52369 0.382405,-0.79375 z m -81.233798,1.05834 h 2.147147 c 0.129302,0.26817 0.269399,0.52985 0.406691,0.79375 h -2.094441 a 107.15645,107.15645 0 0 1 -0.459397,-0.79375 z m 12.030261,0 h 14.9799669 c 0.1753129,0.26707 0.3502025,0.53267 0.5307277,0.79375 H -20.70853 c -0.222223,-0.26003 -0.445955,-0.51364 -0.659923,-0.79375 z m 25.8599297,0 h 7.0822553 c -0.275413,0.27078 -0.55368,0.53376 -0.839226,0.79375 H 5.3307033 c -0.285541,-0.25999 -0.5638139,-0.52297 -0.8392266,-0.79375 z m 17.9622103,0 h 14.979965 c -0.214001,0.28015 -0.43765,0.53368 -0.659908,0.79375 H 21.92297 c 0.180523,-0.26108 0.355425,-0.52669 0.530717,-0.79375 z m 24.863599,0 h 2.166792 a 107.15645,107.15645 0 0 1 -0.458369,0.79375 h -2.115632 c 0.137332,-0.26395 0.277878,-0.52552 0.407209,-0.79375 z m -80.103648,1.05833 h 2.077403 c 0.139911,0.2624 0.25908,0.53608 0.406691,0.79375 h -2.025201 a 107.15645,107.15645 0 0 1 -0.458893,-0.79375 z m 12.297966,0 h 14.8233865 c 0.1892565,0.26882 0.3826404,0.53191 0.577215,0.79375 H -19.731344 c -0.137107,-0.13526 -0.298768,-0.2617 -0.428387,-0.39894 -0.113215,-0.11987 -0.216932,-0.2691 -0.328665,-0.39481 z m 26.118306,0 h 4.805392 c -0.302491,0.26826 -0.6012581,0.53969 -0.9115747,0.79375 H 6.5414816 C 6.231173,255.97566 5.9323896,255.70422 5.62991,255.43596 Z m 16.100824,0 h 14.822869 c -0.111673,0.12565 -0.215001,0.275 -0.328145,0.39481 -0.129616,0.13724 -0.291279,0.26368 -0.4284,0.39894 H 21.153509 c 0.194622,-0.26187 0.387945,-0.5249 0.577225,-0.79375 z m 25.043434,0 h 2.09858 a 107.15645,107.15645 0 0 1 -0.458888,0.79375 h -2.046385 c 0.147595,-0.25765 0.266782,-0.53137 0.406693,-0.79375 z m -78.948152,1.05833 h 2.010225 c 0.161316,0.27512 0.356209,0.52463 0.526045,0.79375 h -2.077376 a 107.15645,107.15645 0 0 1 -0.458894,-0.79375 z m 12.726882,0 h 14.5515538 c 0.1163372,0.15372 0.2239962,0.31915 0.3421062,0.47026 0.087709,0.11223 0.1891771,0.2126 0.2785269,0.32349 H -18.594456 c -0.306626,-0.25479 -0.570547,-0.52764 -0.852646,-0.79375 z m 26.3317138,0 h 2.2959853 c -0.3411722,0.2712 -0.6821143,0.54249 -1.0283613,0.79375 H 7.9134917 c -0.3462867,-0.25129 -0.687668,-0.52251 -1.0288799,-0.79375 z m 14.0766612,0 H 35.51284 c -0.282112,0.26611 -0.546036,0.53896 -0.852662,0.79375 H 20.340121 c 0.0894,-0.11097 0.191268,-0.21119 0.279054,-0.32349 0.118128,-0.15112 0.225755,-0.31652 0.342098,-0.47026 z m 25.267708,0 h 2.032434 a 107.15645,107.15645 0 0 1 -0.458888,0.79375 h -2.099612 c 0.169844,-0.26912 0.364728,-0.51863 0.526066,-0.79375 z m -77.791116,1.05834 h 2.10013 c 0.172615,0.26703 0.345335,0.53327 0.526071,0.79375 h -2.166805 a 107.15645,107.15645 0 0 1 -0.459396,-0.79375 z m 13.315977,0 h 14.1996577 c 0.2223558,0.26951 0.4526227,0.53185 0.6836833,0.79375 h -13.80744 c -0.368009,-0.25623 -0.729403,-0.51829 -1.075901,-0.79375 z m 38.358386,0 h 14.199134 c -0.346429,0.27541 -0.707948,0.53757 -1.075904,0.79375 H 19.428034 c 0.231103,-0.26196 0.461785,-0.52418 0.684194,-0.79375 z m 25.414985,0 h 2.122353 a 107.15645,107.15645 0 0 1 -0.458369,0.79375 h -2.190049 c 0.180737,-0.26048 0.353449,-0.52672 0.526065,-0.79375 z m -76.47697,1.05833 h 2.189004 c 0.188569,0.2655 0.368088,0.53577 0.564833,0.79375 h -2.294441 a 107.15645,107.15645 0 0 1 -0.459396,-0.79375 z m 14.138143,0 h 13.6766826 c 0.2384954,0.26474 0.467995,0.53638 0.7141633,0.79375 H -15.476289 c -0.450664,-0.25479 -0.901435,-0.50486 -1.335325,-0.79375 z m 36.011754,0 h 13.676683 c -0.433845,0.28886 -0.884195,0.53898 -1.334802,0.79375 H 18.485972 c 0.246155,-0.25736 0.475676,-0.52902 0.714168,-0.79375 z m 25.625824,0 h 2.212269 a 107.15645,107.15645 0 0 1 -0.458369,0.79375 h -2.318721 c 0.196738,-0.25798 0.376256,-0.52824 0.564821,-0.79375 z m -75.163369,1.05833 h 2.363682 c 0.214074,0.27371 0.444182,0.52943 0.667146,0.79375 h -2.571432 a 107.15645,107.15645 0 0 1 -0.459396,-0.79375 z m 15.313792,0 h 12.8715558 c 0.2634191,0.27001 0.5342466,0.53136 0.8046243,0.79375 H -13.30951 c -0.573273,-0.23434 -1.143979,-0.49016 -1.714103,-0.79375 z m 33.241384,0 h 12.871048 c -0.570016,0.30352 -1.140415,0.55946 -1.71359,0.79375 H 17.413168 c 0.270402,-0.26242 0.541176,-0.5237 0.804603,-0.79375 z m 25.821161,0 h 2.387971 a 107.15645,107.15645 0 0 1 -0.458888,0.79375 h -2.595708 c 0.222914,-0.26426 0.452609,-0.5201 0.666625,-0.79375 z m -73.763959,1.05834 h 2.640648 c 0.225769,0.26098 0.432487,0.54289 0.666644,0.79375 h -2.847896 a 107.15645,107.15645 0 0 1 -0.459396,-0.79375 z m 17.029959,0 h 11.6158168 c 0.18962686,0.18096 0.36790311,0.37486 0.56017581,0.55242 -0.36890853,0.0906 -0.73342501,0.16507 -1.09812661,0.24133 h -8.0206849 c -1.0724361,-0.20206 -2.1164811,-0.45265 -3.0571811,-0.79375 z m 29.840036,0 h 11.615827 c -0.940625,0.34108 -1.98483,0.5917 -3.057175,0.79375 h -8.020701 c -0.364802,-0.0763 -0.729099,-0.15067 -1.098124,-0.24133 0.19231,-0.17758 0.370528,-0.37144 0.560173,-0.55242 z m 26.005131,0 h 2.665471 a 107.15645,107.15645 0 0 1 -0.458888,0.79375 h -2.873209 c 0.234165,-0.25089 0.440836,-0.53274 0.666626,-0.79375 z m -72.262774,1.05833 h 2.940394 c 0.258842,0.26996 0.524959,0.53391 0.795813,0.79375 h -3.277314 a 107.15645,107.15645 0 0 1 -0.458893,-0.79375 z m 21.1330905,0 h 4.801235 c -0.1432719,0.0185 -0.2923911,0.05 -0.4335463,0.0641 -1.3992754,0.13933 -2.8957851,0.10137 -4.3676887,-0.0641 z m 27.2231325,0 h 4.801259 c -1.471925,0.16545 -2.967887,0.20341 -4.367176,0.0641 -0.14129,-0.0141 -0.290682,-0.0456 -0.434083,-0.0641 z m 22.994461,0 h 2.965712 a 107.15645,107.15645 0 0 1 -0.45837,0.79375 h -3.303159 c 0.270854,-0.25984 0.536962,-0.52379 0.795817,-0.79375 z m -70.738306,1.05833 h 3.397726 c 0.291174,0.27164 0.591979,0.53423 0.895535,0.79375 h -3.834394 a 107.15645,107.15645 0 0 1 -0.458867,-0.79375 z m 69.668606,0 h 3.424079 a 107.15645,107.15645 0 0 1 -0.45837,0.79375 h -3.861263 c 0.303565,-0.25952 0.604359,-0.52211 0.895554,-0.79375 z m -69.056254,1.05834 h 3.992536 c 0.340862,0.28287 0.713528,0.52674 1.068149,0.79375 h -4.475189 a 107.15645,107.15645 0 0 1 -0.585496,-0.79375 z m 67.849093,0 h 4.019909 a 107.15645,107.15645 0 0 1 -0.587047,0.79375 h -4.501014 c 0.354552,-0.26698 0.727315,-0.51091 1.068152,-0.79375 z m -67.066191,1.05833 h 4.633833 c 0.358907,0.26154 0.697071,0.54912 1.068149,0.79375 h -5.110295 a 107.15645,107.15645 0 0 1 -0.591687,-0.79375 z m 65.641986,0 h 4.659664 a 107.15645,107.15645 0 0 1 -0.591177,0.79375 h -5.137155 c 0.37115,-0.24468 0.709689,-0.53215 1.068668,-0.79375 z m -64.852893,1.05833 h 5.364533 c 0.446378,0.28262 0.908844,0.53667 1.369933,0.79375 h -6.142752 a 107.15645,107.15645 0 0 1 -0.591714,-0.79375 z m 63.332573,0 h 5.39192 a 107.15645,107.15645 0 0 1 -0.591179,0.79375 h -6.170166 c 0.461047,-0.25705 0.92311,-0.51117 1.369425,-0.79375 z m -62.54348,1.05834 h 6.4017 c 0.517498,0.27597 1.033436,0.55158 1.565777,0.79375 h -7.375763 a 107.15645,107.15645 0 0 1 -0.591714,-0.79375 z m 60.717236,0 h 6.430098 a 107.15645,107.15645 0 0 1 -0.59118,0.79375 h -7.404198 c 0.532246,-0.24212 1.047869,-0.51784 1.56528,-0.79375 z m -27.1575153,0.0832 c 0.5387631,0.26007 1.0935415,0.47939 1.6438272,0.71056 H 6.3890366 c 0.5502831,-0.23117 1.105064,-0.45049 1.6438271,-0.71056 z m -32.7706007,0.97514 h 7.765918 c 0.440108,0.18787 0.882914,0.36812 1.330669,0.53175 0.281781,0.10297 0.582612,0.16781 0.869209,0.262 h -9.374108 a 107.15645,107.15645 0 0 1 -0.591688,-0.79375 z m 30.5149247,0 H 10.28854 c 0.743844,0.29563 1.49597,0.55318 2.253091,0.79375 H 3.523578 c 0.7571687,-0.24058 1.5097178,-0.4981 2.2536097,-0.79375 z m 27.2603513,0 h 7.794355 a 107.15645,107.15645 0 0 1 -0.591177,0.79375 h -9.403046 c 0.286549,-0.0942 0.587457,-0.15904 0.869199,-0.262 0.447768,-0.16363 0.890558,-0.34388 1.330669,-0.53175 z m -56.986183,1.05833 h 10.05467 c 1.135962,0.33269 2.294704,0.60004 3.480408,0.79375 h -12.942861 a 107.15645,107.15645 0 0 1 -0.592217,-0.79375 z m 26.6846738,0 H 13.329182 c 1.185214,0.34425 2.378151,0.59347 3.569806,0.79375 H -0.83326809 c 1.19165686,-0.20028 2.38408099,-0.4495 3.56929789,-0.79375 z m 27.2236592,0 H 40.04383 a 107.15645,107.15645 0 0 1 -0.59118,0.79375 H 26.478764 c 1.185929,-0.19372 2.344788,-0.46099 3.480925,-0.79375 z m -53.119239,1.05834 h 14.8120095 c 1.8506281,0.17037 3.7217614,0.20668 5.5743474,0.0222 0.0499,-0.005 0.1004359,-0.017 0.1503627,-0.0222 H 18.688542 c 0.04996,0.005 0.100465,0.0172 0.150379,0.0222 1.852623,0.18447 3.723661,0.14818 5.574336,-0.0222 h 14.842506 a 107.15645,107.15645 0 0 1 -0.59118,0.79375 h -61.231916 a 107.15645,107.15645 0 0 1 -0.592217,-0.79375 z m 0.789093,1.05833 h 60.838153 a 107.15645,107.15645 0 0 1 -0.591177,0.79375 H -21.77824 a 107.15645,107.15645 0 0 1 -0.592217,-0.79375 z m 0.789623,1.05833 h 59.25995 a 107.15645,107.15645 0 0 1 -0.591179,0.79375 h -58.077084 a 107.15645,107.15645 0 0 1 -0.591687,-0.79375 z m 0.789093,1.05834 H 36.89105 a 107.15645,107.15645 0 0 1 -0.653706,0.79375 H -20.13957 a 107.15645,107.15645 0 0 1 -0.652171,-0.79375 z m 0.901753,1.05833 h 55.877734 a 107.15645,107.15645 0 0 1 -0.748792,0.79375 H -19.13963 a 107.15645,107.15645 0 0 1 -0.750358,-0.79375 z m 0.99994,1.05833 h 53.879405 a 107.15645,107.15645 0 0 1 -0.748792,0.79375 h -52.380784 a 107.15645,107.15645 0 0 1 -0.749829,-0.79375 z m 0.999939,1.05834 h 51.880561 a 107.15645,107.15645 0 0 1 -0.748792,0.79375 h -50.38194 a 107.15645,107.15645 0 0 1 -0.749829,-0.79375 z m 0.99994,1.05833 h 49.882231 a 107.15645,107.15645 0 0 1 -0.748792,0.79375 h -48.38361 a 107.15645,107.15645 0 0 1 -0.749829,-0.79375 z m 0.99994,1.05833 h 47.883902 a 107.15645,107.15645 0 0 1 -0.749308,0.79375 H -15.1404 a 107.15645,107.15645 0 0 1 -0.749829,-0.79375 z m 0.99994,1.05834 h 45.885057 a 107.15645,107.15645 0 0 1 -0.74879,0.79375 H -14.14046 a 107.15645,107.15645 0 0 1 -0.749829,-0.79375 z m 0.999939,1.05833 h 43.886731 a 107.15645,107.15645 0 0 1 -0.748792,0.79375 H -13.14052 a 107.15645,107.15645 0 0 1 -0.74983,-0.79375 z m 0.99994,1.05833 h 41.888402 a 107.15645,107.15645 0 0 1 -0.749308,0.79375 h -40.389265 a 107.15645,107.15645 0 0 1 -0.749829,-0.79375 z m 0.99994,1.05834 h 39.889556 a 107.15645,107.15645 0 0 1 -0.944128,0.79375 h -38.002321 a 107.15645,107.15645 0 0 1 -0.943107,-0.79375 z m 1.258835,1.05833 h 37.371366 a 107.15645,107.15645 0 0 1 -0.945679,0.79375 H -9.6849299 a 107.15645,107.15645 0 0 1 -0.9467051,-0.79375 z m 1.2624589,1.05833 H 25.478827 a 107.15645,107.15645 0 0 1 -0.945679,0.79375 H -8.4219413 a 107.15645,107.15645 0 0 1 -0.9472348,-0.79375 z m 1.2629621,1.05834 h 32.324135 a 107.15645,107.15645 0 0 1 -0.945679,0.79375 H -7.159482 a 107.15645,107.15645 0 0 1 -0.946732,-0.79375 z m 1.2624593,1.05833 H 22.957017 a 107.15645,107.15645 0 0 1 -0.945679,0.79375 H -5.8970491 a 107.15645,107.15645 0 0 1 -0.9467056,-0.79375 z m 1.2624594,1.05833 H 21.696111 a 107.15645,107.15645 0 0 1 -0.945679,0.79375 H -4.6340605 a 107.15645,107.15645 0 0 1 -0.9472348,-0.79375 z m 1.2624593,1.05834 h 24.754043 a 107.15645,107.15645 0 0 1 -0.945679,0.79375 H -3.3716012 a 107.15645,107.15645 0 0 1 -0.9472348,-0.79375 z m 1.2629621,1.05833 H 19.174301 a 107.15645,107.15645 0 0 1 -1.010274,0.79375 H -2.0461181 a 107.15645,107.15645 0 0 1 -1.0097558,-0.79375 z m 1.4123194,1.05833 H 17.761984 a 107.15645,107.15645 0 0 1 -1.206127,0.79375 H -0.43586393 a 107.15645,107.15645 0 0 1 -1.20769057,-0.79375 z m 1.61075682,1.05834 H 16.153815 a 107.15645,107.15645 0 0 1 -1.206129,0.79375 H 1.1748929 a 107.15645,107.15645 0 0 1 -1.20769058,-0.79375 z m 1.61075688,1.05833 H 14.545643 a 107.15645,107.15645 0 0 1 -1.206127,0.79375 H 2.7856392 a 107.15645,107.15645 0 0 1 -1.20768,-0.79375 z m 1.6107542,1.05833 h 9.7487606 a 107.15645,107.15645 0 0 1 -1.20613,0.79375 H 4.3963934 a 107.15645,107.15645 0 0 1 -1.20768,-0.79375 z m 1.6102383,1.05834 h 6.5303503 a 107.15645,107.15645 0 0 1 -1.205611,0.79375 H 6.0071476 a 107.15645,107.15645 0 0 1 -1.2081959,-0.79375 z m 1.6107542,1.05833 h 3.311943 a 107.15645,107.15645 0 0 1 -1.206127,0.79375 H 7.6179018 a 107.15645,107.15645 0 0 1 -1.2081959,-0.79375 z m 1.6107542,1.05833 h 0.09302 a 107.15645,107.15645 0 0 1 -0.046511,0.0305 107.15645,107.15645 0 0 1 -0.046509,-0.0305 z" />
  </g>
</svg>
