<?xml version="1.0" encoding="UTF-8" standalone="no"?>
<!-- Created with Inkscape (http://www.inkscape.org/) -->

<svg
   width="287.33203"
   height="343.85928"
   viewBox="0 0 76.023265 90.979438"
   version="1.1"
   id="svg229"
   inkscape:version="1.1 (c68e22c387, 2021-05-23)"
   sodipodi:docname="cawcosbw.svg"
   xmlns:inkscape="http://www.inkscape.org/namespaces/inkscape"
   xmlns:sodipodi="http://sodipodi.sourceforge.net/DTD/sodipodi-0.dtd"
   xmlns="http://www.w3.org/2000/svg"
   xmlns:svg="http://www.w3.org/2000/svg">
  <sodipodi:namedview
     id="namedview231"
     pagecolor="#ffffff"
     bordercolor="#666666"
     borderopacity="1.0"
     inkscape:pageshadow="2"
     inkscape:pageopacity="0.0"
     inkscape:pagecheckerboard="0"
     inkscape:document-units="mm"
     showgrid="false"
     fit-margin-left="1"
     units="px"
     fit-margin-top="1"
     fit-margin-right="1"
     fit-margin-bottom="1"
     inkscape:zoom="2.290416"
     inkscape:cx="143.86033"
     inkscape:cy="171.80285"
     inkscape:window-width="1920"
     inkscape:window-height="1001"
     inkscape:window-x="-9"
     inkscape:window-y="-9"
     inkscape:window-maximized="1"
     inkscape:current-layer="layer1" />
  <defs
     id="defs226" />
  <g
     inkscape:label="Layer 1"
     inkscape:groupmode="layer"
     id="layer1"
     transform="translate(-35.872607,-227.36989)">
    <path
       id="path13469"
       d="m 36.13719,227.63447 v 25.16486 a 75.494702,75.494702 0 0 0 37.77134,65.28541 75.494702,75.494702 0 0 0 37.72276,-65.28541 v -25.16486 z m 1.05834,1.21594 h 73.37743 v 0.52917 H 37.19553 Z m 0,0.70538 h 73.37743 v 0.52917 H 37.19553 Z m 0,0.70588 h 73.37743 v 0.52917 h -32.1722 a 17.462498,14.816665 0 0 0 -4.52014,-0.52501 17.462498,14.816665 0 0 0 -4.51031,0.52501 H 37.19553 Z m 0,0.70541 h 31.44562 a 17.462498,14.816665 0 0 0 -1.38389,0.41701 28.575,25.399998 36 0 0 -0.23306,0.11215 H 37.19553 Z m 41.96591,0 h 31.41152 v 0.52916 H 80.77839 a 25.399998,28.575 54 0 0 -0.16071,-0.0801 17.462498,14.816665 0 0 0 -1.45624,-0.44905 z m -5.28082,0.48937 a 16.271874,13.62604 0 0 1 6.26732,1.05574 24.209374,27.384375 54 0 1 9.04441,7.16441 24.209374,27.384375 54 0 1 3.65249,18.18908 28.575,25.399999 0 0 0 -0.64389,-0.47853 c 0.20328,-1.22912 0.29097,-2.47224 0.26097,-3.70829 -0.0955,1.18528 -0.2671,2.36373 -0.50798,3.52486 a 28.575,25.399999 0 0 0 -0.66869,-0.46612 c 0.24386,-1.69011 0.27096,-3.40349 0.0765,-5.08238 0.009,1.6306 -0.13581,3.26332 -0.42685,4.86119 a 28.575,25.399999 0 0 0 -0.81442,-0.51314 c 0.0838,-0.79636 0.11475,-1.59681 0.091,-2.39315 -0.0653,0.75933 -0.16549,1.51503 -0.29404,2.26446 a 28.575,25.399999 0 0 0 -0.69298,-0.43667 20.240624,23.415623 54 0 0 -3.24321,-13.42863 20.240624,23.415623 54 0 0 -7.31428,-5.8198 12.303124,9.6572913 0 0 0 -4.78576,-0.76428 12.303124,9.6572913 0 0 0 -5.00951,0.85161 23.415623,20.240624 36 0 0 -5.94072,4.33668 28.575,25.399999 72 0 0 -1.14929,-0.0315 c 0.28939,-0.38362 0.59163,-0.75816 0.90744,-1.12188 -0.38518,0.3512 -0.75004,0.72511 -1.09761,1.11619 a 28.575,25.399999 72 0 0 -1.14515,-0.0315 c 0.84183,-1.17626 1.80059,-2.26401 2.85978,-3.25252 -1.24893,0.93284 -2.37787,2.03594 -3.3414,3.28972 a 28.575,25.399999 72 0 0 -0.97152,0.0791 c 0.6347,-0.97642 1.3368,-1.89968 2.10168,-2.76675 -0.90511,0.83349 -1.72717,1.76964 -2.44946,2.79519 a 28.575,25.399999 72 0 0 -0.76533,0.0625 27.384375,24.209374 36 0 1 0.68936,-1.0754 27.384375,24.209374 36 0 1 9.13071,-7.19076 16.271874,13.62604 0 0 1 6.1805,-1.02939 z m -36.68509,0.21601 h 29.46228 a 28.575,25.399998 36 0 0 -1.10122,0.52967 H 37.19553 Z m 43.93582,0 h 29.44161 v 0.52967 H 82.1933 a 25.399998,28.575 54 0 0 -1.06195,-0.52967 z m -43.93582,0.70588 h 28.01379 a 28.575,25.399998 36 0 0 -0.86713,0.52916 H 37.19553 Z m 45.35072,0 h 28.02671 v 0.52916 H 83.45833 a 25.399998,28.575 54 0 0 -0.91208,-0.52916 z m -45.35072,0.7054 h 26.85779 a 28.575,25.399998 36 0 0 -0.86713,0.52917 H 37.19553 Z m 46.53721,0 h 26.84022 v 0.52917 h -26.0165 a 25.399998,28.575 54 0 0 -0.82372,-0.52917 z m -46.53721,0.70538 h 25.74003 a 28.575,25.399998 36 0 0 -0.68472,0.52917 H 37.19553 Z m 47.63533,0 h 25.7421 v 0.52917 H 85.54089 a 25.399998,28.575 54 0 0 -0.71003,-0.52917 z M 37.19553,234.495 h 24.82639 a 28.575,25.399998 36 0 0 -0.6842,0.52917 H 37.19553 Z m 48.56344,0 h 24.81399 v 0.52917 H 86.41164 A 25.399998,28.575 54 0 0 85.75897,234.495 Z m -48.56344,0.70541 h 23.9143 a 28.575,25.399998 36 0 0 -0.55862,0.52917 H 37.19553 Z m 49.43367,0 h 23.94376 v 0.52917 H 87.24415 a 25.399998,28.575 54 0 0 -0.61495,-0.52917 z m -49.43367,0.70538 h 23.17378 a 28.575,25.399998 36 0 0 -0.54726,0.52967 H 37.19553 Z m 50.22225,0 h 23.15518 v 0.52967 H 87.93971 a 25.399998,28.575 54 0 0 -0.52193,-0.52967 z m -50.22225,0.70588 h 22.44462 a 28.575,25.399998 36 0 0 -0.5209,0.52917 H 37.19553 Z m 50.91782,0 h 22.45961 v 0.52917 h -21.9382 a 25.399998,28.575 54 0 0 -0.52141,-0.52917 z m -14.23273,0.004 a 11.112498,8.4666658 0 0 1 0.51677,0.0196 11.112499,8.4666658 0 0 1 0.75034,0.0408 11.112498,8.4666658 0 0 1 0.15555,0.0181 11.112499,8.4666658 0 0 1 2.36574,0.44649 h -7.57266 a 11.112499,8.4666658 0 0 1 0.41031,-0.11523 11.112498,8.4666658 0 0 1 0.13436,-0.0336 11.112499,8.4666658 0 0 1 0.85783,-0.16896 11.112498,8.4666658 0 0 1 0.2589,-0.0439 11.112499,8.4666658 0 0 1 0.74621,-0.0873 11.112498,8.4666658 0 0 1 0.39067,-0.0362 11.112499,8.4666658 0 0 1 0.98598,-0.0398 z m -36.68509,0.70125 h 21.77851 a 28.575,25.399998 36 0 0 -0.43666,0.52916 H 37.19553 Z m 32.2864,0 h 8.75812 a 11.112499,8.4666658 0 0 1 1.36891,0.52916 H 68.15953 a 11.112499,8.4666658 0 0 1 1.23351,-0.49818 22.224998,19.049997 36 0 1 0.0114,-0.005 22.224998,19.049997 36 0 1 0.002,-10e-4 11.112498,8.4666658 0 0 1 0.0754,-0.0248 z m 19.32646,0 h 21.76457 v 0.52916 H 89.24713 a 25.399998,28.575 54 0 0 -0.43874,-0.52916 z m -51.61286,0.70538 h 21.19663 a 28.575,25.399998 36 0 0 -0.43615,0.52916 H 37.19553 Z m 30.60123,0 h 12.16101 a 11.112499,8.4666658 0 0 1 0.94362,0.52916 H 66.8516 a 11.112499,8.4666658 0 0 1 0.94516,-0.52916 z m 21.59196,0 h 21.18424 v 0.52916 H 89.81402 a 25.399998,28.575 54 0 0 -0.4253,-0.52916 z m -52.19319,0.70588 h 20.61476 a 28.575,25.399998 36 0 0 -0.20464,0.24805 28.575,25.399998 36 0 0 -0.18087,0.28111 H 37.19553 Z m 29.36823,0 h 14.62133 a 11.112499,8.4666658 0 0 1 0.71933,0.52916 H 65.84287 a 11.112499,8.4666658 0 0 1 0.72089,-0.52916 z m 23.39185,0 h 20.61735 v 0.52916 H 90.33337 a 25.399998,28.575 54 0 0 -0.17829,-0.28111 25.399998,28.575 54 0 0 -0.19947,-0.24805 z m -52.76008,0.7054 h 20.11556 a 28.575,25.399998 36 0 0 -0.34054,0.52917 H 37.19553 Z m 28.44167,0 h 16.49305 a 11.112499,8.4666658 0 0 1 0.56792,0.52917 H 65.05274 a 11.112499,8.4666658 0 0 1 0.58446,-0.52917 z m 24.80779,0 h 20.12797 v 0.52917 H 90.78037 a 25.399998,28.575 54 0 0 -0.33538,-0.52917 z m -53.24946,0.70538 h 19.66133 a 28.575,25.399998 36 0 0 -0.34055,0.52917 H 37.19553 Z m 27.69805,0 h 17.97823 a 11.112499,8.4666658 0 0 1 0.46043,0.52917 h -18.9146 a 11.112499,8.4666658 0 0 1 0.47594,-0.52917 z m 25.99841,0 h 19.68097 v 0.52917 H 91.22685 a 25.399998,28.575 54 0 0 -0.33486,-0.52917 z m -53.69646,0.70588 h 19.20658 a 28.575,25.399998 36 0 0 -0.11266,0.17521 28.575,25.399998 72 0 0 -1.38234,0.35396 H 37.19553 Z m 27.63707,0 h 18.18442 a 25.399999,28.575 18 0 0 -2.44326,0.52917 H 67.29911 a 28.575,25.399999 72 0 0 -2.46651,-0.52917 z m 26.50639,0 h 19.23397 v 0.52917 H 92.88153 a 25.399998,28.575 18 0 0 -1.44952,-0.3824 25.399998,28.575 54 0 0 -0.093,-0.14677 z m -54.14346,0.70541 h 17.02325 a 28.575,25.399998 72 0 0 -0.2403,0.0615 28.575,25.399998 72 0 0 -1.23197,0.46768 H 37.19553 Z m 30.67306,0 h 12.10055 a 25.399999,28.575 18 0 0 -1.65054,0.52917 h -8.78241 a 28.575,25.399999 72 0 0 -1.6676,-0.52917 z m 25.68112,0 h 17.02325 v 0.52917 H 94.96978 a 25.399998,28.575 18 0 0 -1.18701,-0.46768 25.399998,28.575 18 0 0 -0.23306,-0.0615 z m -32.74167,0.14211 a 27.384375,24.209374 71.999999 0 1 11.96619,3.19876 25.399999,28.575 17.999999 0 0 -0.65422,0.46458 c -1.10617,-0.57314 -2.26095,-1.04079 -3.44579,-1.39425 1.09775,0.45715 2.16532,0.98465 3.19516,1.57253 a 25.399999,28.575 17.999999 0 0 -0.64958,0.49143 c -1.53197,-0.75422 -3.15373,-1.30945 -4.81055,-1.6433 1.55369,0.49506 3.06197,1.13784 4.49171,1.90842 a 25.399999,28.575 17.999999 0 0 -0.74,0.61597 c -0.7316,-0.32549 -1.48324,-0.6023 -2.24793,-0.82579 0.70198,0.29678 1.38988,0.62542 2.06292,0.97928 a 25.399999,28.575 17.999999 0 0 -0.62942,0.524 23.415623,20.240624 71.999999 0 0 -13.77383,-1.06505 23.415623,20.240624 71.999999 0 0 -7.79539,5.15781 9.6572913,12.303124 17.999999 0 0 -2.20555,4.31549 9.6572913,12.303124 17.999999 0 0 -0.73794,5.02761 20.240624,23.415623 53.999999 0 0 2.28875,6.98977 25.399999,28.575 89.999999 0 0 -0.38551,1.08312 c -0.27541,-0.39375 -0.53766,-0.79648 -0.786,-1.20923 0.215,0.47488 0.4579,0.93713 0.72244,1.38856 a 25.399999,28.575 89.999999 0 0 -0.38447,1.079 c -0.85855,-1.16411 -1.59635,-2.41152 -2.20917,-3.72433 0.50125,1.47606 1.20135,2.89076 2.096,4.19458 a 25.399999,28.575 89.999999 0 0 -0.2248,0.94826 c -0.7325,-0.90538 -1.39404,-1.8587 -1.9823,-2.85408 0.51299,1.11836 1.14954,2.18924 1.90169,3.19309 a 25.399999,28.575 89.999999 0 0 -0.17725,0.74774 24.209374,27.384375 53.999999 0 1 -0.80926,-0.98803 24.209374,27.384375 53.999999 0 1 -4.01732,-10.90581 13.62604,16.271874 17.999999 0 1 0.93069,-6.19651 13.62604,16.271874 17.999999 0 1 2.94091,-5.63428 27.384375,24.209374 71.999999 0 1 9.6082,-6.38773 27.384375,24.209374 71.999999 0 1 6.46162,-1.05161 z m 23.52518,0.15192 a 19.049999,22.225 54 0 1 0.57464,0.72605 c -0.56773,0.0859 -1.13742,0.2005 -1.70739,0.3452 0.61585,-0.0903 1.22325,-0.15428 1.82418,-0.19638 a 19.049999,22.225 54 0 1 0.54105,0.83045 c -1.41948,0.18108 -2.85472,0.55261 -4.27932,1.13533 1.54269,-0.44146 3.04261,-0.69837 4.50153,-0.79425 a 19.049999,22.225 54 0 1 0.47904,0.91725 c -0.84221,0.1007 -1.68876,0.27533 -2.53163,0.53949 0.89943,-0.16936 1.7821,-0.26908 2.64945,-0.31057 a 19.049999,22.225 54 0 1 0.31936,0.62426 20.240624,23.415623 18 0 0 -13.98157,5.80789 28.575,25.399999 1.5994459e-7 0 0 -1.25522,0.0972 c 0.39621,-0.43424 0.80263,-0.85913 1.22111,-1.27072 -0.52003,0.40558 -1.02006,0.83958 -1.50017,1.29657 a 28.575,25.399999 1.5994459e-7 0 0 -1.33738,0.12557 c 1.10477,-1.27894 2.30769,-2.47319 3.60649,-3.55843 -1.54006,1.02356 -2.9472,2.25123 -4.19922,3.63336 a 28.575,25.399999 1.5994459e-7 0 0 -1.10278,0.20413 c 0.94695,-1.19206 1.96799,-2.32733 3.0608,-3.39051 -1.29915,1.02177 -2.48457,2.1929 -3.53984,3.47938 a 28.575,25.399999 1.5994459e-7 0 0 -1.00459,0.18603 24.209374,27.384375 18 0 1 17.66146,-10.42726 z m -47.13769,0.41135 H 52.28246 A 28.575,25.399998 72 0 0 51.174,242.7853 H 37.19553 Z m 32.75407,0 h 7.93698 a 25.399999,28.575 18 0 0 -1.29811,0.52967 h -5.3976 a 28.575,25.399999 72 0 0 -1.24127,-0.52967 z m 25.46718,0 h 15.15618 v 0.52967 H 96.60327 a 25.399998,28.575 18 0 0 -1.18649,-0.52967 z m -3.23805,0.16536 a 24.209374,27.384375 18 0 1 1.23559,0.32348 24.209374,27.384375 18 0 1 9.66091,6.46163 16.271874,13.62604 72 0 1 2.88871,5.56038 16.271874,13.62604 72 0 1 0.93276,6.28645 27.384375,24.209374 36 0 1 -4.01888,10.81537 27.384375,24.209374 36 0 1 -16.17059,9.09505 28.575,25.399999 72 0 0 0.25632,-0.76068 c 1.2318,-0.18653 2.44123,-0.48664 3.60753,-0.89712 -1.15679,0.27541 -2.33064,0.47593 -3.50935,0.60566 a 28.575,25.399999 72 0 0 0.23668,-0.77981 c 1.68274,-0.29027 3.32095,-0.7938 4.85759,-1.49757 -1.54795,0.51271 -3.14566,0.87908 -4.75527,1.09604 a 28.575,25.399999 72 0 0 0.23616,-0.93326 c 0.78318,-0.16669 1.55425,-0.38452 2.30425,-0.65318 -0.74235,0.17251 -1.49233,0.31128 -2.24482,0.42063 a 28.575,25.399999 72 0 0 0.20154,-0.79428 23.415623,20.240624 36 0 0 11.7693,-7.23418 23.415623,20.240624 36 0 0 3.27474,-8.75448 12.303124,9.6572913 72 0 0 -0.75241,-4.78835 12.303124,9.6572913 72 0 0 -2.358,-4.50101 20.240624,23.415623 18 0 0 -5.96035,-4.3093 25.399999,28.575 54 0 0 -0.32453,-1.10278 c 0.45428,0.15669 0.90317,0.32829 1.34669,0.51625 -0.45305,-0.25781 -0.92109,-0.48948 -1.40044,-0.69918 a 25.399999,28.575 54 0 0 -0.32349,-1.09863 c 1.37884,0.43711 2.70907,1.01272 3.9765,1.7146 -1.27312,-0.89953 -2.67084,-1.63269 -4.16099,-2.16162 a 25.399999,28.575 54 0 0 -0.37568,-0.89969 c 1.12477,0.30192 2.22046,0.68461 3.28145,1.14412 -1.07239,-0.60325 -2.21727,-1.09551 -3.41581,-1.46553 a 25.399999,28.575 54 0 0 -0.29611,-0.70901 z m -54.9832,0.54052 h 13.62604 a 28.575,25.399998 72 0 0 -1.04955,0.52917 H 37.19553 Z m 34.40823,0 h 4.58008 a 25.399999,28.575 18 0 0 -0.99529,0.52917 h -2.55281 a 28.575,25.399999 72 0 0 -1.03198,-0.52917 z m 25.33179,0 h 13.63741 v 0.52917 H 97.93394 a 25.399998,28.575 18 0 0 -0.99839,-0.52917 z m -59.74002,0.70541 H 49.5002 a 28.575,25.399998 72 0 0 -0.81597,0.52916 h -11.4887 z m 35.76525,0 h 1.89653 a 25.399999,28.575 18 0 0 -0.95808,0.50951 28.575,25.399999 72 0 0 -0.93845,-0.50951 z m 25.30544,0 h 12.30674 v 0.52916 H 99.07082 a 25.399998,28.575 18 0 0 -0.8046,-0.52916 z m -61.07069,0.70538 h 11.21688 a 28.575,25.399998 72 0 0 -0.80408,0.52916 h -10.4128 z m 62.13315,0 h 11.24428 v 0.52916 h -10.46861 a 25.399998,28.575 18 0 0 -0.77567,-0.52916 z m -62.13315,0.70588 h 10.19679 a 28.575,25.399998 72 0 0 -0.64699,0.52916 h -9.5498 z m 63.16772,0 h 10.20971 v 0.52916 h -9.56221 a 25.399998,28.575 18 0 0 -0.6475,-0.52916 z m -63.16772,0.7054 h 9.33483 a 28.575,25.399998 72 0 0 -0.64699,0.52917 h -8.68784 z m 64.02089,0 h 9.35654 v 0.52917 h -8.73952 a 25.399998,28.575 18 0 0 -0.61702,-0.52917 z m -64.02089,0.70538 h 8.47235 a 28.575,25.399998 72 0 0 -0.52193,0.52967 h -7.95042 z m 64.84358,0 h 8.53385 v 0.52967 h -7.94991 a 25.399998,28.575 18 0 0 -0.58394,-0.52967 z m -41.29773,0.38084 a 22.224998,19.049997 72 0 1 2.4045,0.14883 h -2.61586 a 22.224998,19.049997 36 0 1 0.0424,-0.14467 22.224998,19.049997 72 0 1 0.16899,-0.004 z m 26.44696,0.004 a 19.049997,22.224998 54 0 1 0.0506,0.1452 h -2.58537 a 19.049997,22.224998 18 0 1 2.53473,-0.1452 z m -27.91871,0.0868 a 23.415623,20.240624 36 0 0 1.20303,15.09159 25.399999,28.575 18 0 0 -0.29559,1.2237 c -0.29056,-0.51101 -0.56935,-1.02872 -0.83147,-1.55392 0.22501,0.61992 0.48372,1.22946 0.76997,1.82729 a 25.399999,28.575 18 0 0 -0.29352,1.31104 c -0.87496,-1.44593 -1.63936,-2.95887 -2.27014,-4.52946 0.49758,1.78099 1.22989,3.49814 2.15749,5.11598 a 25.399999,28.575 18 0 0 -0.14625,1.11207 c -0.84108,-1.26896 -1.60549,-2.59053 -2.27893,-3.9584 0.5703,1.5513 1.31795,3.0399 2.21537,4.44106 a 25.399999,28.575 18 0 0 -0.13332,1.01338 27.384375,24.209374 36 0 1 -4.45968,-20.01946 22.225,19.049999 72 0 1 0.86868,-0.32195 c -0.0937,0.5665 -0.16097,1.14388 -0.19947,1.73064 0.10444,-0.61359 0.23105,-1.21121 0.37672,-1.79575 a 22.225,19.049999 72 0 1 0.95705,-0.25786 c -0.26643,1.40597 -0.35685,2.88597 -0.24288,4.42092 0.0569,-1.60359 0.27596,-3.1097 0.63562,-4.52686 a 22.225,19.049999 72 0 1 1.02061,-0.17209 c -0.16448,0.83212 -0.26024,1.69077 -0.26924,2.57403 0.11686,-0.90776 0.29498,-1.77761 0.52349,-2.61536 a 22.225,19.049999 72 0 1 0.69246,-0.11059 z m -22.0741,0.2346 h 7.7773 a 28.575,25.399998 72 0 0 -0.52038,0.52917 h -7.25692 z m 23.28333,0 h 3.8225 a 22.224998,19.049997 72 0 1 2.11667,0.52917 h -6.09368 a 22.224998,19.049997 36 0 1 0.15451,-0.52917 z m 22.94589,0 h 3.86488 a 19.049997,22.224998 54 0 1 0.14882,0.52917 h -6.09368 a 19.049997,22.224998 18 0 1 2.07998,-0.52917 z m 19.36677,0 h 7.78144 v 0.52917 h -7.27604 a 25.399998,28.575 18 0 0 -0.5054,-0.52917 z m -65.59599,0.70541 h 7.0838 a 28.575,25.399998 72 0 0 -0.43873,0.44648 14.816665,17.462498 18 0 0 -0.0584,0.0827 h -6.58667 z m 23.07766,0 h 6.63732 a 22.224998,19.049997 72 0 1 1.37976,0.52917 h -8.1716 a 22.224998,19.049997 36 0 1 0.15452,-0.52917 z m 20.60081,0 h 6.61406 a 19.049997,22.224998 54 0 1 0.14935,0.52917 h -8.16953 a 19.049997,22.224998 18 0 1 1.40612,-0.52917 z m 22.59138,0 h 7.10758 v 0.52917 h -6.60218 a 25.399998,28.575 18 0 0 -0.5054,-0.52917 z m -66.26985,0.70538 h 6.46265 a 14.816665,17.462498 18 0 0 -0.37259,0.52917 h -6.09006 z m 16.32561,0 h 0.077 a 28.575,25.399999 36 0 0 -0.0687,0.52917 h -1.14412 a 8.4666658,11.112499 18 0 1 1.13585,-0.52917 z m 6.54586,0 h 8.21913 a 25.399998,28.575 18 0 0 -0.48214,0.52917 h -7.84345 a 22.224998,19.049997 36 0 1 0.10646,-0.52917 z m 19.39313,0 h 8.22689 a 19.049997,22.224998 54 0 1 0.12092,0.52917 h -7.86567 a 28.575,25.399998 72 0 0 -0.48214,-0.52917 z m 14.72365,0 h 0.0718 a 11.112499,8.4666658 72 0 1 1.12913,0.52917 h -1.1374 a 25.399999,28.575 54 0 0 -0.0636,-0.52917 z m 9.9136,0 h 6.47558 v 0.52917 h -6.10867 a 17.462498,14.816665 72 0 0 -0.36691,-0.52917 z m -25.88937,0.4191 a 27.384375,24.209374 71.999999 0 1 7.62537,12.28243 l -0.004,10e-4 a 27.384375,24.209374 71.999999 0 1 0.18861,0.66611 19.049999,22.225 53.999999 0 1 -0.52658,1.00925 c -0.15062,-0.47384 -0.3147,-0.94289 -0.49402,-1.40509 0.14217,0.5244 0.27202,1.0528 0.39222,1.58337 A 19.049999,22.225 53.999999 0 1 84.7943,264.128 c -0.20358,-0.76235 -0.44224,-1.51392 -0.71779,-2.25 -0.23608,-0.63111 -0.49812,-1.25094 -0.78496,-1.85777 0.21863,0.63434 0.41915,1.27384 0.60048,1.91773 0.24438,0.8667 0.45399,1.74456 0.63148,2.62877 a 19.049999,22.225 53.999999 0 1 -0.67334,0.95911 c -0.24662,-1.11186 -0.57613,-2.20131 -0.98754,-3.25355 0.3102,1.17184 0.56343,2.36236 0.75913,3.56102 a 19.049999,22.225 53.999999 0 1 -0.60927,0.81495 23.415623,20.240624 71.999999 0 0 -0.95446,-4.11449 23.415623,20.240624 71.999999 0 0 -7.2533,-11.28768 19.049999,22.225 17.999999 0 1 0.63768,-0.46198 c 0.60517,0.51427 1.19365,1.05023 1.76269,1.60869 -0.4931,-0.60942 -1.02298,-1.18909 -1.58337,-1.73839 a 19.049999,22.225 17.999999 0 1 0.74001,-0.53589 c 1.0616,0.93194 2.06462,1.93537 3.00085,3.00188 -0.79864,-1.1404 -1.70216,-2.20922 -2.69699,-3.19 a 19.049999,22.225 17.999999 0 1 0.72191,-0.42373 c 0.50605,0.44651 1.00072,0.9062 1.48105,1.38078 -0.41773,-0.51025 -0.86051,-1.00094 -1.3224,-1.47431 a 19.049999,22.225 17.999999 0 1 0.66146,-0.38809 z m -41.01248,0.28678 h 5.96604 a 14.816665,17.462498 18 0 0 -0.35502,0.52917 h -5.61102 z m 14.87092,0 h 1.44023 a 28.575,25.399999 36 0 0 -0.0682,0.52917 h -2.16886 a 8.4666658,11.112499 18 0 1 0.79685,-0.52917 z m 7.86361,0 h 7.7127 a 25.399998,28.575 18 0 0 -0.48162,0.52917 h -7.32307 a 22.224998,19.049997 36 0 1 0.092,-0.52917 z m 20.17344,0 h 7.73338 a 19.049997,22.224998 54 0 1 0.0868,0.52917 h -7.33805 a 28.575,25.399998 72 0 0 -0.48214,-0.52917 z m 14.16503,0 h 1.42162 a 11.112499,8.4666658 72 0 1 0.79788,0.52917 h -2.15542 a 25.399999,28.575 54 0 0 -0.0641,-0.52917 z m 10.31875,0 h 5.98568 v 0.52917 h -5.61878 a 17.462498,14.816665 72 0 0 -0.3669,-0.52917 z m -67.39175,0.70541 h 5.50819 a 14.816665,17.462498 18 0 0 -0.30851,0.52916 h -5.19968 z m 13.83274,0 h 2.38694 a 28.575,25.399999 36 0 0 -0.0682,0.52916 h -2.9471 a 8.4666658,11.112499 18 0 1 0.62838,-0.52916 z m 8.77931,0 h 7.19285 a 25.399998,28.575 18 0 0 -0.47853,0.52916 h -6.8063 a 22.224998,19.049997 36 0 1 0.092,-0.52916 z m 20.93878,0 h 7.20627 a 19.049997,22.224998 54 0 1 0.0873,0.52916 h -6.81147 a 28.575,25.399998 72 0 0 -0.48214,-0.52916 z m 13.60743,0 h 2.37919 a 11.112499,8.4666658 72 0 1 0.6227,0.52916 h -2.93833 a 25.399999,28.575 54 0 0 -0.0636,-0.52916 z m 10.70323,0 h 5.51594 v 0.52916 h -5.21312 a 17.462498,14.816665 72 0 0 -0.30282,-0.52916 z m -67.86149,0.70538 h 5.09736 a 14.816665,17.462498 18 0 0 -0.30231,0.52967 h -4.79505 z m 13.01522,0 h 3.11351 a 28.575,25.399999 36 0 0 -0.0196,0.52967 h -3.61942 a 8.4666658,11.112499 18 0 1 0.52555,-0.52967 z m 9.48159,0 h 6.69675 a 25.399998,28.575 18 0 0 -0.40049,0.52967 h -6.32933 a 22.224998,19.049997 36 0 1 0.0331,-0.52967 z m 21.66948,0 h 6.70709 a 19.049997,22.224998 54 0 1 0.0398,0.52967 h -6.34587 a 28.575,25.399998 72 0 0 -0.40101,-0.52967 z m 13.07672,0 h 3.11971 a 11.112499,8.4666658 72 0 1 0.51366,0.52967 H 94.4928 a 25.399999,28.575 54 0 0 -0.0543,-0.52967 z m 11.02259,0 h 5.11183 v 0.52967 h -4.80901 a 17.462498,14.816665 72 0 0 -0.30282,-0.52967 z m -68.2656,0.70588 h 4.71185 a 14.816665,17.462498 18 0 0 -0.25063,0.52916 h -4.46122 z m 12.32638,0 h 3.77754 a 28.575,25.399999 36 0 0 -0.016,0.52916 h -4.20388 a 8.4666658,11.112499 18 0 1 0.44236,-0.52916 z m 10.12651,0 h 6.20737 a 25.399998,28.575 18 0 0 -0.39997,0.52916 h -5.84047 a 22.224998,19.049997 36 0 1 0.0331,-0.52916 z m 22.24773,0 h 6.22236 a 19.049997,22.224998 54 0 1 0.0284,0.52916 H 82.2961 a 28.575,25.399998 72 0 0 -0.39998,-0.52916 z m 12.59924,0 h 3.74602 a 11.112499,8.4666658 72 0 1 0.43873,0.52916 h -4.177 a 25.399999,28.575 54 0 0 -0.008,-0.52916 z m 11.36209,0 h 4.71548 v 0.52916 h -4.47053 a 17.462498,14.816665 72 0 0 -0.24495,-0.52916 z m -68.66195,0.7054 h 4.37751 a 14.816665,17.462498 18 0 0 -0.25064,0.52917 h -4.12687 z m 11.73675,0 h 4.34547 a 28.575,25.399999 36 0 0 -0.016,0.52917 h -4.70669 a 8.4666658,11.112499 18 0 1 0.37724,-0.52917 z m 10.6717,0 h 5.71903 a 25.399998,28.575 18 0 0 -0.39998,0.52917 h -5.34902 a 22.224998,19.049997 36 0 1 0.03,-0.52917 z m 22.82548,0 h 5.72678 a 19.049997,22.224998 54 0 1 0.0284,0.52917 h -5.35471 a 28.575,25.399998 72 0 0 -0.40049,-0.52917 z m 12.07626,0 h 4.31705 a 11.112499,8.4666658 72 0 1 0.1509,0.18653 19.049997,22.224998 18 0 1 0.008,0.009 19.049997,22.224998 18 0 1 0.002,0.001 11.112498,8.4666658 72 0 1 0.0971,0.13282 11.112499,8.4666658 72 0 1 0.13333,0.2 h -4.70101 a 25.399999,28.575 54 0 0 -0.008,-0.52917 z m 11.67836,0 h 4.38888 v 0.52917 h -4.14342 a 17.462498,14.816665 72 0 0 -0.24546,-0.52917 z m -32.30346,0.48938 v 0.004 a 27.384375,24.209374 0 0 1 0.69195,0.0264 22.225,19.049999 72 0 1 0.79685,0.81286 c -0.49718,-0.003 -0.99382,0.008 -1.4888,0.0357 0.54266,0.0269 1.08505,0.0661 1.62678,0.11576 a 22.225,19.049999 72 0 1 0.73484,0.86505 c -0.78792,-0.042 -1.57641,-0.0475 -2.36162,-0.0129 -0.67318,0.0295 -1.34392,0.0873 -2.00969,0.17259 0.67085,-0.0119 1.3413,-0.005 2.00969,0.0217 0.89979,0.0354 1.79913,0.10692 2.69493,0.21135 a 22.225,19.049999 72 0 1 0.70435,0.93689 c -1.13366,-0.10901 -2.27142,-0.13224 -3.39928,-0.0661 1.21034,0.0671 2.4205,0.19453 3.62097,0.37878 a 22.225,19.049999 72 0 1 0.58705,0.83098 23.415623,20.240624 0 0 0 -4.20802,-0.3638 23.415623,20.240624 0 0 0 -12.97698,3.41011 22.225,19.049999 36 0 1 -0.24236,-0.74878 c 0.67611,-0.41663 1.36784,-0.81065 2.07481,-1.17927 -0.73197,0.28064 -1.44692,0.60521 -2.14251,0.96843 a 22.225,19.049999 36 0 1 -0.28112,-0.86921 c 1.21438,-0.72165 2.4786,-1.36565 3.7822,-1.92648 -1.33138,0.40714 -2.62676,0.93614 -3.86695,1.57921 a 22.225,19.049999 36 0 1 -0.18035,-0.81751 c 0.58106,-0.34329 1.17116,-0.67169 1.77095,-0.98184 -0.61437,0.23961 -1.21781,0.50901 -1.81074,0.80201 a 22.225,19.049999 36 0 1 -0.16485,-0.7488 27.384375,24.209374 0 0 1 14.0379,-3.45662 z m -36.68509,0.216 h 4.05143 a 14.816665,17.462498 18 0 0 -0.19792,0.52967 H 37.2069 a 73.378038,73.378038 0 0 1 -0.0114,-0.21704 z m 11.23497,0 h 4.82554 a 28.575,25.399999 36 0 0 -0.016,0.52967 h -5.14593 a 8.4666658,11.112499 18 0 1 0.33641,-0.52967 z m 11.15126,0 h 5.06067 a 28.575,25.399998 0 0 0 -1.52962,0.52967 h -3.5078 a 22.224998,19.049997 36 0 1 -0.0233,-0.52967 z m 23.55825,0 h 5.05085 a 19.049997,22.224998 54 0 1 -0.0279,0.52967 h -3.49075 a 28.575,25.399998 0 0 0 -1.5322,-0.52967 z m 11.37553,0 h 4.81624 a 11.112499,8.4666658 72 0 1 0.29301,0.43924 11.112498,8.4666658 72 0 1 0.0563,0.0904 h -5.15783 a 25.399999,28.575 54 0 0 -0.008,-0.52967 z m 11.99565,0 h 4.06177 v 0.31263 a 73.378038,73.378038 0 0 1 -0.005,0.21704 H 106.716 a 17.462498,14.816665 72 0 0 -0.20464,-0.52967 z m -69.29551,0.70588 h 3.76773 a 14.816665,17.462498 18 0 0 -0.19741,0.52917 h -3.54293 a 73.378038,73.378038 0 0 1 -0.0274,-0.52917 z m 10.77402,0 h 5.26169 a 28.575,25.399999 36 0 0 0.0388,0.52917 h -5.60431 a 8.4666658,11.112499 18 0 1 0.30386,-0.52917 z m 11.62306,0 h 2.99103 a 28.575,25.399998 0 0 0 -1.25832,0.52917 h -1.70945 a 22.224998,19.049997 36 0 1 -0.0233,-0.52917 z m 25.56898,0 h 2.97243 a 19.049997,22.224998 54 0 1 -0.0279,0.52917 h -1.68414 a 28.575,25.399998 0 0 0 -1.26039,-0.52917 z m 9.34414,0 h 5.25549 a 11.112499,8.4666658 72 0 1 0.29455,0.52917 h -5.57123 a 25.399999,28.575 54 0 0 0.0212,-0.52917 z m 12.25506,0 h 3.78272 a 73.378038,73.378038 0 0 1 -0.0129,0.52917 h -3.57446 a 17.462498,14.816665 72 0 0 -0.19534,-0.52917 z m -69.52909,0.70541 h 3.46852 a 14.816665,17.462498 18 0 0 -0.0553,0.1483 14.816665,17.462498 18 0 0 -0.10749,0.38087 h -3.27835 a 73.378038,73.378038 0 0 1 -0.0274,-0.52917 z m 10.34717,0 h 5.70405 a 28.575,25.399999 36 0 0 0.0388,0.52917 h -6.00222 a 8.4666658,11.112499 18 0 1 0.25941,-0.52917 z m 12.04475,0 h 1.31258 a 28.575,25.399998 0 0 0 -1.16944,0.52917 h -0.11214 a 22.224998,19.049997 36 0 1 -0.031,-0.52917 z m 27.188,0 h 1.28519 a 19.049997,22.224998 54 0 1 -0.0274,0.52917 h -0.0879 a 28.575,25.399998 0 0 0 -1.16996,-0.52917 z m 7.6569,0 h 5.68286 a 11.112498,8.4666658 72 0 1 0.0739,0.14158 11.112499,8.4666658 72 0 1 0.17829,0.38759 h -5.98258 a 25.399999,28.575 54 0 0 0.0475,-0.52917 z m 12.55272,0 h 3.50521 a 73.378038,73.378038 0 0 1 -0.0129,0.52917 h -3.33157 a 17.462498,14.816665 72 0 0 -0.10594,-0.38087 17.462498,14.816665 72 0 0 -0.0548,-0.1483 z m -23.10143,0.0925 a 27.384375,24.209374 9.5439035e-7 0 1 15.37426,13.57437 22.225,19.049999 36.000001 0 1 -0.51263,0.77152 c -0.25715,-0.5134 -0.54254,-1.02039 -0.85628,-1.51775 0.27617,0.55782 0.52513,1.1158 0.75085,1.67433 a 22.225,19.049999 36.000001 0 1 -0.6227,0.771 c -0.61085,-1.29405 -1.40801,-2.54431 -2.40244,-3.71914 0.89657,1.33077 1.60464,2.67803 2.14665,4.03592 a 22.225,19.049999 36.000001 0 1 -0.72399,0.73899 c -0.35603,-0.76986 -0.78383,-1.52072 -1.29553,-2.24071 0.43902,0.80307 0.80609,1.61158 1.11363,2.42364 a 22.225,19.049999 36.000001 0 1 -0.49506,0.49659 23.415623,20.240624 9.5439034e-7 0 0 -9.84385,-11.50212 28.575,25.399999 72.000001 0 0 -0.48007,-1.16377 c 0.53543,0.24265 1.06466,0.49763 1.58543,0.76843 -0.54642,-0.36925 -1.11356,-0.71038 -1.69654,-1.02576 a 28.575,25.399999 72.000001 0 0 -0.53278,-1.23352 c 1.55773,0.65548 3.06547,1.43021 4.49895,2.33008 -1.44938,-1.14837 -3.05181,-2.10698 -4.7532,-2.87062 a 28.575,25.399999 72.000001 0 0 -0.53485,-0.98547 c 1.42633,0.53224 2.82145,1.15216 4.17029,1.86293 -1.37322,-0.91982 -2.85322,-1.68526 -4.40283,-2.29134 a 28.575,25.399999 72.000001 0 0 -0.48731,-0.8976 z m -46.65142,0.61288 h 3.21945 a 14.816665,17.462498 18 0 0 -0.14935,0.52917 h -3.04271 a 73.378038,73.378038 0 0 1 -0.0274,-0.52917 z m 9.96477,0 h 6.10144 a 28.575,25.399999 36 0 0 0.0393,0.52917 H 47.0332 a 8.4666658,11.112499 18 0 1 0.11989,-0.3106 8.4666658,11.112498 18 0 1 0.0656,-0.14211 8.4666658,11.112499 18 0 1 0.0346,-0.0765 z m 47.17231,0 h 6.07922 a 11.112499,8.4666658 72 0 1 0.0548,0.11935 11.112498,8.4666658 72 0 1 0.15502,0.36021 11.112499,8.4666658 72 0 1 0.0181,0.0496 h -6.35465 a 25.399999,28.575 54 0 0 0.0475,-0.52917 z m 12.82558,0 h 3.27835 a 73.378038,73.378038 0 0 1 -0.0124,0.52917 h -3.11868 a 17.462498,14.816665 72 0 0 -0.14727,-0.52917 z m -69.92648,0.70588 h 2.98431 a 14.816665,17.462498 18 0 0 -0.12402,0.52917 h -2.8329 a 73.378038,73.378038 0 0 1 -0.0274,-0.52917 z m 9.64024,0 h 6.44198 a 28.575,25.399999 36 0 0 0.0553,0.52917 h -6.69571 a 8.4666658,11.112498 18 0 1 0.11627,-0.31573 8.4666658,11.112499 18 0 1 0.0822,-0.21344 z m 47.3971,0 h 6.4363 a 11.112499,8.4666658 72 0 1 0.19534,0.52917 h -6.67918 a 25.399999,28.575 54 0 0 0.0475,-0.52917 z m 13.08551,0 h 3.06493 a 73.378038,73.378038 0 0 1 -0.0124,0.52917 h -2.91558 a 17.462498,14.816665 72 0 0 -0.13694,-0.52917 z m -70.08668,0.70541 h 2.7895 a 14.816665,17.462498 18 0 0 -0.10439,0.52916 h -2.65772 a 73.378038,73.378038 0 0 1 -0.0274,-0.52916 z m 9.34155,0 h 6.7908 a 28.575,25.399999 36 0 0 0.093,0.52916 h -7.03265 a 8.4666658,11.112499 18 0 1 0.14883,-0.52916 z m 47.59658,0 h 6.75927 a 11.112498,8.4666658 72 0 1 0.13953,0.49143 11.112499,8.4666658 72 0 1 0.01,0.0377 h -6.99906 a 25.399999,28.575 54 0 0 0.0904,-0.52916 z m 13.31908,0 h 2.87786 a 73.378038,73.378038 0 0 1 -0.0413,0.52916 h -2.7373 a 17.462498,14.816665 72 0 0 -0.0992,-0.52916 z m -70.22052,0.70538 h 2.6138 a 14.816665,17.462498 18 0 0 -0.10439,0.52967 h -2.48202 a 73.378038,73.378038 0 0 1 -0.0274,-0.52967 z m 9.10642,0 h 7.11326 a 28.575,25.399999 36 0 0 0.0935,0.52967 h -7.33909 a 8.4666658,11.112498 18 0 1 0.0656,-0.29144 8.4666658,11.112499 18 0 1 0.0667,-0.23823 z m 47.67203,0 h 7.07863 a 11.112499,8.4666658 72 0 1 0.13643,0.5121 11.112498,8.4666658 72 0 1 0.004,0.0176 h -7.31687 a 25.399999,28.575 54 0 0 0.0982,-0.52967 z m 13.57488,0 h 2.68666 a 73.378038,73.378038 0 0 1 -0.0517,0.52967 h -2.53525 a 17.462498,14.816665 72 0 0 -0.0997,-0.52967 z m -70.31716,0.70588 h 2.4536 a 14.816665,17.462498 18 0 0 -0.0574,0.52916 H 37.4611 a 73.378038,73.378038 0 0 1 -0.0274,-0.52916 z m 8.90024,0 h 7.40781 a 28.575,25.399999 36 0 0 0.0935,0.52916 h -7.60729 a 8.4666658,11.112499 18 0 1 0.10594,-0.52916 z m 47.71129,0 h 7.3856 a 11.112499,8.4666658 72 0 1 0.0925,0.52916 H 93.9471 a 25.399999,28.575 54 0 0 0.0982,-0.52916 z m 13.83844,0 h 2.48512 a 73.378038,73.378038 0 0 1 -0.0512,0.52916 h -2.3797 a 17.462498,14.816665 72 0 0 -0.0543,-0.52916 z m -34.0031,0.005 a 22.224999,19.049998 0 0 1 5.0059,0.50851 22.224999,19.049998 72 0 1 0.009,0.016 H 68.8615 a 19.049998,22.224999 18 0 1 0.005,-0.009 22.224999,19.049998 0 0 1 5.01468,-0.51523 z m -36.41069,0.70075 h 2.34094 a 14.816665,17.462498 18 0 0 -0.0579,0.52917 H 37.4973 a 73.378038,73.378038 0 0 1 -0.0274,-0.52917 z m 8.72556,0 h 7.67085 a 28.575,25.399999 36 0 0 0.0346,0.19532 28.575,25.399999 0 0 0 -0.3514,0.33385 h -7.42332 a 8.4666658,11.112499 18 0 1 0.0393,-0.32298 8.4666658,11.112498 18 0 1 0.03,-0.20619 z m 22.57589,0 h 10.22108 a 22.224999,19.049998 72 0 1 0.27853,0.52917 H 68.50266 a 19.049998,22.224999 18 0 1 0.26872,-0.52917 z m 25.14316,0 h 7.63933 a 11.112499,8.4666658 72 0 1 0.0822,0.52917 h -7.45639 a 28.575,25.399999 0 0 0 -0.308,-0.29715 25.399999,28.575 54 0 0 0.0429,-0.23202 z m 14.04101,0 h 2.34507 a 73.378038,73.378038 0 0 1 -0.0517,0.52917 h -2.23966 a 17.462498,14.816665 72 0 0 -0.0537,-0.52917 z m -40.60683,0.16018 a 20.240624,23.415623 18.000001 0 0 -1.64641,3.88969 20.240624,23.415623 18.000001 0 0 -0.76688,13.39557 19.049999,22.225 54.000001 0 1 -0.78703,-0.001 c -0.18732,-0.77177 -0.34796,-1.55157 -0.48007,-2.33784 0.0407,0.78285 0.12841,1.56303 0.2589,2.3368 a 19.049999,22.225 54.000001 0 1 -0.91364,-10e-4 c -0.31106,-1.37795 -0.53298,-2.77889 -0.66353,-4.192 -0.0242,1.39205 0.0786,2.78744 0.30696,4.16565 a 19.049999,22.225 54.000001 0 1 -0.83302,-0.0812 c -0.14694,-0.65868 -0.2769,-1.3217 -0.38654,-1.98797 0.038,0.65831 0.10769,1.31596 0.20308,1.9704 a 19.049999,22.225 54.000001 0 1 -0.76274,-0.0749 24.209374,27.384375 18.000001 0 1 1.05007,-14.41876 l 0.004,5.3e-4 a 24.209374,27.384375 18.000001 0 1 0.23875,-0.64958 22.225,19.049999 9.5439036e-7 0 1 1.01957,-0.50694 c -0.15666,0.47186 -0.29974,0.94798 -0.42633,1.4273 0.19321,-0.50782 0.39827,-1.01164 0.61289,-1.51154 a 22.225,19.049999 9.5439036e-7 0 1 1.05006,-0.43148 c -0.28339,0.73639 -0.53286,1.48426 -0.74259,2.24171 -0.17996,0.64936 -0.33219,1.30521 -0.45682,1.96474 0.19598,-0.6417 0.41007,-1.2768 0.64182,-1.90426 0.31173,-0.84484 0.65791,-1.67838 1.03405,-2.49806 a 22.225,19.049999 9.5439036e-7 0 1 1.10846,-0.38034 c -0.45402,1.04449 -0.82747,2.11963 -1.11311,3.21273 0.43782,-1.13036 0.93275,-2.24216 1.47898,-3.32693 a 22.225,19.049999 9.5439036e-7 0 1 0.97151,-0.30128 z m -29.8421,0.5452 h 2.22725 a 14.816665,17.462498 18 0 0 -0.0232,0.52917 h -2.17713 a 73.378038,73.378038 0 0 1 -0.0269,-0.52917 z m 8.59844,0 h 7.25847 a 28.575,25.399999 0 0 0 -0.55707,0.52917 H 46.0508 a 8.4666658,11.112499 18 0 1 10e-4,-0.0222 8.4666658,11.112498 18 0 1 0.009,-0.13798 8.4666658,11.112499 18 0 1 0.0444,-0.36896 z m 22.30768,0 h 10.943 a 22.224999,19.049998 72 0 1 0.25374,0.52917 H 68.14402 a 19.049998,22.224999 18 0 1 0.26872,-0.52917 z m 25.94932,0 h 7.29051 a 11.112499,8.4666658 72 0 1 0.0501,0.52917 H 94.9098 a 28.575,25.399999 0 0 0 -0.54777,-0.52917 z m 13.6648,0 h 2.20503 a 73.378038,73.378038 0 0 1 -0.0512,0.52917 h -2.11821 a 17.462498,14.816665 72 0 0 -0.0357,-0.52917 z m -70.48407,0.70588 h 2.16369 a 14.816665,17.462498 18 0 0 -0.0114,0.52917 h -2.12493 a 73.378038,73.378038 0 0 1 -0.0274,-0.52917 z m 8.50078,0 h 6.57634 a 28.575,25.399999 0 0 0 -0.52865,0.52917 h -6.06888 a 8.4666658,11.112499 18 0 1 0.0212,-0.52917 z m 22.01054,0 h 11.64063 a 22.224999,19.049998 72 0 1 0.25373,0.52917 H 67.80089 a 19.049998,22.224999 18 0 1 0.25322,-0.52917 z m 27.03866,0 h 6.62647 a 11.112499,8.4666658 72 0 1 0.0139,0.52917 H 95.641 a 28.575,25.399999 0 0 0 -0.54828,-0.52917 z m 12.97233,0 h 2.09806 a 73.378038,73.378038 0 0 1 -0.0512,0.52917 h -2.03863 a 17.462498,14.816665 72 0 0 -0.008,-0.52917 z m -53.83237,0.0749 a 28.575,25.399999 36 0 0 0.23978,0.76587 c -0.88691,0.87492 -1.68879,1.82872 -2.39107,2.84633 0.77398,-0.90276 1.60569,-1.75506 2.48305,-2.5528 a 28.575,25.399999 36 0 0 0.26665,0.76996 c -1.19073,1.22394 -2.21993,2.59437 -3.04942,4.06694 0.95094,-1.32467 2.02823,-2.5603 3.2029,-3.68194 a 28.575,25.399999 36 0 0 0.35708,0.894 c -0.53562,0.5952 -1.03117,1.22436 -1.48001,1.88256 0.49916,-0.57592 1.02438,-1.12858 1.5689,-1.65934 a 28.575,25.399999 36 0 0 0.30386,0.76068 23.415623,20.240624 0 0 0 -5.26945,12.7703 23.415623,20.240624 0 0 0 2.49649,9.00771 12.303124,9.6572913 36 0 0 3.42305,3.43131 12.303124,9.6572913 36 0 0 4.5532,2.25568 23.415623,20.240624 72 0 0 7.35511,-0.017 25.399999,28.575 18 0 0 0.91106,0.70125 c -0.4596,0.14025 -0.9239,0.26548 -1.3932,0.37412 0.51806,-0.0577 1.03302,-0.14576 1.54409,-0.25786 a 25.399999,28.575 18 0 0 0.90744,0.69868 c -1.37245,0.45678 -2.78713,0.77317 -4.22506,0.9503 1.55871,-0.0206 3.12047,-0.24913 4.63692,-0.69709 a 25.399999,28.575 18 0 0 0.83251,0.50694 c -1.08741,0.41688 -2.19849,0.75115 -3.32693,1.00303 1.22216,-0.14229 2.43746,-0.41653 3.62459,-0.82166 a 25.399999,28.575 18 0 0 0.65629,0.39947 27.384375,24.209374 72 0 1 -1.1896,0.46458 27.384375,24.209374 72 0 1 -11.61376,0.45061 16.271874,13.62604 36 0 1 -5.60534,-2.80035 16.271874,13.62604 36 0 1 -4.44986,-4.53771 27.384375,24.209374 0 0 1 -3.10575,-11.11197 27.384375,24.209374 0 0 1 7.73648,-16.86256 z m -16.64136,0.63048 h 2.10013 a 14.816665,17.462498 18 0 0 -0.01,0.44286 25.399998,28.575 54 0 0 0.0119,0.0863 h -2.02107 a 73.378038,73.378038 0 0 1 -0.0811,-0.52917 z m 8.42377,0 h 5.92212 a 28.575,25.399999 0 0 0 -0.46199,0.52917 h -5.44669 a 8.4666658,11.112499 18 0 1 -0.0145,-0.27493 19.049997,22.224998 54 0 1 -10e-4,-0.0124 19.049997,22.224998 54 0 1 -5.2e-4,-0.002 8.4666658,11.112498 18 0 1 -5.2e-4,-0.16434 8.4666658,11.112499 18 0 1 0.003,-0.0754 z m 21.71444,0 h 12.30364 a 22.224999,19.049998 72 0 1 0.22273,0.52917 H 67.51564 a 19.049998,22.224999 18 0 1 0.21394,-0.52917 z m 28.09079,0 h 5.9154 a 11.112499,8.4666658 72 0 1 5.2e-4,0.52917 h -5.46892 a 28.575,25.399999 0 0 0 -0.447,-0.52917 z m 12.25558,0 h 2.019 a 73.378038,73.378038 0 0 1 -0.0517,0.52917 h -1.95957 a 17.462498,14.816665 72 0 0 -0.008,-0.52917 z m -70.37658,0.70538 h 2.01797 a 25.399998,28.575 54 0 0 0.0713,0.52967 h -2.00866 a 73.378038,73.378038 0 0 1 -0.0806,-0.52967 z m 8.33851,0 h 5.28391 a 28.575,25.399999 0 0 0 -0.4625,0.52967 h -4.7935 a 8.4666658,11.112499 18 0 1 -0.0279,-0.52967 z m 21.40645,0 h 12.87828 a 22.224999,19.049998 72 0 1 0.2005,0.52967 H 67.22987 a 19.049998,22.224999 18 0 1 0.21446,-0.52967 z m 28.97187,0 h 5.3082 a 11.112499,8.4666658 72 0 1 -0.0362,0.52967 h -4.82451 a 28.575,25.399999 0 0 0 -0.44752,-0.52967 z m 11.64632,0 h 1.9637 a 73.378038,73.378038 0 0 1 -0.0512,0.52967 h -1.99161 a 28.575,25.399998 36 0 0 0.0791,-0.52967 z m -20.63337,0.45527 a 22.225,19.049999 0 0 1 0.63614,0.46352 c -0.30209,0.73448 -0.63019,1.45976 -0.98547,2.17353 0.42722,-0.65728 0.81502,-1.34009 1.16427,-2.04277 a 22.225,19.049999 0 0 1 0.73794,0.53795 c -0.55828,1.29762 -1.20255,2.5617 -1.92753,3.78166 0.8378,-1.11194 1.57504,-2.30148 2.20038,-3.55068 a 22.225,19.049999 0 0 1 0.62632,0.55552 c -0.26829,0.61926 -0.55233,1.23156 -0.85525,1.83504 0.35619,-0.55496 0.68575,-1.12752 0.99323,-1.71307 a 22.225,19.049999 0 0 1 0.5736,0.50901 24.209374,27.384375 54 0 1 -9.32501,11.04738 l -0.002,-0.003 a 24.209374,27.384375 54 0 1 -0.57567,0.385 22.225,19.049999 36 0 1 -1.12241,-0.18913 c 0.40409,-0.28966 0.79924,-0.59044 1.18339,-0.90381 -0.45479,0.29725 -0.91645,0.5842 -1.3839,0.86246 a 22.225,19.049999 36 0 1 -1.10277,-0.26768 c 0.66212,-0.42918 1.30333,-0.88815 1.91823,-1.37769 0.52728,-0.41957 1.03543,-0.86053 1.52393,-1.32085 -0.53573,0.40394 -1.08182,0.79232 -1.63814,1.16374 -0.74876,0.50025 -1.51867,0.97079 -2.30477,1.41285 a 22.225,19.049999 36 0 1 -1.12034,-0.34417 c 0.98124,-0.57814 1.91537,-1.22764 2.78897,-1.94408 -1.01862,0.65715 -2.07275,1.26508 -3.15226,1.82161 a 22.225,19.049999 36 0 1 -0.96325,-0.32711 20.240624,23.415623 54 0 0 3.61787,-2.17921 20.240624,23.415623 54 0 0 8.49457,-10.38643 z m -49.62229,0.25061 h 2.00556 a 25.399998,28.575 54 0 0 0.0718,0.52917 h -1.99678 a 73.378038,73.378038 0 0 1 -0.0806,-0.52917 z m 8.2765,0 h 4.62194 a 28.575,25.399999 0 0 0 -0.41652,0.52917 h -4.13204 a 8.4666658,11.112499 18 0 1 -0.0734,-0.52917 z m 21.07519,0 h 13.43122 a 22.224999,19.049998 72 0 1 0.19999,0.52917 H 66.95805 a 19.049998,22.224999 18 0 1 0.2005,-0.52917 z m 29.85451,0 h 4.66328 a 11.112499,8.4666658 72 0 1 -0.0739,0.52917 h -4.14239 a 28.575,25.399999 0 0 0 -0.447,-0.52917 z m 10.94404,0 h 2.00091 a 73.378038,73.378038 0 0 1 -0.0517,0.52917 h -2.02881 a 28.575,25.399998 36 0 0 0.0796,-0.52917 z m -70.04275,0.70541 h 1.99367 a 25.399998,28.575 54 0 0 0.0739,0.52916 h -1.98644 a 73.378038,73.378038 0 0 1 -0.0811,-0.52916 z m 8.26667,0 h 3.98322 a 28.575,25.399999 0 0 0 -0.3731,0.52916 h -3.50935 a 8.4666658,11.112499 18 0 1 -0.10077,-0.52916 z m 20.71657,0 h 13.95884 a 22.224999,19.049998 72 0 1 0.0698,0.18446 22.224999,19.049998 72 0 1 0.10645,0.3447 H 66.74053 a 19.049998,22.224999 18 0 1 0.0941,-0.3447 19.049998,22.224999 18 0 1 0.063,-0.18446 z m 30.69425,0 h 3.98322 a 11.112499,8.4666658 72 0 1 -0.0925,0.52916 h -3.53054 a 28.575,25.399999 0 0 0 -0.36018,-0.52916 z m 10.25932,0 h 2.03812 a 73.378038,73.378038 0 0 1 -0.0512,0.52916 h -2.06602 a 28.575,25.399998 36 0 0 0.0791,-0.52916 z m -69.82881,0.70538 h 2.00195 a 25.399998,28.575 54 0 0 0.12609,0.52967 h -2.04742 a 73.378038,73.378038 0 0 1 -0.0806,-0.52967 z m 8.30027,0 h 3.3445 a 28.575,25.399999 0 0 0 -0.37362,0.52967 h -2.84738 a 8.4666658,11.112499 18 0 1 -0.1235,-0.52967 z m 20.36981,0 H 81.0869 a 22.224999,19.049998 72 0 1 0.1354,0.52967 H 66.54774 a 19.049998,22.224999 18 0 1 0.14469,-0.52967 z m 31.37948,0 h 3.36672 a 11.112499,8.4666658 72 0 1 -0.13074,0.52967 h -2.87528 a 28.575,25.399999 0 0 0 -0.3607,-0.52967 z m 9.67383,0 h 2.07533 a 73.378038,73.378038 0 0 1 -0.0661,0.52967 h -2.11357 a 28.575,25.399998 36 0 0 0.10439,-0.52967 z m -69.6159,0.70588 h 2.0624 a 25.399998,28.575 54 0 0 0.12609,0.52916 h -2.10788 a 73.378038,73.378038 0 0 1 -0.0806,-0.52916 z m 8.37416,0 h 2.66547 a 28.575,25.399999 0 0 0 -0.33899,0.52916 H 46.67867 A 8.4666658,11.112499 18 0 1 46.504,264.12886 Z m 19.99568,0 h 14.76654 a 22.224999,19.049998 72 0 1 0.13177,0.52916 h -15.043 a 19.049998,22.224999 18 0 1 0.14469,-0.52916 z m 32.05282,0 h 2.70992 a 11.112499,8.4666658 72 0 1 -0.18552,0.52916 h -2.16421 a 28.575,25.399999 0 0 0 -0.36019,-0.52916 z m 9.04286,0 h 2.12442 a 73.378038,73.378038 0 0 1 -0.10594,0.52916 h -2.15749 a 28.575,25.399998 36 0 0 0.13901,-0.52916 z m -69.35804,0.7054 h 2.12287 a 25.399998,28.575 54 0 0 0.12609,0.52917 h -2.16782 a 73.378038,73.378038 0 0 1 -0.0811,-0.52917 z m 8.49974,0 h 1.99523 a 28.575,25.399999 0 0 0 -0.29456,0.52917 h -1.47122 a 8.4666658,11.112499 18 0 1 -0.22945,-0.52917 z m 19.56987,0 H 81.4414 a 22.224999,19.049998 72 0 1 0.13229,0.52917 H 66.19117 a 19.049998,22.224999 18 0 1 0.11576,-0.52917 z m 32.71893,0 h 1.98954 a 11.112499,8.4666658 72 0 1 -0.22221,0.52917 h -1.47846 a 28.575,25.399999 0 0 0 -0.28887,-0.52917 z m 8.38398,0 h 2.16886 a 73.378038,73.378038 0 0 1 -0.10542,0.52917 h -2.20245 a 28.575,25.399998 36 0 0 0.13901,-0.52917 z m -15.94889,0.39325 a 22.224998,19.049997 0 0 1 0.12092,0.13592 h -0.19844 a 25.399998,28.575 54 0 0 0.0775,-0.13592 z m -35.17098,0.005 a 28.575,25.399998 36 0 0 0.0744,0.13076 h -0.18035 a 22.224998,19.049997 0 0 1 0.10594,-0.13076 z m -17.94464,0.30697 h 2.18281 a 25.399998,28.575 54 0 0 0.16691,0.52967 h -2.26911 a 73.378038,73.378038 0 0 1 -0.0806,-0.52967 z m 8.69921,0 h 1.29501 a 28.575,25.399999 0 0 0 -0.29507,0.52967 h -0.72502 a 8.4666658,11.112499 18 0 1 -0.27492,-0.52967 z m 8.99686,0 h 0.42323 a 28.575,25.399998 36 0 0 0.30179,0.52967 h -1.15393 a 22.224998,19.049997 0 0 1 0.42891,-0.52967 z m 10.11773,0 H 81.6171 a 22.224999,19.049998 72 0 1 0.093,0.52967 H 66.06248 a 19.049998,22.224999 18 0 1 0.0966,-0.52967 z m 25.12405,0 h 0.43925 a 22.224998,19.049997 0 0 1 0.42116,0.52967 h -1.1622 a 25.399998,28.575 54 0 0 0.30179,-0.52967 z m 8.12819,0 h 1.29966 a 11.112499,8.4666658 72 0 1 -0.26717,0.52967 h -0.74362 a 28.575,25.399999 0 0 0 -0.28887,-0.52967 z m 7.81296,0 h 2.21381 a 73.378038,73.378038 0 0 1 -0.10542,0.52967 h -2.2474 a 28.575,25.399998 36 0 0 0.13901,-0.52967 z m -68.77152,0.70588 h 2.30529 a 25.399998,28.575 54 0 0 0.18965,0.52917 h -2.41432 a 73.378038,73.378038 0 0 1 -0.0806,-0.52917 z m 8.96741,0 h 0.52607 a 28.575,25.399999 0 0 0 -0.25373,0.4553 8.4666658,11.112499 18 0 1 -0.27234,-0.4553 z m 8.04964,0 h 1.39733 a 28.575,25.399998 36 0 0 0.30128,0.52917 h -2.127 a 22.224998,19.049997 0 0 1 0.42839,-0.52917 z m 10.56008,0 h 15.7086 a 22.224999,19.049998 72 0 1 0.0842,0.52917 H 65.93327 a 19.049998,22.224999 18 0 1 0.0966,-0.52917 z m 24.8512,0 h 1.40301 a 22.224998,19.049997 0 0 1 0.42065,0.52917 h -2.12494 a 25.399998,28.575 54 0 0 0.30128,-0.52917 z m 8.91521,0 h 0.54209 a 11.112499,8.4666658 72 0 1 -0.2837,0.47234 l -5.2e-4,-5.3e-4 a 28.575,25.399999 0 0 0 -0.25787,-0.47181 z m 7.23987,0 h 2.26136 a 73.378038,73.378038 0 0 1 -0.10542,0.52917 h -2.35954 a 28.575,25.399998 36 0 0 0.2036,-0.52917 z m -68.4754,0.70541 h 2.44998 a 25.399998,28.575 54 0 0 0.18913,0.52917 h -2.5585 a 73.378038,73.378038 0 0 1 -0.0806,-0.52917 z m 16.36282,0 h 2.34508 a 28.575,25.399998 36 0 0 0.30179,0.52917 h -2.98948 a 22.224998,19.049997 0 0 1 0.34261,-0.52917 z m 10.97763,0 h 15.94941 a 22.224999,19.049998 72 0 1 0.0842,0.52917 H 65.81907 a 19.049998,22.224999 18 0 1 0.0822,-0.52917 z m 24.57834,0 h 2.36368 a 22.224998,19.049997 0 0 1 0.3359,0.52917 h -3.00085 a 25.399998,28.575 54 0 0 0.30127,-0.52917 z m 16.28531,0 h 2.3921 a 73.378038,73.378038 0 0 1 -0.10542,0.52917 h -2.49028 a 28.575,25.399998 36 0 0 0.2036,-0.52917 z m -68.09661,0.70538 h 2.59519 a 25.399998,28.575 54 0 0 0.19585,0.52967 h -2.66237 a 73.378038,73.378038 0 0 1 -0.12867,-0.52967 z m 15.79851,0 h 3.20601 a 28.575,25.399998 36 0 0 0.37,0.52967 h -3.91862 a 22.224998,19.049997 0 0 1 0.34261,-0.52967 z m 11.33006,0 h 16.16594 a 22.224999,19.049998 72 0 1 0.0264,0.16433 19.049998,22.224999 54 0 1 -0.34313,0.36534 H 66.13128 a 22.224999,19.049998 36 0 1 -0.35605,-0.35552 19.049998,22.224999 18 0 1 0.0217,-0.17415 z m 24.28069,0 h 3.21376 a 22.224998,19.049997 0 0 1 0.33641,0.52967 H 89.7086 a 25.399998,28.575 54 0 0 0.36897,-0.52967 z m 16.41605,0 h 2.52284 a 73.378038,73.378038 0 0 1 -0.10593,0.52967 h -2.62051 a 28.575,25.399998 36 0 0 0.2036,-0.52967 z m -67.65168,0.70588 h 2.70319 a 25.399998,28.575 54 0 0 0.2589,0.52917 h -2.82618 a 73.378038,73.378038 0 0 1 -0.13591,-0.52917 z m 15.16806,0 h 4.15582 a 28.575,25.399998 36 0 0 0.36949,0.52917 H 53.72992 A 22.224998,19.049997 0 0 1 54.01,268.36203 Z m 12.29796,0 h 15.16187 a 19.049998,22.224999 54 0 1 -0.55449,0.52917 h -14.0777 a 22.224999,19.049998 36 0 1 -0.52968,-0.52917 z m 23.27765,0 h 4.15375 a 22.224998,19.049997 0 0 1 0.29611,0.52917 h -4.81883 a 25.399998,28.575 54 0 0 0.36897,-0.52917 z m 16.63671,0 h 2.65307 a 73.378038,73.378038 0 0 1 -0.10542,0.52917 h -2.7895 a 28.575,25.399998 36 0 0 0.24185,-0.52917 z m -67.199,0.70541 h 2.86701 a 25.399998,28.575 54 0 0 0.2589,0.52916 h -2.99 a 73.378038,73.378038 0 0 1 -0.13591,-0.52916 z m 14.61771,0 h 5.01778 a 28.575,25.399998 36 0 0 0.36949,0.52916 h -5.65288 a 22.224998,19.049997 0 0 1 0.26561,-0.52916 z m 13.37335,0 h 13.71647 a 19.049998,22.224999 54 0 1 -0.555,0.52916 H 67.58282 a 22.224999,19.049998 36 0 1 -0.56844,-0.52916 z m 22.07927,0 h 5.02812 a 22.224998,19.049997 0 0 1 0.25993,0.52916 h -5.65702 a 25.399998,28.575 54 0 0 0.36897,-0.52916 z m 16.79536,0 h 2.84582 a 73.378038,73.378038 0 0 1 -0.10542,0.52916 h -3.0148 a 28.575,25.399998 36 0 0 0.2744,-0.52916 z m -40.25336,0.31263 a 23.415623,20.240624 36 0 0 3.1905,2.76778 23.415623,20.240624 36 0 0 12.50312,4.86897 22.225,19.049999 72 0 1 -0.24392,0.74826 c -0.79188,-0.0603 -1.58332,-0.14829 -2.37194,-0.26561 0.75712,0.2032 1.52646,0.36094 2.3027,0.47593 a 22.225,19.049999 72 0 1 -0.28371,0.86818 c -1.40663,-0.12996 -2.8077,-0.35206 -4.19199,-0.66455 1.31643,0.45317 2.67528,0.78657 4.0566,0.99528 a 22.225,19.049999 72 0 1 -0.33486,0.7674 c -0.67186,-0.0638 -1.34215,-0.14489 -2.0097,-0.24652 0.63786,0.16727 1.28441,0.30401 1.93632,0.41548 a 22.225,19.049999 72 0 1 -0.30644,0.70281 27.384375,24.209374 36 0 1 -13.38885,-5.45497 l 0.002,-0.003 a 27.384375,24.209374 36 0 1 -0.54416,-0.42839 19.049999,22.225 18 0 1 -0.16691,-1.12604 c 0.40036,0.2948 0.8085,0.57796 1.22525,0.84649 -0.42325,-0.34068 -0.8389,-0.69149 -1.24799,-1.05008 a 19.049999,22.225 18 0 1 -0.0858,-1.13171 c 0.61279,0.49708 1.24714,0.96534 1.90272,1.39888 0.56196,0.37182 1.13881,0.71893 1.72755,1.04127 -0.54973,-0.38468 -1.08819,-0.78457 -1.61334,-1.19888 -0.70715,-0.55753 -1.39287,-1.1439 -2.05621,-1.75493 a 19.049999,22.225 18 0 1 -0.0191,-1.17202 c 0.85306,0.75456 1.76015,1.44208 2.71147,2.05155 -0.93974,-0.7657 -1.84394,-1.57977 -2.70682,-2.43448 a 19.049999,22.225 18 0 1 0.0134,-1.01751 z m -26.43146,0.39275 h 3.03134 a 25.399998,28.575 54 0 0 0.2589,0.52967 h -3.15382 a 73.378038,73.378038 0 0 1 -0.13642,-0.52967 z m 14.08286,0 h 5.86424 a 28.575,25.399998 36 0 0 0.12299,0.17621 25.399998,28.575 18 0 0 0.007,0.35346 h -6.2482 a 22.224998,19.049997 0 0 1 0.25425,-0.52967 z m 14.50558,0 h 12.19873 a 19.049998,22.224999 54 0 1 -0.65577,0.52967 h -10.912 a 22.224999,19.049998 36 0 1 -0.63096,-0.52967 z m 20.80906,0 h 5.86682 a 22.224998,19.049997 0 0 1 0.25994,0.52967 h -6.242 a 28.575,25.399998 72 0 0 0.007,-0.37465 25.399998,28.575 54 0 0 0.108,-0.15502 z m 16.92145,0 h 3.07113 a 73.378038,73.378038 0 0 1 -0.10542,0.52967 h -3.24063 a 28.575,25.399998 36 0 0 0.27492,-0.52967 z m -66.13757,0.70588 h 3.20291 a 25.399998,28.575 54 0 0 0.33693,0.52916 h -3.40393 a 73.378038,73.378038 0 0 1 -0.13591,-0.52916 z m 13.58212,0 h 6.31693 a 25.399998,28.575 18 0 0 0.0103,0.52916 h -6.5226 a 22.224998,19.049997 0 0 1 0.19534,-0.52916 z m 15.66571,0 h 10.48256 a 19.049998,22.224999 54 0 1 -0.6599,0.52916 H 69.28969 A 22.224999,19.049998 36 0 1 68.6334,270.4787 Z m 19.84995,0 h 6.31693 a 22.224998,19.049997 0 0 1 0.19017,0.52916 h -6.51692 a 28.575,25.399998 72 0 0 0.01,-0.52916 z m 16.6734,0 h 3.29696 a 73.378038,73.378038 0 0 1 -0.10646,0.52916 h -3.48402 a 28.575,25.399998 36 0 0 0.29352,-0.52916 z m -65.58979,0.7054 h 3.47059 a 25.399998,28.575 54 0 0 0.33744,0.52917 h -3.67212 a 73.378038,73.378038 0 0 1 -0.13591,-0.52917 z m 13.14028,0 h 6.59081 a 25.399998,28.575 18 0 0 0.0103,0.52917 h -6.79649 a 22.224998,19.049997 0 0 1 0.19534,-0.52917 z m 16.81706,0 h 8.71161 a 19.049998,22.224999 54 0 1 -0.001,10e-4 19.049998,22.224999 54 0 1 -0.78393,0.52813 H 70.331 a 22.224999,19.049998 36 0 1 -0.80512,-0.52813 22.224999,19.049998 36 0 1 -0.002,-10e-4 z m 18.94562,0 h 6.58357 a 22.224998,19.049997 0 0 1 0.19017,0.52917 H 88.4601 a 28.575,25.399998 72 0 0 0.01,-0.52917 z m 16.27755,0 h 3.54604 a 73.378038,73.378038 0 0 1 -0.16175,0.52917 h -3.73052 a 28.575,25.399998 36 0 0 0.34623,-0.52917 z m -17.44131,0.2217 a 27.384375,24.209374 72 0 1 -8.15919,18.81693 19.049999,22.225 18 0 1 -0.89193,-0.24961 c 0.4088,-0.4032 0.80268,-0.83103 1.17873,-1.28313 -0.44516,0.43503 -0.8992,0.84418 -1.36064,1.23146 a 19.049999,22.225 18 0 1 -0.92552,-0.35399 c 1.04196,-0.98084 1.98464,-2.12511 2.79466,-3.4339 -0.98859,1.26392 -2.05105,2.35361 -3.175,3.2887 a 19.049999,22.225 18 0 1 -0.92656,-0.46043 c 0.62217,-0.5765 1.20403,-1.21531 1.73065,-1.92445 -0.62809,0.66569 -1.28333,1.26474 -1.96061,1.80816 a 19.049999,22.225 18 0 1 -0.62528,-0.31728 23.415623,20.240624 72 0 0 7.89719,-12.91654 25.399999,28.575 54 0 0 0.9586,-0.81648 c -0.0653,0.5842 -0.14422,1.16668 -0.24082,1.74564 0.18232,-0.63378 0.33134,-1.27873 0.45114,-1.93063 a 25.399999,28.575 54 0 0 1.00821,-0.88781 c -0.14203,1.68404 -0.41293,3.35727 -0.82579,4.99866 0.64429,-1.73331 1.06092,-3.55332 1.26142,-5.40742 a 25.399999,28.575 54 0 0 0.77205,-0.81338 c -0.0654,1.52098 -0.22399,3.03937 -0.48318,4.54184 0.45046,-1.59025 0.72095,-3.23424 0.81856,-4.89532 a 25.399999,28.575 54 0 0 0.70331,-0.74102 z m -47.55834,0.48368 h 3.73931 a 25.399998,28.575 54 0 0 0.33745,0.52967 h -3.94033 a 73.378038,73.378038 0 0 1 -0.13643,-0.52967 z m 12.69897,0 H 59.312 a 25.399998,28.575 18 0 0 0.0103,0.52967 h -6.63577 a 19.049997,22.224998 54 0 1 -0.339,-0.23098 22.224998,19.049997 0 0 1 0.0992,-0.29869 z m 18.1529,0 h 6.56911 a 19.049998,22.224999 54 0 1 -0.84801,0.52967 h -4.90875 a 22.224999,19.049998 36 0 1 -0.81235,-0.52967 z m 17.85731,0 h 6.84971 a 22.224998,19.049997 0 0 1 0.10697,0.29816 22.224998,19.049997 36 0 1 -0.32815,0.23151 h -6.63835 a 28.575,25.399998 72 0 0 0.01,-0.52967 z m 15.82849,0 h 3.79201 a 73.378038,73.378038 0 0 1 -0.16174,0.52967 h -3.97702 a 28.575,25.399998 36 0 0 0.34675,-0.52967 z m -64.35628,0.70588 h 4.01268 a 25.399998,28.575 54 0 0 0.43149,0.52917 h -4.30826 a 73.378038,73.378038 0 0 1 -0.13591,-0.52917 z m 13.01626,0 h 6.37997 a 25.399998,28.575 18 0 0 0.0475,0.52917 h -5.6503 a 19.049997,22.224998 54 0 1 -0.77721,-0.52917 z m 18.79317,0 h 4.29999 a 19.049998,22.224999 54 0 1 -0.99529,0.52917 h -2.32388 a 22.224999,19.049998 36 0 1 -0.98082,-0.52917 z m 16.70492,0 h 6.37791 a 22.224998,19.049997 36 0 1 -0.79272,0.52917 H 88.3986 a 28.575,25.399998 72 0 0 0.045,-0.52917 z m 15.37529,0 h 4.04316 a 73.378038,73.378038 0 0 1 -0.16226,0.52917 h -4.31912 a 28.575,25.399998 36 0 0 0.43822,-0.52917 z m -63.70826,0.70541 h 4.40645 a 25.399998,28.575 54 0 0 0.43202,0.52917 H 40.2465 a 73.378038,73.378038 0 0 1 -0.13591,-0.52917 z m 13.88133,0 h 5.4007 a 25.399998,28.575 18 0 0 0.0589,0.52917 h -4.45761 a 19.049997,22.224998 54 0 1 -1.002,-0.52917 z m 19.05413,0 h 1.6521 a 19.049998,22.224999 54 0 1 -0.81236,0.41495 22.224999,19.049998 36 0 1 -0.83974,-0.41495 z m 15.33292,0 h 5.38571 a 22.224998,19.049997 36 0 1 -0.9958,0.52917 h -4.44831 a 28.575,25.399998 72 0 0 0.0584,-0.52917 z m 14.85542,0 h 4.41162 a 73.378038,73.378038 0 0 1 -0.16175,0.52917 h -4.68809 a 28.575,25.399998 36 0 0 0.43822,-0.52917 z m -51.20721,0.15296 a 20.240624,23.415623 53.999999 0 0 14.72468,3.51917 28.575,25.399999 35.999999 0 0 1.0728,0.65939 c -0.57579,0.11843 -1.15429,0.22357 -1.73477,0.31057 0.6591,-0.0225 1.31857,-0.0805 1.97559,-0.16796 a 28.575,25.399999 35.999999 0 0 1.156,0.68472 c -1.64552,0.38531 -3.32087,0.64455 -5.00952,0.75911 1.84758,0.0772 3.7077,-0.089 5.533,-0.47127 a 28.575,25.399999 35.999999 0 0 1.01182,0.48318 c -1.46677,0.40777 -2.95995,0.72633 -4.46897,0.94411 1.65162,-0.063 3.29884,-0.3138 4.90874,-0.73432 a 28.575,25.399999 35.999999 0 0 0.92243,0.43976 24.209374,27.384375 53.999999 0 1 -20.41736,-1.94508 19.049999,22.225 89.999999 0 1 -0.0382,-0.92554 c 0.50979,0.26421 1.03822,0.50657 1.5844,0.72451 -0.5513,-0.28893 -1.08073,-0.59394 -1.59164,-0.91311 a 19.049999,22.225 89.999999 0 1 0.0506,-0.98962 c 1.25481,0.68786 2.63443,1.23034 4.12947,1.59628 -1.50754,-0.54964 -2.87216,-1.22298 -4.10879,-2.00297 a 19.049999,22.225 89.999999 0 1 0.15141,-1.0237 c 0.74055,0.41357 1.52807,0.76938 2.36523,1.05108 -0.8272,-0.39163 -1.59932,-0.82965 -2.32544,-1.30585 a 19.049999,22.225 89.999999 0 1 0.10852,-0.69246 z m -11.7352,0.55242 h 4.80074 a 25.399998,28.575 54 0 0 0.36432,0.44648 28.575,25.399998 0 0 0 -0.005,0.0832 h -5.02398 a 73.378038,73.378038 0 0 1 -0.13591,-0.52967 z m 15.03577,0 h 4.14342 a 25.399998,28.575 18 0 0 0.0589,0.52967 h -2.98018 a 19.049997,22.224998 54 0 1 -1.22215,-0.52967 z m 32.97318,0 h 4.12688 a 22.224998,19.049997 36 0 1 -1.20509,0.52967 h -2.9807 a 28.575,25.399998 72 0 0 0.0589,-0.52967 z m 14.34951,0 H 107.43 a 73.378038,73.378038 0 0 1 -0.16175,0.52967 h -4.94182 a 28.575,25.399998 0 0 0 -0.007,-0.1297 28.575,25.399998 36 0 0 0.33124,-0.39997 z m -62.17759,0.70588 h 4.96765 a 28.575,25.399998 0 0 0 -0.0336,0.52917 h -4.7532 a 73.378038,73.378038 0 0 1 -0.18086,-0.52917 z m 16.52198,0 h 2.55489 a 25.399998,28.575 18 0 0 0.0584,0.52917 h -0.92759 a 19.049997,22.224998 54 0 1 -1.68569,-0.52917 z m 31.22807,0 h 2.54248 a 22.224998,19.049997 36 0 1 -1.6738,0.52917 h -0.92759 a 28.575,25.399998 72 0 0 0.0589,-0.52917 z m 14.11335,0 h 4.87826 a 73.378038,73.378038 0 0 1 -0.16227,0.52917 h -4.68602 a 28.575,25.399998 0 0 0 -0.03,-0.52917 z m -61.61794,0.70541 h 4.67723 a 28.575,25.399998 0 0 0 -0.0336,0.52916 H 40.9126 a 73.378038,73.378038 0 0 1 -0.1943,-0.52916 z m 18.59783,0 h 0.31161 a 25.399998,28.575 18 0 0 0.009,0.078 19.049997,22.224998 54 0 1 -0.32039,-0.078 z m 28.82821,0 h 0.28991 a 22.224998,19.049997 36 0 1 -0.29869,0.0801 28.575,25.399998 72 0 0 0.009,-0.0801 z m 14.23169,0 h 4.62246 a 73.378038,73.378038 0 0 1 -0.16175,0.52916 h -4.43074 a 28.575,25.399998 0 0 0 -0.03,-0.52916 z m -1.18546,0.14054 a 27.384375,24.209374 9.5439035e-7 0 1 0.0739,1.27487 27.384375,24.209374 9.5439035e-7 0 1 -3.16001,11.18434 13.62604,16.271874 54.000001 0 1 -4.3956,4.46587 13.62604,16.271874 54.000001 0 1 -5.69061,2.8298 24.209374,27.384375 18.000001 0 1 -11.52798,-0.48009 24.209374,27.384375 18.000001 0 1 -13.64671,-12.56874 v -5e-4 a 25.399999,28.575 54.000001 0 0 0.80254,0.009 c 0.55803,1.11387 1.21756,2.17093 1.96835,3.1533 -0.6194,-1.01507 -1.17328,-2.06925 -1.66088,-3.15021 a 25.399999,28.575 54.000001 0 0 0.81494,-0.0155 c 0.79607,1.51069 1.78123,2.9129 2.9254,4.15687 -0.96597,-1.31374 -1.80823,-2.71995 -2.51199,-4.18373 a 25.399999,28.575 54.000001 0 0 0.96067,-0.0636 c 0.40056,0.69334 0.84596,1.35877 1.33325,1.98904 -0.39348,-0.65271 -0.75696,-1.32266 -1.09348,-2.00451 a 25.399999,28.575 54.000001 0 0 0.81753,-0.0543 20.240624,23.415623 18.000001 0 0 10.51667,8.9581 20.240624,23.415623 18.000001 0 0 9.33844,0.40929 9.6572913,12.303124 54.000001 0 0 4.32119,-2.19522 9.6572913,12.303124 54.000001 0 0 3.55223,-3.63337 23.415623,20.240624 9.5439034e-7 0 0 2.25672,-7.00061 28.575,25.399999 36.000001 0 0 0.94826,-0.64958 c -0.009,0.48046 -0.0327,0.96086 -0.0744,1.44074 0.10518,-0.51052 0.18022,-1.02751 0.23151,-1.54821 a 28.575,25.399999 36.000001 0 0 0.94517,-0.64701 c 0.0103,1.44645 -0.12617,2.88959 -0.40205,4.31188 0.4621,-1.48878 0.72738,-3.04487 0.76998,-4.62555 a 28.575,25.399999 36.000001 0 0 0.73949,-0.6351 c 0.0605,1.163 0.0353,2.32314 -0.0739,3.47421 0.24233,-1.20631 0.35699,-2.44686 0.33849,-3.70107 a 28.575,25.399999 36.000001 0 0 0.5829,-0.50075 z m -60.21337,0.56484 h 4.37337 a 28.575,25.399998 0 0 0 -0.0336,0.52967 H 41.1715 a 73.378038,73.378038 0 0 1 -0.1943,-0.52967 z m 61.43862,0 h 4.36718 a 73.378038,73.378038 0 0 1 -0.16227,0.52967 h -4.17545 a 28.575,25.399998 0 0 0 -0.0295,-0.52967 z m -61.17972,0.70588 h 4.07003 a 28.575,25.399998 0 0 0 -5.2e-4,0.005 28.575,25.399998 0 0 0 0.0253,0.52451 h -3.90106 a 73.378038,73.378038 0 0 1 -0.19378,-0.52916 z m 61.21951,0 h 4.11138 a 73.378038,73.378038 0 0 1 -0.16226,0.52916 h -3.98115 a 28.575,25.399998 0 0 0 0.032,-0.52501 28.575,25.399998 0 0 0 0,-0.004 z m -60.96113,0.7054 h 3.84524 a 28.575,25.399998 0 0 0 0.0258,0.52917 h -3.67678 a 73.378038,73.378038 0 0 1 -0.1943,-0.52917 z m 60.91824,0 h 3.93826 a 73.378038,73.378038 0 0 1 -0.16743,0.52917 h -3.80338 a 28.575,25.399998 0 0 0 0.0325,-0.52917 z m -60.65934,0.70538 h 3.62045 a 28.575,25.399998 0 0 0 0.0258,0.52967 h -3.45199 a 73.378038,73.378038 0 0 1 -0.1943,-0.52967 z m 60.61645,0 h 3.74034 a 73.378038,73.378038 0 0 1 -0.22221,0.52967 h -3.55068 a 28.575,25.399998 0 0 0 0.0325,-0.52967 z m -60.35755,0.70588 h 3.40392 a 28.575,25.399998 0 0 0 0.0801,0.52917 h -3.29024 a 73.378038,73.378038 0 0 1 -0.19378,-0.52917 z m 60.31414,0 h 3.48765 a 73.378038,73.378038 0 0 1 -0.2217,0.52917 h -3.31039 a 28.575,25.399998 0 0 0 0.0444,-0.52917 z m -50.51836,0.39585 5.2e-4,5.3e-4 a 25.399999,28.575 54 0 0 0.28008,0.13279 h -0.26871 a 11.112499,8.4666658 36 0 1 -0.0119,-0.13332 z m 44.14718,0.0222 a 8.4666658,11.112499 54 0 1 -0.005,0.1111 h -0.23461 a 28.575,25.399999 36 0 0 0.23978,-0.1111 z m -53.68458,0.28734 h 3.25199 a 28.575,25.399998 0 0 0 0.0801,0.52917 h -3.13831 a 73.378038,73.378038 0 0 1 -0.19378,-0.52917 z m 9.56479,0 h 0.62477 a 25.399999,28.575 54 0 0 1.11621,0.52917 h -1.69447 a 11.112499,8.4666658 36 0 1 -0.0465,-0.52917 z m 43.50019,0 h 0.59738 a 8.4666658,11.112499 54 0 1 -0.0569,0.52917 h -1.68207 a 28.575,25.399999 36 0 0 1.14154,-0.52917 z m 6.91534,0 h 3.2675 a 73.378038,73.378038 0 0 1 -0.2217,0.52917 h -3.1383 a 28.575,25.399998 0 0 0 0.0925,-0.52917 z m -59.72142,0.70538 h 3.09955 a 28.575,25.399998 0 0 0 0.0801,0.52967 h -2.98587 a 73.378038,73.378038 0 0 1 -0.19378,-0.52967 z m 9.37669,0 h 2.09031 a 25.399999,28.575 54 0 0 1.47432,0.52967 h -3.46128 a 11.112499,8.4666658 36 0 1 -0.10335,-0.52967 z m 41.90751,0 h 2.04329 a 8.4666658,11.112499 54 0 1 -0.10387,0.52967 h -3.41374 a 28.575,25.399999 36 0 0 1.47432,-0.52967 z m 8.31371,0 h 3.09542 a 73.378038,73.378038 0 0 1 -0.22169,0.52967 h -2.96623 a 28.575,25.399998 0 0 0 0.0925,-0.52967 z m -28.236,0.19688 a 28.575,25.399998 36 0 0 1.09657,0.33279 H 72.798 a 25.399998,28.575 54 0 0 1.09348,-0.33279 z m -31.10353,0.509 h 2.94762 a 28.575,25.399998 0 0 0 0.10439,0.52917 h -2.85771 a 73.378038,73.378038 0 0 1 -0.1943,-0.52917 z m 9.25577,0 h 3.91759 a 25.399999,28.575 54 0 0 2.01073,0.52917 h -5.7857 a 11.112499,8.4666658 36 0 1 -0.14262,-0.52917 z m 20.17551,0 h 3.34915 a 28.575,25.399998 36 0 0 2.10581,0.52917 H 70.1408 a 25.399998,28.575 54 0 0 2.07843,-0.52917 z m 19.60345,0 h 3.89279 a 8.4666658,11.112499 54 0 1 -0.13488,0.52917 h -5.718 a 28.575,25.399999 36 0 0 1.96009,-0.52917 z m 10.18129,0 h 2.92334 a 73.378038,73.378038 0 0 1 -0.22221,0.52917 h -2.79363 a 28.575,25.399998 0 0 0 0.0925,-0.52917 z m -58.95144,0.70541 h 2.83446 a 28.575,25.399998 0 0 0 0.14159,0.52916 h -2.71922 a 73.378038,73.378038 0 0 1 -0.25683,-0.52916 z m 9.18704,0 h 6.44922 a 25.399999,28.575 54 0 0 2.82463,0.41341 25.399999,28.575 18 0 0 0.0553,0.11575 h -9.15604 a 11.112499,8.4666658 36 0 1 -0.17311,-0.52916 z m 17.04805,0 h 9.24027 a 28.575,25.399998 36 0 0 0.75086,0.15502 22.224998,19.049997 72 0 1 -0.23513,0.37414 H 68.7197 a 19.049997,22.224998 18 0 1 -0.23564,-0.3633 25.399998,28.575 54 0 0 0.80356,-0.16586 z m 19.805,0 h 6.43165 a 8.4666658,11.112499 54 0 1 -0.16899,0.52916 h -9.18342 a 28.575,25.399999 72 0 0 0.0455,-0.0935 28.575,25.399999 36 0 0 2.87528,-0.43561 z m 12.78784,0 h 2.75126 a 73.378038,73.378038 0 0 1 -0.22221,0.52916 h -2.67115 a 28.575,25.399998 0 0 0 0.1421,-0.52916 z m -58.48583,0.70538 h 2.68097 a 28.575,25.399998 0 0 0 0.1416,0.52967 h -2.56574 a 73.378038,73.378038 0 0 1 -0.25683,-0.52967 z m 9.08937,0 h 9.16843 a 25.399999,28.575 18 0 0 0.2527,0.52967 H 52.69897 A 11.112499,8.4666658 36 0 1 52.484,282.4728 Z m 16.35042,0 h 10.09241 a 22.224998,19.049997 72 0 1 -0.35037,0.52967 h -9.39839 a 19.049997,22.224998 18 0 1 -0.34365,-0.52967 z m 17.25166,0 h 9.19841 a 8.4666658,11.112499 54 0 1 -0.2248,0.52967 H 85.8277 a 28.575,25.399999 72 0 0 0.25838,-0.52967 z m 15.60112,0 h 2.64893 a 73.378038,73.378038 0 0 1 -0.22221,0.52967 h -2.58175 a 28.575,25.399998 0 0 0 0.15503,-0.52967 z m -57.95047,0.70588 h 2.52749 a 28.575,25.399998 0 0 0 0.14108,0.52916 h -2.41174 a 73.378038,73.378038 0 0 1 -0.25683,-0.52916 z m 9.04234,0 h 9.21029 a 25.399999,28.575 18 0 0 0.25218,0.52916 h -9.19065 a 11.112499,8.4666658 36 0 1 -0.27182,-0.52916 z m 16.51372,0 h 9.16688 a 22.224998,19.049997 72 0 1 -0.35036,0.52916 h -8.45892 a 19.049997,22.224998 18 0 1 -0.3576,-0.52916 z m 16.44913,0 h 9.24284 a 8.4666658,11.112499 54 0 1 -0.27285,0.52916 h -9.22786 a 28.575,25.399999 72 0 0 0.25787,-0.52916 z m 15.73857,0 h 2.55953 a 73.378038,73.378038 0 0 1 -0.22169,0.52916 h -2.49235 a 28.575,25.399998 0 0 0 0.15451,-0.52916 z m -57.40166,0.7054 h 2.37763 a 28.575,25.399998 0 0 0 0.20619,0.52917 h -2.32699 a 73.378038,73.378038 0 0 1 -0.25683,-0.52917 z m 9.06249,0 h 9.18446 a 25.399999,28.575 18 0 0 0.27026,0.52917 h -9.13846 a 11.112499,8.4666658 36 0 1 -0.31626,-0.52917 z m 16.65222,0 h 8.17883 a 22.224998,19.049997 72 0 1 -0.4377,0.52917 h -7.31119 a 19.049997,22.224998 18 0 1 -0.42994,-0.52917 z m 15.60473,0 h 9.21907 a 8.4666658,11.112499 54 0 1 -0.3085,0.52917 h -9.16895 a 28.575,25.399999 72 0 0 0.25838,-0.52917 z m 15.87603,0 h 2.47014 a 73.378038,73.378038 0 0 1 -0.2217,0.52917 h -2.41329 a 28.575,25.399998 0 0 0 0.16485,-0.52917 z m -56.85338,0.70538 h 2.30994 a 28.575,25.399998 0 0 0 0.20619,0.52967 h -2.25929 a 73.378038,73.378038 0 0 1 -0.25684,-0.52967 z m 9.14725,0 h 9.13329 a 25.399999,28.575 18 0 0 0.3173,0.52967 h -9.09402 a 11.112499,8.4666658 36 0 1 -0.35657,-0.52967 z m 16.79846,0 h 7.02231 a 22.224998,19.049997 72 0 1 -0.4377,0.52967 h -6.15467 a 19.049997,22.224998 18 0 1 -0.42994,-0.52967 z m 14.68747,0 h 9.14053 a 8.4666658,11.112499 54 0 1 -0.31781,0.48988 22.224998,19.049997 0 0 1 -0.007,0.0103 22.224998,19.049997 0 0 1 -5.2e-4,0.002 8.4666658,11.112498 54 0 1 -0.0196,0.0274 h -9.11985 a 28.575,25.399999 72 0 0 0.32452,-0.52967 z m 15.98197,0 h 2.41278 a 73.378038,73.378038 0 0 1 -0.26356,0.52967 h -2.36936 a 28.575,25.399998 0 0 0 0.22014,-0.52967 z m -56.27305,0.70588 h 2.24276 a 28.575,25.399998 0 0 0 0.20619,0.52917 h -2.19212 a 73.378038,73.378038 0 0 1 -0.25683,-0.52917 z m 9.29349,0 h 9.06715 a 25.399999,28.575 18 0 0 0.31678,0.52917 h -8.98189 a 11.112499,8.4666658 36 0 1 -0.40204,-0.52917 z m 16.91008,0 h 5.83685 a 22.224998,19.049997 72 0 1 -0.54467,0.52917 h -4.75733 a 19.049997,22.224998 18 0 1 -0.53485,-0.52917 z m 13.65395,0 h 9.09712 a 8.4666658,11.112499 54 0 1 -0.41858,0.52917 h -9.00669 a 28.575,25.399999 72 0 0 0.32815,-0.52917 z m 16.12201,0 h 2.34715 a 73.378038,73.378038 0 0 1 -0.28681,0.52917 h -2.28048 a 28.575,25.399998 0 0 0 0.22014,-0.52917 z m -55.63743,0.70541 h 2.17558 a 28.575,25.399998 0 0 0 0.24236,0.52917 h -2.16111 a 73.378038,73.378038 0 0 1 -0.25683,-0.52917 z m 9.50898,0 h 8.93176 a 25.399999,28.575 18 0 0 0.31626,0.52917 h -8.78138 a 11.112499,8.4666658 36 0 1 -0.46664,-0.52917 z m 17.06562,0 h 4.39767 a 22.224998,19.049997 72 0 1 -0.54519,0.52917 h -3.31711 a 19.049997,22.224998 18 0 1 -0.53537,-0.52917 z m 12.50312,0 h 8.97671 a 8.4666658,11.112498 54 0 1 -0.0832,0.0997 8.4666658,11.112499 54 0 1 -0.39894,0.42945 h -8.82272 a 28.575,25.399999 72 0 0 0.32815,-0.52917 z m 16.26619,0 h 2.25826 a 73.378038,73.378038 0 0 1 -0.28681,0.52917 h -2.19211 a 28.575,25.399998 0 0 0 0.22066,-0.52917 z m -55.00181,0.70538 h 2.16783 a 28.575,25.399998 0 0 0 0.27543,0.52967 h -2.18643 a 73.378038,73.378038 0 0 1 -0.25683,-0.52967 z m 9.80457,0 h 8.73952 a 25.399999,28.575 18 0 0 0.39687,0.52967 h -8.59017 a 11.112499,8.4666658 36 0 1 -0.54622,-0.52967 z m 17.18499,0 h 2.89905 a 22.224998,19.049997 72 0 1 -0.68471,0.52967 h -1.54306 a 19.049997,22.224998 18 0 1 -0.67128,-0.52967 z m 11.30836,0 h 8.76846 a 8.4666658,11.112499 54 0 1 -0.0326,0.0351 8.4666658,11.112498 54 0 1 -0.18293,0.18759 8.4666658,11.112499 54 0 1 -0.3328,0.30694 h -8.60361 a 28.575,25.399999 72 0 0 0.38344,-0.52967 z m 16.40985,0 h 2.16989 a 73.378038,73.378038 0 0 1 -0.28732,0.52967 h -2.16679 a 28.575,25.399998 0 0 0 0.28422,-0.52967 z m -54.36516,0.70588 h 2.19263 a 28.575,25.399998 0 0 0 0.27544,0.52917 h -2.21175 a 73.378038,73.378038 0 0 1 -0.25632,-0.52917 z m 10.19266,0 h 8.53747 a 25.399999,28.575 18 0 0 0.39635,0.52917 h -8.29716 a 11.112499,8.4666658 36 0 1 -0.524,-0.4258 11.112498,8.4666658 36 0 1 -0.11266,-0.10337 z m 17.34881,0 h 1.09244 a 22.224998,19.049997 72 0 1 -0.54312,0.42013 19.049997,22.224998 18 0 1 -0.54932,-0.42013 z m 9.89397,0 h 8.54884 a 8.4666658,11.112499 54 0 1 -0.0284,0.0264 8.4666658,11.112498 54 0 1 -0.29507,0.25889 8.4666658,11.112499 54 0 1 -0.30902,0.2439 h -8.32663 a 28.575,25.399999 72 0 0 0.41031,-0.52917 z m 16.55093,0 h 2.16576 a 73.378038,73.378038 0 0 1 -0.2868,0.52917 h -2.16421 a 28.575,25.399998 0 0 0 0.28525,-0.52917 z m -53.64478,0.70541 h 2.21795 a 28.575,25.399998 0 0 0 0.22841,0.43873 17.462498,14.816665 36 0 0 0.0677,0.0904 h -2.21433 a 73.378038,73.378038 0 0 1 -0.29972,-0.52916 z m 10.70942,0 h 8.20725 a 25.399999,28.575 18 0 0 0.39636,0.52916 h -7.85379 a 11.112499,8.4666658 36 0 1 -0.50591,-0.33745 11.112498,8.4666658 36 0 1 -0.24391,-0.19171 z m 25.8377,0 h 8.24032 a 8.4666658,11.112499 54 0 1 -0.24236,0.19118 8.4666658,11.112498 54 0 1 -0.42995,0.28784 8.4666658,11.112499 54 0 1 -0.0775,0.0501 h -7.9003 a 28.575,25.399999 72 0 0 0.4098,-0.52916 z m 16.71732,0 h 2.16369 a 73.378038,73.378038 0 0 1 -0.2868,0.52916 h -2.16162 a 28.575,25.399998 0 0 0 0.28473,-0.52916 z m -52.85672,0.70538 h 2.23862 a 17.462498,14.816665 36 0 0 0.3974,0.52967 h -2.30994 a 73.378038,73.378038 0 0 1 -0.32608,-0.52967 z m 11.31611,0 h 7.75095 a 25.399999,28.575 18 0 0 0.49195,0.52967 H 58.7694 a 11.112499,8.4666658 36 0 1 -0.52658,-0.2956 11.112498,8.4666658 36 0 1 -0.33745,-0.2005 11.112499,8.4666658 36 0 1 -0.0501,-0.0336 z m 24.27707,0 h 7.7649 a 8.4666658,11.112499 54 0 1 -0.28112,0.1819 8.4666658,11.112498 54 0 1 -0.13643,0.077 8.4666658,11.112499 54 0 1 -0.50694,0.27078 h -7.3179 a 28.575,25.399999 72 0 0 0.47749,-0.52967 z m 16.84496,0 h 2.19987 a 73.378038,73.378038 0 0 1 -0.28732,0.52967 h -2.31511 a 14.816665,17.462498 54 0 0 0.40256,-0.52967 z m -52.00406,0.70588 h 2.33423 a 17.462498,14.816665 36 0 0 0.42271,0.52916 h -2.43137 a 73.378038,73.378038 0 0 1 -0.32557,-0.52916 z m 12.13466,0 h 7.15357 a 25.399999,28.575 18 0 0 0.49144,0.52916 h -6.43526 a 11.112499,8.4666658 36 0 1 -0.26252,-0.0971 11.112498,8.4666658 36 0 1 -0.12867,-0.0517 11.112499,8.4666658 36 0 1 -0.79324,-0.36793 11.112498,8.4666658 36 0 1 -0.0253,-0.0124 z m 22.38055,0 h 7.15098 a 8.4666658,11.112499 54 0 1 -1.18184,0.52916 H 80.9882 a 28.575,25.399999 72 0 0 0.50023,-0.52916 z m 16.95245,0 h 2.35335 a 73.378038,73.378038 0 0 1 -0.28681,0.52916 h -2.47478 a 14.816665,17.462498 54 0 0 0.40824,-0.52916 z m -51.03357,0.7054 h 2.47995 a 17.462498,14.816665 36 0 0 0.4718,0.52917 h -2.62619 a 73.378038,73.378038 0 0 1 -0.32556,-0.52917 z m 13.38574,0 h 6.12366 a 25.399999,28.575 18 0 0 0.30644,0.3302 11.112499,8.4666658 36 0 1 -0.90227,0.19897 h -3.39669 a 11.112499,8.4666658 36 0 1 -1.77922,-0.40928 22.224998,19.049997 72 0 1 -0.0119,-0.003 22.224998,19.049997 72 0 1 -0.002,0 11.112498,8.4666658 36 0 1 -0.15657,-0.0501 11.112499,8.4666658 36 0 1 -0.18139,-0.0672 z m 20.02875,0 h 6.12108 a 8.4666658,11.112499 54 0 1 -2.13579,0.52917 H 81.4166 a 8.4666658,11.112499 54 0 1 -0.89969,-0.20722 l 0.002,-5.3e-4 a 28.575,25.399999 72 0 0 0.30334,-0.32142 z m 17.05064,0 h 2.53938 a 73.378038,73.378038 0 0 1 -0.2868,0.52917 h -2.73265 a 14.816665,17.462498 54 0 0 0.48007,-0.52917 z m -50.03105,0.70538 h 2.67529 a 17.462498,14.816665 36 0 0 0.52296,0.52967 h -2.87269 a 73.378038,73.378038 0 0 1 -0.32556,-0.52967 z m 49.3913,0 h 2.79673 a 73.378038,73.378038 0 0 1 -0.3204,0.52967 h -2.98638 a 14.816665,17.462498 54 0 0 0.51005,-0.52967 z m -48.95722,0.70588 h 2.95124 a 17.462498,14.816665 36 0 0 0.56121,0.52917 h -3.18689 a 73.378038,73.378038 0 0 1 -0.32556,-0.52917 z m 48.25752,0 h 3.05666 a 73.378038,73.378038 0 0 1 -0.35967,0.52917 H 95.963 a 14.816665,17.462498 54 0 0 0.56999,-0.52917 z m -47.82396,0.70541 h 3.26595 a 17.462498,14.816665 36 0 0 0.66405,0.52917 H 49.0346 a 73.378038,73.378038 0 0 1 -0.32557,-0.52917 z m 47.06431,0 h 3.33675 a 73.378038,73.378038 0 0 1 -0.35966,0.52917 h -3.62304 a 14.816665,17.462498 54 0 0 0.64595,-0.52917 z m -46.63022,0.70538 h 3.7176 a 17.462498,14.816665 36 0 0 0.49144,0.39015 17.462498,14.816665 36 0 0 0.20877,0.13952 h -4.09225 a 73.378038,73.378038 0 0 1 -0.32556,-0.52967 z m 45.76051,0 h 3.72742 a 73.378038,73.378038 0 0 1 -0.36018,0.52967 h -4.07211 a 14.816665,17.462498 54 0 0 0.21033,-0.13952 14.816665,17.462498 54 0 0 0.49454,-0.39015 z m -45.32643,0.70588 h 4.24729 a 17.462498,14.816665 36 0 0 0.79219,0.52917 h -4.71392 a 73.378038,73.378038 0 0 1 -0.32556,-0.52917 z m 44.35595,0 h 4.21834 a 73.378038,73.378038 0 0 1 -0.35966,0.52917 h -4.65708 a 14.816665,17.462498 54 0 0 0.7984,-0.52917 z m -43.92187,0.70541 h 4.91598 a 17.462498,14.816665 36 0 0 0.9493,0.52916 h -5.47667 a 73.378038,73.378038 0 0 1 -0.38861,-0.52916 z m 42.83976,0 h 4.8209 a 73.378038,73.378038 0 0 1 -0.35967,0.52916 h -5.42964 a 14.816665,17.462498 54 0 0 0.96841,-0.52916 z m -42.31679,0.70538 h 5.66425 a 17.462498,14.816665 36 0 0 1.17822,0.52966 h -6.43836 a 73.378038,73.378038 0 0 1 -0.40411,-0.52966 z m 23.14587,0 h 0.44493 a 25.399998,28.575 18 0 0 1.33532,0.52966 h -3.14399 a 28.575,25.399998 72 0 0 1.36374,-0.52966 z m 17.88004,0 h 5.63274 a 73.378038,73.378038 0 0 1 -0.36019,0.52966 h -6.44405 a 14.816665,17.462498 54 0 0 1.1715,-0.52966 z m -40.48744,0.70588 h 6.70243 a 17.462498,14.816665 36 0 0 1.51567,0.52916 h -7.81503 a 73.378038,73.378038 0 0 1 -0.40307,-0.52916 z m 20.78994,0 h 4.04213 a 25.399998,28.575 18 0 0 0.21756,0.0863 25.399998,28.575 18 0 0 1.62781,0.44286 h -7.82278 a 28.575,25.399998 72 0 0 1.71152,-0.44233 28.575,25.399998 72 0 0 0.22376,-0.0868 z m 18.12551,0 h 6.72465 a 73.378038,73.378038 0 0 1 -0.35915,0.52916 h -7.8729 a 14.816665,17.462498 54 0 0 1.5074,-0.52916 z m -38.37802,0.7054 h 8.57777 a 28.575,25.399998 72 0 0 9.05784,0 h 9.35137 a 25.399998,28.575 18 0 0 9.03666,0 h 8.59999 a 73.378038,73.378038 0 0 1 -0.35967,0.52917 H 52.01374 a 73.378038,73.378038 0 0 1 -0.40359,-0.52917 z m 0.53795,0.70538 h 43.60613 a 73.378038,73.378038 0 0 1 -0.44236,0.52967 H 52.55221 a 73.378038,73.378038 0 0 1 -0.40411,-0.52967 z m 0.53847,0.70588 H 95.1646 a 73.378038,73.378038 0 0 1 -0.44287,0.52917 H 53.09016 a 73.378038,73.378038 0 0 1 -0.40359,-0.52917 z m 0.53795,0.70541 h 41.34993 a 73.378038,73.378038 0 0 1 -0.44286,0.52917 H 53.6276 a 73.378038,73.378038 0 0 1 -0.40308,-0.52917 z m 0.53744,0.70538 h 40.22235 a 73.378038,73.378038 0 0 1 -0.44339,0.52967 H 54.16607 a 73.378038,73.378038 0 0 1 -0.40411,-0.52967 z m 0.53847,0.70588 h 39.0927 a 73.378038,73.378038 0 0 1 -0.44287,0.52917 h -38.2049 a 73.378038,73.378038 0 0 1 -0.44493,-0.52917 z m 0.60978,0.70541 h 37.89277 a 73.378038,73.378038 0 0 1 -0.44286,0.52916 H 55.40475 a 73.378038,73.378038 0 0 1 -0.49454,-0.52916 z m 0.65887,0.70538 h 36.64376 a 73.378038,73.378038 0 0 1 -0.44339,0.52966 H 56.06414 a 73.378038,73.378038 0 0 1 -0.49506,-0.52966 z m 0.65939,0.70588 h 35.39371 a 73.378038,73.378038 0 0 1 -0.44287,0.52916 H 56.72302 a 73.378038,73.378038 0 0 1 -0.49455,-0.52916 z m 0.65939,0.7054 h 34.14107 a 73.378038,73.378038 0 0 1 -0.54105,0.52917 H 57.38241 a 73.378038,73.378038 0 0 1 -0.49455,-0.52917 z m 0.65888,0.70538 h 32.76079 a 73.378038,73.378038 0 0 1 -0.54209,0.52967 H 58.0418 a 73.378038,73.378038 0 0 1 -0.49506,-0.52967 z m 0.65991,0.70588 h 31.37844 a 73.378038,73.378038 0 0 1 -0.54157,0.52917 H 58.70067 a 73.378038,73.378038 0 0 1 -0.49402,-0.52917 z m 0.65887,0.70541 h 29.99765 a 73.378038,73.378038 0 0 1 -0.54105,0.52917 H 59.36006 a 73.378038,73.378038 0 0 1 -0.49454,-0.52917 z m 0.65888,0.70538 h 28.61737 a 73.378038,73.378038 0 0 1 -0.54208,0.52967 H 60.12901 a 73.378038,73.378038 0 0 1 -0.60461,-0.52967 z m 0.80563,0.70588 h 27.0893 a 73.378038,73.378038 0 0 1 -0.54157,0.52917 H 60.93413 a 73.378038,73.378038 0 0 1 -0.6041,-0.52917 z m 0.80512,0.70541 h 25.56226 a 73.378038,73.378038 0 0 1 -0.54105,0.52916 H 61.73925 a 73.378038,73.378038 0 0 1 -0.6041,-0.52916 z m 0.80512,0.70538 h 24.03574 a 73.378038,73.378038 0 0 1 -0.62322,0.52966 H 62.54488 a 73.378038,73.378038 0 0 1 -0.60461,-0.52966 z m 0.80615,0.70588 h 22.38571 a 73.378038,73.378038 0 0 1 -0.66249,0.52916 H 63.35052 a 73.378038,73.378038 0 0 1 -0.6041,-0.52916 z m 0.80512,0.7054 h 20.69744 a 73.378038,73.378038 0 0 1 -0.66249,0.52917 H 64.15564 a 73.378038,73.378038 0 0 1 -0.6041,-0.52917 z m 0.80512,0.70538 h 19.00917 a 73.378038,73.378038 0 0 1 -0.66301,0.52967 H 64.96127 a 73.378038,73.378038 0 0 1 -0.60461,-0.52967 z m 0.83302,0.70588 h 17.29249 a 73.378038,73.378038 0 0 1 -0.6625,0.52917 h -15.8874 a 73.378038,73.378038 0 0 1 -0.74259,-0.52917 z m 0.98961,0.70541 h 15.41973 a 73.378038,73.378038 0 0 1 -0.6625,0.52917 H 66.92136 a 73.378038,73.378038 0 0 1 -0.74207,-0.52917 z m 0.99012,0.70588 h 13.54542 a 73.378038,73.378038 0 0 1 -0.66559,0.52917 H 67.91148 a 73.378038,73.378038 0 0 1 -0.74207,-0.52917 z m 0.9896,0.70538 h 11.6179 a 73.378038,73.378038 0 0 1 -0.81856,0.52917 H 68.90108 a 73.378038,73.378038 0 0 1 -0.74207,-0.52917 z m 0.98909,0.70541 h 9.53792 a 73.378038,73.378038 0 0 1 -0.81856,0.52916 h -7.97677 a 73.378038,73.378038 0 0 1 -0.74259,-0.52916 z m 0.9896,0.70538 h 7.45743 a 73.378038,73.378038 0 0 1 -0.81959,0.52966 H 70.88081 A 73.378038,73.378038 0 0 1 70.1377,314.2228 Z m 1.00924,0.70588 h 5.35626 a 73.378038,73.378038 0 0 1 -0.81855,0.52916 h -3.66748 a 73.378038,73.378038 0 0 1 -0.87023,-0.52916 z m 1.16014,0.7054 h 3.10524 a 73.378038,73.378038 0 0 1 -0.81856,0.52917 h -1.41645 a 73.378038,73.378038 0 0 1 -0.87023,-0.52917 z m 1.16013,0.70538 h 0.85422 a 73.378038,73.378038 0 0 1 -0.41393,0.26768 73.378038,73.378038 0 0 1 -0.44029,-0.26768 z"
       style="fill:#000000;fill-opacity:1;stroke-width:0.550249;stroke-miterlimit:4;stroke-dasharray:none"
       inkscape:connector-curvature="0" />
  </g>
</svg>
