<?xml version="1.0" encoding="UTF-8" standalone="no"?>
<!-- Created with Inkscape (http://www.inkscape.org/) -->

<svg
   width="74.083336mm"
   height="74.083336mm"
   viewBox="0 0 74.083336 74.083336"
   version="1.1"
   id="svg2611"
   inkscape:version="1.1 (c68e22c387, 2021-05-23)"
   sodipodi:docname="cfnk2.svg"
   xmlns:inkscape="http://www.inkscape.org/namespaces/inkscape"
   xmlns:sodipodi="http://sodipodi.sourceforge.net/DTD/sodipodi-0.dtd"
   xmlns="http://www.w3.org/2000/svg"
   xmlns:svg="http://www.w3.org/2000/svg">
  <sodipodi:namedview
     id="namedview2613"
     pagecolor="#ffffff"
     bordercolor="#666666"
     borderopacity="1.0"
     inkscape:pageshadow="2"
     inkscape:pageopacity="0.0"
     inkscape:pagecheckerboard="0"
     inkscape:document-units="mm"
     showgrid="false"
     fit-margin-top="0"
     fit-margin-left="0"
     fit-margin-right="0"
     fit-margin-bottom="0"
     inkscape:zoom="0.72337262"
     inkscape:cx="-202.52356"
     inkscape:cy="8.9856871"
     inkscape:window-width="1920"
     inkscape:window-height="1001"
     inkscape:window-x="-9"
     inkscape:window-y="-9"
     inkscape:window-maximized="1"
     inkscape:current-layer="layer1" />
  <defs
     id="defs2608" />
  <g
     inkscape:label="Layer 1"
     inkscape:groupmode="layer"
     id="layer1"
     transform="translate(-42.694786,-146.20587)">
    <g
       id="g2592"
       transform="translate(416.66663,-126.48766)">
      <circle
         cy="309.7352"
         cx="-336.93018"
         id="circle313"
         style="fill:#113bc5;fill-opacity:1;stroke:none;stroke-width:9.17021;stroke-miterlimit:4;stroke-dasharray:none;stroke-opacity:1"
         r="37.041668" />
      <g
         id="g2585">
        <path
           d="m -323.84539,305.4838 a 28.575,25.399999 72 0 0 -32.987,-19.32741 28.575,25.399999 72 0 0 -10.13788,6.73456 14.816666,17.462499 18 0 0 -3.17546,6.05184 14.816666,17.462499 18 0 0 -0.98324,6.64472 25.399999,28.575 54 0 0 4.23825,11.52548 25.399999,28.575 54 0 0 38.04769,3.75302 25.399999,28.575 54 0 0 6.52834,-6.39851 28.575,25.399999 72 0 0 -1.5307,-8.9837 z m -4.99805,15.38201 a 25.399999,28.575 54 0 0 8.18792,-37.34499 25.399999,28.575 54 0 0 -9.53772,-7.56061 17.462499,14.816666 0 0 0 -6.73692,-1.14991 17.462499,14.816666 0 0 0 -6.62333,1.11821 28.575,25.399999 36 0 0 -9.6517,7.59238 28.575,25.399999 36 0 0 8.18805,37.34525 28.575,25.399999 36 0 0 8.10271,4.23158 25.399999,28.575 54 0 0 8.07099,-4.23191 z m -16.17364,-1.2e-4 a 28.575,25.399999 36 0 0 38.0474,-3.75307 28.575,25.399999 36 0 0 4.24325,-11.40726 17.462499,14.816666 72 0 0 -0.98819,-6.76254 17.462499,14.816666 72 0 0 -3.1102,-5.95362 25.399999,28.575 18 0 0 -10.20333,-6.83314 25.399999,28.575 18 0 0 -32.98719,19.32763 25.399999,28.575 18 0 0 -1.5206,9.01376 28.575,25.399999 36 0 0 6.51886,6.36824 z m -4.99782,-15.38208 a 25.399999,28.575 18 0 0 15.32668,35.02547 25.399999,28.575 18 0 0 12.16019,0.51053 14.816666,17.462499 54 0 0 6.12618,-3.02956 14.816666,17.462499 54 0 0 4.70113,-4.79775 28.575,25.399999 0 0 0 3.3457,-11.8155 28.575,25.399999 0 0 0 -28.57527,-25.40012 28.575,25.399999 0 0 0 -9.04249,1.33924 25.399999,28.575 18 0 0 -4.04212,8.16769 z m 13.08483,-9.50654 a 28.575,25.399999 0 0 0 -28.575,25.4 28.575,25.399999 0 0 0 3.27216,11.72279 17.462499,14.816666 36 0 0 4.77438,4.89016 17.462499,14.816666 36 0 0 6.01566,2.98845 28.575,25.399999 72 0 0 12.27108,-0.46924 28.575,25.399999 72 0 0 15.32671,-35.02576 28.575,25.399999 72 0 0 -4.06797,-8.18607 28.575,25.399999 0 0 0 -9.01702,-1.32033 z"
           style="fill:#000000;fill-opacity:1;stroke:none;stroke-width:6.66958;stroke-miterlimit:4;stroke-dasharray:none;stroke-opacity:1"
           id="path2579" />
        <path
           d="m -342.40498,293.01828 a 22.224999,19.049998 72 0 0 -7.83349,-1.60004 22.224999,19.049998 36 0 0 -0.89301,7.95423 28.575,25.399999 0 0 1 5.16303,-2.05847 25.399999,28.575 18 0 1 3.56347,-4.29572 z m -14.80316,0.0973 a 8.466666,11.1125 18 0 0 -6.38417,6.46088 8.466666,11.112499 18 0 0 -0.0652,0.14234 8.466666,11.1125 18 0 0 -0.27056,0.70082 8.466666,11.112499 18 0 0 -0.17853,0.48562 8.466666,11.1125 18 0 0 -0.26689,0.94957 8.466666,11.112499 18 0 0 -0.0864,0.38289 8.466666,11.1125 18 0 0 -0.14744,0.73689 8.466666,11.112499 18 0 0 -0.0379,0.25955 8.466666,11.1125 18 0 0 -0.1048,0.86811 8.466666,11.112499 18 0 0 -0.009,0.13835 8.466666,11.1125 18 0 0 -0.0398,0.97957 8.466666,11.112499 18 0 0 7.3e-4,0.16439 19.049998,22.224999 54 0 0 6.2e-4,0.002 19.049998,22.224999 54 0 0 8.3e-4,0.0122 8.466666,11.1125 18 0 0 1.67823,5.84569 28.575,25.4 0 0 1 6.20875,-8.0209 28.575,25.4 36 0 1 -0.29881,-10.10718 z m 34.4849,6.24697 a 19.049998,22.224999 54 0 0 -0.89896,-7.94452 19.049998,22.224999 18 0 0 -7.84087,1.60869 28.575,25.399999 72 0 1 3.55317,4.27423 28.575,25.399999 0 0 1 5.18666,2.0616 z m -4.66696,-14.04857 a 11.1125,8.466666 0 0 0 -8.11747,-4.07519 11.112499,8.466666 0 0 0 -0.1555,-0.018 11.1125,8.466666 0 0 0 -0.75013,-0.0408 11.112499,8.466666 0 0 0 -0.51703,-0.0197 11.1125,8.466666 0 0 0 -0.98557,0.0396 11.112499,8.466666 0 0 0 -0.39085,0.0361 11.1125,8.466666 0 0 0 -0.74638,0.0875 11.112499,8.466666 0 0 0 -0.25857,0.0441 11.1125,8.466666 0 0 0 -0.85801,0.1686 11.112499,8.466666 0 0 0 -0.13448,0.0338 11.1125,8.466666 0 0 0 -0.94392,0.26487 11.112499,8.466666 0 0 0 -0.15612,0.0515 22.224999,19.049998 36 0 0 -0.002,10e-4 22.224999,19.049998 36 0 0 -0.0114,0.005 11.1125,8.466666 0 0 0 -5.04097,3.40251 28.575,25.4 72 0 1 9.54693,3.42627 25.4,28.575 18 0 1 9.52017,-3.40747 z m 4.71519,34.7275 a 22.224999,19.049998 36 0 0 7.2779,-3.30996 22.224999,19.049998 0 0 0 -3.95292,-6.95999 25.399999,28.575 54 0 1 -2.96704,4.70008 28.575,25.399999 72 0 1 -0.35794,5.56987 z m 11.91882,-8.77978 a 11.1125,8.466666 72 0 0 1.3673,-8.97949 11.112499,8.466666 72 0 0 -0.031,-0.15344 11.1125,8.466666 72 0 0 -0.19304,-0.72601 11.112499,8.466666 72 0 0 -0.14101,-0.49782 11.1125,8.466666 72 0 0 -0.34222,-0.92509 11.112499,8.466666 72 0 0 -0.15516,-0.36056 11.1125,8.466666 72 0 0 -0.31385,-0.68281 11.112499,8.466666 72 0 0 -0.12186,-0.23228 11.1125,8.466666 72 0 0 -0.42548,-0.76392 11.112499,8.466666 72 0 0 -0.0737,-0.11745 11.1125,8.466666 72 0 0 -0.54359,-0.81587 11.112499,8.466666 72 0 0 -0.0972,-0.13257 19.049998,22.224999 18 0 0 -0.002,-0.001 19.049998,22.224999 18 0 0 -0.008,-0.009 11.1125,8.466666 72 0 0 -4.79373,-3.74282 25.4,28.575 54 0 1 -0.30841,10.13845 28.575,25.4 0 0 1 6.18259,8.00125 z m -31.57073,15.2158 a 19.049998,22.224999 18 0 0 5.39694,5.89886 22.224999,19.049998 72 0 0 5.39784,-5.9102 28.575,25.399999 36 0 1 -5.38691,-1.36942 25.399999,28.575 54 0 1 -5.40787,1.38076 z m 12.03318,8.62237 a 8.466666,11.1125 54 0 0 8.96252,-1.47443 8.466666,11.112499 54 0 0 0.13636,-0.0769 8.466666,11.1125 54 0 0 0.63083,-0.40794 8.466666,11.112499 54 0 0 0.42988,-0.28794 8.466666,11.1125 54 0 0 0.77406,-0.61134 8.466666,11.112499 54 0 0 0.29496,-0.25898 8.466666,11.1125 54 0 0 0.55241,-0.50949 8.466666,11.112499 54 0 0 0.18325,-0.18768 8.466666,11.1125 54 0 0 0.59505,-0.64072 8.466666,11.112499 54 0 0 0.0889,-0.10639 8.466666,11.1125 54 0 0 0.60796,-0.76911 8.466666,11.112499 54 0 0 0.096,-0.13342 22.224999,19.049998 0 0 0 6.2e-4,-0.002 22.224999,19.049998 0 0 0 0.007,-0.0104 8.466666,11.1125 54 0 0 2.07829,-5.7157 28.575,25.4 36 0 1 -9.73755,2.83963 28.575,25.4 72 0 1 -5.69911,8.35252 z m -24.22698,-25.32362 a 22.224999,19.049998 0 0 0 -3.9424,6.95565 19.049998,22.224999 54 0 0 7.28896,3.30729 25.399999,28.575 18 0 1 -0.36225,-5.54643 28.575,25.399999 36 0 1 -2.98431,-4.71651 z m -4.4819,14.1087 a 11.1125,8.466666 36 0 0 4.17184,8.06823 11.112499,8.466666 36 0 0 0.11524,0.10594 11.1125,8.466666 36 0 0 0.58291,0.47389 11.112499,8.466666 36 0 0 0.40669,0.31986 11.1125,8.466666 36 0 0 0.82062,0.54726 11.112499,8.466666 36 0 0 0.33745,0.2005 11.1125,8.466666 36 0 0 0.65526,0.36793 11.112499,8.466666 36 0 0 0.23512,0.11629 11.1125,8.466666 36 0 0 0.79324,0.36793 11.112499,8.466666 36 0 0 0.12867,0.0517 11.1125,8.466666 36 0 0 0.91933,0.34054 11.112499,8.466666 36 0 0 0.15657,0.0501 22.224999,19.049998 72 0 0 0.002,0 22.224999,19.049998 72 0 0 0.0119,0.003 11.1125,8.466666 36 0 0 6.07818,0.21032 25.4,28.575 18 0 1 -5.70972,-8.38346 25.4,28.575 54 0 1 -9.70484,-2.83911 z m 22.07255,-21.55786 a 22.225,19.049999 0 0 0 -5.01468,0.51522 19.049999,22.225 18 0 0 -2.0314,4.60333 19.049999,22.225 18 0 0 -1.05936,4.92838 22.225,19.049999 36 0 0 3.75067,3.35484 22.225,19.049999 36 0 0 4.35994,2.53059 19.049999,22.225 54 0 0 4.34909,-2.53059 19.049999,22.225 54 0 0 3.75429,-3.36465 22.225,19.049999 72 0 0 -1.06298,-4.91857 22.225,19.049999 72 0 0 -2.03967,-4.61005 22.225,19.049999 0 0 0 -5.0059,-0.5085 z"
           style="fill:#113bc5;fill-opacity:1;stroke:none;stroke-width:5.09398;stroke-miterlimit:4;stroke-dasharray:none;stroke-opacity:1"
           id="path2581" />
        <path
           d="m -324.97762,305.85165 a 27.384375,24.209374 71.999999 0 0 -7.62539,-12.28267 19.049999,22.225 17.999999 0 0 -0.66121,0.38816 c 0.46189,0.47337 0.9046,0.96404 1.32233,1.47429 -0.48033,-0.47458 -0.97502,-0.93435 -1.48107,-1.38087 a 19.049999,22.225 17.999999 0 0 -0.72177,0.42413 c 0.99484,0.98077 1.89825,2.04929 2.69689,3.1897 -0.93623,-1.06649 -1.93936,-2.06982 -3.00096,-3.00176 a 19.049999,22.225 17.999999 0 0 -0.7398,0.53596 c 0.56039,0.5493 1.09,1.12895 1.5831,1.73837 -0.56904,-0.55846 -1.15751,-1.09458 -1.76268,-1.60886 a 19.049999,22.225 17.999999 0 0 -0.63726,0.46189 23.415623,20.240624 71.999999 0 1 7.25332,11.28807 23.415623,20.240624 71.999999 0 1 0.95435,4.11448 19.049999,22.225 53.999999 0 0 0.6089,-0.81508 c -0.1957,-1.19866 -0.4485,-2.38898 -0.7587,-3.56081 l -0.007,-0.0211 0.007,0.0211 c 0.41141,1.05223 0.7409,2.14149 0.98752,3.25335 a 19.049999,22.225 53.999999 0 0 0.67338,-0.95939 c -0.17749,-0.88422 -0.38739,-1.76165 -0.63177,-2.62835 -0.18133,-0.64387 -0.38177,-1.2837 -0.6004,-1.91803 0.28684,0.60683 0.54912,1.22687 0.7852,1.85799 0.27555,0.73608 0.51387,1.4877 0.71745,2.25004 a 19.049999,22.225 53.999999 0 0 0.59563,-0.96621 c -0.1202,-0.53056 -0.25043,-1.05852 -0.39261,-1.58291 l -0.007,-0.0226 0.007,0.0226 c 0.17933,0.46219 0.34337,0.93109 0.49399,1.40492 a 19.049999,22.225 53.999999 0 0 0.52682,-1.00906 27.384375,24.209374 71.999999 0 0 -0.18865,-0.66624 z m -13.05877,-16.41598 a 27.384375,24.209374 71.999999 0 0 -18.42795,-2.147 27.384375,24.209374 71.999999 0 0 -9.60838,6.38754 13.62604,16.271874 17.999999 0 0 -2.94053,5.63431 13.62604,16.271874 17.999999 0 0 -0.93115,6.19634 24.209374,27.384375 53.999999 0 0 4.0174,10.90609 24.209374,27.384375 53.999999 0 0 0.80945,0.9878 25.399999,28.575 89.999999 0 1 0.17712,-0.74759 c -0.75215,-1.00384 -1.38852,-2.07492 -1.90151,-3.1933 0.58826,0.99538 1.24952,1.9488 1.98202,2.85417 a 25.399999,28.575 89.999999 0 1 0.22487,-0.94842 c -0.89465,-1.30381 -1.59462,-2.71851 -2.09587,-4.19457 0.61282,1.31281 1.35088,2.56048 2.20943,3.72459 a 25.399999,28.575 89.999999 0 1 0.38405,-1.07892 c -0.26454,-0.45141 -0.50739,-0.91397 -0.72239,-1.38883 0.24834,0.41276 0.51092,0.81563 0.78633,1.2094 a 25.399999,28.575 89.999999 0 1 0.38541,-1.08315 20.240624,23.415623 53.999999 0 1 -2.28897,-6.98991 9.6572913,12.303124 17.999999 0 1 0.73827,-5.02738 9.6572913,12.303124 17.999999 0 1 2.20558,-4.31584 23.415623,20.240624 71.999999 0 1 7.79538,-5.15785 23.415623,20.240624 71.999999 0 1 13.77363,1.06529 25.399999,28.575 17.999999 0 1 0.62955,-0.52404 c -0.67304,-0.35385 -1.36096,-0.68258 -2.06294,-0.97935 0.76469,0.22348 1.51619,0.50037 2.24778,0.82585 a 25.399999,28.575 17.999999 0 1 0.73989,-0.61589 c -1.42974,-0.77057 -2.93779,-1.41329 -4.49148,-1.90835 1.65682,0.33385 3.27823,0.88919 4.81021,1.64343 a 25.399999,28.575 17.999999 0 1 0.6499,-0.49156 c -1.02984,-0.58789 -2.09744,-1.1155 -3.19519,-1.57264 1.18483,0.35345 2.33974,0.82134 3.44591,1.39447 a 25.399999,28.575 17.999999 0 1 0.65428,-0.46472 z m -0.65553,34.98848 a 28.575,25.399999 35.999999 0 1 -0.92211,-0.4399 c -1.6099,0.42052 -3.25706,0.67122 -4.90868,0.73423 1.50902,-0.21778 3.00209,-0.53619 4.46886,-0.94397 a 28.575,25.399999 35.999999 0 1 -1.01216,-0.48292 c -1.8253,0.38226 -3.68498,0.54846 -5.53255,0.47133 1.68864,-0.11457 3.36368,-0.37398 5.0092,-0.7593 a 28.575,25.399999 35.999999 0 1 -1.15592,-0.68453 c -0.65702,0.0875 -1.31643,0.14508 -1.97553,0.16753 0.58048,-0.087 1.15881,-0.19196 1.7346,-0.31039 a 28.575,25.399999 35.999999 0 1 -1.07275,-0.65939 20.240624,23.415623 53.999999 0 1 -14.72471,-3.51923 19.049999,22.225 89.999999 0 0 -0.10854,0.69273 c 0.72612,0.47621 1.49832,0.91424 2.32552,1.30588 -0.83716,-0.28171 -1.62448,-0.63769 -2.36503,-1.05126 a 19.049999,22.225 89.999999 0 0 -0.15159,1.02351 c 1.23664,0.77999 2.60132,1.45371 4.10886,2.00335 -1.49504,-0.36594 -2.87461,-0.90889 -4.12942,-1.59675 a 19.049999,22.225 89.999999 0 0 -0.0507,0.9896 c 0.51091,0.31918 1.04035,0.62457 1.59165,0.91351 -0.54618,-0.21794 -1.07479,-0.46034 -1.58458,-0.72454 a 19.049999,22.225 89.999999 0 0 0.0382,0.92541 24.209374,27.384375 53.999999 0 0 20.41732,1.9451 z m 9.14877,-4.52147 a 24.209374,27.384375 54 0 0 9.32514,-11.04773 22.225,19.049999 0 0 0 -0.57349,-0.5089 c -0.30747,0.58556 -0.63732,1.15823 -0.99351,1.71319 0.30292,-0.60348 0.58732,-1.21603 0.85561,-1.83529 a 22.225,19.049999 0 0 0 -0.62642,-0.55538 c -0.62534,1.24921 -1.36239,2.43861 -2.20019,3.55056 0.72498,-1.21997 1.36921,-2.48405 1.92749,-3.78168 a 22.225,19.049999 0 0 0 -0.73833,-0.53796 c -0.34925,0.7027 -0.73687,1.38551 -1.16409,2.04279 0.35528,-0.71376 0.68332,-1.43909 0.98541,-2.17357 a 22.225,19.049999 0 0 0 -0.6362,-0.46334 20.240624,23.415623 54 0 1 -8.4942,10.38653 20.240624,23.415623 54 0 1 -3.61819,2.17908 22.225,19.049999 36 0 0 0.96336,0.32723 c 1.07951,-0.55653 2.13345,-1.16479 3.15207,-1.82193 l 0.018,-0.0131 -0.018,0.0131 c -0.8736,0.71644 -1.80772,1.3664 -2.78896,1.94454 a 22.225,19.049999 36 0 0 1.12052,0.34396 c 0.7861,-0.44205 1.55572,-0.91282 2.30448,-1.41306 0.55632,-0.37143 1.1029,-0.75977 1.63863,-1.16372 -0.4885,0.46032 -0.99714,0.90136 -1.52442,1.32092 -0.6149,0.48953 -1.25609,0.94845 -1.91821,1.37763 a 22.225,19.049999 36 0 0 1.10298,0.26791 c 0.46745,-0.27827 0.92933,-0.56528 1.38412,-0.86254 l 0.0193,-0.014 -0.0193,0.014 c -0.38415,0.31338 -0.77942,0.61429 -1.18351,0.90396 a 22.225,19.049999 36 0 0 1.12247,0.18922 24.209374,27.384375 54 0 0 0.57534,-0.38531 z m 11.57714,-17.49245 a 24.209374,27.384375 54 0 0 -3.65263,-18.18948 24.209374,27.384375 54 0 0 -9.04407,-7.16425 16.271874,13.62604 0 0 0 -6.26721,-1.05552 16.271874,13.62604 0 0 0 -6.18082,1.0292 27.384375,24.209374 36 0 0 -9.13086,7.19095 27.384375,24.209374 36 0 0 -0.68932,1.07508 28.575,25.399999 72 0 1 0.76573,-0.0626 c 0.72229,-1.02554 1.5443,-1.96175 2.44941,-2.79523 -0.76488,0.86706 -1.46729,1.79058 -2.10199,2.767 a 28.575,25.399999 72 0 1 0.97149,-0.0792 c 0.96353,-1.25377 2.09268,-2.35664 3.34161,-3.28948 -1.05919,0.9885 -2.01772,2.07599 -2.85955,3.25225 a 28.575,25.399999 72 0 1 1.1448,0.0318 c 0.34757,-0.39109 0.71244,-0.76499 1.09762,-1.11621 -0.31581,0.36374 -0.61782,0.73795 -0.90721,1.12157 a 28.575,25.399999 72 0 1 1.14923,0.0318 23.415623,20.240624 36 0 1 5.94047,-4.33693 12.303124,9.6572913 0 0 1 5.00946,-0.85142 12.303124,9.6572913 0 0 1 4.78617,0.76397 20.240624,23.415623 54 0 1 7.31431,5.81998 20.240624,23.415623 54 0 1 3.24313,13.42869 28.575,25.399999 0 0 1 0.69293,0.43681 c 0.12855,-0.74945 0.22862,-1.50528 0.29394,-2.26461 0.0238,0.79632 -0.007,1.5966 -0.0908,2.39296 a 28.575,25.399999 0 0 1 0.81439,0.51336 c 0.29104,-1.59788 0.43629,-3.23074 0.427,-4.86136 0.19448,1.67889 0.16736,3.39255 -0.0765,5.08263 a 28.575,25.399999 0 0 1 0.66833,0.46619 c 0.24088,-1.16111 0.41276,-2.33949 0.5083,-3.52478 0.03,1.23606 -0.0581,2.47903 -0.26138,3.70817 a 28.575,25.399999 0 0 1 0.64416,0.47865 z m -33.47859,10.18859 a 25.399999,28.575 18 0 1 0.13342,-1.01292 c -0.89742,-1.40116 -1.64486,-2.89023 -2.21516,-4.44154 0.67344,1.36787 1.43764,2.68947 2.27872,3.95844 a 25.399999,28.575 18 0 1 0.14651,-1.11185 c -0.9276,-1.61784 -1.66033,-3.33514 -2.15791,-5.11613 0.63078,1.57059 1.39511,3.08349 2.27007,4.5294 a 25.399999,28.575 18 0 1 0.29382,-1.31087 c -0.28625,-0.59782 -0.54478,-1.20716 -0.7698,-1.82707 0.26213,0.52518 0.54066,1.04277 0.83122,1.55378 a 25.399999,28.575 18 0 1 0.29562,-1.224 23.415623,20.240624 36 0 1 -1.2032,-15.09154 22.225,19.049999 72 0 0 -0.69237,0.11084 c -0.22851,0.83774 -0.40648,1.7075 -0.52334,2.61524 0.009,-0.88324 0.10449,-1.74203 0.26897,-2.57413 a 22.225,19.049999 72 0 0 -1.02026,0.17211 c -0.35966,1.41714 -0.57871,2.92322 -0.63558,4.52682 -0.11397,-1.53495 -0.0239,-3.01478 0.24253,-4.42074 a 22.225,19.049999 72 0 0 -0.95682,0.25763 c -0.14567,0.58453 -0.27252,1.18242 -0.37696,1.79603 0.0385,-0.58679 0.10569,-1.16443 0.19943,-1.73092 a 22.225,19.049999 72 0 0 -0.86831,0.32233 27.384375,24.209374 36 0 0 4.4594,20.01909 z m 7.12729,7.30378 a 27.384375,24.209374 36 0 0 13.38864,5.4548 22.225,19.049999 72 0 0 0.30678,-0.70268 c -0.65191,-0.11147 -1.29849,-0.24821 -1.93635,-0.41548 0.66755,0.10161 1.338,0.1828 2.00986,0.2466 a 22.225,19.049999 72 0 0 0.33463,-0.76738 c -1.38132,-0.20871 -2.74026,-0.54215 -4.05669,-0.99533 1.38429,0.31251 2.78559,0.53459 4.19222,0.66456 a 22.225,19.049999 72 0 0 0.28348,-0.86845 c -0.77624,-0.115 -1.54541,-0.27265 -2.30254,-0.47584 0.78862,0.11732 1.57982,0.20516 2.3717,0.26551 a 22.225,19.049999 72 0 0 0.24406,-0.74825 23.415623,20.240624 36 0 1 -12.50302,-4.86885 23.415623,20.240624 36 0 1 -3.19051,-2.76773 19.049999,22.225 18 0 0 -0.0135,1.01733 c 0.86288,0.8547 1.76705,1.66909 2.70679,2.43479 l 0.018,0.0131 -0.018,-0.0131 c -0.95132,-0.60945 -1.85814,-1.297 -2.7112,-2.05156 a 19.049999,22.225 18 0 0 0.0191,1.17196 c 0.66334,0.61103 1.34888,1.19751 2.05603,1.75503 0.52515,0.41432 1.06339,0.81414 1.61312,1.19883 -0.58874,-0.32235 -1.16538,-0.66981 -1.72734,-1.04163 -0.65558,-0.43353 -1.29018,-0.90153 -1.90297,-1.39861 a 19.049999,22.225 18 0 0 0.0861,1.13178 c 0.40909,0.35858 0.82479,0.70917 1.24804,1.04984 l 0.0193,0.014 -0.0193,-0.014 c -0.41675,-0.26851 -0.82508,-0.55145 -1.22544,-0.84625 a 19.049999,22.225 18 0 0 0.1669,1.126 27.384375,24.209374 36 0 0 0.54424,0.42812 z m 20.21384,5.60505 a 27.384375,24.209374 36 0 0 16.1705,-9.09471 27.384375,24.209374 36 0 0 4.01884,-10.8153 16.271874,13.62604 72 0 0 -0.93282,-6.28665 16.271874,13.62604 72 0 0 -2.8888,-5.56026 24.209374,27.384375 18 0 0 -9.66059,-6.46184 24.209374,27.384375 18 0 0 -1.23548,-0.32337 25.399999,28.575 54 0 1 0.29614,0.70892 c 1.19854,0.37003 2.34294,0.8625 3.41533,1.46575 -1.06099,-0.4595 -2.15636,-0.84215 -3.28113,-1.14406 a 25.399999,28.575 54 0 1 0.37554,0.89947 c 1.49015,0.52894 2.88798,1.26202 4.1611,2.16155 -1.26743,-0.70189 -2.59789,-1.27745 -3.97673,-1.71459 a 25.399999,28.575 54 0 1 0.32348,1.09861 c 0.47935,0.2097 0.9477,0.44117 1.40075,0.69897 -0.44352,-0.18795 -0.89274,-0.35954 -1.34702,-0.51622 a 25.399999,28.575 54 0 1 0.32487,1.10282 20.240624,23.415623 18 0 1 5.96037,4.30953 12.303124,9.6572913 72 0 1 2.35775,4.50118 12.303124,9.6572913 72 0 1 0.75244,4.788 23.415623,20.240624 36 0 1 -3.27489,8.7548 23.415623,20.240624 36 0 1 -11.76926,7.23409 28.575,25.399999 72 0 1 -0.2013,0.794 c 0.75249,-0.10934 1.50225,-0.24773 2.2446,-0.42026 -0.75,0.26868 -1.52073,0.48639 -2.30391,0.65309 a 28.575,25.399999 72 0 1 -0.23657,0.93316 c 1.60961,-0.21697 3.20743,-0.58341 4.75538,-1.09614 -1.53663,0.70377 -3.17479,1.20752 -4.85753,1.49781 a 28.575,25.399999 72 0 1 -0.23684,0.77968 c 1.17871,-0.12971 2.35254,-0.33038 3.50933,-0.60579 -1.1663,0.41048 -2.37565,0.71078 -3.60745,0.8973 a 28.575,25.399999 72 0 1 -0.25616,0.76054 z m -20.03537,-28.69158 a 28.575,25.399999 1.5994459e-7 0 1 1.00456,-0.18612 c 1.05527,-1.28648 2.24049,-2.45749 3.53964,-3.47926 -1.09281,1.06318 -2.11358,2.19838 -3.06053,3.39042 a 28.575,25.399999 1.5994459e-7 0 1 1.1027,-0.20424 c 1.25202,-1.38214 2.65884,-2.60968 4.1989,-3.63326 -1.2988,1.08525 -2.50146,2.27968 -3.60623,3.55862 a 28.575,25.399999 1.5994459e-7 0 1 1.33751,-0.12564 c 0.48011,-0.45698 0.97974,-0.89115 1.49977,-1.29672 -0.41848,0.41159 -0.82467,0.83643 -1.22088,1.27068 a 28.575,25.399999 1.5994459e-7 0 1 1.25545,-0.0971 20.240624,23.415623 18 0 1 13.9811,-5.80785 19.049999,22.225 54 0 0 -0.31937,-0.62423 c -0.86735,0.0415 -1.74954,0.14106 -2.64897,0.31043 0.84287,-0.26416 1.68906,-0.43894 2.53127,-0.53964 a 19.049999,22.225 54 0 0 -0.47897,-0.91714 c -1.45892,0.0959 -2.95897,0.35294 -4.50167,0.79439 1.42461,-0.58272 2.85984,-0.95435 4.27932,-1.13542 a 19.049999,22.225 54 0 0 -0.54069,-0.83039 c -0.60093,0.0421 -1.20876,0.10622 -1.82461,0.1965 0.56997,-0.14471 1.1401,-0.25932 1.70783,-0.34522 a 19.049999,22.225 54 0 0 -0.57488,-0.7262 24.209374,27.384375 18 0 0 -17.66125,10.42738 z m -4.74387,9.03545 a 24.209374,27.384375 18.000001 0 0 -1.05051,14.41899 19.049999,22.225 54.000001 0 0 0.76309,0.0746 c -0.0954,-0.65445 -0.16519,-1.31164 -0.20322,-1.96997 0.10964,0.66627 0.23961,1.329 0.38655,1.9877 a 19.049999,22.225 54.000001 0 0 0.83323,0.0811 c -0.22836,-1.3782 -0.33118,-2.77368 -0.30697,-4.16571 0.13055,1.41311 0.35237,2.81444 0.66343,4.1924 a 19.049999,22.225 54.000001 0 0 0.91354,10e-4 c -0.13049,-0.77378 -0.21825,-1.55402 -0.25896,-2.33688 0.13211,0.78627 0.29306,1.56589 0.48038,2.33766 a 19.049999,22.225 54.000001 0 0 0.78704,9e-4 20.240624,23.415623 18.000001 0 1 0.7669,-13.39564 20.240624,23.415623 18.000001 0 1 1.64635,-3.88963 22.225,19.049999 9.5439036e-7 0 0 -0.97171,0.30151 c -0.54623,1.08477 -1.04136,2.19635 -1.47918,3.32671 l -0.007,0.0211 0.007,-0.0211 c 0.28564,-1.0931 0.65932,-2.16799 1.11334,-3.21247 a 22.225,19.049999 9.5439036e-7 0 0 -1.10869,0.38036 c -0.37614,0.81968 -0.72206,1.65291 -1.03379,2.49773 -0.23175,0.62748 -0.44568,1.26293 -0.64166,1.90462 0.12463,-0.65953 0.2769,-1.31532 0.45686,-1.96467 0.20973,-0.75747 0.45872,-1.50563 0.74211,-2.24203 a 22.225,19.049999 9.5439036e-7 0 0 -1.04979,0.43157 c -0.21462,0.49989 -0.41958,1.00357 -0.61279,1.51138 l -0.007,0.0226 0.007,-0.0226 c 0.12659,-0.47933 0.26949,-0.9551 0.42615,-1.42696 a 22.225,19.049999 9.5439036e-7 0 0 -1.01932,0.50668 24.209374,27.384375 18.000001 0 0 -0.23898,0.6499 z m 0.9157,20.95656 a 24.209374,27.384375 18.000001 0 0 13.64654,12.56864 24.209374,27.384375 18.000001 0 0 11.52785,0.48004 13.62604,16.271874 54.000001 0 0 5.6907,-2.82985 13.62604,16.271874 54.000001 0 0 4.39544,-4.46563 27.384375,24.209374 9.5439035e-7 0 0 3.16029,-11.18458 27.384375,24.209374 9.5439035e-7 0 0 -0.0742,-1.27494 28.575,25.399999 36.000001 0 1 -0.58272,0.50071 c 0.0185,1.25422 -0.0963,2.4948 -0.33862,3.70112 0.10916,-1.15106 0.13459,-2.31107 0.0741,-3.47408 a 28.575,25.399999 36.000001 0 1 -0.73939,0.63512 c -0.0426,1.58066 -0.30782,3.13661 -0.76992,4.62539 0.27588,-1.42229 0.41214,-2.8655 0.4018,-4.31193 a 28.575,25.399999 36.000001 0 1 -0.94488,0.64713 c -0.0513,0.5207 -0.12672,1.03766 -0.2319,1.54819 0.0417,-0.47989 0.0661,-0.96015 0.0747,-1.44061 a 28.575,25.399999 36.000001 0 1 -0.94845,0.64975 23.415623,20.240624 9.5439034e-7 0 1 -2.25676,7.00038 9.6572913,12.303124 54.000001 0 1 -3.55229,3.63329 9.6572913,12.303124 54.000001 0 1 -4.32114,2.19518 20.240624,23.415623 18.000001 0 1 -9.3383,-0.40922 20.240624,23.415623 18.000001 0 1 -10.51693,-8.95778 25.399999,28.575 54.000001 0 1 -0.81734,0.0539 c 0.33651,0.68187 0.69982,1.35217 1.0933,2.00487 -0.48729,-0.63026 -0.93251,-1.29599 -1.33307,-1.98933 a 25.399999,28.575 54.000001 0 1 -0.9606,0.0634 c 0.70376,1.46379 1.54602,2.87017 2.51199,4.18391 -1.14417,-1.24395 -2.12949,-2.64626 -2.92556,-4.15693 a 25.399999,28.575 54.000001 0 1 -0.81471,0.0157 c 0.4876,1.08094 1.04118,2.1353 1.66058,3.15037 -0.75079,-0.98237 -1.41011,-2.03973 -1.96814,-3.1536 a 25.399999,28.575 54.000001 0 1 -0.80248,-0.009 z m 21.09604,-27.92096 a 28.575,25.399999 72.000001 0 1 0.48744,0.89789 c 1.54961,0.60607 3.02956,1.37142 4.40278,2.29124 -1.34884,-0.71078 -2.74391,-1.3308 -4.17024,-1.86303 a 28.575,25.399999 72.000001 0 1 0.535,0.98561 c 1.70139,0.76364 3.30359,1.72227 4.75297,2.87065 -1.43348,-0.89987 -2.9411,-1.67457 -4.49883,-2.33005 a 28.575,25.399999 72.000001 0 1 0.5328,1.23323 c 0.58298,0.31539 1.15029,0.6564 1.69671,1.02565 -0.52077,-0.27081 -1.05033,-0.52583 -1.58576,-0.76846 a 28.575,25.399999 72.000001 0 1 0.48029,1.164 23.415623,20.240624 9.5439034e-7 0 1 9.84399,11.50209 22.225,19.049999 36.000001 0 0 0.49498,-0.49664 c -0.30754,-0.81206 -0.67479,-1.62032 -1.11381,-2.42338 0.5117,0.71998 0.93941,1.47075 1.29544,2.24061 a 22.225,19.049999 36.000001 0 0 0.72424,-0.73893 c -0.542,-1.3579 -1.25004,-2.70509 -2.1466,-4.03587 0.99442,1.17482 1.79138,2.42496 2.40223,3.71901 a 22.225,19.049999 36.000001 0 0 0.62266,-0.77082 c -0.22572,-0.55853 -0.47454,-1.11679 -0.75071,-1.67459 0.31375,0.49735 0.59893,1.00416 0.85607,1.51756 a 22.225,19.049999 36.000001 0 0 0.51301,-0.77115 27.384375,24.209374 9.5439035e-7 0 0 -15.37466,-13.57462 z m -10.05913,-1.71958 a 27.384375,24.209374 0 0 0 -14.0379,3.45663 22.225,19.049999 36 0 0 0.16484,0.74879 c 0.59293,-0.293 1.19639,-0.56242 1.81076,-0.80203 -0.59979,0.31017 -1.18991,0.63857 -1.77097,0.98187 a 22.225,19.049999 36 0 0 0.18034,0.81751 c 1.24019,-0.64307 2.53559,-1.17208 3.86697,-1.57922 -1.3036,0.56084 -2.56781,1.20484 -3.78219,1.92649 a 22.225,19.049999 36 0 0 0.28112,0.86921 c 0.69559,-0.36322 1.41052,-0.68779 2.14249,-0.96843 -0.70697,0.36862 -1.3987,0.76261 -2.07481,1.17925 a 22.225,19.049999 36 0 0 0.24235,0.74879 23.415623,20.240624 0 0 1 12.977,-3.41011 23.415623,20.240624 0 0 1 4.20801,0.36381 22.225,19.049999 72 0 0 -0.58703,-0.83098 c -1.20047,-0.18428 -2.41065,-0.31168 -3.62098,-0.37878 h -0.0222 0.0222 c 1.12786,-0.0661 2.26562,-0.0429 3.39928,0.0661 a 22.225,19.049999 72 0 0 -0.70434,-0.93689 c -0.8958,-0.10443 -1.79515,-0.17595 -2.69494,-0.21135 -0.66839,-0.0265 -1.33885,-0.0336 -2.0097,-0.0217 0.66577,-0.0853 1.33652,-0.14311 2.0097,-0.17261 0.7852,-0.0346 1.57369,-0.029 2.36161,0.013 a 22.225,19.049999 72 0 0 -0.73485,-0.86505 c -0.54173,-0.0496 -1.0841,-0.0889 -1.62676,-0.11576 h -0.0238 0.0238 c 0.49498,-0.0277 0.99163,-0.0388 1.48881,-0.0357 a 22.225,19.049999 72 0 0 -0.79687,-0.81286 27.384375,24.209374 0 0 0 -0.69194,-0.0265 z m -19.64791,7.34682 a 27.384375,24.209374 0 0 0 -7.73647,16.86256 27.384375,24.209374 0 0 0 3.10576,11.11197 16.271874,13.62604 36 0 0 4.44987,4.53771 16.271874,13.62604 36 0 0 5.60533,2.80035 27.384375,24.209374 72 0 0 11.61375,-0.45061 27.384375,24.209374 72 0 0 1.1896,-0.46458 25.399999,28.575 18 0 1 -0.65628,-0.39947 c -1.18713,0.40513 -2.40244,0.67937 -3.6246,0.82166 1.12844,-0.25188 2.23954,-0.58616 3.32695,-1.00303 a 25.399999,28.575 18 0 1 -0.83252,-0.50695 c -1.51645,0.44797 -3.07821,0.67652 -4.63692,0.6971 1.43793,-0.17714 2.8526,-0.49353 4.22505,-0.95033 a 25.399999,28.575 18 0 1 -0.90744,-0.69866 c -0.51107,0.11211 -1.02603,0.20013 -1.54409,0.25787 0.4693,-0.10864 0.93359,-0.23387 1.39319,-0.37413 a 25.399999,28.575 18 0 1 -0.91104,-0.70125 23.415623,20.240624 72 0 1 -7.35512,0.0169 12.303124,9.6572913 36 0 1 -4.55319,-2.25568 12.303124,9.6572913 36 0 1 -3.42305,-3.4313 23.415623,20.240624 0 0 1 -2.4965,-9.00772 23.415623,20.240624 0 0 1 5.26944,-12.7703 28.575,25.399999 36 0 1 -0.30384,-0.76067 c -0.54452,0.53075 -1.06974,1.08341 -1.5689,1.65933 0.44884,-0.6582 0.9444,-1.28736 1.48002,-1.88256 a 28.575,25.399999 36 0 1 -0.35711,-0.894 c -1.17467,1.12164 -2.25194,2.35728 -3.20288,3.68194 0.82949,-1.47257 1.8587,-2.843 3.04943,-4.06694 a 28.575,25.399999 36 0 1 -0.26668,-0.76999 c -0.87736,0.79777 -1.70905,1.65008 -2.48303,2.55283 0.70228,-1.01761 1.50415,-1.97141 2.39106,-2.84633 a 28.575,25.399999 36 0 1 -0.23979,-0.76586 z m 33.07345,11.43548 a 25.399999,28.575 54 0 1 -0.70332,0.74104 c -0.0976,1.66106 -0.36811,3.30507 -0.81857,4.89532 0.25919,-1.50246 0.41775,-3.02085 0.48319,-4.54183 a 25.399999,28.575 54 0 1 -0.77206,0.81338 c -0.2005,1.85409 -0.61711,3.67411 -1.2614,5.40742 0.41286,-1.64139 0.68376,-3.31462 0.82579,-4.99867 a 25.399999,28.575 54 0 1 -1.00822,0.88781 c -0.1198,0.65191 -0.26882,1.29683 -0.45114,1.93061 0.0966,-0.57896 0.17552,-1.16141 0.24082,-1.74561 a 25.399999,28.575 54 0 1 -0.95861,0.81648 23.415623,20.240624 72 0 1 -7.89718,12.91653 19.049999,22.225 18 0 0 0.62529,0.31729 c 0.67728,-0.54343 1.3325,-1.14247 1.96059,-1.80816 -0.52662,0.70913 -1.10847,1.34792 -1.73064,1.92442 a 19.049999,22.225 18 0 0 0.92657,0.46045 c 1.12395,-0.93509 2.18641,-2.02477 3.175,-3.28869 -0.81002,1.30879 -1.7527,2.45306 -2.79466,3.4339 a 19.049999,22.225 18 0 0 0.92551,0.35398 c 0.46144,-0.38727 0.91549,-0.79642 1.36065,-1.23145 -0.37605,0.4521 -0.76994,0.87993 -1.17874,1.28313 a 19.049999,22.225 18 0 0 0.89193,0.2496 27.384375,24.209374 72 0 0 8.1592,-18.81695 z"
           style="fill:#ffffff;fill-opacity:1;stroke:none;stroke-width:6.37429;stroke-miterlimit:4;stroke-dasharray:none;stroke-opacity:1"
           id="path2583" />
      </g>
    </g>
  </g>
</svg>
