<?xml version="1.0" encoding="UTF-8" standalone="no"?>
<!-- Created with Inkscape (http://www.inkscape.org/) -->

<svg
   width="500"
   height="500"
   viewBox="0 0 132.29167 132.29167"
   version="1.1"
   id="svg2611"
   inkscape:version="1.1 (c68e22c387, 2021-05-23)"
   sodipodi:docname="cfkn3.svg"
   xmlns:inkscape="http://www.inkscape.org/namespaces/inkscape"
   xmlns:sodipodi="http://sodipodi.sourceforge.net/DTD/sodipodi-0.dtd"
   xmlns="http://www.w3.org/2000/svg"
   xmlns:svg="http://www.w3.org/2000/svg">
  <sodipodi:namedview
     id="namedview2613"
     pagecolor="#ffffff"
     bordercolor="#666666"
     borderopacity="1.0"
     inkscape:pageshadow="2"
     inkscape:pageopacity="0.0"
     inkscape:pagecheckerboard="0"
     inkscape:document-units="mm"
     showgrid="false"
     fit-margin-top="0"
     fit-margin-left="0"
     fit-margin-right="0"
     fit-margin-bottom="0"
     inkscape:zoom="0.72337262"
     inkscape:cx="-430.62177"
     inkscape:cy="8.9856871"
     inkscape:window-width="1920"
     inkscape:window-height="1001"
     inkscape:window-x="-9"
     inkscape:window-y="-9"
     inkscape:window-maximized="1"
     inkscape:current-layer="layer1"
     units="px" />
  <defs
     id="defs2608" />
  <g
     inkscape:label="Layer 1"
     inkscape:groupmode="layer"
     id="layer1"
     transform="translate(-42.694798,-146.20586)">
    <g
       id="g11694"
       transform="matrix(0,-0.33072917,0.33072917,0,-152.38519,29.740503)">
      <circle
         style="fill:#113bc5;fill-opacity:1;stroke-width:6.65986"
         id="circle2508"
         cx="-552.14722"
         cy="789.84814"
         r="200" />
      <path
         style="color:#000000;fill:#000000;-inkscape-stroke:none"
         d="m -530.07496,598.43994 c -16.09487,0.89463 -32.6993,5.56469 -47.38086,13.58593 -9.25446,5.05616 -18.06462,11.70821 -26.07227,19.34961 -0.68947,-0.0975 -1.38874,-0.2797 -2.07617,-0.36523 -17.01914,-2.11743 -34.55439,-0.4558 -50.15039,4.41601 -15.74014,4.91685 -30.45092,13.58357 -42.11914,24.60352 -11.70434,11.05405 -21.00365,25.17287 -26.54688,40.3418 -5.51805,15.10006 -7.7195,32.11134 -6.07422,48.63476 1.36598,13.71836 5.46471,27.78043 11.76953,40.8418 -6.30482,13.06137 -10.40355,27.12344 -11.76953,40.8418 -1.64528,16.52342 0.55617,33.5347 6.07422,48.63476 5.54323,15.16893 14.84254,29.28775 26.54688,40.3418 11.66822,11.01995 26.379,19.68667 42.11914,24.60351 15.596,4.87182 33.13125,6.53345 50.15039,4.41602 0.68743,-0.0855 1.3867,-0.26773 2.07617,-0.36523 8.00765,7.6414 16.81781,14.29345 26.07227,19.34961 14.68156,8.02124 31.28599,12.6913 47.38086,13.58593 16.19032,0.89995 32.85095,-2.07358 47.60156,-8.43359 14.72758,-6.35008 28.42999,-16.42451 39.06054,-28.89453 10.54317,-12.36751 18.83413,-27.75902 23.41993,-44.13281 1.09995,-3.92743 1.99946,-7.97909 2.72656,-12.10352 6.6915,-3.5957 13.05879,-7.63036 18.77148,-12.16797 13.20458,-10.48843 24.06417,-24.02967 31.25586,-38.52148 7.24334,-14.59587 11.0918,-31.1114 11.0918,-47.1543 0,-16.0429 -3.84846,-32.55843 -11.0918,-47.1543 -7.19169,-14.49181 -18.05128,-28.03305 -31.25586,-38.52148 -5.71269,-4.53761 -12.07998,-8.57227 -18.77148,-12.16797 -0.7271,-4.12443 -1.62661,-8.17609 -2.72656,-12.10352 -4.5858,-16.37379 -12.87676,-31.7653 -23.41993,-44.13281 -10.63055,-12.47002 -24.33296,-22.54445 -39.06054,-28.89453 -14.75061,-6.36001 -31.41124,-9.33354 -47.60156,-8.43359 z m 1.77734,31.95117 c 10.80208,-0.60044 23.37252,1.64959 33.1543,5.86719 9.80479,4.22752 20.20698,11.85661 27.3789,20.26953 5.2242,6.12817 9.99191,14.05795 13.48438,22.30859 -14.21468,-2.77549 -29.38636,-3.59982 -44.22852,-1.92578 -5.93743,0.66968 -11.94822,1.84641 -17.95508,3.24805 -11.33184,-13.07787 -24.9596,-24.34718 -39.25781,-32.49414 -3.32208,-1.89289 -6.76652,-3.56493 -10.23828,-5.16407 1.28395,-0.79834 2.57195,-1.69666 3.8457,-2.39257 10.14495,-5.54267 22.91887,-9.11106 33.81641,-9.7168 z m -99.14063,32.10547 c -5.36903,9.61366 -9.87383,19.94523 -12.91015,30.70312 -2.58384,9.1547 -4.29545,18.88195 -5.16406,28.77735 -12.57035,5.35352 -24.42913,12.29129 -34.67579,20.30078 -5.88075,4.5968 -11.27229,9.79185 -16.31054,15.24804 -0.98007,-3.9893 -1.78133,-7.94379 -2.1543,-11.68945 -1.12705,-11.31888 0.57671,-24.32897 4.28711,-34.48242 3.68524,-10.08459 10.69762,-20.72671 18.46289,-28.06055 7.80138,-7.36794 18.99355,-13.98112 29.68945,-17.32226 5.68206,-1.77494 12.15871,-2.94303 18.77539,-3.47461 z m 35.20313,4.17187 c 7.17635,2.23489 14.30814,5.17284 20.67187,8.79883 7.42694,4.23179 14.96446,9.94956 21.86133,16.32422 -0.87056,0.41787 -1.78755,0.75008 -2.64844,1.18359 -8.96539,4.51461 -17.7166,10.07018 -25.98632,16.32422 -11.22134,-0.21481 -22.54913,0.75453 -33.56446,2.76758 0.65593,-3.50988 1.43374,-6.93077 2.34961,-10.17578 3.53342,-12.51913 9.9952,-25.26801 17.31641,-35.22266 z m 107.94531,41.39063 c 10.78819,-0.13825 21.84166,1.22482 31.30078,3.78515 1.86082,0.50368 3.72446,1.21098 5.58985,1.85157 0.0859,4.77443 -0.0332,9.54414 -0.61914,14.11914 -1.40349,10.95911 -5.00272,23.07866 -10.03711,34.02343 -3.31759,-3.49769 -6.78378,-6.84928 -10.38086,-10.01171 -4.7445,-4.1712 -9.90708,-8.03138 -15.22657,-11.72461 -0.73989,-2.46264 -1.3943,-4.97385 -2.23828,-7.3711 -2.87033,-8.15297 -6.53477,-16.11006 -10.68359,-23.75586 0.5462,-0.07 1.12282,-0.20653 1.66406,-0.26758 3.46808,-0.39116 7.0348,-0.60235 10.63086,-0.64843 z m -44.43164,9.39062 c 0.0585,0.0947 0.11749,0.18831 0.17578,0.28321 -0.15313,-0.0495 -0.2998,-0.11104 -0.45312,-0.16016 0.0948,-0.0384 0.18238,-0.0849 0.27734,-0.12305 z m 112.49805,13.73242 c 8.32207,7.17086 15.80997,16.64962 20.32031,25.73829 1.21417,2.44664 2.30698,5.06171 3.26172,7.77539 1.90948,5.42734 3.26953,11.24715 3.96484,16.89062 0.34766,2.82174 0.5293,5.59896 0.5293,8.26172 0,10.65106 -2.89918,23.14117 -7.75586,32.92773 -4.51034,9.08867 -11.99824,18.56743 -20.32031,25.73829 -0.0284,-0.23212 -0.023,-0.46729 -0.0527,-0.69922 -2.23244,-17.43204 -7.98952,-35.59298 -16.83593,-51.83203 -1.12813,-2.07087 -2.46856,-4.08911 -3.70899,-6.13477 1.24043,-2.04566 2.58086,-4.0639 3.70899,-6.13477 8.84641,-16.23905 14.60349,-34.39999 16.83593,-51.83203 0.0297,-0.23193 0.0243,-0.4671 0.0527,-0.69922 z m -151.5586,10.80079 c 12.92063,1.37266 26.43252,4.55153 38.18164,9.26562 6.07463,2.43732 12.17846,5.57388 18.10547,9.03711 2.08857,9.80407 3.34766,19.97836 3.34766,29.5625 0,9.58414 -1.25909,19.75843 -3.34766,29.5625 -5.92701,3.46323 -12.03084,6.59979 -18.10547,9.03711 -11.74912,4.71409 -25.26101,7.89296 -38.18164,9.26562 -2.71688,-2.40649 -5.34449,-4.87315 -7.76757,-7.40625 -10.5627,-11.04224 -20.21624,-25.32859 -26.51172,-39.20898 -0.18162,-0.40044 -0.3199,-0.84532 -0.49805,-1.25 0.17815,-0.40468 0.31643,-0.84956 0.49805,-1.25 6.29548,-13.88039 15.94902,-28.16674 26.51172,-39.20898 2.42308,-2.5331 5.05069,-4.99976 7.76757,-7.40625 z m -45.49023,3.01953 c -0.17144,0.23555 -0.34725,0.46668 -0.51758,0.70312 -0.0146,-0.184 -0.006,-0.37802 -0.0195,-0.5625 0.18206,-0.0438 0.35447,-0.0975 0.53711,-0.14062 z m -31.31836,12.17382 c 1.49315,10.95723 4.01342,22.00615 7.68555,32.67188 -3.67213,10.66573 -6.1924,21.71465 -7.68555,32.67187 -5.7151,-3.15658 -11.1622,-6.61644 -15.89062,-10.3125 -7.95456,-6.21782 -15.40356,-14.17625 -21.27735,-22.35937 5.87379,-8.18312 13.32279,-16.14155 21.27735,-22.35938 4.72842,-3.69605 10.17552,-7.15591 15.89062,-10.3125 z m 168.44141,32.61915 c 0.0149,0.0177 0.03,0.035 0.0449,0.0527 -0.0149,0.0177 -0.03,0.035 -0.0449,0.0527 0,-0.0175 0.002,-0.0353 0.002,-0.0527 0,-0.0175 -0.002,-0.0353 -0.002,-0.0527 z m 18.09375,28.0625 c 5.03439,10.94477 8.63362,23.06432 10.03711,34.02343 0.5859,4.575 0.70507,9.34471 0.61914,14.11914 -1.86539,0.64059 -3.72903,1.34789 -5.58985,1.85157 -12.61217,3.41378 -28.05934,4.70136 -41.93164,3.13671 -0.54124,-0.061 -1.11786,-0.19758 -1.66406,-0.26757 4.14882,-7.6458 7.81326,-15.60289 10.68359,-23.75586 0.84398,-2.39725 1.49839,-4.90846 2.23828,-7.3711 5.31949,-3.69323 10.48207,-7.55341 15.22657,-11.72461 3.59708,-3.16243 7.06327,-6.51402 10.38086,-10.01171 z m -238.44336,4.3125 c 5.03825,5.45619 10.42979,10.65124 16.31054,15.24804 10.24666,8.00949 22.10544,14.94726 34.67579,20.30078 0.86861,9.8954 2.58022,19.62265 5.16406,28.77735 3.03632,10.75789 7.54112,21.08946 12.91015,30.70312 -6.61668,-0.53158 -13.09333,-1.69967 -18.77539,-3.47461 -10.6959,-3.34114 -21.88807,-9.95432 -29.68945,-17.32226 -7.76527,-7.33384 -14.77765,-17.97596 -18.46289,-28.06055 -3.7104,-10.15345 -5.41416,-23.16354 -4.28711,-34.48242 0.37297,-3.74566 1.17423,-7.70015 2.1543,-11.68945 z m 82.70898,11.82031 c 0.17033,0.23644 0.34614,0.46757 0.51758,0.70312 -0.18264,-0.0431 -0.35505,-0.0968 -0.53711,-0.14062 0.0137,-0.18448 0.005,-0.3785 0.0195,-0.5625 z m 85.24414,27.97265 c -0.0583,0.0949 -0.1173,0.18851 -0.17578,0.28321 -0.095,-0.0382 -0.18253,-0.0847 -0.27734,-0.12305 0.15332,-0.0491 0.29999,-0.11063 0.45312,-0.16016 z m -83.35547,5.66602 c 11.01533,2.01305 22.34312,2.98239 33.56446,2.76758 8.26972,6.25404 17.02093,11.80961 25.98632,16.32422 0.86089,0.43351 1.77788,0.76572 2.64844,1.18359 -6.89687,6.37466 -14.43439,12.09243 -21.86133,16.32422 -6.36373,3.62599 -13.49552,6.56394 -20.67187,8.79883 -7.32121,-9.95465 -13.78299,-22.70353 -17.31641,-35.22266 -0.91587,-3.24501 -1.69368,-6.6659 -2.34961,-10.17578 z m 95.4375,31.9082 c 6.00686,1.40164 12.01765,2.57837 17.95508,3.24805 14.84216,1.67404 30.01384,0.84971 44.22852,-1.92578 -3.49247,8.25064 -8.26018,16.18042 -13.48438,22.30859 -7.17192,8.41292 -17.57411,16.04201 -27.3789,20.26953 -9.78178,4.2176 -22.35222,6.46763 -33.1543,5.86719 -10.89754,-0.60574 -23.67146,-4.17413 -33.81641,-9.7168 -1.27375,-0.69591 -2.56175,-1.59423 -3.8457,-2.39257 3.47176,-1.59914 6.9162,-3.27118 10.23828,-5.16407 14.29821,-8.14696 27.92597,-19.41627 39.25781,-32.49414 z"
         id="path2510" />
      <path
         id="path2757"
         style="color:#000000;fill:#ffffff;-inkscape-stroke:none"
         d="m -632.29406,794.76876 c -3.22141,9.96333 -5.45524,20.39024 -6.71338,30.73644 1.32128,0.63942 2.66673,1.25008 4.01765,1.84963 1.01919,-6.53404 2.44903,-12.9838 4.27463,-19.29943 -1.27573,6.64241 -2.11202,13.34886 -2.51163,20.0612 0.90186,0.38493 1.80763,0.76018 2.71879,1.12571 1.30369,-8.80273 3.37546,-17.45442 6.17316,-25.8251 -2.04727,8.82769 -3.29007,17.80324 -3.71818,26.7768 0.86551,0.32759 1.73085,0.65365 2.60143,0.96231 0.98653,-7.04059 2.4817,-13.98747 4.46362,-20.76593 -1.34199,7.10978 -2.14927,14.29317 -2.42005,21.46689 1.24074,0.4167 2.48301,0.8317 3.72745,1.20691 1.09538,-12.69345 3.96555,-25.98056 8.3976,-37.82874 5.57605,-14.90646 14.50919,-30.29648 24.78714,-42.60529 3.24383,-3.88479 6.8368,-7.66486 10.62489,-11.29903 -1.77044,-0.0845 -3.52613,-0.13594 -5.26729,-0.1589 -3.00975,2.76611 -5.91775,5.65453 -8.69864,8.6699 -2.98109,3.23387 -5.82721,6.60611 -8.52653,10.10587 2.34479,-3.74658 4.85734,-7.39665 7.53137,-10.93647 2.02288,-2.67707 4.14785,-5.28519 6.35362,-7.83 -0.24461,0.004 -0.49644,-0.004 -0.73993,0.002 -0.95993,0.0234 -1.93449,0.0813 -2.90445,0.1283 -1.81969,1.79076 -3.6026,3.62426 -5.33422,5.50792 -4.41699,4.8052 -8.54213,9.9068 -12.344,15.26258 3.27859,-5.69118 6.92242,-11.19483 10.91309,-16.4586 1.0477,-1.38202 2.12563,-2.74336 3.22087,-4.09168 -1.47877,0.11337 -2.96042,0.24987 -4.44949,0.41487 -0.46541,0.49503 -0.9371,0.98365 -1.39635,1.48493 -3.16986,3.45879 -6.1928,7.0638 -9.05861,10.80168 2.51128,-3.98471 5.2025,-7.86693 8.0653,-11.63167 0.10428,-0.13715 0.21275,-0.27137 0.31746,-0.40821 -2.09732,0.26509 -4.19636,0.56137 -6.28869,0.92419 l -10e-4,-0.009 c -10.66899,13.49859 -19.59404,29.22857 -25.53826,45.11927 -0.80547,2.15323 -1.56412,4.33537 -2.27704,6.54029 z m -6.98535,65.45106 c 1.3205,12.03575 4.03802,23.87969 7.96019,34.64781 5.89412,16.18199 15.2511,31.44768 26.18371,43.48515 11.01578,12.12902 24.91435,22.00362 39.12819,28.23902 14.30821,6.27681 30.42575,9.298 45.5051,8.75192 15.12515,-0.54773 30.67416,-4.8227 43.91239,-12.05142 13.21098,-7.21384 25.4295,-18.01847 34.39642,-30.66063 8.42901,-11.88381 14.85546,-26.40235 18.12863,-41.41518 -1.42077,0.65961 -2.85945,1.28345 -4.30237,1.89611 -2.48266,8.53902 -5.98295,16.73594 -10.4029,24.35016 3.47806,-7.47136 6.06934,-15.30078 7.75392,-23.27633 -0.9885,0.39259 -1.97609,0.78682 -2.97575,1.15042 -2.9307,8.89486 -7.02336,17.35211 -12.14369,25.04957 4.09148,-7.62811 7.17237,-15.7407 9.21186,-24.05329 -1.13115,0.37892 -2.25604,0.76668 -3.40651,1.11726 -2.00235,5.34964 -4.44962,10.50723 -7.30982,15.3868 2.20788,-4.80584 4.01533,-9.77771 5.41592,-14.84187 -1.65764,0.47893 -3.31783,0.95367 -5.00796,1.37523 -2.92325,7.90689 -6.84017,15.43632 -11.27608,21.69038 -7.05608,9.94814 -17.37409,19.05695 -27.66745,24.67763 -10.26614,5.60581 -23.30677,9.19263 -35.0509,9.61793 -11.78991,0.42695 -25.43119,-2.11491 -36.74586,-7.07849 -11.40906,-5.00498 -23.39589,-13.50406 -32.35761,-23.37145 -9.04488,-9.95895 -17.27102,-23.35995 -22.19669,-36.88309 -2.42383,-6.65451 -4.34541,-13.98751 -5.66421,-21.52658 -0.64492,-0.1432 -1.305,-0.25743 -1.94562,-0.40832 -0.84865,-0.19993 -1.69238,-0.42851 -2.53849,-0.64409 0.61433,5.54373 1.57566,11.06507 2.89369,16.515 -1.92598,-5.52263 -3.49028,-11.19689 -4.67904,-16.96777 -1.03342,-0.27711 -2.06087,-0.57709 -3.08935,-0.87646 0.8177,8.41401 2.4092,16.78822 4.79293,24.97289 -3.28611,-8.27363 -5.76092,-16.91224 -7.39973,-25.74802 -0.95891,-0.29747 -1.89642,-0.6596 -2.84983,-0.97527 0.61078,7.52599 1.81673,15.03221 3.63214,22.42092 -2.59461,-7.51975 -4.56303,-15.28548 -5.88003,-23.18827 -1.33992,-0.46543 -2.69858,-0.87892 -4.02519,-1.37768 z M -481.0543,749.21838 c 0.4525,1.85932 0.84972,3.7332 1.24204,5.60748 7.46444,6.62516 14.25295,13.94536 20.25528,21.81111 -5.98769,-6.51273 -12.51626,-12.47765 -19.47702,-17.82267 0.23321,1.25828 0.46706,2.51588 0.67227,3.77739 6.96064,6.71729 13.24461,14.07587 18.73492,21.9332 -5.54023,-6.51713 -11.62874,-12.52318 -18.15249,-17.94884 0.21957,1.58299 0.44572,3.16519 0.61972,4.74811 3.5256,3.74446 6.84615,7.66287 9.93693,11.73898 -3.09708,-3.34635 -6.35402,-6.52915 -9.73937,-9.55338 0.15022,1.5564 0.31543,3.11468 0.42022,4.66686 0.0494,0.73159 0.0879,1.46566 0.12727,2.19973 5.95391,6.33662 11.33634,13.14469 15.71766,19.9753 8.17373,12.7431 14.31409,28.08667 17.20795,42.09256 1.42641,6.90364 2.13834,14.20844 2.18962,21.40595 1.32076,-0.54963 2.63003,-1.16574 3.93756,-1.78463 0.18524,-6.86106 -0.24646,-13.77547 -1.30842,-20.6165 -0.0844,-0.54165 -0.17345,-1.08335 -0.26495,-1.62426 0.14419,0.5293 0.2861,1.06014 0.42343,1.59155 1.65196,6.39447 2.75391,12.96658 3.289,19.6089 0.8777,-0.44257 1.74571,-0.906 2.61149,-1.37556 0.0353,-6.38601 -0.43966,-12.80016 -1.44063,-19.15413 -0.39928,-2.53405 -0.87419,-5.06045 -1.4225,-7.57396 0.78344,2.45042 1.49541,4.92706 2.136,7.42586 1.5035,5.86468 2.56601,11.86819 3.17254,17.93842 0.94836,-0.54893 1.88838,-1.10872 2.81481,-1.68532 -0.11108,-5.73391 -0.61657,-11.47731 -1.52749,-17.1739 -0.0932,-0.58417 -0.19045,-1.16872 -0.29125,-1.75192 0.1535,0.57159 0.30359,1.14527 0.44973,1.71921 1.35046,5.30117 2.35373,10.7087 2.99981,16.17572 1.32869,-0.86205 2.64444,-1.73701 3.91126,-2.64543 -0.43234,-4.87983 -1.10565,-9.7466 -2.09356,-14.52792 -3.42805,-16.59136 -10.34103,-33.84799 -19.95956,-48.84357 -9.57137,-14.92204 -22.57623,-29.16294 -37.13761,-40.29399 -0.018,-0.0132 -0.0367,-0.0266 -0.0546,-0.0403 z m -91.17986,118.37449 c 8.48022,6.14257 17.70651,11.48917 27.15755,15.88288 1.01642,-1.05901 2.01296,-2.14992 3.00062,-3.24945 -5.8993,-2.98843 -11.59154,-6.34138 -17.03391,-10.02926 5.92308,3.26591 12.04287,6.13367 18.30319,8.58795 0.64478,-0.73877 1.28157,-1.48425 1.91077,-2.23786 -7.96903,-3.96008 -15.55706,-8.60396 -22.65352,-13.85142 7.76299,4.67498 15.9152,8.63055 24.31727,11.81069 0.57901,-0.72191 1.15652,-1.44415 1.7191,-2.17673 -6.39115,-3.11391 -12.53598,-6.6826 -18.37024,-10.66218 6.3471,3.47335 12.92945,6.46091 19.66839,8.93523 0.77972,-1.05124 1.55828,-2.10447 2.29969,-3.17205 -11.7337,-4.96427 -23.48357,-11.79991 -33.38227,-19.67632 -12.4538,-9.90949 -24.33009,-23.16119 -32.8604,-36.73973 -2.69225,-4.28553 -5.17702,-8.87075 -7.46274,-13.59647 -0.62744,1.65768 -1.21892,3.31155 -1.7788,4.96039 1.70066,3.71722 3.54909,7.37546 5.55753,10.95205 2.15438,3.8345 4.48208,7.5834 6.97641,11.23209 -2.83863,-3.38778 -5.53363,-6.90529 -8.07388,-10.54231 -1.92093,-2.75113 -3.74475,-5.57805 -5.48339,-8.46225 -0.0717,0.2339 -0.15723,0.47089 -0.22684,0.7043 -0.2744,0.92017 -0.52046,1.86494 -0.77551,2.80194 1.1408,2.28401 2.33361,4.54624 3.58998,6.77519 3.20509,5.68569 6.78226,11.18542 10.70107,16.45623 -4.39949,-4.87679 -8.50777,-10.043 -12.28073,-15.46495 -0.99062,-1.42349 -1.95223,-2.86933 -2.89612,-4.32762 -0.34914,1.44143 -0.67717,2.89274 -0.9804,4.35991 0.32698,0.59561 0.64593,1.1952 0.98076,1.78688 2.30996,4.08354 4.80439,8.07254 7.47374,11.95315 -3.01365,-3.61971 -5.87423,-7.37888 -8.57006,-11.26493 -0.0982,-0.14157 -0.19235,-0.2862 -0.29013,-0.42807 -0.396,2.07658 -0.76285,4.16444 -1.06436,6.26649 l -0.009,-10e-4 c 9.54102,14.31811 21.74312,27.66717 35.01922,38.23095 1.79894,1.43144 3.63983,2.82728 5.51654,4.18666 z m 60.08907,26.86895 c 11.85473,2.46338 23.95875,3.53885 35.41186,3.13617 17.21136,-0.60513 34.62136,-4.78679 49.44804,-11.46454 14.93945,-6.72855 28.62564,-16.89546 38.94818,-28.48678 10.39108,-11.66828 18.245,-26.06337 22.38542,-40.57343 4.153,-14.55413 4.89218,-30.66315 2.1081,-45.48726 -2.77836,-14.79359 -9.27844,-29.7529 -18.53092,-42.18759 -8.69746,-11.68877 -20.51954,-22.28716 -33.78612,-30.03935 0.18828,1.55506 0.33702,3.11611 0.47381,4.67772 7.3539,4.99985 14.06799,10.86182 19.9437,17.41837 -6.03091,-5.61662 -12.67638,-10.5005 -19.74101,-14.56721 0.0679,1.06145 0.13766,2.12253 0.17455,3.18561 7.55389,5.53593 14.3325,12.04172 20.07096,19.29008 -5.99043,-6.24844 -12.75392,-11.68547 -20.02942,-16.19387 0.0108,1.19288 0.032,2.38253 0.01,3.58503 4.46906,3.55749 8.61796,7.47876 12.37486,11.70684 -3.88835,-3.58491 -8.05834,-6.84029 -12.44184,-9.73724 -0.0568,1.72451 -0.11828,3.45015 -0.23963,5.18783 6.61657,5.22353 12.56709,11.27547 17.14429,17.42688 7.28079,9.78488 12.75534,22.41266 14.9201,33.93912 2.15903,11.49596 1.54052,25.00673 -1.68412,36.30748 -3.23724,11.34481 -9.87008,23.53297 -18.08715,32.76003 -8.28561,9.30403 -20.07285,18.07782 -32.22662,23.55173 -12.26654,5.52471 -27.55367,9.2071 -41.93706,9.71281 -7.07782,0.24884 -14.64572,-0.18965 -22.22333,-1.2651 -0.33549,0.56911 -0.6481,1.16158 -0.98956,1.72422 -0.4524,0.74533 -0.93051,1.47714 -1.397,2.21521 5.46223,1.12885 11.01041,1.92076 16.60089,2.35136 -5.84749,0.12513 -11.72743,-0.14058 -17.58321,-0.7933 -0.58289,0.89721 -1.18569,1.78167 -1.78822,2.6673 8.25488,1.82239 16.71102,2.89657 25.23172,3.1587 -8.88415,0.56859 -17.86472,0.25279 -26.77446,-0.91901 -0.57924,0.82005 -1.21335,1.59977 -1.80819,2.40897 7.34638,1.74478 14.85788,2.9174 22.44596,3.47408 -7.95349,0.14389 -15.94741,-0.38377 -23.87038,-1.57333 -0.85671,1.13051 -1.66981,2.2949 -2.55411,3.40246 z m -56.67439,-184.78236 c 1.90814,0.14422 3.81306,0.3455 5.71684,0.55156 8.60754,-5.05182 17.66723,-9.24601 27.00282,-12.52391 -8.04427,3.68208 -15.73468,8.04786 -22.9691,13.01624 1.26876,0.16703 2.53708,0.33325 3.80025,0.52791 8.53948,-4.5442 17.47976,-8.24669 26.64913,-11.04023 -7.91019,3.25516 -15.50373,7.1897 -22.67979,11.71754 1.57336,0.28034 3.148,0.5542 4.70723,0.87786 4.65065,-2.19594 9.4034,-4.14312 14.2351,-5.82304 -4.13961,1.91141 -8.17309,4.02542 -12.09542,6.31053 1.52664,0.33809 3.0597,0.6625 4.56829,1.04249 0.71105,0.1791 1.42109,0.36933 2.1314,0.55872 7.86635,-3.70438 16.00447,-6.71958 23.85467,-8.77568 14.64522,-3.83585 31.1353,-4.93425 45.34995,-3.35842 7.00654,0.77675 14.17382,2.35697 21.0349,4.53235 -0.1146,-1.42596 -0.29597,-2.86154 -0.48052,-4.29632 -6.46801,-2.29636 -13.17741,-4.02246 -20.01178,-5.12647 -0.5412,-0.0871 -1.08393,-0.16981 -1.62664,-0.24994 0.54796,0.0264 1.09667,0.0555 1.64451,0.0891 6.59199,0.4049 13.18295,1.38777 19.66552,2.93146 -0.14968,-0.9715 -0.3222,-1.94024 -0.50124,-2.90874 -6.06256,-2.00692 -12.30953,-3.53734 -18.66184,-4.54884 -2.5334,-0.40333 -5.08291,-0.73235 -7.64283,-0.9876 2.57258,0.0121 5.14802,0.10032 7.72247,0.26326 6.04225,0.38236 12.08026,1.22705 18.04082,2.52601 -0.229,-1.07157 -0.47092,-2.13857 -0.73301,-3.19784 -5.4876,-1.66623 -11.1061,-2.96029 -16.80537,-3.85429 -0.58437,-0.0919 -1.17038,-0.18003 -1.75617,-0.26439 0.59104,0.0307 1.18302,0.0652 1.77403,0.10355 5.45903,0.3538 10.91193,1.07065 16.31102,2.14559 -0.40928,-1.53005 -0.83482,-3.05178 -1.30731,-4.53732 -4.77459,-1.09677 -9.61123,-1.96033 -14.46382,-2.49828 -16.83864,-1.86674 -35.3869,-0.62469 -52.62084,3.88918 -17.14942,4.49175 -34.71204,12.45943 -49.79801,22.86844 -0.0181,0.013 -0.0367,0.0266 -0.0553,0.0395 z m 84.40468,123.29693 c 8.46247,-6.16701 16.39847,-13.28954 23.49767,-20.92027 -0.69309,-1.29393 -1.42266,-2.57881 -2.16317,-3.8579 -4.66515,4.68709 -9.61299,9.06461 -14.80216,13.101 4.9364,-4.62397 9.55492,-9.55804 13.82363,-14.75355 -0.50337,-0.84152 -1.01558,-1.6775 -1.53788,-2.50879 -6.22882,6.35528 -12.99025,12.13688 -20.1738,17.26446 6.84506,-5.93839 13.1262,-12.46927 18.74708,-19.47739 -0.50766,-0.77376 -1.01608,-1.54619 -1.53897,-2.30762 -4.93647,5.1161 -10.22936,9.8574 -15.81705,14.17635 5.26472,-4.96313 10.14011,-10.30011 14.57578,-15.94461 -0.75885,-1.06641 -1.51994,-2.13234 -2.30616,-3.16736 -8.34721,9.62537 -18.4792,18.68783 -29.02898,25.66811 -13.27292,8.78207 -29.54601,15.98209 -45.09598,19.89889 -4.90773,1.23619 -10.03637,2.18244 -15.23712,2.89596 1.38266,1.10898 2.7728,2.18258 4.16793,3.22458 4.06081,-0.46874 8.1112,-1.09624 12.13339,-1.90115 4.31257,-0.86402 8.59728,-1.91931 12.83818,-3.16406 -4.09916,1.65281 -8.2773,3.12894 -12.52129,4.42096 -3.2101,0.97677 -6.46224,1.83776 -9.74255,2.60004 0.20031,0.14044 0.39926,0.29505 0.59973,0.43338 0.79034,0.54532 1.61284,1.07128 2.42516,1.6034 2.52474,-0.37917 5.04485,-0.81453 7.55295,-1.32063 6.39785,-1.29124 12.7338,-2.99383 18.95762,-5.09207 -5.99762,2.67716 -12.18051,4.98791 -18.50299,6.90074 -1.65995,0.50226 -3.33217,0.97001 -5.01077,1.41706 1.26299,0.77748 2.5419,1.53794 3.84357,2.27971 0.66749,-0.12693 1.3363,-0.24498 2.00249,-0.38058 4.59749,-0.93502 9.16207,-2.0747 13.67764,-3.41422 -4.37383,1.7476 -8.83298,3.30652 -13.36189,4.66955 -0.16498,0.0497 -0.33163,0.0945 -0.49677,0.14365 1.85258,1.01831 3.72489,2.0124 5.63088,2.94872 l -0.004,0.008 c 16.56567,-4.64951 33.03204,-12.12931 47.18133,-21.49124 1.91728,-1.26856 3.81367,-2.58801 5.68645,-3.95279 z m 44.12244,-48.84513 c 6.00613,-10.5133 10.7693,-21.69256 13.92554,-32.70955 4.74309,-16.55598 6.14609,-34.40607 4.37686,-50.57062 -1.78268,-16.2875 -7.22272,-32.44559 -15.05689,-45.84482 -7.88617,-13.4882 -19.14972,-25.40605 -31.67015,-33.82768 -12.55845,-8.44721 -27.65062,-14.12817 -42.60951,-16.06126 -14.9281,-1.92909 -31.16389,-0.36983 -45.84915,4.58727 -13.80434,4.65975 -27.53724,12.62813 -39.00961,22.84984 1.53713,0.30148 3.06774,0.64241 4.59519,0.99488 7.02763,-5.44894 14.67746,-10.02297 22.7288,-13.58501 -7.20538,4.0001 -13.90378,8.81112 -19.95455,14.2733 1.03048,0.26342 2.06118,0.52497 3.08364,0.81839 7.59926,-5.47347 15.88134,-9.90992 24.54822,-13.12765 -7.79377,3.76636 -15.05472,8.51869 -21.59072,14.04493 1.13784,0.35832 2.27582,0.70581 3.41263,1.09842 4.76438,-3.151 9.77581,-5.88511 14.95791,-8.15158 -4.61102,2.59025 -8.99567,5.55018 -13.10541,8.82392 1.62257,0.58688 3.24474,1.17864 4.85987,1.83103 7.01251,-4.67857 14.60705,-8.4677 21.87183,-10.91998 11.55585,-3.90075 25.25732,-5.20516 36.88858,-3.7021 11.60049,1.49909 24.25887,6.26238 34.01005,12.82133 9.78919,6.58453 19.33115,16.65908 25.56739,27.3253 6.28827,10.75519 10.99019,24.67677 12.44046,37.92722 1.46374,13.3734 0.24192,29.05025 -3.72183,42.88594 -1.95051,6.8083 -4.70615,13.8703 -8.07057,20.74471 0.43758,0.49492 0.90446,0.97532 1.33404,1.47394 0.56905,0.66057 1.11729,1.34142 1.67509,2.01316 2.76152,-4.84606 5.22915,-9.87797 7.36624,-15.06178 -1.68797,5.59996 -3.75768,11.11001 -6.18799,16.47749 0.67317,0.83161 1.32807,1.67822 1.98416,2.52494 4.2841,-7.28771 7.91879,-14.99804 10.80114,-23.0207 -2.2046,8.62503 -5.28008,17.06847 -9.14779,25.18003 0.60092,0.8043 1.14652,1.64832 1.7323,2.4641 3.92954,-6.44765 7.36595,-13.22916 10.24023,-20.27382 -2.32092,7.60868 -5.29301,15.04829 -8.87268,22.2159 0.81044,1.16412 1.66658,2.29725 2.44667,3.48051 z m -193.25181,-3.20034 c 0.7268,-1.77019 1.50688,-3.51967 2.29116,-5.2666 -2.14469,-9.74735 -3.334,-19.6597 -3.56662,-29.5513 1.01605,8.78838 2.79169,17.45149 5.28134,25.86714 0.55093,-1.15504 1.10094,-2.30992 1.67642,-3.45112 -1.68295,-9.52576 -2.44153,-19.17261 -2.26486,-28.75644 0.65146,8.52893 2.0469,16.96666 4.13561,25.19068 0.75281,-1.40973 1.49986,-2.82268 2.2895,-4.20557 -0.65133,-5.10162 -1.03452,-10.22346 -1.13914,-15.33781 0.53865,4.52767 1.30277,9.017 2.26398,13.4535 0.79329,-1.34745 1.57557,-2.70523 2.40314,-4.02256 0.39006,-0.62091 0.79039,-1.23741 1.19001,-1.85443 -1.09224,-8.62606 -1.44504,-17.29761 -0.97466,-25.39897 0.87751,-15.11378 4.92858,-31.1362 10.81985,-44.16817 2.90387,-6.42359 6.62156,-12.75176 10.81066,-18.60481 -1.39158,-0.33166 -2.81294,-0.60278 -4.23453,-0.87064 -4.18269,5.44183 -7.89763,11.28945 -11.05954,17.44817 -0.25012,0.48779 -0.49645,0.9784 -0.74036,1.46979 0.19446,-0.51297 0.39167,-1.02584 0.59292,-1.53649 2.42212,-6.14422 5.39361,-12.10888 8.86497,-17.79715 -0.97021,-0.15785 -1.94484,-0.29313 -2.92127,-0.42214 -3.78213,5.14567 -7.16806,10.61397 -10.09303,16.3428 -1.16645,2.28478 -2.26722,4.60782 -3.30103,6.96358 0.80651,-2.44293 1.68624,-4.86506 2.63675,-7.26316 2.23081,-5.62836 4.9,-11.10983 7.9773,-16.37726 -1.08989,-0.11333 -2.17942,-0.21298 -3.26784,-0.29105 -3.28044,4.70413 -6.24737,9.64776 -8.8588,14.79182 -0.26799,0.52736 -0.53288,1.05746 -0.79412,1.58852 0.21179,-0.55265 0.42756,-1.10498 0.64668,-1.65521 2.02341,-5.08252 4.39022,-10.04701 7.08096,-14.84968 -1.58164,-0.0836 -3.16039,-0.14909 -4.71923,-0.15878 -2.51852,4.20198 -4.83441,8.53504 -6.84557,12.9839 -6.9788,15.43764 -11.52927,33.4619 -12.5619,51.24722 -1.02756,17.69809 1.12301,36.86328 6.36074,54.42746 0.007,0.0213 0.014,0.0431 0.0205,0.0647 z m 143.34483,-42.17278 c -3.25013,-9.954 -7.5717,-19.70256 -12.63519,-28.81233 -1.44478,0.25933 -2.89221,0.55613 -4.33753,0.86514 3.01607,5.88521 5.65038,11.94362 7.88567,18.12613 -2.87223,-6.12368 -6.13761,-12.04087 -9.75973,-17.70615 -0.95587,0.21868 -1.90923,0.44749 -2.86122,0.68735 4.11941,7.88785 7.52864,16.10496 10.18542,24.52143 -3.5325,-8.3451 -7.80276,-16.33697 -12.73093,-23.84838 -0.89277,0.24371 -1.7845,0.48855 -2.67024,0.75056 3.34024,6.27583 6.21389,12.7748 8.59476,19.42364 -3.09332,-6.54074 -6.66251,-12.82673 -10.66006,-18.78955 -1.24871,0.39217 -2.49765,0.78662 -3.72497,1.21453 6.57484,10.91306 12.06279,23.34961 15.44137,35.54007 4.25068,15.33711 6.06965,33.03867 4.98955,49.03793 -0.34089,5.04953 -1.0258,10.21957 -1.95431,15.38626 1.48196,-0.97229 2.9326,-1.96263 4.35472,-2.96748 0.80906,-4.00692 1.46391,-8.05298 1.94131,-12.12703 0.51093,-4.3685 0.83134,-8.7696 0.95802,-13.18759 0.30521,4.40928 0.41798,8.83908 0.3353,13.27461 -0.063,3.35482 -0.24913,6.71386 -0.53783,10.06917 0.19547,-0.1471 0.40399,-0.28854 0.5975,-0.43646 0.76285,-0.58314 1.51723,-1.20285 2.27434,-1.81098 0.41957,-2.51835 0.78428,-5.04965 1.07799,-7.59138 0.749,-6.48373 1.08766,-13.03571 1.01538,-19.60331 0.69276,6.53137 0.9798,13.12571 0.84526,19.72984 -0.0353,1.73391 -0.10717,3.46884 -0.20071,5.20342 1.12971,-0.96092 2.24816,-1.94224 3.35586,-2.95098 0.0855,-0.67405 0.17995,-1.3466 0.25685,-2.02209 0.53144,-4.66141 0.85808,-9.35477 0.9795,-14.06326 0.31048,4.69979 0.41515,9.42243 0.31196,14.15089 -0.004,0.17225 -0.0126,0.34459 -0.0169,0.51684 1.54095,-1.44723 3.06496,-2.92071 4.54443,-4.44408 l 0.006,0.006 c 0.69712,-17.19166 -1.32821,-35.1635 -5.85955,-51.51327 -0.614,-2.21544 -1.28286,-4.42675 -2.00213,-6.62961 z m -32.81991,-57.0569 c -8.14274,-8.96096 -17.30295,-16.94559 -26.80539,-23.35179 -14.27998,-9.62702 -30.82288,-16.47733 -46.743,-19.78982 -16.04121,-3.33768 -33.08953,-3.15702 -48.25385,0.15312 -15.265,3.33211 -30.08017,10.36157 -41.95865,19.66678 -11.91455,9.33346 -21.9812,21.93146 -28.44222,35.56085 -6.44772,13.60134 -9.98191,29.52433 -9.80542,45.02268 0.16591,14.56865 3.50059,30.09177 9.67686,44.16132 0.76172,-1.36873 1.55895,-2.71907 2.36618,-4.06285 -3.0106,-8.36748 -4.99683,-17.05635 -5.89654,-25.81436 1.57774,8.08881 4.08337,15.94606 7.40843,23.38859 0.56896,-0.89864 1.13621,-1.79808 1.73123,-2.67981 -2.85728,-8.91873 -4.51729,-18.16639 -4.89932,-27.40342 1.17362,8.57618 3.44959,16.95031 6.68562,24.87412 0.6924,-0.97143 1.37453,-1.94632 2.09922,-2.90617 -1.5245,-5.50492 -2.57617,-11.11596 -3.13037,-16.7448 1.0386,5.18577 2.49873,10.27049 4.34226,15.19073 1.05956,-1.3618 2.12364,-2.72171 3.24319,-4.0562 -2.28259,-8.11504 -3.53943,-16.50879 -3.62675,-24.1758 -0.13887,-12.19567 2.85454,-25.62962 7.87829,-36.22713 5.01047,-10.56948 13.45229,-21.13638 22.7035,-28.38348 9.28728,-7.27534 21.81738,-13.23708 33.88866,-15.87205 12.17197,-2.65696 26.86516,-2.82675 39.91525,-0.11143 13.17118,2.74052 27.70318,8.74694 39.63684,16.79216 5.87233,3.95893 11.73716,8.76197 17.23544,14.08604 0.60593,-0.26323 1.20708,-0.5588 1.81404,-0.81328 0.8041,-0.33707 1.62104,-0.64808 2.43227,-0.971 -3.75552,-4.12388 -7.77861,-8.02568 -12.04831,-11.66005 4.80427,3.33583 9.40506,7.00694 13.75883,10.97695 0.99893,-0.38325 2.00648,-0.74448 3.0145,-1.10681 -5.60717,-6.32645 -11.81694,-12.16586 -18.55625,-17.38627 7.52163,4.76197 14.60144,10.2961 21.12081,16.48112 0.95062,-0.32297 1.92194,-0.58105 2.87881,-0.88607 -4.9178,-5.72965 -10.30548,-11.09347 -16.11715,-16.00399 6.51908,4.55853 12.67615,9.68413 18.38677,15.3035 1.35759,-0.41103 2.69981,-0.87511 4.06623,-1.25138 z m -62.76179,182.80443 c -1.45896,-1.23825 -2.88176,-2.52077 -4.30083,-3.80649 -9.93303,-0.97238 -19.72775,-2.90436 -29.2071,-5.73981 8.67222,1.74944 17.46003,2.73776 26.23314,2.97055 -0.92827,-0.8809 -1.85666,-1.76087 -2.76417,-2.66083 -9.5796,-1.34304 -18.98871,-3.60263 -28.04889,-6.73223 8.31281,2.01602 16.76879,3.29627 25.23574,3.85116 -1.1081,-1.1516 -2.22104,-2.2987 -3.29224,-3.47704 -5.0532,-0.95704 -10.04277,-2.17533 -14.93913,-3.65625 4.47252,0.88684 8.97824,1.54739 13.49464,2.00419 -1.03636,-1.17086 -2.08595,-2.33443 -3.08307,-3.52857 -0.46998,-0.56284 -0.9326,-1.13409 -1.39593,-1.70482 -8.54139,-1.62681 -16.89756,-3.97094 -24.45704,-6.92175 -14.1029,-5.50498 -28.08928,-14.30898 -38.66291,-23.93901 -5.21185,-4.74674 -10.08148,-10.23799 -14.35355,-16.03075 -0.74545,1.22098 -1.44253,2.48899 -2.13657,3.75824 3.88297,5.65959 8.2964,10.99972 13.17661,15.91002 0.38662,0.38862 0.7771,0.7745 1.16906,1.15832 -0.42777,-0.34346 -0.85459,-0.6895 -1.27806,-1.0387 -5.09503,-4.20224 -9.84951,-8.87148 -14.18667,-13.93071 -0.44993,0.87394 -0.87977,1.75907 -1.3042,2.64785 3.72508,5.18711 7.87943,10.09712 12.42401,14.64923 1.8125,1.8154 3.68169,3.58015 5.60268,5.29133 -2.07413,-1.52193 -4.10586,-3.10709 -6.09287,-4.75213 -4.66353,-3.86089 -9.05189,-8.09331 -13.11058,-12.64771 -0.44458,1.00152 -0.87604,2.00693 -1.28662,3.01795 3.46018,4.57355 7.24501,8.92293 11.33034,12.99614 0.41873,0.41785 0.84103,0.83358 1.26536,1.24614 -0.46014,-0.3722 -0.91877,-0.74809 -1.37436,-1.12652 -4.20849,-3.49496 -8.19862,-7.28004 -11.93474,-11.32319 -0.56823,1.4784 -1.11841,2.95964 -1.60934,4.43918 3.21807,3.69374 6.6234,7.23528 10.23303,10.52278 12.5255,11.40773 28.26142,21.30528 44.85716,27.78333 16.51435,6.44628 35.40609,10.32334 53.72917,10.76959 0.0223,1.1e-4 0.0453,0 0.0679,5.5e-4 z m 4.18729,-149.36114 c -10.47116,0.0151 -21.07803,1.11269 -31.30664,3.11328 -0.19983,1.4542 -0.36483,2.92251 -0.51758,4.39258 6.52919,-1.04983 13.10512,-1.68305 19.67578,-1.89844 -6.71153,0.83933 -13.34817,2.11638 -19.85547,3.81055 -0.0874,0.97667 -0.16439,1.95407 -0.23046,2.93359 8.77476,-1.48031 17.64321,-2.18346 26.46874,-2.10937 -9.02827,0.78083 -17.94857,2.37246 -26.61523,4.73828 -0.0441,0.92438 -0.0868,1.84813 -0.11133,2.77148 7.00086,-1.23742 14.06976,-1.96213 21.12891,-2.17187 -7.1765,0.92073 -14.25777,2.37275 -21.16406,4.33203 -0.0129,1.30878 -0.0237,2.61849 0.004,3.91797 12.41068,-2.88072 25.93441,-4.25697 38.57227,-3.70313 15.89999,0.69679 33.29726,4.43693 48.17969,10.40821 4.69705,1.8846 9.4024,4.13361 14.02929,6.61328 -0.46675,-1.70989 -0.96035,-3.39556 -1.47656,-5.05859 -3.56079,-2.00767 -7.20646,-3.88077 -10.93359,-5.59376 -3.9968,-1.83586 -8.08349,-3.5006 -12.2461,-4.98632 4.28779,1.07227 8.53563,2.33391 12.72852,3.7832 3.17115,1.09662 6.30827,2.31163 9.41015,3.62305 -0.0795,-0.23136 -0.14958,-0.47338 -0.23046,-0.70313 -0.31887,-0.90572 -0.67513,-1.81468 -1.01954,-2.72265 -2.26543,-1.17725 -4.56014,-2.30632 -6.88671,-3.3711 -5.93494,-2.71592 -12.06159,-5.06268 -18.33008,-7.02344 6.42577,1.35945 12.78606,3.12422 19.02539,5.29297 1.63814,0.56936 3.26594,1.17385 4.88672,1.79883 -0.56479,-1.37136 -1.15246,-2.73831 -1.76953,-4.10351 -0.61462,-0.28966 -1.22509,-0.58727 -1.84375,-0.86914 -4.26904,-1.94589 -8.63175,-3.70687 -13.07227,-5.27735 4.56571,1.15703 9.08955,2.51686 13.55469,4.07617 0.16266,0.0568 0.32383,0.11848 0.48633,0.17578 -0.90022,-1.91275 -1.83064,-3.8175 -2.82227,-5.69531 l 0.008,-0.004 c -16.13482,-5.97552 -33.85291,-9.60292 -50.80273,-10.34571 -2.29675,-0.10066 -4.60652,-0.14787 -6.92383,-0.14453 z M -646,728.72656 c -11.03862,4.97512 -21.46312,11.21961 -30.49219,18.27735 -13.5686,10.60615 -25.19567,24.22252 -33.26562,38.33984 -8.13133,14.2247 -13.22773,30.49444 -14.76563,45.93945 -1.54812,15.54756 0.55915,31.80985 5.73828,45.98242 5.19485,14.21561 14.06549,27.68256 25.03125,38.03907 10.94319,10.33519 24.99473,18.61688 39.78907,23.23828 13.90688,4.34417 29.70072,5.96961 44.99023,4.44336 -1.06636,-1.1474 -2.10425,-2.32289 -3.13281,-3.50586 -8.88827,0.27755 -17.76566,-0.51844 -26.37305,-2.36914 8.18047,0.99906 16.42744,1.04409 24.5332,0.18164 -0.67884,-0.81881 -1.35896,-1.63624 -2.01367,-2.47461 -9.36516,-0.0386 -18.67318,-1.31752 -27.57617,-3.80859 8.5191,1.53401 17.18668,1.95718 25.72266,1.32812 -0.70992,-0.95869 -1.42631,-1.9087 -2.11524,-2.89453 -5.70658,-0.25122 -11.36798,-0.98493 -16.89258,-2.19727 5.2529,0.61473 10.53996,0.79733 15.78907,0.56446 -0.96773,-1.42852 -1.93226,-2.86075 -2.85547,-4.33789 -8.42323,-0.33681 -16.79454,-1.7353 -24.11328,-4.02149 -11.64169,-3.63659 -23.49312,-10.63482 -32.01953,-18.6875 -8.50385,-8.03139 -15.9449,-19.32538 -19.97852,-30.36328 -4.04933,-11.08094 -5.84727,-24.84005 -4.62305,-37.13477 1.23443,-12.39728 5.6134,-26.4238 12.22852,-37.99609 6.6765,-11.67967 16.87959,-23.64434 28.21875,-32.50781 5.57981,-4.36155 11.96011,-8.45511 18.72266,-12.03906 -0.0631,-0.65761 -0.15844,-1.32068 -0.2129,-1.97657 -0.0721,-0.8689 -0.11544,-1.74197 -0.17187,-2.61328 -5.08256,2.29736 -10.0366,4.91783 -14.8125,7.85547 4.65717,-3.5383 9.57032,-6.77948 14.69141,-9.69336 -0.0558,-1.06847 -0.088,-2.13833 -0.1211,-3.20898 -7.74952,3.37775 -15.22206,7.47912 -22.26953,12.27539 6.85322,-5.68197 14.30427,-10.70513 22.20117,-14.99414 -0.0134,-1.0039 0.0413,-2.00743 0.0469,-3.01172 -6.9689,2.90654 -13.73508,6.37302 -20.20117,10.38281 6.34993,-4.79135 13.1273,-9.06317 20.23632,-12.75781 0.0286,-1.41816 0.002,-2.8381 0.0664,-4.25391 z m 154.46289,116.17969 c -1.62849,1.00491 -3.28791,1.96175 -4.94922,2.91406 -3.99426,9.14639 -8.85842,17.86471 -14.48437,26.00391 4.34368,-7.70717 7.99921,-15.75947 10.93164,-24.03125 -1.12463,0.61062 -2.24842,1.22165 -3.38477,1.80664 -4.23757,8.69572 -9.29414,16.94606 -15.07031,24.5957 4.48614,-7.28297 8.31678,-14.92946 11.46094,-22.81054 -1.43766,0.698 -2.87254,1.402 -4.32422,2.05664 -2.47172,4.51014 -5.17225,8.87903 -8.09375,13.07812 2.22552,-3.97957 4.24609,-8.06065 6.07617,-12.21484 -1.4338,0.62382 -2.86476,1.26248 -4.30859,1.84179 -0.68052,0.27305 -1.36677,0.5365 -2.05274,0.80079 -4.18663,7.62063 -8.99822,14.84344 -14.14062,21.12109 -9.59358,11.71152 -22.28871,22.29277 -34.71485,29.37305 -6.12497,3.48994 -12.85225,6.42434 -19.68164,8.69726 0.93087,1.08627 1.92141,2.14107 2.91406,3.19336 6.5825,-1.94401 13.02509,-4.49125 19.20313,-7.61523 0.48907,-0.24761 0.97673,-0.49974 1.46289,-0.75391 -0.45884,0.3007 -0.91984,0.5997 -1.38281,0.89453 -5.57102,3.5471 -11.48094,6.62601 -17.63281,9.1875 0.69213,0.69798 1.40111,1.3803 2.11523,2.0586 6.08435,-1.93985 12.03781,-4.3736 17.77148,-7.28907 2.28664,-1.1628 4.54263,-2.39517 6.76368,-3.69336 -2.08839,1.50232 -4.2238,2.94477 -6.40235,4.32618 -5.11303,3.2422 -10.49438,6.10789 -16.08008,8.56054 0.81512,0.73231 1.638,1.45334 2.47266,2.15625 5.41895,-1.87752 10.72504,-4.13308 15.86133,-6.75976 0.52679,-0.26912 1.05267,-0.54228 1.57617,-0.81836 -0.49618,0.32261 -0.9954,0.64263 -1.49609,0.95898 -4.6244,2.92251 -9.45724,5.5477 -14.45703,7.85156 1.23045,0.99727 2.46917,1.97825 3.7246,2.90235 4.50739,-1.91913 8.9279,-4.0634 13.16993,-6.48047 14.71999,-8.38728 28.99579,-20.29451 40.28515,-34.07617 11.23399,-13.71407 20.75916,-30.48311 26.84571,-47.77149 0.007,-0.0212 0.014,-0.0431 0.0215,-0.0644 z" />
    </g>
  </g>
</svg>
