<?xml version="1.0" encoding="UTF-8" standalone="no"?>
<!-- Created with Inkscape (http://www.inkscape.org/) -->

<svg
   xmlns:dc="http://purl.org/dc/elements/1.1/"
   xmlns:cc="http://creativecommons.org/ns#"
   xmlns:rdf="http://www.w3.org/1999/02/22-rdf-syntax-ns#"
   xmlns:svg="http://www.w3.org/2000/svg"
   xmlns="http://www.w3.org/2000/svg"
   xmlns:sodipodi="http://sodipodi.sourceforge.net/DTD/sodipodi-0.dtd"
   xmlns:inkscape="http://www.inkscape.org/namespaces/inkscape"
   width="721.5"
   height="730.00018"
   id="svg3041"
   version="1.1"
   inkscape:version="0.48.5 r10040"
   sodipodi:docname="modernChartresStyle.svg">
  <defs
     id="defs3043" />
  <sodipodi:namedview
     id="base"
     pagecolor="#ffffff"
     bordercolor="#666666"
     borderopacity="1.0"
     inkscape:pageopacity="0.0"
     inkscape:pageshadow="2"
     inkscape:zoom="0.35"
     inkscape:cx="364.99985"
     inkscape:cy="364.99997"
     inkscape:document-units="px"
     inkscape:current-layer="layer1"
     showgrid="false"
     fit-margin-top="10"
     fit-margin-left="10"
     fit-margin-right="1.5"
     fit-margin-bottom="10"
     inkscape:window-width="1680"
     inkscape:window-height="988"
     inkscape:window-x="1672"
     inkscape:window-y="-8"
     inkscape:window-maximized="1" />
  <metadata
     id="metadata3046">
    <rdf:RDF>
      <cc:Work
         rdf:about="">
        <dc:format>image/svg+xml</dc:format>
        <dc:type
           rdf:resource="http://purl.org/dc/dcmitype/StillImage" />
        <dc:title />
      </cc:Work>
    </rdf:RDF>
  </metadata>
  <g
     inkscape:label="Layer 1"
     inkscape:groupmode="layer"
     id="layer1"
     transform="translate(-10.00015,-167.36193)">
    <path
       style="fill:#000000;stroke:none"
       d="m 375.00031,177.36263 c -196.06109,0 -355.00016,158.93897 -355.00016,355.00016 0,187.49107 145.33536,341.02634 329.50014,354.09384 0.10443,0.01 0.208,0.0114 0.3125,0.019 0.064,0 0.1474,0.01 0.2125,0.01 1.3807,0 2.475,-1.0818 2.475,-2.4625 0,-0.01 10e-5,-0.021 0,-0.031 l 0,-2.3437 0,-20.03131 0,-5.0312 0,-20.03122 0,-5.0313 0,-20.0625 0,-5.0312 0,-0.4376 0,-22.09371 c 0.01,-0.086 0,-0.1655 0,-0.25 0.018,-1.267 -0.9305,-2.3513 -2.2188,-2.5 C 232.76334,769.61639 139.16031,676.70984 126.5002,559.52329 l -0.031,0 c -1.2002,-12.3683 7.85039,-23.3628 20.21871,-24.5625 12.3684,-1.1996 23.3629,7.8504 24.5625,20.2188 l 0.031,0 c 10.43481,94.13504 84.58614,169.02947 178.37508,180.59378 1.3678,0.196 2.616,-0.75831 2.8126,-2.12501 0.023,-0.1602 0.038,-0.315 0.031,-0.4687 -5e-4,-0.0114 6e-4,-0.021 0,-0.031 l 0,-17.2813 0,-4.875 0,-5.0624 0,-20.18762 0,-5.0624 0,-20.25001 0,-5.0626 0,-20.4062 0,-3.03121 c 0.054,-1.1383 -0.6812,-2.1776 -1.8125,-2.5 0,-0.001 0,-0.03 0,-0.031 -0.02,0 -0.043,0 -0.062,0 -43.45163,-10.8792 -75.62503,-50.20722 -75.62503,-97.03123 0,-46.83123 32.1979,-86.12785 75.65623,-97.00005 1.3361,-0.3646 2.1178,-1.7308 1.75,-3.0625 -0.3641,-1.3317 -1.7309,-2.11461 -3.0624,-1.75001 -45.58793,11.44721 -79.34384,52.67243 -79.34384,101.81256 0,43.52911 26.51021,80.86593 64.25003,96.78123 l 0.031,0 c 11.30891,5.11981 16.32651,18.45801 11.21881,29.78131 -5.11151,11.32081 -18.42361,16.36141 -29.75001,11.25001 -46.15443,-19.86781 -80.31934,-62.21532 -88.71884,-113.28135 l -0.031,0 c -0.2577,-1.3422 -1.526,-2.2423 -2.875,-2 -1.3589,0.2442 -2.2758,1.5473 -2.0312,2.9063 9.7572,59.08043 52.94052,106.86634 109.46874,123.34375 l 0,0.031 c 11.87481,3.6141 18.57111,16.1802 14.96871,28.06242 -3.5996,11.8832 -16.14711,18.5861 -28.03121,15 l -0.031,0 C 235.54964,699.84014 175.00022,623.17762 175.00022,532.36279 c 0,-100.82875 74.63453,-184.22859 171.65627,-198.00009 l 0,0.031 c 1.1522,-0.1727 2.3044,-0.2532 3.4376,-0.25 10.9248,0.031 20.4869,8.0505 22.1562,19.1875 1.8419,12.28912 -6.6182,23.72062 -18.9062,25.56252 -66.99733,9.3653 -120.26095,61.54072 -131.25005,128.00005 -0.01,0.01 9e-4,0.021 0,0.031 -0.2428,1.3592 0.672,2.6325 2.0312,2.875 1.3592,0.2425 2.6325,-0.6408 2.875,-2 l 0.031,0 c 11.7274,-71.15083 73.49632,-125.43755 147.96885,-125.43755 72.68385,0 133.26226,51.71432 147.03127,120.34375 l 0.031,0 c 2.564,12.159 -5.216,24.0923 -17.37501,26.6563 -12.1491,2.5619 -24.0784,-5.2018 -26.6563,-17.3438 0,-0.01 0.01,-0.021 0,-0.031 -7.81971,-39.76431 -38.11873,-71.46093 -77.09374,-81.37504 -0.098,-0.04 -0.2073,-0.098 -0.3125,-0.125 -1.3358,-0.3491 -2.6825,0.4455 -3.0312,1.78131 -0.3524,1.3358 0.4454,2.7133 1.7812,3.0625 43.45283,10.8765 75.62503,50.20492 75.62503,97.03125 0,37.52721 -20.6745,70.20193 -51.25002,87.31253 l 0,0.031 c -1.1963,0.6894 -1.5995,2.21 -0.9062,3.4063 0.6893,1.1963 2.2099,1.5956 3.4062,0.9062 0.094,-0.054 0.1654,-0.12315 0.25,-0.1875 0.049,-0.037 0.11443,-0.053 0.1562,-0.094 26.19662,-14.8544 45.38512,-40.63152 51.34383,-71.15623 l 0.031,0 c 2.2274,-10.2463 11.1176,-17.3367 21.125,-17.7188 1.8551,-0.071 3.7283,0.088 5.625,0.5 12.14861,2.6353 19.91661,14.6375 17.28131,26.7813 l -0.031,0 c -10.5335,52.30653 -48.28482,94.74154 -97.84374,111.93755 l 0,0.031 c -1.3056,0.4493 -2.0116,1.8814 -1.5625,3.1876 0.4491,1.3043 1.8819,1.9803 3.1875,1.5312 0.1632,-0.056 0.3265,-0.10314 0.4687,-0.1875 0.0129,-0.01 0.019,-0.023 0.031,-0.031 60.37583,-21.17841 103.68754,-78.63944 103.68754,-146.25007 0,-78.32843 -58.10612,-143.05945 -133.56255,-153.50005 -12.2683,-1.9761 -20.6318,-13.5129 -18.6563,-25.78122 1.7917,-11.1181 11.4502,-19.0258 22.375,-18.9375 1.1332,0.01 2.2872,0.096 3.4376,0.2812 88.85284,12.726 158.86147,83.84883 169.87507,173.25007 0.1766,1.3693 1.4456,2.3334 2.8124,2.1563 1.3696,-0.1771 2.33341,-1.4432 2.15631,-2.8125 -0.01,-0.08 -0.045,-0.14143 -0.062,-0.2188 -12.58711,-101.15164 -98.81604,-179.43758 -203.3751,-179.43758 -105.63434,0 -192.60377,79.90134 -203.78128,182.56258 l 0.062,0 c -1.4139,12.345 -12.5932,21.2019 -24.9374,19.7813 -12.33611,-1.4195 -21.18352,-12.5737 -19.78131,-24.9063 l -0.031,0 c 12.83881,-116.98165 106.38324,-209.6638 223.75009,-221.1876 l 0,-0.031 c 1.3732,-0.151 2.3698,-1.4088 2.2188,-2.7812 -0.151,-1.3724 -1.4144,-2.3385 -2.7812,-2.1875 -128.96295,12.6927 -229.7189,121.45036 -229.7189,253.75012 0,125.14314 90.16345,229.21308 209.06259,250.8438 10.8011,1.979 18.36901,11.3773 18.43751,21.96881 l 0,0.8124 c -0.034,1.1326 -0.165,2.2604 -0.375,3.4063 -2.2395,12.223 -13.96451,20.302 -26.18751,18.0625 C 189.15622,803.4772 87.403179,693.44544 76.062374,557.67489 c 0.01,-0.052 0,-0.10386 0,-0.1563 0.01,-0.11515 0.01,-0.2254 0,-0.3437 -0.102,-1.377 -1.273101,-2.4145 -2.656301,-2.3125 -1.376802,0.102 -2.414802,1.3105 -2.312402,2.6875 l -0.031,0 C 82.609877,698.78504 190.36532,812.7549 328.68778,833.8312 c 11.1101,1.8401 18.95251,11.51272 18.81251,22.43752 -0.0143,1.1301 -0.12214,2.2882 -0.3125,3.4375 -2.0289,12.24921 -13.60001,20.54391 -25.84371,18.53121 -0.0114,-9e-4 -0.021,0 -0.031,0 C 153.49721,852.40862 25.000451,707.40726 25.000451,532.36239 c 0,-184.29779 142.451059,-335.33335 323.250139,-349.00016 0.01,-8e-4 0.025,8e-4 0.031,0 0.3877,-0.029 0.7724,-0.053 1.1563,-0.062 11.8997,-0.3027 22.085,8.8092 23,20.81251 0.9445,12.3904 -8.3365,23.1805 -20.7187,24.12502 l 0,0.031 C 202.59502,239.52856 83.429177,358.012 71.094071,506.83137 c -0.024,0.10286 -0.053,0.2048 -0.063,0.3125 -0.1168,1.3752 0.875,2.5639 2.250002,2.6875 1.3832,0.12357 2.595201,-0.8748 2.718801,-2.25 l 0.031,0 C 88.637779,353.4954 217.66354,232.36246 374.99979,232.36246 c 156.60117,0 285.11893,120.00524 298.75013,273.06261 l 0.031,0 c 1.0607,12.3811 -8.1168,23.2837 -20.5,24.3438 -12.36681,1.0591 -23.26821,-8.1032 -24.34371,-20.4688 -9e-4,-0.01 9e-4,-0.021 0,-0.031 -10.9102,-121.49265 -107.02315,-218.3918 -228.1564,-230.5626 -0.049,-0.016 -0.10529,-0.018 -0.1562,-0.031 -0.11157,-0.029 -0.226,-0.049 -0.3438,-0.062 -1.3668,-0.1602 -2.5851,0.8162 -2.75,2.1875 -0.1594,1.3714 0.8162,2.6211 2.1876,2.7813 l 0,0.031 c 126.45925,12.42002 225.2813,119.02686 225.2813,248.75012 0,120.96204 -85.90085,221.85868 -200.03129,245 -0.024,0 -0.039,0 -0.063,0 -0.1458,0.01 -0.2898,0.027 -0.4374,0.063 -1.3524,0.2889 -2.1971,1.6189 -1.9063,2.9687 0.2908,1.3498 1.6191,2.1952 2.9687,1.9063 0.0114,-0.01 0.021,0 0.031,0 l 0,0.031 C 534.83536,760.35097 618.80721,668.51094 628.93651,555.39479 l 0.031,0 c 1.0072,-11.6056 10.6648,-20.3697 22.06241,-20.5312 0.7609,-0.0114 1.5381,0 2.3126,0.062 12.3786,1.0803 21.5235,11.9956 20.4374,24.375 -12.1512,136.54455 -115.77984,246.74461 -249.1875,268.93751 -1.365,0.2274 -2.289,1.5136 -2.0626,2.875 0.2274,1.365 1.5136,2.289 2.875,2.0626 144.46116,-24.0245 254.59392,-149.53796 254.59392,-300.81261 0,-160.83607 -124.49456,-292.54863 -282.37513,-304.12513 l 0,-0.062 c -12.3428,-1.31022 -21.294,-12.37032 -20,-24.71882 1.1737,-11.20011 10.3682,-19.64061 21.2812,-20.15621 1.1332,-0.053 2.2727,0 3.4376,0.125 180.52268,13.94301 322.65634,164.83627 322.65634,348.93766 0,184.23907 -142.34556,335.22033 -323.06264,348.96884 -0.083,0.01 -0.1668,-0.01 -0.25,0 -12.2653,0.8963 -23.0439,-8.2441 -24.0937,-20.53121 -0.055,-0.6456 -0.093,-1.2707 -0.094,-1.9063 l 0,-76.56253 0,-20.00002 0,-3.8125 c -0.029,-11.2825 8.4325,-21.0337 19.9062,-22.375 l 0,-0.031 c 94.24154,-10.25091 169.28207,-84.35044 180.96888,-178.15628 0.023,-0.091 0.051,-0.1856 0.062,-0.2812 0.1788,-1.3691 -0.78671,-2.6337 -2.15631,-2.8125 -1.3668,-0.1788 -2.634,0.7871 -2.8124,2.1562 -11.0082,89.49434 -81.11923,160.67047 -170.09387,173.31257 -0.3839,0.058 -0.7749,0.11814 -1.1562,0.1562 -11.8458,1.1887 -22.6629,-7.1293 -24.4688,-19.0312 -0.1715,-1.1305 -0.2481,-2.2325 -0.25,-3.3438 l 0,-0.7812 0,-74.09384 0,-0.9062 0,-20 0,-2.3125 -0.031,-0.031 c 0,-0.043 0.031,-0.081 0.031,-0.125 0,-1.3701 -1.101,-2.4829 -2.4688,-2.5 -0.01,-10e-5 -0.021,0 -0.031,0 -41.42132,0 -75.00003,-33.57862 -75.00003,-75.00003 0,-41.42133 33.57871,-75.00005 75.00003,-75.00005 41.42143,0 75.00004,33.57872 75.00004,75.00005 0,32.9449 -21.24771,60.92681 -50.78123,71.00003 -0.9955,0.3298 -1.7188,1.2693 -1.7188,2.375 0,0.021 -5e-4,0.041 0,0.062 l 0,1.2188 0,2.125 0,20.6875 0,5.12501 0,20.4062 0,5.0626 0,20.25001 0,5.0624 0,20.18762 0,2.0312 0,0.125 c -5e-4,0.12814 0.0114,0.2758 0.031,0.4062 0.205,1.3449 1.4405,2.2628 2.7813,2.0938 0.053,-0.01 0.10257,-0.024 0.1563,-0.031 80.16214,-11.34722 143.30026,-75.48603 153.15627,-156.12517 l 0.031,0 c 1.615,-12.3218 12.897,-20.9839 25.21882,-19.375 12.3218,1.6089 21.0212,12.897 19.4062,25.2188 -12.7418,102.99274 -95.10305,184.39748 -198.53129,195.71878 -0.0114,0 -0.021,-9e-4 -0.031,0 -1.2645,0.1485 -2.2059,1.2289 -2.2188,2.4688 l 0,2.8125 0,20.09372 0,5 0,20.06261 0,5.0312 0,20.0625 0,5.0313 0,22.50002 c 0,0.032 0,0.062 0,0.094 0.11757,1.3757 1.3427,2.3984 2.7188,2.2813 0.128,-0.0114 0.2529,-0.033 0.375,-0.063 0.041,-0.01 0.084,-0.019 0.125,-0.031 170.22587,-13.1307 304.28133,-155.37566 304.28133,-328.96893 0,-173.64789 -134.13456,-315.94795 -304.43763,-329.00015 -0.10286,-0.024 -0.205,-0.051 -0.3125,-0.062 -0.1716,-0.018 -0.3347,-0.016 -0.5,0 -1.1573,0.11315 -2.0856,1.0172 -2.2188,2.2188 -0.1431,1.3732 0.8456,2.6061 2.2188,2.75 l 0,0.062 c 167.92957,12.6447 300.25013,152.86636 300.25013,324.03135 0,161.20345 -117.36864,294.94401 -271.31261,320.53143 -12.2573,2.0431 -23.83192,-6.2427 -25.87502,-18.50002 -2.0431,-12.2573 6.24272,-23.8319 18.50002,-25.875 124.30415,-20.69651 220.87848,-123.28186 232.4688,-250.43761 0.01,-0.031 0.023,-0.063 0.031,-0.094 0.033,-0.13086 0.051,-0.2674 0.062,-0.4063 0.12,-1.3754 -0.9062,-2.5987 -2.2812,-2.7187 -1.3812,-0.12 -2.5988,0.9058 -2.7188,2.2812 -10.88942,121.92675 -101.37605,220.8892 -219.1219,244.6866 l 0,0.031 c -12.1477,2.61781 -24.13322,-5.1014 -26.75002,-17.25 -2.6168,-12.1476 5.1648,-24.13222 17.31252,-26.75002 l 0,0.031 c 105.32744,-21.0399 184.68757,-114.01454 184.68757,-225.53128 0,-119.46516 -91.08293,-217.6427 -207.59389,-228.9064 l 0,-0.031 c -12.3351,-1.4419 -21.1911,-12.59502 -19.75,-24.93752 1.3098,-11.2094 10.6449,-19.55271 21.5938,-19.90621 0.3532,-0.0114 0.7062,0 1.0625,0 0.7602,0.0114 1.5411,0.066 2.3125,0.1562 l 0,0.031 c 130.74706,13.04491 234.4852,117.65276 246.21892,248.78141 l 0.031,0 c 7e-4,0.01 -9e-4,0.021 0,0.031 0.11785,1.3757 1.3377,2.3678 2.7188,2.25 1.375,-0.11785 2.399,-1.3118 2.2812,-2.6875 -0.0114,-0.12843 -0.034,-0.2534 -0.062,-0.375 -0.01,-0.041 -0.019,-0.085 -0.031,-0.125 C 640.79042,364.06702 520.96338,252.36176 375.00092,252.36176 c -146.90177,0 -267.34202,113.14106 -279.031324,257.03141 l -0.031,0 c -1.128,12.3608 -12.071305,21.4866 -24.43751,20.375 -12.376505,-1.1125 -21.487509,-12.061 -20.375009,-24.4375 C 64.196183,346.6594 191.21614,220.29124 350.18871,208.29924 c 1.3767,-0.10485 2.4174,-1.3107 2.3125,-2.6875 -0.10486,-1.3767 -1.3108,-2.3862 -2.6875,-2.2812 -170.48157,12.8713 -304.812636,155.25576 -304.812636,329.03133 0,165.10867 121.272246,301.88303 279.593916,326.15645 1.3614,0.2256 2.6476,-0.7003 2.875,-2.0625 0.2255,-1.3622 -0.6963,-2.6494 -2.0626,-2.875 l 0,-0.031 C 178.07312,830.9799 63.346569,709.51406 51.126063,559.01839 c -0.9182,-12.3925 8.389004,-23.1755 20.781208,-24.0938 0.3877,-0.029 0.772402,-0.053 1.156302,-0.062 11.900304,-0.2775 22.047908,8.8386 22.937508,20.8438 l -0.031,0 c 10.463509,126.74395 105.393939,229.4993 228.343799,252.00011 0.082,0.024 0.1636,0.073 0.25,0.094 1.3581,0.2444 2.6572,-0.6732 2.9063,-2.0313 0.2444,-1.3581 -0.6464,-2.6572 -2,-2.9063 l 0,-0.031 c -128.23486,-23.326 -225.47,-135.50586 -225.47,-270.4689 0,-142.60537 108.55486,-259.80961 247.53131,-273.59393 l 0,-0.062 c 0.7736,-0.085 1.5517,-0.11857 2.3126,-0.125 11.3976,-0.096 21.257,8.45142 22.5312,20.03132 1.3591,12.3519 -7.5557,23.48461 -19.9062,24.84371 l 0,0.031 C 244.36485,314.0008 158.20261,399.33144 146.40641,507.05069 l 0.031,0 0,0.031 c -0.1578,1.3717 0.8158,2.5922 2.1875,2.75 1.3717,0.1579 2.6236,-0.8158 2.7812,-2.1875 0.01,-0.086 -9e-4,-0.1655 0,-0.25 12.4303,-112.50966 107.77244,-200.03129 223.59388,-200.03129 114.81016,0 209.5032,86.00403 223.2501,197.09379 l 0.031,0 c 1.6006,12.3238 -7.1177,23.6246 -19.4374,25.2188 -12.32431,1.5942 -23.58701,-7.1138 -25.18761,-19.4375 l -0.031,0 C 543.73876,429.61884 480.57145,365.47083 400.40651,354.14422 l 0,0.031 c -1.3623,-0.2195 -2.6476,0.7306 -2.875,2.0938 -0.2192,1.3631 0.6948,2.6242 2.0626,2.8437 0.13043,0.021 0.2781,0.031 0.4062,0.031 0.039,2e-4 0.086,0 0.125,0 84.75604,12.17361 149.87507,85.09304 149.87507,173.21888 0,76.55523 -49.14673,141.64856 -117.62506,165.37496 -11.7405,4.07071 -24.61731,-2.1874 -28.65621,-13.9374 -4.0426,-11.7544 2.218,-24.55182 13.96871,-28.59382 l 0,-0.031 c 43.00752,-14.9541 75.72633,-51.83551 84.78133,-97.28134 0.2889,-1.3493 -0.557,-2.6759 -1.9063,-2.9687 -1.3493,-0.2928 -2.7072,0.5569 -3,1.9062 -0.016,0.073 0.01,0.1456 0,0.2188 -7.2529,36.19032 -30.14071,66.75403 -61.31253,84.31244 -10.7669,6.2039 -24.5461,2.4858 -30.75001,-8.28121 -6.2039,-10.7669 -2.4851,-24.5148 8.28121,-30.7187 l 0,-0.031 c 24.5861,-13.64651 41.21882,-39.85743 41.21882,-69.96883 0,-37.52233 -25.83682,-69.01374 -60.68753,-77.65624 l 0,-0.031 c -12.0225,-3.1425 -19.205,-15.4463 -16.0625,-27.46882 2.6515,-10.1439 11.7911,-16.8509 21.8125,-16.8125 1.8558,0.01 3.7465,0.259 5.625,0.75 l 0,0.031 c 46.41253,11.7197 82.50054,49.39762 91.90634,96.68755 0.2844,1.351 1.6177,2.2224 2.9687,1.9375 1.351,-0.2849 2.2224,-1.6177 1.9375,-2.9687 -0.019,-0.091 -0.065,-0.1635 -0.094,-0.25 -11.9602,-59.43943 -64.44293,-104.21885 -127.40626,-104.21885 -64.62181,0 -118.24354,47.16062 -128.31254,108.93755 -2.1826,12.2333 -13.86731,20.4014 -26.09371,18.2188 -12.2337,-2.1827 -20.36692,-13.8918 -18.18762,-26.125 12.47742,-74.87285 72.48874,-133.64246 147.96887,-144.28137 1.3655,-0.2046 2.2976,-1.4783 2.0938,-2.8437 -0.2111,-1.3655 -1.4783,-2.2984 -2.8438,-2.0938 l 0,-0.031 c -87.39824,12.32691 -154.62507,87.41874 -154.62507,178.21888 0,81.79483 54.54243,150.87266 129.25006,172.78127 l 0,-0.031 0.031,0 c 1.3216,0.4004 2.7274,-0.3348 3.125,-1.6562 0.4004,-1.3214 -0.3677,-2.72471 -1.6874,-3.12501 l 0,-0.031 C 262.08545,681.65276 213.49124,627.85333 202.40602,561.3325 c -2.1947,-12.2305 5.92572,-23.9274 18.15632,-26.125 1.1466,-0.206 2.3077,-0.3142 3.4375,-0.3437 10.9217,-0.2858 20.69591,7.416 22.68751,18.5 7.2291,44.49362 37.03221,81.39814 77.28133,98.59374 1.2572,0.5679 2.7445,0.01 3.3124,-1.25 0.5707,-1.2585 0.01,-2.7446 -1.25,-3.3125 -44.69472,-19.04941 -76.03123,-63.37282 -76.03123,-115.03124 0,-58.35553 39.99271,-107.38506 94.06254,-121.15636 l 0,0.062 0.031,0 c 1.8623,-0.5073 3.7478,-0.7841 5.5937,-0.8125 10.0203,-0.1542 19.2568,6.4498 22.0313,16.5625 3.2726,11.98542 -3.7959,24.37522 -15.7813,27.65632 l 0,-0.031 c -34.97771,8.5531 -60.93753,40.10631 -60.93753,77.71874 0,37.47732 25.77532,68.93813 60.56253,77.62503 10.1604,2.5878 16.9131,11.7295 16.9375,21.75 l 0,0.5938 0,5.00001 0,20 0,5 0,20.00002 0,5 0,20.00001 0,5 0,20 0,0.75 0,0.125 c 0,1.0894 -0.057,2.20202 -0.2188,3.31252 -1.7613,12.3006 -13.1681,20.8261 -25.4687,19.0625 C 243.94935,742.72697 162.68701,660.44993 151.37451,557.11349 l -0.031,0 c -0.13415,-1.3742 -1.3445,-2.3833 -2.7188,-2.25 -1.3743,0.13328 -2.3833,1.3445 -2.25,2.7188 0.001,0.01 0,0.021 0,0.031 0.015,0.14014 0.053,0.2748 0.094,0.4062 0.01,0.019 -0.01,0.043 0,0.062 11.9652,107.57744 98.09784,192.71338 206.12508,203.15628 l 0,0.031 c 11.5698,1.3379 20.0646,11.22202 19.9062,22.62502 l 0,3.4375 0,20.00001 0,5 0,20 0,5.00002 0,20 0,5 0,20.00001 0,2.3438 0,0.125 c -5e-4,0.021 0,0.041 0,0.062 0,1.381 1.1193,2.5 2.5,2.5 196.06119,0 355.00016,-158.93887 355.00016,-355.00006 0,-196.06117 -158.93897,-355.00014 -355.00016,-355.00014 z"
       id="rect5278"
       inkscape:connector-curvature="0"
       sodipodi:nodetypes="ssccssccccccccccccccsccccccccccccccccccscccsccccccsccccccsccsscccsccsccsccccccsccccccccccccccccccsccccccccscccccccscsccccccccccccccccscccscccccccscccccccccccscccsccccccccccssccsccscccccccccccccccccccccccscsssscscccccccccccccccccsccccccccccccccccsccccccscscccccccccccscccsccccccccccsccsccscsccccccccccccccscccscccccsccscccccccccccscccccscccsccsccsccccsccscccccccscccccccssccccscccscccscccccccccccccccccscccccccccccccccccssss" />
  </g>
</svg>
