<?xml version="1.0" encoding="UTF-8" standalone="no"?>
<!-- Created with Inkscape (http://www.inkscape.org/) -->
<svg
   xmlns:dc="http://purl.org/dc/elements/1.1/"
   xmlns:cc="http://creativecommons.org/ns#"
   xmlns:rdf="http://www.w3.org/1999/02/22-rdf-syntax-ns#"
   xmlns:svg="http://www.w3.org/2000/svg"
   xmlns="http://www.w3.org/2000/svg"
   xmlns:sodipodi="http://sodipodi.sourceforge.net/DTD/sodipodi-0.dtd"
   xmlns:inkscape="http://www.inkscape.org/namespaces/inkscape"
   width="4000"
   height="4000"
   id="svg2521"
   sodipodi:version="0.32"
   inkscape:version="0.46"
   version="1.0"
   sodipodi:docname="wlab.svg"
   inkscape:output_extension="org.inkscape.output.svg.inkscape">
  <defs
     id="defs2523">
    <inkscape:perspective
       sodipodi:type="inkscape:persp3d"
       inkscape:vp_x="0 : 526.18109 : 1"
       inkscape:vp_y="0 : 1000 : 0"
       inkscape:vp_z="744.09448 : 526.18109 : 1"
       inkscape:persp3d-origin="372.04724 : 350.78739 : 1"
       id="perspective2529" />
  </defs>
  <sodipodi:namedview
     id="base"
     pagecolor="#ffffff"
     bordercolor="#666666"
     borderopacity="1.0"
     gridtolerance="10000"
     guidetolerance="10"
     objecttolerance="10"
     inkscape:pageopacity="0.0"
     inkscape:pageshadow="2"
     inkscape:zoom="0.08421875"
     inkscape:cx="1600"
     inkscape:cy="1600"
     inkscape:document-units="px"
     inkscape:current-layer="layer1"
     showgrid="false"
     inkscape:window-width="1280"
     inkscape:window-height="744"
     inkscape:window-x="0"
     inkscape:window-y="22" />
  <metadata
     id="metadata2526">
    <rdf:RDF>
      <cc:Work
         rdf:about="">
        <dc:format>image/svg+xml</dc:format>
        <dc:type
           rdf:resource="http://purl.org/dc/dcmitype/StillImage" />
      </cc:Work>
    </rdf:RDF>
  </metadata>
  <g
     inkscape:label="Layer 1"
     inkscape:groupmode="layer"
     id="layer1"
     transform="translate(1353.5817,1788.1011)">
    <rect
       style="fill:#ffffff"
       id="rect2532"
       width="4000"
       height="4000"
       x="-1353.5817"
       y="-1788.1011" />
    <path
       style="fill:#000000;stroke:none"
       d="M 1546.6245,201.79273 C 1546.5696,263.89386 1495.9723,314.15917 1433.872,314.00486 C 1371.7722,313.85055 1321.5826,263.321 1321.6288,201.22173 C 1321.7599,25.035872 1255.4377,-149.20288 1129.2824,-281.77827 C 1126.8276,-284.358 1123.2255,-285.86589 1119.3957,-285.60664 C 1115.555,-285.34589 1112.2351,-283.37715 1110.1327,-280.48402 L 959.17479,-72.746394 C 955.80192,-68.104894 955.96917,-62.263394 959.33754,-57.825269 C 1043.6669,53.285481 1069.1223,199.52748 1026.142,331.83111 C 992.83242,434.36611 925.81132,517.1526 841.63342,571.28036 C 835.83032,575.01185 834.09017,582.72623 837.78679,588.55423 C 841.48204,594.37986 849.16041,596.13962 854.97442,592.41386 C 944.13266,535.279 1014.675,448.04898 1049.9184,339.55648 C 1087.4642,223.97661 1075.9708,98.114338 1020.4413,-8.2347689 C 991.6975,-63.284412 1012.9652,-131.26274 1067.9968,-160.03127 C 1123.0334,-188.80237 1191.1058,-167.55086 1219.8425,-112.50077 C 1284.1635,10.71689 1308.9544,151.29998 1290.9355,288.79661 C 1290.1677,294.65636 1293.6355,300.4349 1299.4568,302.32636 L 1539.933,380.46186 C 1543.1982,381.52278 1546.8526,381.25336 1550.0543,379.39673 C 1553.3635,377.47673 1555.4755,374.2605 1556.1035,370.76548 C 1612.2801,58.110502 1509.2309,-272.74694 1266.8045,-497.08502 C 1225.4731,-535.33257 1218.1364,-599.26794 1252.0368,-645.9254 L 1399.8159,-849.31527 C 1417.3961,-873.51112 1444.5476,-890.6938 1476.5288,-894.78864 C 1511.1807,-899.22542 1543.6045,-886.74881 1567.832,-865.20439 C 1932.0889,-541.28744 2096.7982,-62.555543 2032.9655,398.29973 C 2032.0188,405.13446 2036.7654,411.51986 2043.5979,412.47436 C 2050.4319,413.42911 2056.7476,408.65238 2057.6983,401.81786 C 2129.118,-111.60187 1922.3607,-646.88827 1473.955,-972.63627 C 1017.98,-1303.883 393.44733,-1340.8032 -104.80696,-1036.7641 C -154.3973,-1006.5036 -219.77797,-1018.8327 -254.50508,-1066.6336 L -401.79721,-1269.3771 C -419.19923,-1293.3305 -427.2613,-1324.199 -421.58671,-1355.6115 C -415.7443,-1387.953 -396.4342,-1414.8154 -370.57258,-1430.9568 C 296.45317,-1847.2776 1139.6699,-1802.1137 1753.0822,-1356.8459 C 2444.99,-854.59914 2703.5818,23.682981 2452.8754,795.40489 C 2199.9155,1574.0636 1501.0129,2085.052 731.13842,2138.6529 C 701.11561,2140.7432 670.30879,2130.8895 646.58979,2108.758 C 622.86479,2086.6208 610.8354,2056.6403 610.83367,2026.5361 L 610.81929,1775.6591 C 610.8159,1716.5501 656.50602,1668.1391 714.44967,1663.5225 C 1210.2187,1624.0229 1664.6251,1333.6739 1902.7535,881.72239 C 1905.9701,875.61743 1903.5715,868.09464 1897.4622,864.88839 C 1891.3525,861.68189 1883.7708,864.05075 1880.5539,870.15552 C 1628.2482,1348.9617 1129.2982,1643.1784 598.32542,1643.2063 C 39.734041,1643.2357 -446.60537,1332.1771 -697.03146,874.02252 C -726.81612,819.53148 -706.92835,751.11994 -652.48508,721.24827 C -598.04123,691.37628 -529.52427,711.31707 -499.76008,765.81964 C -306.66702,1119.4012 52.073811,1369.7702 472.00217,1411.9535 C 475.28831,1412.2836 478.67429,1411.3239 481.38042,1409.004 C 484.26229,1406.531 485.82938,1402.8841 485.82842,1399.3596 L 485.76004,1147.8901 C 485.7583,1141.5043 480.84919,1136.1577 474.67092,1135.3743 C 145.74519,1093.6664 -132.74471,887.06009 -275.04383,601.84461 C -289.63796,572.59305 -291.78921,536.30348 -277.21758,504.24761 C -263.62396,474.34236 -238.37121,453.18604 -209.38933,443.77136 L 31.825791,365.41336 C 83.3737,348.66818 138.25224,371.17674 164.18029,416.42711 C 206.87062,490.93149 268.22618,553.45197 341.84454,597.49511 C 347.74493,601.02509 355.6205,599.16403 359.01954,593.17698 C 362.58713,586.89303 360.51363,579.55998 354.55279,575.95373 C 257.32538,517.13211 182.05637,425.0952 146.30204,315.08286 C 77.659625,103.87733 157.12629,-120.24752 327.63579,-244.14302 C 442.91904,-327.91014 580.88524,-357.99586 711.67492,-338.97714 C 718.48749,-337.98649 724.89167,-342.69652 725.89967,-349.51102 C 726.91017,-356.33814 722.18067,-362.70335 715.35367,-363.69877 C 578.30467,-383.68148 433.74317,-352.10077 312.93692,-264.32127 C 160.95354,-153.88777 77.779925,32.396781 100.17192,221.80973 C 106.34192,274.00154 75.027175,325.0862 23.148666,341.93423 L -217.78321,420.17911 C -247.17218,429.72345 -280.55921,427.24211 -309.34321,410.47286 C -339.06533,393.15698 -358.11245,363.88891 -363.58471,332.43073 C -414.75295,38.281903 -330.16725,-257.15072 -147.56846,-478.02202 C -143.17262,-483.33922 -143.87079,-491.27311 -149.18483,-495.67452 C -154.49879,-500.07586 -162.44676,-499.33534 -166.84946,-494.0209 C -383.47876,-232.53096 -465.70708,130.67923 -353.07196,477.30098 C -245.50408,808.32889 30.194083,1063.9338 373.14742,1142.6796 C 433.67271,1156.5769 471.67015,1216.7056 457.97217,1277.2764 C 444.27415,1337.8473 384.22404,1376.1249 323.68554,1362.2839 C -56.113839,1275.45 -368.56646,1011.6224 -522.80421,662.55048 C -525.35696,656.77311 -531.91046,653.75348 -538.04996,655.74861 L -776.56633,733.25852 C -779.80637,734.31142 -782.93946,736.71377 -784.44533,740.06302 C -785.92446,743.35389 -785.85593,747.04834 -784.55421,750.13152 C -571.35255,1255.1086 -89.080084,1619.8175 482.01742,1663.7799 C 539.97342,1668.2413 585.7526,1716.8261 585.75717,1775.9359 L 585.78654,2155.704 C 585.78707,2162.6039 591.38367,2168.1851 598.28367,2168.1845 C 1430.7858,2168.1133 2205.6249,1637.3996 2476.6518,803.13027 C 2730.617,21.379356 2468.568,-868.16114 1767.8687,-1377.1985 C 1111.3905,-1854.1104 196.32442,-1879.413 -495.35321,-1376.8484 C -824.37458,-1137.7853 -1064.406,-800.57075 -1186.8421,-421.48627 C -1305.5109,-54.065871 -1313.7055,352.71648 -1185.3408,747.72639 C -953.47896,1461.2226 -305.02822,1987.4236 472.46379,2039.0379 C 475.82478,2039.261 479.26129,2038.1493 481.90042,2035.6556 C 484.50229,2033.1976 485.7848,2029.9281 485.78479,2026.6084 L 485.78417,1775.9413 C 485.78415,1769.3689 480.73734,1763.9113 474.28729,1763.4161 C -134.43979,1716.6796 -648.6558,1327.7258 -876.41896,789.77802 C -888.47543,761.30215 -889.03358,727.55777 -874.85983,697.37802 C -861.10483,668.08961 -836.32786,647.54742 -807.79946,638.25386 L -569.76521,560.71061 C -514.62154,542.74673 -454.42252,569.75583 -431.46796,621.62336 C -289.68352,941.99586 -2.9961531,1184.5364 345.47604,1264.6285 C 352.2006,1266.1741 358.99529,1261.9496 360.48767,1255.2128 C 362.06079,1248.1118 357.67017,1241.802 350.93629,1240.2394 C -26.137709,1152.7384 -329.84854,872.40888 -448.21496,508.20173 C -571.84004,127.81397 -481.6422,-271.01211 -243.93621,-558.0049 C -204.3247,-605.82961 -133.2971,-612.42505 -85.472959,-572.80865 C -37.650099,-533.1933 -31.026834,-462.23904 -70.645209,-414.41977 C -235.12258,-215.89604 -311.114,49.511251 -265.10671,314.52486 C -264.44825,318.31775 -262.60096,321.91711 -259.03108,324.01511 C -255.84058,325.89048 -252.09811,326.17228 -248.83146,325.11136 L -7.7148337,246.80336 C -1.8099161,244.88561 1.4798423,239.34599 0.79341626,233.38536 C -25.172158,7.9114896 73.261291,-213.80139 254.15229,-345.25652 C 396.99517,-449.06177 567.99318,-486.3612 730.03192,-462.59715 C 791.47443,-453.5862 833.90425,-396.30242 824.81017,-334.87014 C 815.71613,-273.43817 758.49535,-231.12914 697.04592,-240.10377 C 591.26298,-255.55326 479.68792,-230.94377 386.43304,-163.18314 C 250.02992,-64.070019 186.50764,115.2037 241.40779,284.17011 C 269.62927,371.02745 328.8234,444.05062 405.85792,490.10623 C 459.15853,521.97237 476.74241,590.95583 444.96454,644.30848 C 413.18616,697.66199 344.06268,715.27904 290.76242,683.41511 C 202.40343,630.59238 128.77412,555.65393 77.506916,466.26236 C 74.622618,461.23318 68.554526,458.64443 62.824916,460.50611 L -178.48871,538.91423 C -181.81563,539.99522 -184.81771,542.51986 -186.29146,545.98998 C -187.77058,549.47261 -187.4523,553.36703 -185.89046,556.51173 C -58.395177,813.21782 191.48704,998.75766 487.28329,1036.1333 C 542.78079,1043.1457 585.75812,1090.4425 585.75692,1147.8104 L 585.75192,1386.3593 C 585.75119,1421.1906 577.85209,1456.9762 550.28642,1482.3643 C 524.83359,1505.8065 491.52289,1514.4141 459.58654,1511.0941 C 7.2721395,1464.0728 -379.29073,1194.9467 -587.41058,813.85877 C -590.7176,807.80329 -598.37133,805.62914 -604.42083,808.94789 C -610.47008,812.26702 -612.66408,819.85339 -609.35683,825.90902 C -376.01583,1253.158 77.480666,1543.2112 598.29492,1543.1843 C 1092.5839,1543.1587 1557.1875,1269.3717 1792.0625,823.70052 C 1821.0156,768.76249 1888.9876,747.48404 1943.9784,776.33477 C 1998.9699,805.18591 2020.3746,872.91907 1991.465,927.87914 C 1737.3419,1410.9935 1251.9955,1721.118 722.32242,1763.2996 C 715.89339,1763.8116 710.84216,1769.1918 710.84217,1775.7523 L 710.84267,2026.4193 C 710.84268,2029.7669 712.15792,2033.1385 714.80367,2035.5923 C 717.41329,2038.015 720.86088,2039.1464 724.15529,2038.9183 C 1454.8257,1988.3346 2117.688,1503.4599 2357.7512,764.49714 C 2595.431,32.870731 2350.1665,-799.65277 1694.3827,-1276.05 C 1113.019,-1698.3843 314.78549,-1741.9375 -317.49046,-1346.1858 C -320.33814,-1344.4034 -322.46108,-1341.4759 -323.13483,-1337.9159 C -323.80071,-1334.3905 -322.94335,-1330.9162 -320.98596,-1328.2228 L -173.59433,-1125.4059 C -169.62346,-1119.9418 -162.65958,-1118.6429 -157.06521,-1122.0478 C 376.60204,-1446.8449 1044.7088,-1408.0781 1532.7341,-1053.5499 C 2012.0612,-705.34064 2232.9994,-133.21475 2156.6393,415.60611 C 2148.0813,477.1145 2091.1655,520.07773 2029.6619,511.49061 C 1968.158,502.90323 1925.2332,446.02194 1933.7774,384.51323 C 1993.467,-45.183938 1839.8349,-491.69981 1499.034,-792.51602 C 1496.4697,-794.77943 1493.0129,-796.00814 1489.3508,-795.58002 C 1485.7453,-795.15864 1482.6598,-793.23621 1480.6803,-790.51127 L 1332.9504,-587.1464 C 1329.1814,-581.95802 1330.0683,-574.81608 1334.6699,-570.56952 C 1602.8074,-323.1197 1716.4025,43.790431 1654.7802,388.78061 C 1649.0945,420.61168 1629.6235,449.65136 1599.2645,466.72948 C 1570.7565,482.76623 1538.2167,485.05043 1509.3655,475.67611 L 1268.5552,397.43198 C 1216.1773,380.41336 1184.8861,328.23413 1191.7698,275.51023 C 1207.0376,158.5705 1185.9068,38.673481 1131.2159,-66.134144 C 1128.0249,-72.249394 1120.3984,-74.751269 1114.3384,-71.453769 C 1107.9647,-67.985519 1105.881,-60.761394 1109.0932,-54.552144 C 1176.4517,75.657481 1190.9272,229.22148 1145.0427,370.46423 C 1102.3153,501.98923 1016.8276,607.81279 908.60992,676.87186 C 856.26175,710.27782 786.59089,694.50789 753.32779,642.06623 C 720.06552,589.62589 735.7523,520.34817 788.06004,486.88373 C 853.58268,444.96492 905.13192,380.62248 931.01779,300.92336 C 963.86079,199.80436 944.74529,87.773981 879.98729,3.0968561 C 850.50729,-35.450894 848.33411,-90.262222 878.29829,-131.51339 L 1029.2312,-339.30014 C 1047.4139,-364.33201 1075.8329,-381.76293 1109.005,-385.09302 C 1146.1499,-388.82193 1180.337,-373.48287 1204.0944,-348.20002 C 1346.4568,-196.69662 1421.4476,1.318356 1421.5172,201.47636 C 1421.5196,208.35886 1427.0764,213.96592 1433.965,213.98186 C 1440.8521,213.9978 1446.5038,208.42786 1446.5076,201.54611 C 1446.6501,-53.759269 1328.7378,-305.54414 1106.5244,-466.95615 C 862.21217,-644.4204 531.64104,-671.24702 258.77279,-525.00927 C 210.08667,-498.91702 148.33823,-512.26824 114.94167,-558.20927 L -33.173334,-761.95952 C -50.763441,-786.15686 -58.65262,-817.30564 -52.660084,-848.99914 C -46.112745,-883.62689 -24.015437,-910.87102 4.4111663,-927.05864 C 362.15344,-1130.7761 786.33554,-1144.9458 1146.5154,-987.90789 C 1203.4403,-963.08877 1229.1823,-896.53439 1204.1804,-839.68964 C 1179.1778,-782.84339 1112.8195,-757.18499 1055.8883,-781.98702 C 800.70607,-893.15699 506.31761,-900.1897 241.71879,-792.77952 C 235.32599,-790.18445 232.23109,-782.82978 234.85092,-776.44602 C 237.47084,-770.06203 244.76866,-767.03385 251.15929,-769.62739 C 540.53991,-887.06785 866.58483,-863.92697 1134.3905,-715.40739 C 1139.8379,-712.38635 1146.8298,-713.81136 1150.5829,-718.97677 L 1298.4354,-922.46614 C 1300.4427,-925.2288 1301.334,-928.85052 1300.5707,-932.45127 C 1299.8112,-936.03514 1297.513,-938.96369 1294.5788,-940.68214 C 862.45901,-1193.7571 302.89754,-1184.1804 -127.94071,-871.13852 C -502.44883,-599.02527 -705.1175,-137.50155 -642.22958,329.41961 C -633.9405,390.9632 -677.01515,447.71669 -738.54783,456.08961 C -800.08165,464.46269 -856.87324,421.32194 -865.18083,359.78348 C -933.65749,-147.45731 -735.00057,-649.96035 -357.49621,-976.05789 C -352.62794,-980.26322 -351.61325,-987.63792 -355.46258,-992.93514 L -502.87921,-1195.8011 C -504.84391,-1198.5048 -507.87846,-1200.4513 -511.45371,-1200.8873 C -515.03033,-1201.324 -518.51187,-1200.1268 -521.06696,-1197.9731 C -1056.928,-746.28536 -1296.2525,1.8578487 -1066.4152,709.10989 C -863.50881,1333.4906 -318.80105,1804.2009 346.50854,1900.195 C 353.33807,1901.1804 359.6673,1896.4124 360.59679,1889.5758 C 361.5678,1882.4339 356.79103,1876.4401 349.98954,1875.4503 C -305.60047,1780.0409 -842.67307,1316.7926 -1042.6696,701.38189 C -1253.5774,52.396186 -1064.2939,-631.17485 -611.04083,-1081.7278 C -566.99866,-1125.5076 -495.69774,-1125.1353 -451.99058,-1081.0204 C -408.28336,-1036.9055 -408.61861,-965.73704 -452.66071,-921.95827 C -819.44874,-557.36329 -987.68585,-17.695396 -862.69108,510.38461 C -861.90948,513.68673 -859.78708,516.62986 -856.58958,518.40486 C -853.43346,520.15586 -849.81863,520.41301 -846.63796,519.37936 L -607.93683,441.80623 C -601.7612,439.79927 -598.25817,433.43634 -599.62283,427.21598 C -697.17217,-17.430413 -542.48263,-469.59231 -219.95233,-763.79039 C -196.48276,-785.19831 -164.18038,-796.62006 -130.20246,-792.37727 C -98.079125,-788.36606 -70.79835,-771.17502 -53.144959,-746.88539 L 95.045416,-542.98752 C 128.31708,-497.20843 122.04029,-434.60177 82.583041,-396.30002 C -63.113709,-254.86989 -149.21584,-59.846267 -153.31208,145.27998 C -153.44984,152.17873 -147.94883,157.94486 -141.04796,157.97223 C -133.81658,158.00136 -128.42764,152.66398 -128.26933,145.69511 C -122.95801,-88.114892 -8.9395837,-308.61202 180.67467,-446.38865 C 415.84092,-617.2639 717.36432,-635.62692 963.90667,-521.7769 C 994.7837,-507.51829 1019.6284,-479.00252 1027.392,-443.23677 C 1034.5248,-410.37664 1026.0561,-377.48037 1007.725,-352.24339 L 857.08579,-144.85414 C 827.58501,-104.23959 775.88551,-89.18441 730.62804,-104.16677 C 642.01263,-133.50266 541.13779,-121.06977 459.91067,-62.051019 C 366.13704,6.0838561 322.54863,129.37883 360.29642,245.54161 C 383.97238,318.40058 440.42422,376.52916 512.03667,402.86623 C 555.07434,418.69428 585.76,460.05286 585.75867,508.55486 L 585.75154,767.96802 C 585.7507,798.62377 573.32411,829.20005 548.83179,851.38389 C 521.10698,876.49555 483.62628,885.04282 449.60392,877.91789 C 278.5464,842.0952 129.48017,745.85589 25.808916,612.60548 C 21.582041,607.17261 13.637411,606.23773 8.1894163,610.45386 C 2.7430368,614.66873 1.6408844,622.54179 5.8642913,627.97586 C 143.09226,804.54107 357.51392,918.10981 598.29317,918.09764 C 832.37092,918.08581 1054.0361,803.62079 1189.6833,612.49123 C 1225.6249,561.84888 1295.8742,549.95378 1346.5128,585.90298 C 1397.1497,621.85103 1409.1078,692.15227 1373.1633,742.79377 C 1219.5356,959.23705 981.39517,1100.5562 721.66554,1134.9198 C 715.5403,1135.7302 710.83906,1140.9119 710.83929,1147.2561 L 710.84829,1399.035 C 710.84841,1402.4418 712.21367,1405.8645 714.93354,1408.3305 C 717.67129,1410.8118 721.23445,1411.8016 724.64192,1411.4438 C 1155.1527,1366.233 1544.2762,1093.4634 1722.958,678.64511 C 1745.6726,625.91204 1805.3384,598.17107 1861.0234,616.26423 L 2099.6792,693.80823 C 2128.0155,703.01526 2152.6671,723.40313 2166.4843,752.39789 C 2180.8037,782.44638 2180.5775,815.66172 2168.7375,844.18827 C 1934.5939,1408.3196 1422.4079,1788.533 846.43767,1874.5598 C 839.61392,1875.579 834.97292,1882.0109 836.00879,1888.8325 C 837.04667,1895.6545 843.40809,1900.3011 850.23242,1899.2864 C 1477.4199,1806.0279 2029.7797,1369.4848 2238.8753,725.85139 C 2460.2803,44.326856 2231.7877,-731.18639 1620.8413,-1174.858 C 1115.4927,-1541.8444 433.63642,-1600.9954 -133.42083,-1307.4483 C -139.54796,-1304.2765 -142.12558,-1296.6813 -138.90108,-1290.5819 C -135.52371,-1284.1933 -128.07583,-1282.0729 -121.94921,-1285.2381 C 437.05992,-1574.0381 1108.3394,-1516.2785 1606.208,-1154.6611 C 2169.0269,-745.86827 2401.7835,-48.876368 2251.4153,588.59473 C 2244.3356,618.60864 2224.9863,645.69097 2195.813,661.62761 C 2167.5388,677.0731 2135.5361,679.13125 2107.1194,669.89811 L 1868.3152,592.30586 C 1812.6924,574.23292 1781.148,515.837 1793.4757,459.84461 C 1875.4034,87.729121 1775.8217,-310.34748 1515.6995,-600.34327 C 1511.0922,-605.47974 1503.1951,-605.91907 1498.0644,-601.30877 C 1492.9318,-596.69682 1492.5296,-588.79732 1497.136,-583.66177 C 1777.679,-270.88919 1867.6395,169.13573 1739.4962,563.59336 C 1605.3235,976.61027 1268.0537,1267.3135 874.04892,1360.6753 C 813.62153,1374.9939 752.98315,1337.3427 738.78992,1276.8864 C 724.59678,1216.4305 762.21691,1155.9004 822.64017,1141.565 C 1103.7182,1074.8796 1349.2971,884.52428 1478.7891,612.00123 C 1480.2946,608.83275 1480.3995,605.09836 1478.871,601.63648 C 1477.3759,598.25136 1474.5253,595.78801 1471.2585,594.72711 L 1230.7703,516.62873 C 1224.7484,514.67311 1218.7632,517.27973 1215.8692,522.67148 C 1117.8102,705.36564 945.7661,831.55096 750.61992,876.04039 C 715.73335,883.99383 677.6749,876.70221 648.85279,851.23002 C 623.72253,829.02058 610.86593,798.05027 610.85742,766.92502 L 610.75867,405.69911 C 610.75678,398.79923 605.21092,393.19376 598.31079,393.19373 C 498.37554,393.19326 413.38892,328.02786 384.07892,237.82573 C 349.76642,132.22848 389.33904,20.129356 474.59129,-41.817019 C 573.40479,-113.61727 704.12442,-110.28964 797.90392,-42.159019 C 905.70279,36.156481 946.30929,172.93323 907.24142,293.19798 C 876.21567,388.70611 805.25238,460.11521 718.69542,494.69848 C 714.09051,496.53834 710.81587,501.05036 710.81592,506.30836 L 710.81817,766.95664 C 710.8182,770.61189 712.45529,774.15289 715.52379,776.61814 C 718.59367,779.08489 722.4745,779.91364 726.04292,779.13227 C 894.59063,742.22589 1043.5473,633.44189 1127.5718,475.74561 C 1152.7892,428.41777 1208.9438,404.3408 1261.684,421.48611 L 1501.9996,499.61036 C 1530.9558,509.02374 1556.2073,530.16973 1569.807,560.04536 C 1584.1097,591.46523 1582.5095,626.55165 1568.7403,655.48036 C 1425.8773,955.63081 1155.2132,1165.2982 845.50367,1238.9431 C 838.79212,1240.539 834.55392,1247.2933 836.13092,1254.0108 C 837.70867,1260.7281 844.50065,1264.9393 851.21067,1263.3464 C 1212.3156,1177.6228 1521.409,911.26489 1644.3845,532.71011 C 1761.6003,171.88548 1679.3069,-230.66506 1422.7104,-516.78577 C 1381.2509,-563.01569 1385.0479,-634.17966 1431.2508,-675.67315 C 1477.4547,-717.16753 1548.6378,-713.40237 1590.113,-667.18202 C 1872.5262,-352.4585 1980.3184,78.764979 1890.8543,482.61311 C 1889.4774,488.82873 1893.0404,495.19338 1899.2168,497.20023 L 2137.9839,574.78036 C 2141.1875,575.82126 2144.7933,575.57086 2147.9578,573.79048 C 2151.1219,572.01148 2153.1976,569.04128 2153.9745,565.76486 C 2296.2139,-34.135723 2077.1219,-688.96864 1547.4165,-1073.772 C 1079.6714,-1413.5648 448.86389,-1468.56 -76.062834,-1196.3979 C -131.19261,-1167.8144 -199.15625,-1189.4105 -227.70333,-1244.5598 C -256.25063,-1299.7095 -234.66927,-1367.6126 -179.54121,-1396.2004 C 421.61461,-1707.9427 1144.0248,-1644.9784 1679.7002,-1255.828 C 2326.496,-785.95227 2568.4195,35.160981 2333.9934,756.77777 C 2112.5624,1438.3926 1529.5616,1899.9222 865.25092,1998.1818 C 803.81981,2007.2682 746.45977,1965.333 737.12654,1903.9374 C 727.7934,1842.5424 770.00868,1784.9014 831.43229,1775.7509 C 1373.9234,1694.934 1856.2884,1337.3087 2076.4269,805.56952 C 2077.72,802.44609 2077.7527,798.78314 2076.2144,795.47864 C 2074.6933,792.21239 2071.918,789.93427 2068.7403,788.90177 L 1830.0845,711.35777 C 1823.8956,709.34689 1817.2104,712.44004 1814.6837,718.30602 C 1621.3603,1167.1213 1201,1462.1298 735.19317,1510.9413 C 703.72212,1514.2391 671.0573,1504.3751 646.22192,1481.006 C 622.71855,1458.8902 610.8508,1429.049 610.85117,1399.1146 L 610.85429,1147.2986 C 610.855,1090.2281 653.40761,1043.0621 708.49817,1035.7634 C 940.80086,1004.9866 1154.2343,878.47514 1291.6385,684.88411 C 1295.6327,679.25673 1294.3224,671.45973 1288.6533,667.52598 C 1282.742,663.42423 1275.3115,664.78873 1271.2823,670.42498 C 1116.3594,887.13252 864.54292,1017.9811 598.29854,1018.0704 C 325.36254,1018.1619 82.214175,889.40521 -73.249209,689.18023 C -111.3342,640.12967 -102.22005,569.35243 -53.101209,531.35361 C -3.9831815,493.35543 66.618254,502.49435 104.71317,551.53861 C 194.07288,666.58235 322.90366,749.4582 470.68942,780.15677 C 474.31104,780.90907 478.27537,780.05133 481.32992,777.49414 C 484.27412,775.02933 485.76619,771.44989 485.76579,767.88702 L 485.73679,508.58536 C 485.73618,503.15698 482.59627,498.68323 477.64292,496.83723 C 377.5214,459.52435 298.36104,378.44848 265.20254,276.41711 C 213.72654,118.02148 273.24592,-50.051394 401.11979,-142.96764 C 509.38892,-221.63864 643.91267,-238.16552 762.04992,-199.10339 C 767.07779,-197.44089 772.88286,-199.08402 776.16004,-203.59589 L 927.54504,-412.01627 C 929.70857,-414.99493 930.57142,-418.89927 929.50217,-422.71639 C 928.47779,-426.37052 925.87595,-429.19175 922.68454,-430.68177 C 707.40258,-531.19375 445.15379,-514.96102 239.45292,-365.49652 C 75.157666,-246.11789 -24.333916,-55.131052 -28.344834,147.48136 C -29.573916,209.5687 -80.720201,259.05666 -142.80908,257.94611 C -204.8997,256.83553 -254.52005,205.55748 -253.31108,143.46973 C -248.80242,-88.077396 -151.75271,-308.26303 12.689791,-467.88615 C 17.086534,-472.15404 17.801195,-479.13001 14.097541,-484.22752 L -133.99346,-688.05189 C -136.00357,-690.81849 -139.17358,-692.80889 -142.84008,-693.18539 C -146.52983,-693.56402 -150.02051,-692.25697 -152.56196,-689.93689 C -449.05776,-419.2661 -591.68036,-3.0084041 -501.93621,405.93136 C -489.68623,461.75122 -521.58731,518.91088 -577.07333,536.93711 L -815.81158,614.49811 C -844.25515,623.73882 -876.37221,621.65411 -904.65583,606.16723 C -933.74196,590.24086 -953.29657,562.65048 -960.34496,532.70673 C -1092.6487,-29.360643 -913.51088,-604.33507 -523.22808,-992.85989 C -518.33826,-997.72769 -518.18608,-1005.7245 -523.04183,-1010.6249 C -527.89796,-1015.5268 -535.79046,-1015.5534 -540.68233,-1010.6886 C -967.92383,-585.80934 -1146.3664,58.610215 -947.52671,670.48123 C -759.15603,1250.1368 -253.57629,1687.2578 364.06117,1776.3959 C 425.52458,1785.2664 468.3768,1842.2018 459.63917,1903.6845 C 450.90155,1965.1671 393.91421,2008.0611 332.44904,1999.2123 C -371.04316,1897.9342 -946.97758,1400.1441 -1161.509,739.98552 C -1403.96,-6.0875188 -1152.1943,-793.98586 -588.42208,-1272.0615 C -564.16179,-1292.6341 -532.34946,-1304.5871 -498.35921,-1300.0949 C -466.53183,-1295.8889 -439.51706,-1278.7666 -422.01871,-1254.6719 L -274.60108,-1051.6823 C -240.01509,-1004.0584 -248.56502,-937.994 -292.31421,-900.21114 C -644.72752,-595.85851 -829.98744,-127.14419 -766.17483,346.32061 C -765.25319,353.15881 -758.90971,357.95136 -752.07296,357.02236 C -745.23558,356.09223 -740.42508,349.80516 -741.34608,342.96973 C -809.20545,-160.66446 -590.67558,-658.58052 -186.74383,-952.07989 C 276.90004,-1288.9666 879.1248,-1299.3353 1344.3579,-1027.3953 C 1371.9229,-1011.2829 1393.1726,-983.2568 1399.1428,-949.38189 C 1404.6565,-918.09755 1396.4579,-887.25997 1379.141,-863.42614 L 1231.5087,-660.23502 C 1197.7649,-613.79235 1135.0101,-600.67281 1086.0632,-627.85315 C 844.37002,-762.06593 550.33672,-783.14387 289.16742,-677.14502 C 252.30547,-662.18413 212.14142,-667.97811 181.81479,-689.18952 C 164.80229,-701.0886 150.85636,-717.82935 142.38054,-738.47502 C 118.79636,-795.9221 146.19015,-861.86296 203.71054,-885.26189 C 493.70577,-1003.2301 816.31257,-995.3603 1096.1184,-873.56877 C 1102.4457,-870.81468 1109.8583,-873.59064 1112.6357,-879.90777 C 1115.4138,-886.22327 1112.537,-893.66101 1106.2104,-896.41202 C 773.50599,-1041.0838 381.39312,-1028.1358 51.712916,-838.90852 C 48.735375,-837.19949 46.450916,-834.30539 45.672916,-830.68489 C 44.896541,-827.06627 45.819245,-823.4356 47.836666,-820.65827 L 195.80329,-616.95652 C 199.62379,-611.6969 206.24167,-610.36627 211.79079,-613.3224 C 518.90779,-776.93027 890.54017,-747.36439 1165.3099,-547.82652 C 1414.504,-366.86164 1546.8778,-84.484269 1546.6245,201.79273 z"
       id="path10105"
       sodipodi:nodetypes="csssssssssssssssssssssssssssssssssssssssssssssssssssssssssssssssssssssssssssssssssssssssssssssssssssssssssssssssssssssssssssssssssssssssssssssssssssssssssssssssssssssssssssssssssssssssssssssssssssssssssssssssssssssssssssssssssssssssssssssssssssssssssssssssssssssssssssssssssssssssssssssssssssssssssssssssssssssssssssssssssssssssssssssssssssssssssssssssssssssssssssssssssssssssssssssssssssssssssssssssssssss" />
  </g>
</svg>
